<svg width="316" height="216" viewBox="0 0 316 216" fill="none" xmlns="http://www.w3.org/2000/svg">
<g filter="url(#filter0_b_268_377)">
<path d="M259.321 60.9877C249.402 63.4838 240.294 68.1969 231.57 73.6489C231.624 36.3224 232.628 5.20389 235.389 1.48929C234.199 -0.115571 5.01119 -0.115571 3.82094 1.48929C-3.43902 11.2849 1.4489 210.75 3.82094 213.85C4.74888 215.066 49.7894 215.743 99.9012 215.884C93.2815 205.716 87.3246 195.114 84.4082 183.389C76.9452 153.384 99.1735 125.913 129.875 126.652C149.508 127.123 164.003 137.412 167.664 157.618C169.81 169.464 167.466 181.778 163.021 192.959C159.84 200.966 155.617 208.488 151.113 215.841C196.283 215.636 234.535 214.97 235.389 213.853C234.366 212.516 232.871 174.541 232.089 131.038C237.807 134.408 243.668 137.505 249.816 139.979C260.921 144.441 273.15 146.796 284.915 144.641C304.982 140.963 315.201 126.401 315.669 106.674C316.403 75.8207 289.12 53.4908 259.321 60.9877Z" fill="#F71010" fill-opacity="0.2"/>
<path d="M231.07 73.6482L231.069 74.5518L231.835 74.0729C240.539 68.6333 249.596 63.9505 259.443 61.4726C288.912 54.0587 315.895 76.1296 315.169 106.662C314.937 116.444 312.289 124.905 307.247 131.368C302.21 137.826 294.753 142.329 284.824 144.149C273.182 146.281 261.052 143.954 250.003 139.515C243.885 137.054 238.048 133.97 232.343 130.607L231.573 130.153L231.59 131.047C231.98 152.801 232.549 173.174 233.149 188.278C233.449 195.829 233.756 202.066 234.053 206.5C234.201 208.717 234.347 210.488 234.489 211.751C234.56 212.381 234.63 212.892 234.701 213.272C234.72 213.374 234.739 213.468 234.759 213.555C234.741 213.559 234.722 213.563 234.702 213.566C234.386 213.628 233.927 213.691 233.324 213.753C232.121 213.877 230.391 213.995 228.188 214.107C223.783 214.329 217.515 214.523 209.859 214.689C194.75 215.016 174.246 215.233 152.007 215.337C156.341 208.217 160.399 200.912 163.486 193.143C167.953 181.908 170.324 169.496 168.156 157.529C166.306 147.321 161.711 139.583 155.069 134.342C148.43 129.104 139.786 126.389 129.887 126.152C98.8573 125.405 76.3799 153.183 83.923 183.509C86.7854 195.017 92.5519 205.434 98.9792 215.381C74.2641 215.308 50.8461 215.105 33.4267 214.77C24.6079 214.601 17.3302 214.398 12.201 214.161C9.63526 214.043 7.61373 213.917 6.20787 213.783C5.50336 213.716 4.96416 213.648 4.59215 213.58C4.41749 213.548 4.29169 213.518 4.20784 213.492C4.20282 213.476 4.19716 213.456 4.19096 213.433C4.15857 213.312 4.12283 213.14 4.08475 212.913C4.00885 212.461 3.92953 211.825 3.84777 211.012C3.68445 209.388 3.51435 207.09 3.34124 204.207C2.99511 198.443 2.63812 190.364 2.299 180.721C1.62077 161.436 1.01436 135.91 0.708906 110.175C0.403442 84.4382 0.399021 58.497 0.924407 38.3803C1.18713 28.3209 1.58216 19.7254 2.13737 13.3428C2.41506 10.1504 2.73202 7.5214 3.09046 5.54358C3.26974 4.55437 3.45781 3.73706 3.65354 3.09794C3.82292 2.5449 3.98951 2.15453 4.14332 1.90495C4.25021 1.88515 4.41272 1.86349 4.63649 1.84104C5.09247 1.79529 5.75989 1.75032 6.62976 1.70656C8.36722 1.61913 10.8854 1.53776 14.0758 1.46256C20.4553 1.31219 29.5074 1.18683 40.3429 1.08653C62.0132 0.885946 90.8088 0.785645 119.605 0.785645C148.402 0.785645 177.197 0.885946 198.867 1.08653C209.703 1.18683 218.755 1.31219 225.135 1.46256C228.325 1.53776 230.843 1.61913 232.581 1.70656C233.45 1.75032 234.118 1.79529 234.574 1.84104C234.589 1.84252 234.603 1.84399 234.617 1.84546C234.366 2.40289 234.147 3.14058 233.947 4.01423C233.65 5.31767 233.382 7.00306 233.139 9.02266C232.653 13.0634 232.267 18.482 231.965 24.9413C231.362 37.8623 231.097 54.9823 231.07 73.6482Z" stroke="white" stroke-opacity="0.5"/>
</g>
<g opacity="0.7">
<path d="M40.7442 55.2582C40.5511 54.8643 40.4064 54.5588 40.2536 54.2533C39.9962 53.7388 40.141 53.3128 40.4948 52.9028C40.9694 52.348 41.4197 51.7772 41.854 51.2467C41.2106 49.6067 40.5914 48.0631 40.0123 46.5115C39.1035 44.0917 38.8059 41.5594 38.7818 38.9948C38.7496 34.935 40.2616 31.438 42.8513 28.3911C45.3124 25.4969 48.1112 22.9646 51.3203 20.9065C53.154 19.7248 55.229 19.3148 57.3362 19.1138C59.7731 18.8887 62.2422 18.5993 64.6711 18.7279C67.9283 18.8967 71.0328 19.7569 73.8317 21.6461C77.676 24.2428 80.2738 27.8283 82.2845 31.8721C83.1129 33.5362 83.8046 35.3289 84.1584 37.1458C84.5445 39.1235 84.3032 41.1654 83.4507 43.0707C82.7751 44.5982 82.1397 46.1417 81.5204 47.6853C80.2819 50.7643 78.1908 53.1841 75.7297 55.3628C73.6467 57.2118 71.25 58.5383 68.7809 59.7763C66.6254 60.8616 64.3413 61.352 61.9768 61.5851C60.9473 61.6896 59.9179 61.7861 58.8884 61.7942C56.2263 61.8344 53.9422 60.6446 51.6661 59.4708C51.4489 59.3583 51.2479 59.2055 51.0307 59.0849C49.5187 58.2247 49.5026 58.2087 48.1434 59.4467C47.508 60.0255 46.8244 60.3471 45.996 59.9612C45.2078 59.5914 44.6851 59.9451 44.1945 60.4918C42.4009 62.4534 40.5994 64.3989 38.8139 66.3765C36.4092 69.0375 34.109 71.795 31.6157 74.3676C29.1869 76.8678 26.9188 79.5448 24.0798 81.6189C23.6455 81.9405 23.2031 82.2621 22.7527 82.5596C20.2997 84.1272 17.2515 83.1303 16.2301 80.397C15.9728 79.7137 15.7878 78.9821 15.6832 78.2585C15.6269 77.8485 15.6671 77.334 15.8763 76.9883C16.6805 75.6458 17.5572 74.3515 18.7636 73.3144C22.4873 70.1148 26.1467 66.8348 30.0876 63.8844C31.5031 62.8232 32.7739 61.5771 34.1572 60.4757C36.1518 58.884 38.1946 57.3404 40.2133 55.7647C40.3742 55.6441 40.5029 55.4914 40.7442 55.2582ZM79.18 29.5889C78.3677 28.4715 77.6519 27.2817 76.7351 26.2607C73.5743 22.7395 69.6334 20.6252 64.8882 20.3599C62.202 20.2071 59.4675 20.2956 56.7893 20.5689C54.3282 20.8181 51.9717 21.6461 50.0334 23.3022C48.3927 24.7091 46.744 26.116 45.2159 27.6515C41.4921 31.3817 39.771 35.8354 40.4385 41.1735C40.8728 44.6625 42.1677 47.8139 43.7521 50.901C44.3634 52.0827 45.2159 52.9751 46.2936 53.7147C47.307 54.4141 48.3203 55.1135 49.2694 55.8853C51.4409 57.6539 53.9502 58.7714 56.5399 59.712C57.2638 59.9773 58.0922 60.122 58.8562 60.0818C60.5211 60.0094 62.202 59.8808 63.8427 59.5914C67.1562 59.0045 70.0597 57.4047 72.7861 55.5316C75.6091 53.5861 78.0299 51.1663 79.5339 48.039C80.6197 45.788 81.5687 43.4486 82.3086 41.0609C82.6786 39.847 82.7349 38.3758 82.4293 37.1458C81.7617 34.4687 80.7484 31.8962 79.18 29.5889ZM48.071 57.3324C47.9906 57.1716 47.9745 57.059 47.9021 57.0028C46.2534 55.6924 44.6046 54.382 42.9318 53.0877C42.795 52.9831 42.5216 53.0555 42.1114 53.0314C43.1087 54.8804 43.8406 56.6008 45.4169 57.8389C46.7922 58.9242 46.8485 58.9965 47.9584 57.67C48.0147 57.6057 48.0147 57.4932 48.071 57.3324ZM30.1439 66.1354C28.8008 66.7061 22.431 71.9879 21.4659 73.4109C24.9886 71.5538 27.3692 68.6034 30.1439 66.1354ZM21.2246 76.9401C20.6858 77.4948 20.2836 78.0495 20.6858 78.757C20.7823 78.9338 21.3131 79.0142 21.5705 78.9258C21.8841 78.8132 22.2943 78.5158 22.3506 78.2344C22.5114 77.4144 21.7876 77.2697 21.2246 76.9401Z" fill="#EDF8E6"/>
<path d="M46.2942 47.9668C45.5864 46.5198 44.6776 45.129 44.2272 43.6096C43.4632 41.0531 43.4471 38.5046 44.3961 35.8517C45.3371 33.2309 47.01 31.1246 48.5461 28.946C49.4952 27.6034 51.0876 26.6628 52.5272 25.7383C55.0205 24.1385 57.8113 23.0854 60.7468 22.7718C64.0604 22.4101 67.2775 22.8201 70.2452 24.6932C73.1406 26.5181 75.4971 28.7932 77.1539 31.7677C77.5238 32.435 77.6445 33.247 77.8375 33.9946C77.9581 34.4689 77.9581 34.9754 78.0868 35.4497C79.068 39.0031 78.6418 42.3796 77.1458 45.748C75.859 48.6502 73.8322 50.9655 71.6527 53.1361C69.7948 54.9931 67.2292 55.6443 64.736 56.2231C59.5726 57.421 55.0607 55.4433 50.7257 53.0637C49.0608 52.1473 47.9108 50.4992 46.9858 48.7868C46.825 48.4813 46.6722 48.1759 46.5194 47.8623C46.4389 47.9025 46.3666 47.9347 46.2942 47.9668ZM47.5247 45.7561C48.1601 47.0182 48.5702 48.1196 49.2297 49.0521C50.3798 50.6841 51.924 51.8578 53.7819 52.702C56.0982 53.7471 58.511 54.5269 60.9881 54.7761C64.1569 55.0896 67.0684 53.8596 69.8431 52.4206C70.3015 52.1794 70.6876 51.7453 71.0334 51.3353C71.8698 50.3706 72.6258 49.3335 73.4864 48.3849C75.2638 46.4233 76.1244 44.0357 76.7276 41.5354C76.8402 41.0852 76.808 40.5948 76.8482 40.0803C76.4542 40.0482 76.2129 40.008 75.9716 40.008C70.7519 40.0401 65.5403 40.0482 60.3286 40.1286C57.5217 40.1768 54.7229 40.3376 51.924 40.4823C51.2324 40.5144 50.8061 40.3135 50.5809 39.4292C51.2806 39.2603 51.916 38.987 52.5594 38.979C58.4064 38.8664 64.2534 38.7699 70.1004 38.7458C72.3524 38.7378 74.6124 38.9307 77.0332 39.0352C76.7678 37.7248 76.5104 36.4466 76.2289 35.0638C73.7196 35.0638 71.3149 35.0397 68.9101 35.0719C67.5831 35.088 66.2561 35.305 64.929 35.2729C60.6423 35.1603 56.3636 35.1362 52.0929 35.6025C51.0233 35.7231 49.9295 35.7311 48.8517 35.7311C48.1762 35.7311 47.7418 35.4015 47.8705 34.4046C48.6989 34.3403 49.5595 34.2921 50.4201 34.2197C54.4494 33.866 58.4788 33.7615 62.5162 33.9464C63.8835 34.0107 65.2748 34.1393 66.6341 34.0107C69.4329 33.7293 72.2076 33.7534 74.9823 34.2438C75.3523 34.3082 75.7303 34.3082 76.3576 34.3564C76.0037 33.5283 75.8027 32.8772 75.4649 32.2983C73.9288 29.7177 71.8779 27.6677 69.264 26.1242C65.9906 24.1948 62.5725 24.0822 59.0096 24.9263C58.7683 24.9826 58.5431 25.0711 58.3099 25.1514C57.5298 25.4409 56.7496 25.7383 55.9615 26.0277C53.8382 26.7995 51.9723 27.9732 50.5487 29.7338C49.5032 31.0362 48.4416 32.3546 47.6051 33.7936C46.825 35.1362 46.1735 36.5913 45.7553 38.0866C45.2325 39.9195 45.7553 41.7927 46.1092 43.6256C46.1494 43.8427 46.3424 44.0356 46.4711 44.2286C48.3209 44.1402 50.1144 44.0357 51.916 43.9713C55.1572 43.8507 58.3984 43.7543 61.6476 43.6417C62.669 43.6096 63.6904 43.5051 64.7119 43.5131C66.7708 43.5372 68.8297 43.6096 70.8886 43.69C71.1621 43.698 71.4355 43.9231 71.7009 44.0437C71.6848 44.1482 71.6688 44.2607 71.6527 44.3653C63.6663 44.8396 55.696 45.1611 47.5247 45.7561Z" fill="#EDF8E6"/>
<path d="M68.0591 29.8221C66.9653 29.9588 65.8715 30.1196 64.7696 30.216C62.1236 30.4572 59.4856 30.6823 56.8396 30.8592C56.349 30.8913 55.8181 30.6984 55.3517 30.4894C55.1908 30.417 55.0702 29.9427 55.1506 29.7337C55.223 29.5488 55.5849 29.3799 55.8262 29.3639C57.5875 29.2433 59.3408 29.0986 61.1022 29.0825C63.145 29.0584 65.1959 29.1629 67.2387 29.2031C67.5282 29.2111 67.8258 29.1548 68.1154 29.1227C68.1073 29.3639 68.0832 29.597 68.0591 29.8221Z" fill="#EDF8E6"/>
<path d="M56.041 49.3414C55.7032 48.4651 56.1858 48.1355 56.797 47.9667C57.545 47.7496 58.3171 47.5728 59.0892 47.4763C61.2687 47.2029 63.4322 46.6804 65.6439 47.002C66.0461 47.0582 66.4321 47.1788 67.0353 47.3075C65.6198 48.0953 57.7058 49.5102 56.041 49.3414Z" fill="#EDF8E6"/>
</g>
<path d="M23.4351 107.021C23.5336 107.28 23.5829 107.502 23.5829 107.699C23.5829 108.019 23.4474 108.302 23.1763 108.549C22.9052 108.795 22.7203 108.906 22.6218 108.881C21.8331 108.734 21.3279 108.105 21.1184 106.972C20.8966 105.753 20.6255 104.718 20.3174 103.905C19.7629 103.954 19.2207 104.004 18.6662 104.053C18.0377 104.139 17.5448 104.324 17.1875 104.632C17.0149 105.137 16.7808 106.024 16.4851 107.292C16.214 108.475 15.9429 109.362 15.6841 109.978C15.5609 110.273 15.2774 110.347 14.8585 110.224C14.3286 110.052 14.0452 109.805 14.0082 109.497C13.9589 108.881 14.1314 108.056 14.5381 107.034C15.0187 105.851 15.2898 105.014 15.3391 104.521C15.3514 104.373 15.2528 104.213 15.0187 104.041C14.7968 103.868 14.6859 103.733 14.6859 103.634C14.6859 103.548 14.7229 103.474 14.7968 103.375C14.8708 103.277 15.0433 103.215 15.3021 103.154C15.5732 103.092 15.721 103.018 15.7457 102.895C16.0414 102.094 16.4974 100.592 17.1258 98.3992C17.6557 96.5023 18.1363 95.0366 18.5553 94.0265C18.6539 93.8048 18.851 93.694 19.1591 93.694C19.3809 93.694 19.5904 93.7679 19.7629 93.9157C20.2188 94.2975 20.5023 94.8888 20.6378 95.6524C20.7364 96.3176 20.8226 96.9704 20.9089 97.6355C21.7345 101.417 22.5725 104.558 23.4351 107.021ZM19.9108 102.402C19.8615 101.811 19.7506 101.134 19.5904 100.395C19.4302 99.7541 19.27 99.1013 19.1344 98.4608C18.6538 99.8034 18.2349 101.134 17.8775 102.476C18.1363 102.427 18.814 102.402 19.9108 102.402Z" fill="#EDF8E6" fill-opacity="0.5"/>
<path d="M20.8724 107.017L20.8725 107.018C20.9819 107.609 21.1723 108.092 21.4569 108.451C21.7444 108.815 22.1193 109.04 22.5702 109.126C22.6511 109.144 22.7266 109.131 22.7846 109.114C22.8462 109.095 22.9063 109.065 22.9629 109.031C23.0759 108.963 23.2039 108.862 23.3444 108.734C23.6594 108.448 23.8329 108.1 23.8329 107.699C23.8329 107.462 23.7741 107.21 23.6699 106.936C22.8132 104.488 21.9789 101.363 21.1554 97.5927C21.0696 96.931 20.9835 96.2798 20.8851 95.6158L20.8852 95.6158L20.884 95.6088C20.7425 94.8116 20.4404 94.1576 19.9245 93.7249C19.7054 93.5376 19.4381 93.444 19.1591 93.444C18.9765 93.444 18.8052 93.4767 18.6575 93.5584C18.5061 93.6422 18.3964 93.7685 18.3268 93.925L18.3268 93.9249L18.3244 93.9307C17.8997 94.9543 17.4161 96.431 16.8853 98.3311C16.2564 100.525 15.8031 102.018 15.5112 102.808L15.5061 102.822C15.503 102.824 15.499 102.827 15.4938 102.83C15.452 102.853 15.3758 102.881 15.2467 102.91L15.2467 102.91L15.2442 102.911C15.1114 102.942 14.9876 102.977 14.8837 103.02C14.7829 103.062 14.6731 103.124 14.5969 103.225C14.5137 103.336 14.4359 103.465 14.4359 103.634C14.4359 103.771 14.509 103.887 14.5757 103.968C14.6479 104.056 14.7473 104.146 14.8652 104.238L14.8652 104.238L14.8704 104.242C15.0879 104.402 15.0909 104.489 15.0899 104.5L15.3391 104.521L15.0903 104.496C15.0451 104.948 14.7885 105.754 14.3065 106.94L14.3058 106.941C13.8937 107.977 13.7052 108.845 13.759 109.517L13.7588 109.517L13.76 109.527C13.8156 109.99 14.2325 110.283 14.7811 110.462L14.7811 110.462L14.788 110.464C15.0196 110.532 15.2483 110.557 15.4515 110.498C15.6687 110.435 15.8262 110.286 15.9146 110.075C16.1812 109.44 16.456 108.538 16.7286 107.349C17.0115 106.135 17.2357 105.281 17.4017 104.779C17.7056 104.538 18.1287 104.38 18.6943 104.301C18.969 104.277 19.2407 104.253 19.5123 104.228L19.5142 104.228C19.7254 104.209 19.9365 104.19 20.149 104.171C20.4234 104.938 20.6684 105.895 20.8724 107.017ZM19.0823 99.3688C19.1678 99.7315 19.2575 100.094 19.3469 100.451C19.481 101.071 19.5793 101.642 19.6354 102.153C19.0182 102.155 18.5418 102.167 18.2142 102.189C18.4729 101.247 18.7622 100.31 19.0823 99.3688Z" stroke="#EDF8E6" stroke-opacity="0.2" stroke-width="0.5"/>
<path d="M39.3951 93.5338C39.1733 95.6894 38.9515 97.8696 38.742 100.037C38.4709 102.612 38.3354 104.767 38.3354 106.492C38.3354 107.058 38.3477 107.613 38.3847 108.167C38.397 108.426 38.3107 108.647 38.1012 108.844C37.9041 109.042 37.6699 109.14 37.4112 109.14C36.9059 109.14 36.487 108.808 36.1543 108.13C35.1191 106.11 33.8376 102.957 32.3096 98.6456C32.2726 98.547 32.2356 98.4978 32.1863 98.4978C32.0754 98.4978 32.0015 98.6086 31.9645 98.8303C31.6934 101.134 31.5579 103.56 31.5579 106.11C31.5579 107.342 31.5949 108.586 31.6565 109.854C31.6688 110.323 31.5332 110.643 31.2498 110.828C31.1389 110.938 31.0157 111 30.8925 111C30.7816 111 30.6337 110.951 30.4612 110.852C30.2147 110.741 30.0668 110.667 30.0052 110.63C29.7957 110.569 29.6725 110.372 29.6232 110.052C29.6109 109.793 29.5863 109.534 29.5739 109.251C29.5246 108.352 29.5 107.403 29.5 106.418C29.5 104.706 29.5986 102.575 29.7957 100.013C30.1038 96.1082 30.2763 93.9526 30.301 93.5338C30.3133 93.1766 30.609 93.0042 31.2005 93.0042C31.4716 92.9672 31.8783 93.1766 32.4082 93.6077C32.9257 94.5931 33.5665 96.1821 34.3182 98.3992C35.0452 100.518 35.7106 102.119 36.3021 103.215C36.5486 101.072 36.9183 97.8326 37.4358 93.4969C37.4851 93.1766 37.7192 93.0165 38.1382 93.0165C38.2861 93.0165 38.4586 93.0411 38.6434 93.0904C38.9022 93.152 39.0501 93.2013 39.0994 93.2136C39.2349 93.2505 39.3458 93.3614 39.3951 93.5338Z" fill="#EDF8E6" fill-opacity="0.5"/>
<path d="M39.6438 93.5594L39.6487 93.5115L39.6355 93.4651C39.566 93.222 39.3977 93.0358 39.1651 92.9724L39.1651 92.9723L39.16 92.971C39.15 92.9686 39.1364 92.9645 39.1144 92.958C39.0924 92.9515 39.062 92.9425 39.0186 92.9301C38.9409 92.9079 38.8367 92.8795 38.7045 92.848C38.5047 92.7949 38.3114 92.7665 38.1382 92.7665C37.9011 92.7665 37.6814 92.8112 37.5072 92.9302C37.3248 93.0551 37.2222 93.2411 37.1887 93.4589L37.1886 93.4588L37.1876 93.4673C36.7328 97.2771 36.3922 100.241 36.149 102.358C35.6627 101.335 35.1291 99.9921 34.5548 98.3185C33.8021 96.0983 33.1563 94.4946 32.6295 93.4915L32.6057 93.4462L32.5659 93.4138C32.2938 93.1924 32.044 93.0201 31.8198 92.9072C31.6073 92.8002 31.3895 92.7319 31.1852 92.7542C30.8795 92.7556 30.61 92.8002 30.4069 92.9195C30.1817 93.0518 30.0611 93.2629 30.0512 93.5219C30.0313 93.8581 29.9181 95.2901 29.7175 97.8287C29.6662 98.4778 29.6092 99.1992 29.5465 99.9931L29.5465 99.9936C29.349 102.559 29.25 104.697 29.25 106.418C29.25 107.407 29.2747 108.359 29.3242 109.263C29.3306 109.408 29.34 109.546 29.3492 109.678L29.351 109.703C29.3596 109.827 29.3679 109.945 29.3735 110.063L29.3741 110.077L29.3761 110.09C29.4291 110.434 29.5754 110.748 29.9034 110.86C29.9859 110.907 30.1339 110.979 30.3479 111.075C30.5317 111.179 30.7209 111.25 30.8925 111.25C31.0931 111.25 31.2693 111.154 31.4079 111.023C31.7737 110.772 31.9198 110.357 31.9064 109.848H31.9064L31.9062 109.842C31.8447 108.577 31.8079 107.337 31.8079 106.11C31.8079 103.641 31.9354 101.29 32.1901 99.0559C33.6676 103.202 34.9146 106.259 35.9308 108.242C36.2831 108.959 36.7692 109.39 37.4112 109.39C37.7387 109.39 38.0344 109.263 38.2753 109.024C38.5345 108.779 38.6502 108.488 38.6344 108.155L38.6344 108.155L38.6341 108.15C38.5976 107.603 38.5854 107.055 38.5854 106.492C38.5854 104.779 38.7201 102.633 38.9906 100.064L38.9909 100.062C39.2003 97.8944 39.422 95.7149 39.6438 93.5594Z" stroke="#EDF8E6" stroke-opacity="0.2" stroke-width="0.5"/>
<path d="M54.2046 107.021C54.3032 107.28 54.3525 107.502 54.3525 107.699C54.3525 108.019 54.2169 108.302 53.9458 108.549C53.6747 108.795 53.4899 108.906 53.3913 108.881C52.6026 108.734 52.0974 108.105 51.8879 106.972C51.6661 105.753 51.395 104.718 51.0869 103.905C50.5324 103.954 49.9902 104.004 49.4357 104.053C48.8072 104.139 48.3143 104.324 47.957 104.632C47.7845 105.137 47.5503 106.024 47.2546 107.292C46.9835 108.475 46.7124 109.362 46.4536 109.978C46.3304 110.273 46.047 110.347 45.628 110.224C45.0981 110.052 44.8147 109.805 44.7777 109.497C44.7284 108.881 44.9009 108.056 45.3076 107.034C45.7882 105.851 46.0593 105.014 46.1086 104.521C46.1209 104.373 46.0223 104.213 45.7882 104.041C45.5664 103.868 45.4555 103.733 45.4555 103.634C45.4555 103.548 45.4924 103.474 45.5664 103.375C45.6403 103.277 45.8128 103.215 46.0716 103.154C46.3427 103.092 46.4906 103.018 46.5152 102.895C46.811 102.094 47.2669 100.592 47.8954 98.3992C48.4252 96.5023 48.9058 95.0366 49.3248 94.0265C49.4234 93.8048 49.6205 93.694 49.9286 93.694C50.1504 93.694 50.3599 93.7679 50.5324 93.9157C50.9884 94.2975 51.2718 94.8888 51.4073 95.6524C51.5059 96.3176 51.5922 96.9704 51.6784 97.6355C52.4917 101.417 53.3297 104.558 54.2046 107.021ZM50.668 102.402C50.6187 101.811 50.5078 101.134 50.3476 100.395C50.1874 99.7541 50.0272 99.1013 49.8916 98.4608C49.4111 99.8034 48.9921 101.134 48.6347 102.476C48.8935 102.427 49.5713 102.402 50.668 102.402Z" fill="#EDF8E6" fill-opacity="0.5"/>
<path d="M51.642 107.017L51.6421 107.018C51.7514 107.609 51.9418 108.092 52.2264 108.451C52.5139 108.815 52.8889 109.04 53.3398 109.126C53.4206 109.144 53.4962 109.131 53.5542 109.114C53.6158 109.095 53.6759 109.065 53.7324 109.031C53.8454 108.963 53.9734 108.862 54.1139 108.734C54.4289 108.448 54.6025 108.1 54.6025 107.699C54.6025 107.462 54.5435 107.209 54.4392 106.935C53.5705 104.488 52.7362 101.363 51.925 97.5931C51.8392 96.9313 51.7531 96.2799 51.6546 95.6158L51.6547 95.6158L51.6535 95.6088C51.512 94.8116 51.21 94.1576 50.694 93.7249C50.4749 93.5376 50.2076 93.444 49.9286 93.444C49.746 93.444 49.5747 93.4767 49.4271 93.5584C49.2756 93.6422 49.166 93.7685 49.0964 93.925L49.0963 93.9249L49.0939 93.9307C48.6693 94.9543 48.1856 96.431 47.6548 98.3311C47.0259 100.525 46.5726 102.018 46.2807 102.808L46.2757 102.822C46.2726 102.824 46.2685 102.827 46.2633 102.83C46.2216 102.853 46.1454 102.881 46.0162 102.91L46.0162 102.91L46.0137 102.911C45.8809 102.942 45.7572 102.977 45.6533 103.02C45.5524 103.062 45.4426 103.124 45.3664 103.225C45.2833 103.336 45.2055 103.465 45.2055 103.634C45.2055 103.771 45.2786 103.887 45.3452 103.968C45.4174 104.056 45.5168 104.146 45.6347 104.238L45.6347 104.238L45.6399 104.242C45.8574 104.402 45.8604 104.489 45.8594 104.5L46.1086 104.521L45.8598 104.496C45.8146 104.948 45.558 105.754 45.076 106.94L45.0753 106.941C44.6632 107.977 44.4747 108.845 44.5285 109.517L44.5283 109.517L44.5295 109.527C44.5851 109.99 45.002 110.283 45.5506 110.462L45.5506 110.462L45.5575 110.464C45.7891 110.532 46.0179 110.557 46.2211 110.498C46.4383 110.435 46.5957 110.286 46.6841 110.075C46.9507 109.44 47.2256 108.538 47.4982 107.349C47.781 106.135 48.0053 105.281 48.1713 104.779C48.4751 104.538 48.8982 104.38 49.4639 104.301C49.7385 104.277 50.0102 104.253 50.2817 104.228L50.2837 104.228C50.4949 104.209 50.706 104.19 50.9185 104.171C51.193 104.938 51.4379 105.895 51.642 107.017ZM49.8395 99.3688C49.925 99.7315 50.0147 100.094 50.1041 100.451C50.2382 101.071 50.3365 101.642 50.3926 102.153C49.7754 102.155 49.299 102.167 48.9715 102.189C49.2301 101.247 49.5194 100.31 49.8395 99.3688Z" stroke="#EDF8E6" stroke-opacity="0.2" stroke-width="0.5"/>
<path d="M66.8828 105.383C66.8459 105.396 65.9094 106.073 64.0486 107.403C62.9642 108.179 62.0031 108.758 61.1651 109.128C61.0665 109.177 60.968 109.202 60.8694 109.202C60.6476 109.202 60.4381 109.054 60.2409 108.771C59.9452 108.389 59.7973 108.179 59.785 108.167C59.748 106.751 59.8466 104.767 60.0561 102.23C60.3025 99.5325 60.4134 97.5863 60.4134 96.3915C60.4134 95.5663 60.3765 94.7903 60.3149 94.0636C60.5243 93.8542 60.7954 93.7433 61.1158 93.7433C61.732 93.7433 62.0893 93.965 62.1756 94.4208C62.2249 95.7387 62.1633 97.7218 62.0031 100.358C61.8429 102.994 61.7812 104.977 61.8059 106.295C62.2618 106.098 62.841 105.765 63.568 105.285C64.3567 104.73 64.9359 104.373 65.2809 104.201C65.3548 104.201 65.5027 104.189 65.6999 104.152C65.897 104.115 66.0572 104.102 66.1435 104.102C66.4639 104.102 66.698 104.238 66.8459 104.496C67.0677 104.841 67.0677 105.149 66.8828 105.383Z" fill="#EDF8E6" fill-opacity="0.5"/>
<path d="M66.9674 105.626C66.9758 105.62 66.9828 105.615 66.9884 105.612L67.0327 105.597L67.079 105.538C67.2069 105.376 67.2732 105.184 67.2667 104.974C67.2604 104.77 67.186 104.565 67.0596 104.367C66.8648 104.03 66.547 103.852 66.1435 103.852C66.0389 103.852 65.863 103.867 65.6538 103.906C65.4663 103.941 65.3346 103.951 65.2809 103.951H65.2219L65.1691 103.977C64.8076 104.158 64.2173 104.523 63.4273 105.078C62.8832 105.438 62.4286 105.709 62.0512 105.902C62.0438 104.603 62.1076 102.758 62.2526 100.373C62.4129 97.7359 62.4752 95.7424 62.4254 94.4114L62.4247 94.3927L62.4212 94.3743C62.3665 94.0854 62.2196 93.8531 61.9783 93.7C61.7461 93.5527 61.4496 93.4933 61.1158 93.4933C60.7329 93.4933 60.3971 93.6279 60.1381 93.8867L60.0559 93.9689L60.0657 94.0847C60.1268 94.8048 60.1634 95.5738 60.1634 96.3915C60.1634 97.5747 60.0534 99.5117 59.8071 102.207L59.8071 102.207L59.8069 102.209C59.5973 104.749 59.4977 106.743 59.5351 108.174L59.5377 108.273L59.5982 108.334L59.6188 108.362C59.6247 108.37 59.6315 108.379 59.6391 108.389C59.657 108.413 59.6794 108.444 59.706 108.479C59.7816 108.581 59.8923 108.729 60.0395 108.919C60.2533 109.224 60.527 109.452 60.8694 109.452C61.009 109.452 61.1437 109.417 61.2712 109.354C62.1295 108.975 63.1044 108.386 64.1941 107.607C64.7745 107.192 65.2655 106.84 65.6671 106.552C65.9089 106.379 66.1183 106.229 66.2951 106.102C66.5308 105.934 66.7088 105.807 66.8301 105.721C66.8909 105.679 66.9364 105.647 66.9674 105.626ZM59.5918 108.325C59.5917 108.325 59.5922 108.326 59.5932 108.327C59.5923 108.326 59.5918 108.326 59.5918 108.325Z" stroke="#EDF8E6" stroke-opacity="0.2" stroke-width="0.5"/>
<path d="M80.2916 93.8664C79.8357 95.6894 79.0101 98.0543 77.8025 100.974C76.3854 104.373 75.4735 106.726 75.0668 108.007C74.9806 108.266 74.9436 108.586 74.9436 108.98C74.9559 109.51 74.9559 109.854 74.9436 109.99C74.8943 110.557 74.5986 110.84 74.044 110.84C73.7729 110.877 73.4772 110.778 73.1568 110.557C72.8364 110.335 72.6885 110.113 72.7132 109.867C72.7625 108.684 73.0582 107.342 73.6127 105.827C74.118 104.533 74.6109 103.252 75.1161 101.959C73.9701 98.8919 72.9966 96.6502 72.1833 95.2337C72.134 95.1474 72.1094 95.0735 72.1094 94.9873C72.1094 94.8149 72.208 94.6424 72.4174 94.4946C72.6146 94.3345 72.8118 94.2606 73.0089 94.2606C73.0459 94.2606 73.3417 94.3468 73.9331 94.5316C74.3398 95.1474 74.7588 95.9357 75.19 96.8965C75.5597 97.7218 75.9294 98.5347 76.2744 99.36C76.5948 98.3869 76.9152 97.4385 77.2479 96.4777C77.6176 95.3691 78.0243 94.4453 78.4802 93.7186C78.6034 93.4969 78.8376 93.386 79.158 93.386C79.6016 93.4107 79.9836 93.5585 80.2916 93.8664Z" fill="#EDF8E6" fill-opacity="0.5"/>
<path d="M80.5342 93.9271L80.5685 93.7897L80.4684 93.6896C80.1101 93.3315 79.6667 93.1639 79.1718 93.1364L79.1718 93.136H79.158C78.7818 93.136 78.4472 93.2694 78.2652 93.591C77.7966 94.3392 77.3836 95.2808 77.0112 96.3973C76.7502 97.1509 76.4968 97.897 76.2451 98.6533C76.0311 98.1597 75.8107 97.6687 75.5896 97.1764C75.5325 97.0492 75.4753 96.9218 75.4182 96.7943L75.4181 96.7941C74.9834 95.8258 74.5582 95.0246 74.1418 94.3938L74.0927 94.3195L74.0077 94.2929C73.7115 94.2004 73.488 94.1321 73.3334 94.0869C73.2563 94.0643 73.1945 94.0469 73.1487 94.035C73.126 94.0291 73.105 94.0239 73.087 94.0201C73.0867 94.02 73.0862 94.0199 73.0858 94.0199C73.0748 94.0175 73.0424 94.0106 73.0089 94.0106C72.7463 94.0106 72.4973 94.1096 72.2664 94.2953C72.0176 94.4731 71.8594 94.7115 71.8594 94.9873C71.8594 95.1295 71.9026 95.2463 71.9663 95.3577L71.9665 95.3581C72.7613 96.7424 73.7179 98.9384 74.8485 101.957C74.6076 102.574 74.3694 103.188 74.1313 103.802C73.8818 104.446 73.6324 105.089 73.3799 105.736L73.3798 105.736L73.378 105.741C72.8184 107.27 72.5152 108.636 72.4637 109.85C72.4292 110.231 72.6725 110.525 73.0145 110.762C73.3557 110.998 73.7086 111.132 74.0605 111.09C74.3726 111.087 74.649 111.004 74.8553 110.809C75.0637 110.611 75.1647 110.332 75.1926 110.012C75.2064 109.859 75.2057 109.499 75.1936 108.977C75.1938 108.597 75.23 108.308 75.304 108.086L75.304 108.086L75.3051 108.083C75.708 106.813 76.6159 104.47 78.0332 101.07L78.0335 101.069C79.2432 98.1448 80.074 95.7671 80.5342 93.9271Z" stroke="#EDF8E6" stroke-opacity="0.2" stroke-width="0.5"/>
<path d="M94.5846 107.539C94.6339 107.65 94.6586 107.761 94.6586 107.847C94.6586 108.019 94.5723 108.192 94.4121 108.339C94.2519 108.487 94.0917 108.647 93.9315 108.783C91.9353 108.635 89.6309 108.204 87.0308 107.477C86.4763 107.317 86.1066 107.182 85.8971 107.095C85.5151 106.923 85.2317 106.664 85.0469 106.344C85.0592 106.209 85.0592 106.048 85.0469 105.864C86.883 103.77 88.029 102.452 88.4603 101.922C89.7049 100.395 90.6907 98.9659 91.4177 97.6356C90.9494 97.3769 90.4196 97.2537 89.8404 97.2537C89.5077 97.2537 89.0025 97.303 88.3494 97.4139C87.6963 97.5247 87.2034 97.574 86.883 97.574C86.464 97.574 86.082 97.5124 85.7493 97.4015C85.281 97.1306 85.0469 96.8349 85.0469 96.527C85.0469 96.4162 85.0839 96.3053 85.1701 96.2067C85.6384 95.8372 86.3161 95.6525 87.2033 95.6525C87.3019 95.6525 87.4498 95.6525 87.6346 95.6525C87.8318 95.6525 87.9674 95.6525 88.0659 95.6525C88.5342 95.6525 88.9162 95.6155 89.2243 95.5293C89.865 95.5786 90.5182 95.6401 91.1836 95.7017C91.9599 95.8003 92.5637 95.9973 92.9827 96.2806C93.414 96.5763 93.6235 96.9335 93.6235 97.3646C93.6235 97.4878 93.5988 97.6233 93.5495 97.7464C93.032 99.0151 92.194 100.395 91.0357 101.86C89.976 103.117 88.9039 104.373 87.8441 105.605C90.2471 106.319 92.3173 106.775 94.0424 106.985C94.2273 106.997 94.4121 107.182 94.5846 107.539Z" fill="#EDF8E6" fill-opacity="0.5"/>
<path d="M94.8131 107.437L94.8132 107.437L94.8098 107.43C94.7169 107.238 94.6134 107.076 94.4964 106.957C94.3809 106.84 94.2371 106.749 94.0668 106.736C92.4497 106.539 90.5198 106.123 88.2862 105.474C89.2639 104.336 90.2506 103.179 91.2268 102.022L91.2269 102.022L91.2318 102.015C92.4003 100.537 93.2523 99.137 93.781 97.8409L93.7816 97.8393C93.843 97.686 93.8735 97.5189 93.8735 97.3646C93.8735 96.8337 93.6077 96.406 93.124 96.0744L93.1227 96.0735C92.659 95.76 92.0123 95.5549 91.2151 95.4537L91.2151 95.4536L91.2066 95.4528C91.1458 95.4472 91.085 95.4415 91.0244 95.4359C90.4221 95.3801 89.8277 95.325 89.2434 95.28L89.1994 95.2766L89.1569 95.2885C88.8801 95.366 88.5238 95.4025 88.0659 95.4025H88.0654H88.0648H88.0642H88.0636H88.063H88.0625H88.0619H88.0613H88.0607H88.0601H88.0595H88.059H88.0584H88.0578H88.0572H88.0566H88.056H88.0554H88.0548H88.0542H88.0536H88.053H88.0524H88.0518H88.0512H88.0506H88.05H88.0494H88.0488H88.0482H88.0476H88.047H88.0464H88.0458H88.0452H88.0446H88.044H88.0434H88.0428H88.0422H88.0415H88.0409H88.0403H88.0397H88.0391H88.0385H88.0378H88.0372H88.0366H88.036H88.0354H88.0347H88.0341H88.0335H88.0329H88.0322H88.0316H88.031H88.0304H88.0297H88.0291H88.0285H88.0278H88.0272H88.0266H88.0259H88.0253H88.0247H88.024H88.0234H88.0227H88.0221H88.0215H88.0208H88.0202H88.0195H88.0189H88.0182H88.0176H88.0169H88.0163H88.0156H88.015H88.0143H88.0137H88.013H88.0124H88.0117H88.0111H88.0104H88.0097H88.0091H88.0084H88.0078H88.0071H88.0064H88.0058H88.0051H88.0044H88.0038H88.0031H88.0024H88.0018H88.0011H88.0004H87.9997H87.9991H87.9984H87.9977H87.997H87.9964H87.9957H87.995H87.9943H87.9936H87.993H87.9923H87.9916H87.9909H87.9902H87.9895H87.9888H87.9882H87.9875H87.9868H87.9861H87.9854H87.9847H87.984H87.9833H87.9826H87.9819H87.9812H87.9805H87.9798H87.9791H87.9784H87.9777H87.977H87.9763H87.9756H87.9749H87.9742H87.9734H87.9727H87.972H87.9713H87.9706H87.9699H87.9692H87.9684H87.9677H87.967H87.9663H87.9656H87.9648H87.9641H87.9634H87.9627H87.9619H87.9612H87.9605H87.9598H87.959H87.9583H87.9576H87.9568H87.9561H87.9554H87.9546H87.9539H87.9531H87.9524H87.9517H87.9509H87.9502H87.9494H87.9487H87.9479H87.9472H87.9464H87.9457H87.9449H87.9442H87.9434H87.9427H87.9419H87.9412H87.9404H87.9397H87.9389H87.9381H87.9374H87.9366H87.9359H87.9351H87.9343H87.9336H87.9328H87.932H87.9313H87.9305H87.9297H87.9289H87.9282H87.9274H87.9266H87.9258H87.9251H87.9243H87.9235H87.9227H87.9219H87.9212H87.9204H87.9196H87.9188H87.918H87.9172H87.9164H87.9156H87.9149H87.9141H87.9133H87.9125H87.9117H87.9109H87.9101H87.9093H87.9085H87.9077H87.9069H87.9061H87.9053H87.9045H87.9036H87.9028H87.902H87.9012H87.9004H87.8996H87.8988H87.898H87.8971H87.8963H87.8955H87.8947H87.8939H87.8931H87.8922H87.8914H87.8906H87.8898H87.8889H87.8881H87.8873H87.8864H87.8856H87.8848H87.8839H87.8831H87.8823H87.8814H87.8806H87.8797H87.8789H87.8781H87.8772H87.8764H87.8755H87.8747H87.8738H87.873H87.8721H87.8713H87.8704H87.8696H87.8687H87.8679H87.867H87.8662H87.8653H87.8644H87.8636H87.8627H87.8618H87.861H87.8601H87.8592H87.8584H87.8575H87.8566H87.8558H87.8549H87.854H87.8531H87.8523H87.8514H87.8505H87.8496H87.8487H87.8479H87.847H87.8461H87.8452H87.8443H87.8434H87.8425H87.8416H87.8408H87.8399H87.839H87.8381H87.8372H87.8363H87.8354H87.8345H87.8336H87.8327H87.8318H87.8309H87.83H87.829H87.8281H87.8272H87.8263H87.8254H87.8245H87.8236H87.8227H87.8217H87.8208H87.8199H87.819H87.8181H87.8171H87.8162H87.8153H87.8144H87.8134H87.8125H87.8116H87.8106H87.8097H87.8088H87.8078H87.8069H87.806H87.805H87.8041H87.8031H87.8022H87.8012H87.8003H87.7994H87.7984H87.7975H87.7965H87.7956H87.7946H87.7936H87.7927H87.7917H87.7908H87.7898H87.7889H87.7879H87.7869H87.786H87.785H87.784H87.7831H87.7821H87.7811H87.7802H87.7792H87.7782H87.7772H87.7763H87.7753H87.7743H87.7733H87.7723H87.7714H87.7704H87.7694H87.7684H87.7674H87.7664H87.7654H87.7644H87.7634H87.7624H87.7615H87.7605H87.7595H87.7585H87.7575H87.7565H87.7554H87.7544H87.7534H87.7524H87.7514H87.7504H87.7494H87.7484H87.7474H87.7464H87.7453H87.7443H87.7433H87.7423H87.7413H87.7402H87.7392H87.7382H87.7372H87.7361H87.7351H87.7341H87.733H87.732H87.731H87.7299H87.7289H87.7279H87.7268H87.7258H87.7247H87.7237H87.7226H87.7216H87.7206H87.7195H87.7185H87.7174H87.7163H87.7153H87.7142H87.7132H87.7121H87.7111H87.71H87.7089H87.7079H87.7068H87.7057H87.7047H87.7036H87.7025H87.7015H87.7004H87.6993H87.6982H87.6972H87.6961H87.695H87.6939H87.6928H87.6918H87.6907H87.6896H87.6885H87.6874H87.6863H87.6852H87.6841H87.683H87.6819H87.6808H87.6797H87.6786H87.6775H87.6764H87.6753H87.6742H87.6731H87.672H87.6709H87.6698H87.6687H87.6676H87.6664H87.6653H87.6642H87.6631H87.662H87.6608H87.6597H87.6586H87.6575H87.6563H87.6552H87.6541H87.653H87.6518H87.6507H87.6495H87.6484H87.6473H87.6461H87.645H87.6438H87.6427H87.6416H87.6404H87.6393H87.6381H87.637H87.6358H87.6346H87.6336H87.6325H87.6314H87.6303H87.6292H87.6282H87.6271H87.626H87.6249H87.6239H87.6228H87.6217H87.6206H87.6196H87.6185H87.6174H87.6164H87.6153H87.6142H87.6132H87.6121H87.611H87.61H87.6089H87.6078H87.6068H87.6057H87.6047H87.6036H87.6025H87.6015H87.6004H87.5994H87.5983H87.5973H87.5962H87.5952H87.5941H87.5931H87.592H87.591H87.5899H87.5889H87.5878H87.5868H87.5857H87.5847H87.5836H87.5826H87.5816H87.5805H87.5795H87.5784H87.5774H87.5764H87.5753H87.5743H87.5733H87.5722H87.5712H87.5702H87.5691H87.5681H87.5671H87.5661H87.565H87.564H87.563H87.562H87.5609H87.5599H87.5589H87.5579H87.5569H87.5558H87.5548H87.5538H87.5528H87.5518H87.5508H87.5497H87.5487H87.5477H87.5467H87.5457H87.5447H87.5437H87.5427H87.5417H87.5407H87.5397H87.5387H87.5377H87.5367H87.5357H87.5347H87.5337H87.5327H87.5317H87.5307H87.5297H87.5287H87.5277H87.5267H87.5257H87.5247H87.5237H87.5227H87.5217H87.5208H87.5198H87.5188H87.5178H87.5168H87.5158H87.5148H87.5139H87.5129H87.5119H87.5109H87.51H87.509H87.508H87.507H87.5061H87.5051H87.5041H87.5031H87.5022H87.5012H87.5002H87.4993H87.4983H87.4973H87.4964H87.4954H87.4944H87.4935H87.4925H87.4916H87.4906H87.4896H87.4887H87.4877H87.4868H87.4858H87.4849H87.4839H87.483H87.482H87.4811H87.4801H87.4792H87.4782H87.4773H87.4763H87.4754H87.4744H87.4735H87.4726H87.4716H87.4707H87.4697H87.4688H87.4679H87.4669H87.466H87.4651H87.4641H87.4632H87.4623H87.4613H87.4604H87.4595H87.4586H87.4576H87.4567H87.4558H87.4549H87.4539H87.453H87.4521H87.4512H87.4503H87.4493H87.4484H87.4475H87.4466H87.4457H87.4448H87.4439H87.4429H87.442H87.4411H87.4402H87.4393H87.4384H87.4375H87.4366H87.4357H87.4348H87.4339H87.433H87.4321H87.4312H87.4303H87.4294H87.4285H87.4276H87.4267H87.4258H87.4249H87.424H87.4231H87.4223H87.4214H87.4205H87.4196H87.4187H87.4178H87.4169H87.4161H87.4152H87.4143H87.4134H87.4125H87.4117H87.4108H87.4099H87.409H87.4082H87.4073H87.4064H87.4056H87.4047H87.4038H87.4029H87.4021H87.4012H87.4003H87.3995H87.3986H87.3978H87.3969H87.396H87.3952H87.3943H87.3935H87.3926H87.3918H87.3909H87.3901H87.3892H87.3883H87.3875H87.3866H87.3858H87.385H87.3841H87.3833H87.3824H87.3816H87.3807H87.3799H87.3791H87.3782H87.3774H87.3765H87.3757H87.3749H87.374H87.3732H87.3724H87.3715H87.3707H87.3699H87.3691H87.3682H87.3674H87.3666H87.3657H87.3649H87.3641H87.3633H87.3625H87.3616H87.3608H87.36H87.3592H87.3584H87.3576H87.3568H87.3559H87.3551H87.3543H87.3535H87.3527H87.3519H87.3511H87.3503H87.3495H87.3487H87.3479H87.3471H87.3463H87.3455H87.3447H87.3439H87.3431H87.3423H87.3415H87.3407H87.3399H87.3391H87.3383H87.3375H87.3368H87.336H87.3352H87.3344H87.3336H87.3328H87.332H87.3313H87.3305H87.3297H87.3289H87.3282H87.3274H87.3266H87.3258H87.3251H87.3243H87.3235H87.3228H87.322H87.3212H87.3204H87.3197H87.3189H87.3182H87.3174H87.3166H87.3159H87.3151H87.3144H87.3136H87.3128H87.3121H87.3113H87.3106H87.3098H87.3091H87.3083H87.3076H87.3068H87.3061H87.3053H87.3046H87.3039H87.3031H87.3024H87.3016H87.3009H87.3002H87.2994H87.2987H87.2979H87.2972H87.2965H87.2957H87.295H87.2943H87.2936H87.2928H87.2921H87.2914H87.2907H87.2899H87.2892H87.2885H87.2878H87.2871H87.2863H87.2856H87.2849H87.2842H87.2835H87.2828H87.282H87.2813H87.2806H87.2799H87.2792H87.2785H87.2778H87.2771H87.2764H87.2757H87.275H87.2743H87.2736H87.2729H87.2722H87.2715H87.2708H87.2701H87.2694H87.2687H87.268H87.2673H87.2667H87.266H87.2653H87.2646H87.2639H87.2632H87.2626H87.2619H87.2612H87.2605H87.2598H87.2592H87.2585H87.2578H87.2571H87.2565H87.2558H87.2551H87.2545H87.2538H87.2531H87.2525H87.2518H87.2511H87.2505H87.2498H87.2491H87.2485H87.2478H87.2472H87.2465H87.2459H87.2452H87.2446H87.2439H87.2432H87.2426H87.242H87.2413H87.2407H87.24H87.2394H87.2387H87.2381H87.2374H87.2368H87.2362H87.2355H87.2349H87.2343H87.2336H87.233H87.2324H87.2317H87.2311H87.2305H87.2298H87.2292H87.2286H87.228H87.2273H87.2267H87.2261H87.2255H87.2249H87.2242H87.2236H87.223H87.2224H87.2218H87.2212H87.2206H87.22H87.2194H87.2187H87.2181H87.2175H87.2169H87.2163H87.2157H87.2151H87.2145H87.2139H87.2133H87.2127H87.2121H87.2115H87.2109H87.2104H87.2098H87.2092H87.2086H87.208H87.2074H87.2068H87.2062H87.2057H87.2051H87.2045H87.2039H87.2033C86.2862 95.4025 85.5446 95.5928 85.0152 96.0105L84.9972 96.0248L84.982 96.0421C84.855 96.1872 84.7969 96.3569 84.7969 96.527C84.7969 96.9747 85.1356 97.3352 85.6241 97.6179L85.6461 97.6307L85.6703 97.6387C86.0308 97.7589 86.4398 97.824 86.883 97.824C87.2239 97.824 87.7326 97.7721 88.3912 97.6603C89.038 97.5505 89.5277 97.5037 89.8404 97.5037C90.2901 97.5037 90.7015 97.5827 91.0717 97.7437C90.3671 98.9927 89.4328 100.333 88.2665 101.764L88.2664 101.764C87.8388 102.289 86.6967 103.603 84.8589 105.699L84.7905 105.777L84.7974 105.88C84.8092 106.056 84.8087 106.203 84.7979 106.321L84.7907 106.4L84.8304 106.469C85.0427 106.837 85.3671 107.13 85.7943 107.323L85.7942 107.323L85.802 107.327C86.0212 107.417 86.3997 107.555 86.9615 107.717L86.9635 107.718C89.575 108.448 91.8961 108.883 93.9131 109.032L94.015 109.04L94.093 108.974C94.205 108.879 94.3214 108.769 94.4312 108.665C94.4832 108.615 94.5337 108.567 94.5817 108.523C94.7787 108.341 94.9086 108.106 94.9086 107.847C94.9086 107.718 94.8734 107.573 94.8131 107.437Z" stroke="#EDF8E6" stroke-opacity="0.2" stroke-width="0.5"/>
<path d="M107.686 96.0959C107.094 96.3422 106.207 96.6256 105.049 96.9458C103.89 97.2661 103.003 97.5494 102.412 97.7957C102.264 98.2145 102.165 99.1506 102.091 100.604C102.35 100.703 102.646 100.752 102.991 100.752C103.237 100.752 103.607 100.715 104.124 100.629C104.642 100.542 105.024 100.506 105.258 100.506C105.714 100.506 106.096 100.604 106.416 100.801C106.638 101.121 106.749 101.331 106.749 101.429C106.749 101.54 106.688 101.626 106.577 101.7C106.54 101.713 106.429 101.836 106.244 102.045C106.121 102.193 105.948 102.255 105.763 102.242C105.418 102.329 104.802 102.366 103.903 102.39C103.139 102.402 102.535 102.501 102.091 102.686C101.783 103.881 101.635 104.817 101.635 105.519C101.635 105.987 101.697 106.356 101.832 106.627C102.596 107.157 103.903 107.391 105.776 107.305C105.899 107.305 106.047 107.243 106.182 107.12C106.33 106.997 106.453 106.935 106.54 106.935C106.996 106.837 107.291 107.182 107.439 107.958C107.489 108.216 107.439 108.45 107.304 108.672C107.168 108.894 106.971 109.005 106.712 109.029C104.765 109.091 103.065 108.943 101.635 108.573C101.179 108.463 100.773 108.216 100.403 107.822C100.033 107.44 99.8238 106.997 99.7745 106.516C99.6267 105.112 99.6267 103.856 99.7745 102.747C99.3186 102.439 99.1214 102.144 99.1707 101.848C99.183 101.7 99.3063 101.565 99.5404 101.454C99.7745 101.331 99.9101 101.208 99.9347 101.084C99.9717 100.961 100.033 100.185 100.132 98.7811C99.2323 98.6086 98.7887 98.2638 98.801 97.7588C98.8134 97.2907 99.0968 96.9212 99.6513 96.6502C100.169 96.4408 100.686 96.2314 101.204 96.022C101.795 95.7141 102.547 95.4431 103.459 95.1967C104.248 94.9873 105.036 94.7902 105.825 94.5932C105.911 94.5808 105.997 94.5685 106.121 94.5685C106.552 94.5685 107.07 94.741 107.649 95.0736C107.661 95.1352 107.71 95.2583 107.772 95.4307C107.834 95.6032 107.871 95.7387 107.871 95.8126C107.846 95.9112 107.797 96.0097 107.686 96.0959Z" fill="#EDF8E6" fill-opacity="0.5"/>
<path d="M107.782 96.3267L107.813 96.3138L107.839 96.2933C108.002 96.167 108.077 96.0163 108.113 95.8733L108.121 95.8434V95.8126C108.121 95.7425 108.104 95.6648 108.086 95.5953C108.067 95.5211 108.04 95.4368 108.007 95.3466C107.991 95.3006 107.972 95.2484 107.955 95.2037C107.944 95.1727 107.934 95.1453 107.927 95.1261C107.917 95.097 107.909 95.0737 107.903 95.055C107.9 95.0458 107.898 95.0386 107.896 95.0331L107.894 95.0267C107.894 95.0252 107.894 95.0245 107.894 95.0245L107.872 94.9133L107.773 94.8568C107.176 94.5137 106.614 94.3185 106.121 94.3185C105.98 94.3185 105.879 94.3329 105.791 94.3454L105.79 94.3457L105.777 94.3475L105.764 94.3506C104.976 94.5476 104.186 94.7452 103.395 94.9551L103.394 94.9554C102.478 95.2029 101.711 95.4777 101.099 95.7947L99.5575 96.4184L99.5494 96.4217L99.5415 96.4256C98.9344 96.7223 98.5667 97.1609 98.5511 97.7522L98.5511 97.7527C98.5428 98.0941 98.6947 98.3791 98.9719 98.5927C99.1955 98.765 99.4991 98.8908 99.8673 98.9797C99.8249 99.5782 99.7899 100.049 99.7611 100.392C99.745 100.584 99.7309 100.734 99.7188 100.842C99.7127 100.897 99.7073 100.939 99.7026 100.97C99.6987 100.996 99.6961 101.008 99.6953 101.012C99.6951 101.013 99.695 101.013 99.6953 101.013L99.6919 101.024L99.69 101.033C99.6889 101.036 99.6807 101.054 99.6459 101.086C99.6024 101.127 99.5323 101.175 99.4283 101.23C99.1749 101.352 98.9509 101.54 98.9226 101.817C98.8595 102.224 99.1138 102.57 99.5077 102.864C99.376 103.959 99.383 105.186 99.5259 106.542C99.5813 107.082 99.817 107.576 100.222 107.995C100.619 108.418 101.066 108.692 101.574 108.816C103.033 109.193 104.758 109.341 106.72 109.279L106.728 109.279L106.736 109.278C107.064 109.247 107.336 109.098 107.517 108.802C107.683 108.531 107.747 108.235 107.685 107.911C107.608 107.508 107.487 107.175 107.293 106.954C107.193 106.84 107.072 106.753 106.929 106.707C106.793 106.662 106.651 106.659 106.509 106.686C106.422 106.692 106.34 106.723 106.27 106.759C106.189 106.801 106.106 106.858 106.022 106.928L106.022 106.928L106.014 106.935C105.911 107.029 105.82 107.055 105.776 107.055V107.055L105.764 107.055C103.95 107.139 102.732 106.914 102.03 106.459C101.936 106.24 101.885 105.933 101.885 105.519C101.885 104.871 102.018 103.999 102.302 102.872C102.695 102.732 103.226 102.651 103.907 102.64L103.907 102.64L103.909 102.64C104.773 102.616 105.406 102.581 105.788 102.494C106.027 102.499 106.262 102.412 106.433 102.208C106.526 102.104 106.596 102.025 106.647 101.971C106.67 101.947 106.686 101.931 106.697 101.92L106.715 101.908C106.866 101.808 106.999 101.655 106.999 101.429C106.999 101.363 106.982 101.3 106.964 101.25C106.944 101.197 106.918 101.14 106.887 101.081C106.825 100.964 106.735 100.823 106.622 100.659L106.592 100.616L106.547 100.588C106.181 100.363 105.751 100.256 105.258 100.256C105.004 100.256 104.606 100.295 104.083 100.382C103.57 100.468 103.217 100.502 102.991 100.502C102.747 100.502 102.537 100.476 102.351 100.426C102.385 99.7874 102.425 99.2593 102.472 98.8397C102.515 98.4527 102.564 98.1705 102.615 97.9826C103.191 97.7525 104.029 97.4872 105.115 97.1868C106.276 96.8659 107.175 96.5793 107.782 96.3267Z" stroke="#EDF8E6" stroke-opacity="0.2" stroke-width="0.5"/>
<defs>
<filter id="filter0_b_268_377" x="-20" y="-19.7144" width="355.684" height="255.598" filterUnits="userSpaceOnUse" color-interpolation-filters="sRGB">
<feFlood flood-opacity="0" result="BackgroundImageFix"/>
<feGaussianBlur in="BackgroundImageFix" stdDeviation="10"/>
<feComposite in2="SourceAlpha" operator="in" result="effect1_backgroundBlur_268_377"/>
<feBlend mode="normal" in="SourceGraphic" in2="effect1_backgroundBlur_268_377" result="shape"/>
</filter>
</defs>
</svg>
