<svg xmlns="http://www.w3.org/2000/svg" width="240" height="9" viewBox="0 0 240 9" fill="none">
  <path d="M9.35448 7.0396C9.34507 7.0396 9.34507 7.04812 9.35448 7.0396C16.2361 7.69552 23.1365 8.18959 30.0463 8.53885C34.2261 8.74329 38.3964 8.90514 42.5856 8.96477C48.6105 9.05848 54.6261 8.94773 60.651 8.83699C65.8475 8.74329 71.0439 8.68366 76.2404 8.607C80.4014 8.54737 84.5718 8.47922 88.7327 8.40255C93.5338 8.31737 98.3255 8.26626 103.127 8.13848C114.16 7.84885 125.183 7.56774 136.217 7.31219C140.603 7.20997 144.981 7.15886 149.368 7.11626C152.559 7.08219 155.741 7.04812 158.932 7.02256C160.373 7.00552 161.813 7.03108 163.253 7.05663C166.765 7.09923 170.286 7.15034 173.797 7.19293C175.322 7.20997 176.856 7.21848 178.382 7.28663C183.456 7.51663 188.539 7.70404 193.623 7.98515C199.177 8.29181 204.741 8.51329 210.295 8.66663C215.133 8.80292 219.982 8.90514 224.82 8.87107C228.379 8.84551 231.956 8.76033 235.496 8.35996C235.496 8.35996 235.505 8.35144 235.496 8.35144C233.161 8.03626 230.826 7.69552 228.492 7.41441C228.558 7.42293 228.624 7.43145 228.699 7.43997C223.559 6.77552 218.391 6.24738 213.232 5.7959C209.212 5.43812 205.192 5.11442 201.173 4.82479C202.669 4.76516 204.166 4.70554 205.663 4.63739C207.781 4.54368 209.899 4.43294 212.027 4.33924C214.729 4.2285 217.44 4.05813 220.142 3.93887C225.046 3.71739 229.942 3.40221 234.827 2.97629C234.837 2.97629 234.837 2.96777 234.827 2.96777C229.876 2.51629 224.886 2.4737 219.916 2.38851C214.644 2.29481 209.363 2.28629 204.082 2.32036C199.064 2.34592 194.037 2.4311 189.019 2.55888C184.529 2.67814 180.038 2.78888 175.539 2.86555C171.905 2.93369 168.271 2.99332 164.628 3.06147C162.858 3.09554 161.079 3.14666 159.309 3.15517C153.359 3.18073 147.419 3.20628 141.47 3.22332C139.963 3.23184 138.457 3.24888 136.951 3.24036C134.334 3.2148 131.707 3.18925 129.09 3.16369C125.588 3.12962 122.086 3.09554 118.594 3.06999C117.323 3.05295 116.052 3.05295 114.781 3.01888C108.54 2.88258 102.298 2.74629 96.0567 2.60999C91.0768 2.50777 86.125 2.30333 81.1733 2.14999C71.8818 1.85185 62.5808 1.52815 53.2799 1.28111C48.3658 1.14481 43.4423 1.05111 38.5282 1.01704C37.2668 1.00852 35.9959 1 34.7344 1C32.4845 1 30.244 1.01704 27.9941 1.04259C26.2713 1.05963 24.558 1.11926 22.8352 1.11074C17.0551 1.11074 11.2843 1.23852 5.50418 1.26407C5.50418 1.26407 5.49477 1.27259 5.50418 1.27259C7.01983 1.50259 8.53547 1.72407 10.0605 1.90296C11.6044 2.09036 13.1577 2.26073 14.7016 2.43962C17.5634 2.76332 20.4253 3.05295 23.2871 3.33406C23.8143 3.38517 24.3509 3.41073 24.878 3.45332C26.4031 3.56406 27.9282 3.66628 29.4532 3.75998C32.8328 3.98147 36.1936 4.16887 39.5544 4.3222C41.4466 4.40739 43.3482 4.46702 45.2404 4.50961C35.9488 4.80776 26.6667 5.41257 17.4222 6.26442C14.7298 6.51997 12.0469 6.76701 9.35448 7.0396Z" fill="url(#paint0_linear_259_730)"/>
  <defs>
    <linearGradient id="paint0_linear_259_730" x1="-25.6918" y1="3.54545" x2="-24.0074" y2="26.1848" gradientUnits="userSpaceOnUse">
      <stop offset="0.0617621" stop-color="#00FFED"/>
      <stop offset="0.910636" stop-color="#FF66FF"/>
    </linearGradient>
  </defs>
</svg>