<svg xmlns="http://www.w3.org/2000/svg" width="32" height="32" viewBox="0 0 32 32" fill="none">
  <path d="M18.7443 16L26.4258 8.31853C26.7903 7.95461 26.9954 7.46078 26.9959 6.94566C26.9963 6.43055 26.7921 5.93636 26.4282 5.5718C26.0643 5.20723 25.5705 5.00217 25.0553 5.00172C24.5402 5.00126 24.046 5.20545 23.6815 5.56937L16 13.2508L8.31853 5.56937C7.95397 5.20481 7.45952 5 6.94395 5C6.42838 5 5.93393 5.20481 5.56937 5.56937C5.20481 5.93393 5 6.42838 5 6.94395C5 7.45952 5.20481 7.95397 5.56937 8.31853L13.2508 16L5.56937 23.6815C5.20481 24.046 5 24.5405 5 25.0561C5 25.5716 5.20481 26.0661 5.56937 26.4306C5.93393 26.7952 6.42838 27 6.94395 27C7.45952 27 7.95397 26.7952 8.31853 26.4306L16 18.7492L23.6815 26.4306C24.046 26.7952 24.5405 27 25.0561 27C25.5716 27 26.0661 26.7952 26.4306 26.4306C26.7952 26.0661 27 25.5716 27 25.0561C27 24.5405 26.7952 24.046 26.4306 23.6815L18.7443 16Z" fill="white"/>
</svg>