<svg width="601" height="460" viewBox="0 0 601 460" fill="none" xmlns="http://www.w3.org/2000/svg">
<path opacity="0.5" d="M106.4 429.514C106.4 429.514 32.7089 377.022 11.5 287.691C-9.70884 198.36 22.6711 90.0157 84.0716 35.3511C145.472 -19.3135 256.023 17.3905 305.146 63.2704L354.282 109.056C354.282 109.056 401.179 134.695 462.58 132.509C523.98 130.323 578.702 213.972 593.233 279.864C607.763 345.756 573.13 432.86 573.13 432.86L106.4 429.514Z" fill="url(#paint0_linear_391_5042)"/>
<path opacity="0.5" d="M72.9133 442.914C72.9133 442.914 21.5506 414.994 8.1534 350.223C-5.24381 285.451 52.8108 226.266 58.3963 193.88C63.9819 161.494 51.6505 121.282 103.054 89.9756C154.457 58.6693 245.971 69.9234 280.59 62.0968C315.21 54.2702 355.402 0.685158 424.587 12.9648C493.772 25.2444 560.852 62.0968 564.144 142.508C567.436 222.919 541.856 225.2 567.598 268.705C593.34 312.21 603.324 342.41 591.047 387.075C578.769 431.741 553.081 444.034 553.081 444.034L72.9133 442.914Z" fill="url(#paint1_linear_391_5042)"/>
<g style="mix-blend-mode:multiply">
<path d="M180.159 428.394C176.961 425.047 130.105 331.236 182.277 245.252C234.449 159.268 365.466 169.307 417.652 202.813C469.838 236.319 495.391 279.864 500.72 325.609C506.049 371.354 470.89 442.873 470.89 442.873L180.159 428.394Z" fill="#DDFFE3"/>
</g>
<path d="M547.578 226.914H487.379C483.653 226.914 480.633 229.934 480.633 233.661V263.725C480.633 267.452 483.653 270.473 487.379 270.473H547.578C551.304 270.473 554.324 267.452 554.324 263.725V233.661C554.324 229.934 551.304 226.914 547.578 226.914Z" fill="#60FF7B"/>
<path d="M517.476 287.501L527.028 264.885H507.938L517.476 287.501Z" fill="#60FF7B"/>
<path d="M517.262 241.217H534.491V243.741L542.936 238.869L534.491 233.984V236.508H517.262V241.217Z" fill="#227A30"/>
<path d="M542.936 251.122H525.708V248.599L517.262 253.47L525.708 258.341V255.818H542.936V251.122Z" fill="white"/>
<path d="M506.682 255.561L505.859 255.858C504.287 254.015 502.979 251.962 501.973 249.759C501.134 247.493 500.678 245.104 500.624 242.688L501.218 242.445L497.575 233.714C496.865 234.268 496.266 234.95 495.808 235.725C493.744 239.206 493.959 244.564 496.024 249.786C498.088 255.008 500.314 259.677 504.361 262.605C505.197 263.289 506.161 263.8 507.197 264.105C508.233 264.411 509.319 264.507 510.392 264.386L506.682 255.561Z" fill="#227A30"/>
<path d="M509.29 254.536L508.156 254.941L511.893 263.874C512.284 263.744 512.663 263.581 513.027 263.388C513.489 263.133 513.842 262.718 514.021 262.222C514.2 261.725 514.192 261.18 513.998 260.689L512.055 255.777C511.847 255.251 511.441 254.826 510.925 254.594C510.408 254.362 509.821 254.341 509.29 254.536Z" fill="#227A30"/>
<path d="M500.412 232.19C499.902 232.374 499.409 232.604 498.941 232.878L502.665 241.784L503.92 241.258C504.441 241.037 504.856 240.622 505.077 240.101C505.299 239.58 505.309 238.993 505.107 238.465L503.151 233.445C502.945 232.922 502.545 232.499 502.034 232.265C501.524 232.031 500.942 232.004 500.412 232.19Z" fill="#227A30"/>
<path d="M162.739 413.321V312.817C162.739 312.817 161.632 285.734 175.866 277.907C190.1 270.081 250.07 274.278 250.07 274.278V413.267L162.739 413.321Z" fill="#1CFF42"/>
<path d="M268.865 180.197C268.865 180.197 265.235 210.626 263.832 213.136L262.483 215.66L255.508 220.396C255.508 220.396 268.905 239.382 285.378 242.459C301.852 245.536 300.449 235.712 300.449 235.712L297.939 230.409L301.285 201.369C301.285 201.369 271.374 187.74 268.865 180.197Z" fill="#FF9D8C"/>
<path d="M246.809 222.919L257.696 218.169C257.696 218.169 264.672 229.612 280.862 236.319C297.052 243.026 297.335 239.112 298.171 236.319C298.631 234.376 298.537 232.342 297.901 230.449L299.089 220.679L305.565 222.838L328.042 404.671L270.257 407.465L246.809 222.919Z" fill="white"/>
<path d="M300.125 220.868C300.125 220.868 304.038 229.895 307.667 251.108C311.296 272.321 314.642 308.067 315.479 332.639C316.315 357.212 316.828 413.32 316.828 413.32H389.683C390.533 413.32 395.551 385.685 395.551 385.685C395.551 385.685 363.725 358.413 362.052 353.946C360.932 350.964 361.499 295.787 356.749 270.378C352 244.968 345.862 239.854 333.018 233.525C319.796 226.981 300.125 220.868 300.125 220.868Z" fill="#036D15"/>
<path d="M338.093 381.326C337.914 381.326 337.743 381.255 337.616 381.129C337.49 381.002 337.419 380.83 337.419 380.652C337.419 378.654 337.068 350.303 336.717 322.87C336.366 295.436 336.016 267.072 336.016 265.075C336.016 264.896 336.087 264.724 336.213 264.598C336.34 264.471 336.511 264.4 336.69 264.4C336.869 264.4 337.041 264.471 337.167 264.598C337.294 264.724 337.365 264.896 337.365 265.075C337.365 267.072 337.729 295.423 338.066 322.856C338.404 350.29 338.768 378.654 338.768 380.652C338.768 380.83 338.697 381.002 338.57 381.129C338.444 381.255 338.272 381.326 338.093 381.326Z" fill="white"/>
<path d="M192.936 374.512L192.383 413.321H277.245C277.245 413.321 280.861 380.368 279.471 377.305C278.082 374.242 192.936 374.512 192.936 374.512Z" fill="#227A30"/>
<g style="mix-blend-mode:multiply">
<path d="M287.376 212.299C290.985 215.02 294.989 217.172 299.248 218.682L301.245 201.409C301.245 201.409 278.809 191.14 271.199 183.489C272.791 192.179 276.704 203.69 287.376 212.299Z" fill="#8EBB96"/>
</g>
<path d="M327.446 123.522C331.201 130.441 333.57 138.027 334.421 145.854C335.541 158.148 334.421 189.683 324.37 203.096C314.318 216.51 293.339 212.542 283.895 204.446C275.179 197.011 266.585 188.806 264.359 172.613C262.133 156.42 269.108 125.721 288.913 119.298C308.719 112.875 327.446 123.522 327.446 123.522Z" fill="#FF9D8C"/>
<path d="M352.662 395.765C352.662 395.765 351.677 395.765 350.18 395.765H349.033L344.068 395.63H342.881C341.127 395.63 339.629 395.805 338.226 395.724C337.929 395.724 337.498 395.724 337.147 395.724C336.999 395.737 336.85 395.737 336.702 395.724C336.052 395.577 335.429 395.331 334.853 394.995C325.374 392.569 315.643 391.26 305.86 391.096C293.393 391.096 282.209 392 280.387 390.475C278.566 388.95 277.446 373.257 288.091 372.231L301.178 377.197C301.178 377.197 331.062 373.634 342.017 381.731C352.973 389.827 352.662 395.765 352.662 395.765Z" fill="#FF9D8C"/>
<path d="M338.241 395.63C337.944 395.63 337.512 395.63 337.161 395.63C336.819 395.089 336.435 394.575 336.015 394.092C332.642 390.651 324.493 388.424 321.538 387.709C321.408 387.677 321.296 387.595 321.226 387.482C321.155 387.369 321.132 387.232 321.16 387.102C321.176 387.036 321.205 386.974 321.244 386.92C321.284 386.865 321.334 386.819 321.392 386.784C321.45 386.749 321.514 386.725 321.581 386.715C321.647 386.705 321.715 386.708 321.781 386.724C326.085 387.763 335.273 390.421 337.809 394.82C337.836 394.942 338.052 395.36 338.241 395.63Z" fill="#227A30"/>
<path d="M344.068 395.575C343.677 395.575 343.272 395.575 342.881 395.575C339.198 388.828 333.181 386.926 325.733 384.537L325.288 384.389C325.161 384.343 325.057 384.25 324.997 384.13C324.937 384.009 324.925 383.87 324.964 383.741C325.01 383.614 325.103 383.51 325.223 383.45C325.344 383.39 325.483 383.378 325.612 383.417L326.043 383.566C333.909 386.062 340.25 388.086 344.068 395.575Z" fill="#227A30"/>
<path d="M350.181 395.725H349.034C347.005 392.088 344.226 388.925 340.881 386.445C337.536 383.965 333.702 382.225 329.633 381.34C329.566 381.329 329.503 381.304 329.446 381.268C329.389 381.232 329.339 381.185 329.301 381.13C329.262 381.075 329.234 381.013 329.219 380.947C329.205 380.881 329.203 380.813 329.215 380.746C329.241 380.615 329.318 380.498 329.429 380.423C329.54 380.347 329.676 380.318 329.808 380.342C339.873 382.217 348.009 390.449 350.181 395.725Z" fill="#227A30"/>
<path d="M271.093 158.836C275.621 156.248 279.268 152.36 281.562 147.676C284.131 142.889 285.432 137.523 285.34 132.091C285.34 132.091 293.152 130.836 304.876 134.331C316.6 137.826 330.51 142.562 342.275 135.856C354.039 129.149 353.999 118.408 348.278 113.941C341.87 108.935 329.161 111.985 329.161 111.985C329.161 111.985 334.045 107.248 331.387 104.455C328.729 101.662 319.11 105.291 319.11 105.291C319.11 105.291 307.385 95.94 285.191 97.0466C262.998 98.1531 252.393 113.671 251.139 130.971C249.884 148.27 256.157 165.597 256.157 165.597L271.093 158.836Z" fill="#227A30"/>
<g style="mix-blend-mode:multiply">
<path d="M316.118 163.032C314.864 166.136 314.891 169.779 314.58 173.031C314.338 175.582 313.865 178.577 316.213 180.305C317.333 181.128 322.621 183.354 319.896 185.163C318.647 185.682 317.276 185.836 315.943 185.608L313.488 185.473C312.611 185.406 311.761 185.136 310.884 185.136C310.775 185.14 310.67 185.179 310.584 185.247C310.499 185.315 310.437 185.408 310.409 185.514C310.38 185.619 310.386 185.731 310.425 185.833C310.464 185.935 310.535 186.021 310.627 186.08C312.21 186.889 313.964 187.306 315.741 187.295C317.195 187.452 318.663 187.195 319.977 186.553C320.457 186.381 320.885 186.093 321.225 185.713C321.564 185.334 321.803 184.876 321.92 184.38C321.922 183.779 321.769 183.187 321.476 182.663C321.183 182.138 320.76 181.698 320.247 181.384C319.195 180.602 317.899 180.237 316.834 179.482C315.349 178.416 315.484 176.634 315.579 174.988C315.835 171.021 316.739 167.121 317.09 163.167C317.157 162.56 316.321 162.56 316.118 163.032Z" fill="#8EBB96"/>
</g>
<path d="M327.526 172.316C327.108 174.678 325.395 176.364 323.708 176.041C322.022 175.717 321.01 173.585 321.388 171.237C321.765 168.889 323.519 167.188 325.206 167.512C326.892 167.836 327.944 169.968 327.526 172.316Z" fill="#227A30"/>
<path d="M306.172 170.454C305.794 172.991 304 174.826 302.124 174.502C300.249 174.178 299.116 171.952 299.426 169.415C299.736 166.878 301.598 165.043 303.473 165.367C305.349 165.691 306.55 167.917 306.172 170.454Z" fill="#227A30"/>
<path d="M322.565 162.614C323.872 162.713 325.182 162.745 326.491 162.709C326.815 162.709 327.126 162.709 327.436 162.803C327.746 162.898 327.018 162.736 327.328 162.803H327.53L328.029 162.911C328.313 162.979 328.583 163.087 328.852 163.141C329.111 163.216 329.379 163.252 329.649 163.249H330.08H329.81C329.989 163.273 330.171 163.273 330.35 163.249C330.711 163.142 331.016 162.899 331.202 162.572C331.388 162.245 331.441 161.859 331.348 161.494C331.29 161.285 331.194 161.089 331.065 160.914L330.89 160.698L331.052 160.887L330.876 160.658C330.81 160.531 330.706 160.427 330.579 160.361C330.471 160.28 330.377 160.185 330.269 160.118C329.894 159.89 329.484 159.726 329.055 159.632C328.271 159.428 327.464 159.324 326.653 159.322C325.858 159.331 325.065 159.394 324.279 159.511C323.549 159.595 322.85 159.854 322.242 160.266C322.017 160.406 321.839 160.608 321.729 160.848C321.619 161.088 321.581 161.355 321.621 161.616C321.648 161.872 321.754 162.115 321.922 162.31C322.091 162.505 322.315 162.644 322.565 162.709V162.614Z" fill="#227A30"/>
<path d="M307.669 158.876L307.129 158.606C306.968 158.525 306.536 158.296 306.86 158.485L306.495 158.283C305.957 158.023 305.391 157.824 304.809 157.689C303.531 157.37 302.206 157.278 300.896 157.419C299.531 157.527 298.207 157.942 297.024 158.633C296.847 158.722 296.683 158.836 296.538 158.971L296.255 159.335L296.336 159.214C296.149 159.34 295.997 159.511 295.893 159.711C295.789 159.912 295.738 160.135 295.742 160.361C295.74 160.567 295.796 160.77 295.904 160.947C296.011 161.123 296.165 161.266 296.35 161.359C296.562 161.453 296.792 161.501 297.024 161.501C297.256 161.501 297.486 161.453 297.699 161.359H296.997C297.344 161.434 297.703 161.434 298.05 161.359C298.05 161.359 298.427 161.265 298.184 161.359C297.942 161.454 298.562 161.359 298.63 161.359C298.697 161.359 299.129 161.359 298.63 161.359H298.873H299.507C300.438 161.292 301.355 161.251 302.205 161.211C303.055 161.17 303.932 161.211 304.795 161.211C305.16 161.211 305.524 161.211 305.888 161.211C306.01 161.211 306.252 161.211 305.888 161.211H306.131L306.576 161.359C306.879 161.445 307.202 161.415 307.484 161.275C307.766 161.135 307.986 160.896 308.101 160.603C308.213 160.314 308.221 159.995 308.125 159.7C308.03 159.405 307.835 159.153 307.575 158.984L307.669 158.876Z" fill="#227A30"/>
<path d="M314.292 197.699C315.678 195.133 317.909 193.126 320.607 192.018C318.259 191.775 307.223 190.749 304.417 192.342C301.3 194.109 304.997 201.221 311.446 201.585C312.077 201.619 312.711 201.583 313.335 201.477C313.383 200.164 313.71 198.876 314.292 197.699Z" fill="#227A30"/>
<path d="M263.281 182.707C263.281 182.707 264.401 187.039 270.823 192.058C275.691 195.586 280.968 198.508 286.541 200.762L287.283 197.51C287.283 197.51 277.663 193.313 273.198 188.712C268.732 184.11 268.165 181.587 268.165 181.587L263.281 182.707Z" fill="#DEE1EB"/>
<path d="M288.403 195.094C290.353 194.978 292.279 195.571 293.826 196.764C295.374 197.957 296.437 199.669 296.821 201.585C297.172 204.284 294.69 207.199 288.888 204.594C281.67 201.356 283.235 195.337 288.403 195.094Z" fill="#227A30"/>
<path d="M267.329 150.739C267.329 150.739 269.555 134.694 280.308 123.751C300.829 102.943 318.273 104.198 318.273 104.198C318.273 104.198 318.139 101.27 311.528 99.043C305.375 96.9379 302.596 98.0579 302.596 98.0579C302.596 98.0579 285.718 99.4073 271.471 115.236C257.224 131.064 255.699 151.103 255.699 151.103L267.329 150.739Z" fill="#DEE1EB"/>
<path d="M265.791 148.782C252.299 146.515 244.865 157.027 244.299 167.674C243.732 178.321 251.449 186.35 261.744 185.54C284.909 183.692 282.264 151.576 265.791 148.782Z" fill="white"/>
<path d="M259.096 175.19C257.398 175.217 255.727 174.77 254.268 173.9C252.81 173.03 251.623 171.771 250.839 170.265C249.937 168.637 249.497 166.794 249.566 164.934C249.635 163.074 250.21 161.269 251.23 159.712C251.264 159.648 251.311 159.592 251.368 159.548C251.426 159.503 251.492 159.471 251.562 159.454C251.633 159.437 251.706 159.435 251.777 159.448C251.848 159.461 251.916 159.489 251.976 159.531C252.035 159.572 252.085 159.625 252.123 159.688C252.16 159.75 252.184 159.819 252.193 159.891C252.201 159.963 252.194 160.036 252.173 160.105C252.151 160.175 252.115 160.238 252.067 160.293C251.158 161.688 250.646 163.304 250.586 164.969C250.527 166.633 250.922 168.282 251.729 169.739C252.44 171.129 253.538 172.284 254.891 173.065C256.243 173.845 257.793 174.218 259.352 174.138C260.804 174.132 262.233 173.769 263.511 173.079C264.789 172.389 265.877 171.395 266.678 170.184C267.622 168.731 268.214 167.078 268.409 165.357C268.603 163.635 268.394 161.892 267.798 160.266C267.241 158.739 266.206 157.432 264.847 156.54C263.489 155.648 261.879 155.218 260.256 155.313C260.124 155.329 259.991 155.292 259.886 155.212C259.78 155.131 259.71 155.013 259.69 154.882C259.68 154.815 259.684 154.747 259.702 154.682C259.719 154.617 259.75 154.556 259.791 154.503C259.833 154.45 259.885 154.406 259.944 154.374C260.003 154.341 260.068 154.321 260.135 154.315C261.984 154.172 263.828 154.641 265.384 155.651C266.94 156.66 268.12 158.154 268.742 159.901C269.384 161.673 269.607 163.569 269.397 165.441C269.186 167.313 268.547 169.112 267.528 170.697C266.64 172.036 265.439 173.138 264.028 173.907C262.617 174.676 261.04 175.089 259.433 175.109L259.096 175.19Z" fill="#81B389"/>
<path d="M249.333 219.006C249.333 219.006 208.575 229.059 194.341 245.252C180.108 261.445 173.402 341.249 173.119 356.092C172.836 370.936 183.17 377.035 189.309 381.232C195.448 385.429 222.525 392.958 244.301 394.065C266.076 395.171 286.732 394.065 286.732 394.065C286.986 389.968 288.103 385.972 290.011 382.338C293.114 375.875 297.053 374.525 297.053 374.525L278.354 367.778C278.354 367.778 275.089 309.092 269.989 280.674C264.12 248.045 249.333 219.006 249.333 219.006Z" fill="#036D15"/>
<path d="M316.873 358.44C316.78 358.435 316.688 358.413 316.604 358.373C316.441 358.299 316.314 358.164 316.251 357.997C316.188 357.83 316.193 357.645 316.266 357.482C320.084 348.873 324.037 331.951 326.264 320.09L326.452 319.132C327.127 315.637 327.964 311.292 326.291 308.336C325.441 306.812 323.511 303.492 321.649 300.24C319.788 296.988 317.912 293.803 317.4 292.859C316.415 291.037 319.518 286.179 323.997 279.5C325.211 277.691 326.25 276.126 326.857 275.074C328.463 272.375 327.397 269.784 326.169 266.856L325.751 265.844C324.631 263.145 323.363 260.351 322.135 257.747L320.705 254.468L318.722 250.069C314.831 240.927 310.412 232.02 305.486 223.391C305.438 223.317 305.406 223.233 305.392 223.146C305.377 223.058 305.381 222.969 305.402 222.883C305.424 222.797 305.463 222.716 305.517 222.646C305.57 222.575 305.638 222.517 305.716 222.474C305.87 222.383 306.054 222.357 306.228 222.399C306.402 222.442 306.552 222.551 306.647 222.703C311.572 231.371 315.995 240.314 319.896 249.489L321.865 253.888L323.363 257.14C324.591 259.839 325.872 262.538 326.992 265.331L327.41 266.329C328.665 269.312 329.96 272.402 328.031 275.775C327.397 276.868 326.345 278.474 325.117 280.269C322.783 283.75 317.912 291.064 318.587 292.252C319.086 293.169 320.894 296.3 322.823 299.579C324.753 302.858 326.614 306.11 327.464 307.675C329.38 311.103 328.49 315.772 327.775 319.429L327.586 320.373C326.776 324.691 322.486 346.822 317.494 358.076C317.437 358.19 317.348 358.285 317.238 358.35C317.127 358.414 317.001 358.446 316.873 358.44Z" fill="white"/>
<path d="M277.096 360.802C277.009 360.805 276.921 360.791 276.84 360.758C276.758 360.725 276.685 360.676 276.624 360.613C273.453 357.415 258.154 330.926 257.007 325.933C256.386 323.234 257.951 316.298 259.463 309.605C260.636 304.424 261.851 299.066 261.513 297.609C260.987 295.436 257.088 292.211 253.297 289.162C248.723 285.424 244.001 281.565 243.084 278.083C242.045 274.129 242.935 249.381 243.529 233.013C243.745 227.129 243.907 222.474 243.907 220.868C243.907 220.689 243.978 220.518 244.104 220.391C244.231 220.264 244.402 220.193 244.581 220.193C244.759 220.197 244.929 220.269 245.054 220.395C245.18 220.521 245.252 220.69 245.256 220.868C245.256 222.555 245.08 227.21 244.878 233.121C244.325 248.423 243.407 274.035 244.392 277.8C245.202 280.849 249.951 284.736 254.147 288.163C258.343 291.591 262.242 294.735 262.822 297.353C263.24 299.107 262.107 304.1 260.785 309.956C259.368 316.19 257.776 323.261 258.329 325.69C259.449 330.575 274.519 356.578 277.582 359.709C277.645 359.772 277.695 359.846 277.729 359.928C277.764 360.011 277.781 360.099 277.781 360.188C277.781 360.277 277.764 360.365 277.729 360.447C277.695 360.53 277.645 360.604 277.582 360.667C277.515 360.722 277.437 360.763 277.353 360.786C277.27 360.809 277.182 360.815 277.096 360.802Z" fill="white"/>
<path d="M222.211 349.224C222.034 349.2 221.873 349.107 221.765 348.966C221.656 348.824 221.608 348.645 221.631 348.468C222.13 344.959 229.874 275.06 230.225 269.703C230.237 269.524 230.32 269.357 230.456 269.24C230.591 269.122 230.768 269.063 230.947 269.075C231.126 269.088 231.292 269.171 231.41 269.306C231.527 269.442 231.586 269.618 231.574 269.797C231.223 275.195 223.479 345.135 222.966 348.657C222.94 348.831 222.845 348.989 222.704 349.094C222.563 349.2 222.386 349.247 222.211 349.224Z" fill="white"/>
<path d="M277.801 368.237C277.717 368.256 277.629 368.256 277.545 368.237C275.832 367.549 268.249 364.985 258.657 361.747C239.283 355.215 212.785 346.269 207.699 343.637C207.597 343.606 207.504 343.549 207.428 343.474C207.352 343.398 207.296 343.305 207.264 343.203C207.232 343.101 207.226 342.992 207.245 342.887C207.264 342.782 207.309 342.683 207.375 342.598C207.416 342.519 207.473 342.449 207.541 342.392C207.61 342.334 207.689 342.291 207.775 342.265C207.86 342.239 207.95 342.229 208.039 342.238C208.127 342.247 208.214 342.273 208.292 342.315C213.244 344.879 240.807 354.176 259.048 360.33C268.668 363.582 276.263 366.146 278.017 366.847C278.181 366.916 278.312 367.047 278.38 367.211C278.448 367.375 278.449 367.56 278.382 367.724C278.351 367.86 278.279 367.983 278.174 368.075C278.07 368.167 277.94 368.224 277.801 368.237Z" fill="white"/>
<path d="M268.478 396.034C251.438 396.034 218.384 392.958 193.276 384.079C193.122 384.009 193 383.884 192.933 383.729C192.867 383.574 192.861 383.4 192.917 383.24C192.973 383.081 193.087 382.948 193.235 382.869C193.384 382.789 193.557 382.768 193.721 382.81C225.44 394.037 269.814 395.953 278.071 394.091C278.159 394.072 278.251 394.07 278.34 394.086C278.43 394.102 278.515 394.135 278.591 394.184C278.668 394.233 278.734 394.296 278.786 394.371C278.838 394.445 278.874 394.529 278.894 394.618C278.913 394.706 278.915 394.798 278.899 394.887C278.883 394.976 278.85 395.062 278.801 395.138C278.752 395.215 278.689 395.281 278.614 395.332C278.54 395.384 278.456 395.421 278.368 395.441C275.096 395.943 271.786 396.141 268.478 396.034Z" fill="white"/>
<path d="M73.3493 228.425C78.6381 233.08 85.3434 236.062 89.9845 241.447C91.8194 243.565 93.4654 245.819 95.1518 248.032C96.3931 249.651 99.685 252.336 100.225 254.374C100.454 255.264 100.414 254.05 100.225 253.159V253.038C99.766 248.99 99.4287 244.793 99.2803 240.664C99.1319 236.535 99.4017 232.378 99.1454 228.263C98.7811 222.447 96.9597 216.82 92.2106 213.176C89.8901 211.395 86.9084 210.316 84.7633 208.332C82.6181 206.348 83.549 204.284 84.7633 202.219C86.0514 200.345 87.0308 198.277 87.664 196.093C87.9306 193.505 87.2657 190.907 85.7886 188.766C83.0228 184.124 76.8841 178.955 71.0827 179.644C66.2392 180.224 65.6861 185.81 65.767 189.71C65.848 193.61 66.1987 197.267 66.2392 201.045C66.2797 204.824 65.6186 208.75 65.5646 212.623C65.4702 219.141 68.5058 224.161 73.3493 228.425Z" fill="#6BFF84"/>
<path d="M122.524 288.851C123.965 285.365 125.722 282.018 127.773 278.852C130.619 274.467 133.776 270.189 135.692 265.277C137.608 260.365 137.365 254.9 137.554 249.624C137.702 245.738 138.903 241.865 138.539 237.979C138.391 236.117 137.325 233.094 134.91 233.404C133.021 233.647 131.915 235.968 131.186 237.452C130.003 240.087 128.981 242.791 128.123 245.549C127.759 246.615 127.408 247.708 126.95 248.734C126.68 249.327 125.816 250.785 125.02 250.582C123.671 250.245 124.885 244.645 125.088 243.66C126.113 238.667 127.665 234.038 127.881 228.911C128.191 221.489 127.611 212.637 120.339 208.575C118.436 207.509 116.035 206.875 114.227 208.467C112.419 210.059 111.947 212.745 111.677 214.985C110.868 221.853 112.487 228.344 114.686 234.808C116.494 240.138 118.733 245.603 118.814 251.351C118.976 256.83 116.116 261.701 114.767 266.883C113.391 271.87 112.813 277.044 113.053 282.212C113.053 285.559 113.161 288.878 113.404 292.225C113.633 295.288 113.903 298.365 114.281 301.428C114.281 302.049 114.429 302.696 114.51 303.331C113.323 300.497 112.918 297.231 111.933 294.384C110.193 289.297 108.183 284.331 106.537 279.23C105.265 274.978 103.766 270.798 102.044 266.708C100.331 262.902 98.2799 258.881 95.0958 256.088C93.2382 254.365 90.8022 253.402 88.2691 253.389C86.6676 253.519 85.0896 253.854 83.574 254.388C82.7267 254.681 81.8184 254.754 80.9353 254.598C80.0522 254.442 79.2236 254.063 78.5281 253.497C73.3068 249.449 71.7823 242.31 67.8697 237.237C64.996 233.458 58.1692 227.008 53.1503 231.137C50.452 233.323 49.7639 237.547 49.8988 240.785C50.2654 244.8 51.6593 248.653 53.9463 251.972C56.1994 255.588 59.1136 258.827 61.1778 262.551C62.2786 264.618 62.7033 266.978 62.3921 269.298C62.0418 271.583 62.1844 273.915 62.8103 276.14C65.1983 282.887 72.6457 281.956 78.4471 282.131C82.611 282.214 86.7414 282.896 90.711 284.155C92.7986 284.8 94.7008 285.937 96.2574 287.471C97.8141 289.004 98.9796 290.889 99.656 292.967C100.803 296.152 101.423 299.714 103.596 302.413C104.629 303.665 105.947 304.651 107.441 305.287C109.707 306.286 116.602 306.718 116.655 306.083C117.032 303.917 117.633 301.796 118.45 299.755C119.678 296.138 121.027 292.468 122.524 288.851Z" fill="#6BFF84"/>
<path d="M154.538 287.57C153.944 283.71 154.052 279.473 152.231 275.897C152.158 275.781 152.044 275.696 151.911 275.661C151.778 275.626 151.636 275.643 151.516 275.708C150.166 276.437 150.166 278.556 150.045 279.864C149.856 282.01 150.045 284.169 149.735 286.315C149.277 290.15 148.372 293.918 147.036 297.542C146.36 299.391 145.242 301.046 143.779 302.363C142.317 303.68 140.554 304.619 138.645 305.098C136.01 305.702 133.515 306.801 131.292 308.337C129.401 309.936 127.924 311.968 126.988 314.261C124.289 320.333 122.94 327.134 121.726 333.625C120.876 338.011 120.188 342.396 119.122 346.728C117.958 351.03 117.022 355.39 116.316 359.79C116.208 360.006 116.1 360.235 116.006 360.451C115.736 361.112 116.761 361.477 117.125 360.923C121.308 354.473 126.421 348.684 133.315 345.122C136.459 343.516 140.641 343.192 143.272 340.669C145.269 338.739 145.539 335.811 145.242 333.207C144.851 329.779 143.205 326.959 141.491 324.031C140.56 322.425 139.441 320.711 139.818 318.754C140.079 317.871 140.516 317.05 141.102 316.34C141.689 315.631 142.413 315.047 143.232 314.625C146.119 312.831 149.519 312.021 151.88 309.417C154.052 307.041 155.347 303.993 155.55 300.78C155.703 296.353 155.363 291.922 154.538 287.57Z" fill="#6BFF84"/>
<path d="M97.3876 309.862C93.6801 305.103 89.2237 300.978 84.1927 297.649C81.4944 295.868 75.1938 292.346 73.9121 297.649C73.1701 300.726 76.1787 303.749 78.162 305.746C81.1436 308.647 84.584 311.143 87.0934 314.49C83.9904 315.489 80.7389 315.678 78.0271 317.823C74.8295 320.373 73.3859 325.299 76.57 328.416C78.211 329.84 80.0753 330.985 82.088 331.803C84.5975 333.017 87.1474 334.124 89.7108 335.19C95.2559 337.511 100.868 339.859 105.59 343.651C110.313 347.443 114.94 354.041 115.318 360.356C115.318 360.95 115.129 360.356 115.493 360.127C115.682 360.302 116.343 359.992 116.343 359.641C116.361 350.403 114.454 341.262 110.744 332.802C107.216 324.653 102.732 316.952 97.3876 309.862Z" fill="#6BFF84"/>
<path d="M84.597 222.744C86.6477 226.981 88.7794 231.124 91.046 235.253C93.3102 239.164 95.3113 243.221 97.0363 247.398C99.0466 252.62 101.084 257.761 103.269 262.943C105.504 268.315 107.428 273.812 109.03 279.406C112.199 290.361 114.406 301.572 115.628 312.911C116.217 318.658 116.442 324.436 116.302 330.211C116.181 334.731 115.668 339.198 115.25 343.705C114.706 348.38 114.58 353.095 114.872 357.793C115.21 361.72 115.83 366.375 118.92 369.168C119.042 369.281 119.2 369.347 119.366 369.354C119.532 369.361 119.696 369.309 119.827 369.207C119.958 369.105 120.049 368.959 120.083 368.797C120.117 368.634 120.092 368.464 120.013 368.318C116.397 360.91 116.599 352.84 117.314 344.798C117.692 340.358 118.218 335.946 118.367 331.493C118.542 325.823 118.353 320.149 117.8 314.504C116.649 303.405 114.569 292.423 111.58 281.673C110.093 276.176 108.292 270.769 106.184 265.48C104.079 260.149 101.65 254.981 99.6132 249.638C95.93 239.962 90.3175 231.38 85.339 222.379C85.0827 221.907 84.4081 222.379 84.624 222.784L84.597 222.744Z" fill="#438E50"/>
<path d="M115.721 301.833C116.301 294.789 116.922 288.001 119.297 281.281C120.403 278.15 121.752 275.101 122.818 271.957C123.695 269.366 125.017 265.79 124.342 263.037C124.328 262.967 124.289 262.905 124.234 262.86C124.179 262.815 124.11 262.791 124.039 262.791C123.968 262.791 123.899 262.815 123.844 262.86C123.788 262.905 123.75 262.967 123.735 263.037C123.277 264.616 123.331 266.343 123.007 267.962C122.672 269.534 122.258 271.088 121.766 272.618C120.727 275.87 119.364 278.987 118.19 282.185C115.828 288.452 114.821 295.148 115.236 301.833C115.236 301.897 115.261 301.959 115.307 302.004C115.352 302.05 115.414 302.075 115.478 302.075C115.543 302.075 115.605 302.05 115.65 302.004C115.696 301.959 115.721 301.897 115.721 301.833Z" fill="#438E50"/>
<path d="M74.9103 261.35C77.7165 268.097 86.1084 268.502 92.2336 270.013C94.3229 270.587 96.276 271.574 97.977 272.916C99.678 274.258 101.092 275.928 102.136 277.826C104.58 282.117 106.479 286.695 107.789 291.456C107.789 291.456 107.884 291.456 107.87 291.456C106.157 283.359 103.715 273.603 95.3636 269.865C88.6853 266.856 79.8752 268.367 75.5984 261.148C75.3825 260.783 74.7349 261.026 74.8968 261.431L74.9103 261.35Z" fill="#438E50"/>
<path d="M111.298 300.766C111.636 301.212 111.946 301.684 112.283 302.116C112.446 302.337 112.631 302.541 112.836 302.723C113.047 302.937 113.322 303.075 113.619 303.114C113.649 303.113 113.677 303.105 113.703 303.089C113.728 303.074 113.749 303.053 113.764 303.027C113.778 303.001 113.787 302.973 113.787 302.943C113.788 302.913 113.781 302.884 113.767 302.858C113.597 302.659 113.402 302.482 113.187 302.332L112.58 301.792C112.189 301.428 111.838 301.023 111.447 300.645C111.379 300.645 111.231 300.645 111.298 300.766Z" fill="#438E50"/>
<path d="M93.8238 322.182C98.7045 326.164 103.013 330.8 106.627 335.96C108.317 338.428 109.871 340.987 111.282 343.624C112.707 346.515 113.969 349.484 115.06 352.517C115.154 352.746 115.559 352.76 115.532 352.517C114.857 346.161 110.837 340.71 107.626 335.433C105.916 332.794 103.906 330.363 101.636 328.187C99.38 325.797 96.9096 323.62 94.2556 321.683C93.9318 321.44 93.5135 321.98 93.8238 322.236V322.182Z" fill="#438E50"/>
<path d="M132.211 314.706C129.89 316.055 129.823 319.699 129.769 322.033C129.688 326.54 130.794 330.764 128.824 335.055C127.044 338.928 124.197 342.153 121.957 345.756C119.852 349.129 117.788 353.434 117.829 357.482C117.829 357.712 118.193 357.847 118.301 357.604C119.009 355.691 119.595 353.735 120.055 351.747C120.728 349.611 121.691 347.577 122.915 345.702C125.074 342.369 127.718 339.319 129.472 335.73C131.307 331.938 131.037 328.187 130.916 324.084C130.916 321.466 130.578 317.27 132.683 315.327C132.756 315.261 132.802 315.17 132.811 315.072C132.82 314.975 132.792 314.877 132.733 314.799C132.673 314.721 132.586 314.668 132.49 314.651C132.393 314.633 132.294 314.653 132.211 314.706Z" fill="#438E50"/>
<path d="M116.696 357.9C107.332 357.765 89.5234 357.671 89.5234 357.671L93.9352 390.408C94.4032 393.978 96.153 397.256 98.8585 399.632C101.564 402.008 105.041 403.319 108.641 403.321H124.737C128.331 403.324 131.805 402.022 134.512 399.657C137.219 397.292 138.976 394.024 139.456 390.462L143.854 357.725C143.854 357.725 126.045 357.765 116.696 357.9Z" fill="white"/>
<path d="M568.799 297.73L515.439 403.457L359.867 404.577L407.87 296.246L568.799 297.73Z" fill="#F6FAF7"/>
<path d="M256.613 403.915V395.455H357.315L403.659 293.831H564.749L568.797 297.73H411.457L363.305 403.821C363.305 403.821 256.613 403.632 256.613 403.915Z" fill="#D9DEE8"/>
<path d="M488 356.092C486.246 361.355 476.707 365.43 466.697 365.187C456.686 364.944 449.994 360.451 451.748 355.175C453.502 349.899 463.054 345.837 473.065 346.08C483.076 346.323 489.767 350.803 488 356.092Z" fill="#D9DEE8"/>
<path d="M363.309 404.496C363.215 404.515 363.119 404.515 363.025 404.496C362.863 404.422 362.736 404.287 362.673 404.121C362.609 403.954 362.615 403.768 362.688 403.605L411.096 297.056H568.8C568.979 297.056 569.15 297.127 569.277 297.254C569.403 297.38 569.474 297.552 569.474 297.731C569.474 297.91 569.403 298.081 569.277 298.208C569.15 298.334 568.979 298.406 568.8 298.406H411.892L363.875 404.105C363.827 404.217 363.748 404.313 363.648 404.382C363.548 404.451 363.43 404.491 363.309 404.496Z" fill="white"/>
<path d="M249.6 411.917H64.5352V452.953H249.6V411.917Z" fill="#599B64"/>
<path d="M581.521 411.917H248.547V452.953H581.521V411.917Z" fill="#7AAF83"/>
<g style="mix-blend-mode:multiply">
<path d="M249.6 411.917H248.548H64.5352V419.461H248.548H249.6H581.522V411.917H249.6Z" fill="#BDD7C1"/>
</g>
<path d="M257.693 403.82H55.6016V413.873H257.693V403.82Z" fill="#6FA979"/>
<path d="M589.615 403.82H256.641V413.873H589.615V403.82Z" fill="#9CC3A3"/>
<path d="M202.879 141.239H137.553C133.507 141.239 130.227 144.52 130.227 148.567V181.182C130.227 185.229 133.507 188.509 137.553 188.509H202.879C206.925 188.509 210.205 185.229 210.205 181.182V148.567C210.205 144.52 206.925 141.239 202.879 141.239Z" fill="white"/>
<path d="M228.826 164.868L204.285 154.518V175.218L228.826 164.868Z" fill="white"/>
<path d="M154.715 169.388C157.211 169.388 159.235 167.364 159.235 164.867C159.235 162.371 157.211 160.347 154.715 160.347C152.219 160.347 150.195 162.371 150.195 164.867C150.195 167.364 152.219 169.388 154.715 169.388Z" fill="#227A30"/>
<path d="M170.215 169.388C172.711 169.388 174.735 167.364 174.735 164.867C174.735 162.371 172.711 160.347 170.215 160.347C167.719 160.347 165.695 162.371 165.695 164.867C165.695 167.364 167.719 169.388 170.215 169.388Z" fill="#227A30"/>
<path d="M185.719 169.388C188.215 169.388 190.239 167.364 190.239 164.867C190.239 162.371 188.215 160.347 185.719 160.347C183.223 160.347 181.199 162.371 181.199 164.867C181.199 167.364 183.223 169.388 185.719 169.388Z" fill="#227A30"/>
<path d="M535.487 40.8838H384.664C380.012 40.8838 375.551 42.732 372.262 46.0218C368.973 49.3117 367.125 53.7736 367.125 58.4261V129.945C367.125 134.597 368.973 139.059 372.262 142.349C375.551 145.639 380.012 147.487 384.664 147.487H398.156C398.534 153.978 397.603 163.68 392.192 175.973C405.631 169.865 416.993 159.965 424.883 147.487H535.514C540.166 147.487 544.627 145.639 547.916 142.349C551.206 139.059 553.053 134.597 553.053 129.945V58.4261C553.053 56.1202 552.599 53.8368 551.716 51.7067C550.833 49.5766 549.538 47.6416 547.907 46.0123C546.275 44.383 544.339 43.0914 542.208 42.2114C540.076 41.3314 537.793 40.8803 535.487 40.8838Z" fill="#2AE249"/>
<path d="M471.148 74.9836H396.337C395.352 74.9836 394.407 74.5931 393.709 73.8975C393.011 73.202 392.617 72.2581 392.613 71.2727C392.613 70.2849 393.006 69.3376 393.704 68.6392C394.402 67.9407 395.349 67.5483 396.337 67.5483H471.148C472.136 67.5483 473.083 67.9407 473.781 68.6392C474.48 69.3376 474.872 70.2849 474.872 71.2727C474.868 72.2581 474.474 73.202 473.777 73.8975C473.079 74.5931 472.133 74.9836 471.148 74.9836Z" fill="white"/>
<path d="M524.789 96.6688H394.905C394.3 96.6688 393.72 96.4285 393.293 96.0008C392.865 95.5732 392.625 94.9931 392.625 94.3883C392.625 93.7835 392.865 93.2034 393.293 92.7757C393.72 92.3481 394.3 92.1078 394.905 92.1078H524.803C525.106 92.1024 525.406 92.1574 525.688 92.2696C525.969 92.3818 526.225 92.5489 526.441 92.7612C526.657 92.9735 526.829 93.2268 526.946 93.5061C527.063 93.7855 527.123 94.0854 527.123 94.3883C527.123 94.6924 527.063 94.9934 526.945 95.2736C526.827 95.5539 526.654 95.8077 526.436 96.0202C526.219 96.2327 525.961 96.3996 525.678 96.5109C525.395 96.6223 525.093 96.676 524.789 96.6688Z" fill="#D2FFDA"/>
<path d="M524.789 109.326H394.905C394.3 109.326 393.72 109.085 393.293 108.658C392.865 108.23 392.625 107.65 392.625 107.045C392.625 106.44 392.865 105.86 393.293 105.432C393.72 105.005 394.3 104.765 394.905 104.765H524.803C525.106 104.759 525.406 104.814 525.688 104.926C525.969 105.039 526.225 105.206 526.441 105.418C526.657 105.63 526.829 105.884 526.946 106.163C527.063 106.442 527.123 106.742 527.123 107.045C527.123 107.349 527.063 107.65 526.945 107.93C526.827 108.211 526.654 108.464 526.436 108.677C526.219 108.889 525.961 109.056 525.678 109.168C525.395 109.279 525.093 109.333 524.789 109.326Z" fill="#D2FFDA"/>
<path d="M496.457 122.82H394.905C394.3 122.82 393.72 122.579 393.293 122.152C392.865 121.724 392.625 121.144 392.625 120.539C392.625 119.934 392.865 119.354 393.293 118.927C393.72 118.499 394.3 118.259 394.905 118.259H496.47C496.773 118.253 497.074 118.308 497.355 118.42C497.637 118.533 497.893 118.7 498.109 118.912C498.325 119.124 498.496 119.378 498.613 119.657C498.731 119.936 498.791 120.236 498.791 120.539C498.791 120.843 498.73 121.144 498.612 121.425C498.494 121.705 498.322 121.959 498.104 122.171C497.887 122.384 497.629 122.55 497.346 122.662C497.063 122.773 496.761 122.827 496.457 122.82Z" fill="#D2FFDA"/>
<path d="M523.765 74.9836H488.079C487.094 74.9836 486.149 74.5931 485.451 73.8975C484.753 73.202 484.359 72.2582 484.355 71.2727C484.355 70.285 484.748 69.3377 485.446 68.6392C486.144 67.9408 487.092 67.5484 488.079 67.5484H523.765C524.254 67.5466 524.739 67.6417 525.192 67.8282C525.644 68.0148 526.055 68.289 526.402 68.6352C526.748 68.9814 527.022 69.3927 527.208 69.8454C527.395 70.298 527.49 70.7831 527.488 71.2727C527.488 71.7612 527.392 72.2448 527.205 72.696C527.017 73.1471 526.743 73.5567 526.397 73.9015C526.051 74.2463 525.64 74.5193 525.189 74.705C524.737 74.8907 524.253 74.9854 523.765 74.9836Z" fill="white"/>
<path d="M433.815 206.483H393.3C391.81 206.483 390.602 207.692 390.602 209.182V236.872C390.602 238.363 391.81 239.571 393.3 239.571H433.815C435.306 239.571 436.514 238.363 436.514 236.872V209.182C436.514 207.692 435.306 206.483 433.815 206.483Z" fill="white"/>
<path d="M413.79 227.98C413.552 227.979 413.323 227.893 413.143 227.737L391.084 209.52C390.982 209.431 390.899 209.324 390.838 209.203C390.778 209.082 390.742 208.95 390.733 208.816C390.724 208.681 390.741 208.546 390.784 208.418C390.827 208.29 390.894 208.171 390.983 208.069C391.071 207.968 391.179 207.884 391.3 207.824C391.421 207.764 391.552 207.728 391.687 207.718C391.822 207.709 391.957 207.726 392.085 207.769C392.213 207.812 392.331 207.88 392.433 207.968L413.79 225.632L434.635 207.496C434.837 207.317 435.102 207.226 435.372 207.242C435.641 207.259 435.893 207.381 436.072 207.584C436.251 207.786 436.342 208.051 436.326 208.32C436.309 208.59 436.186 208.842 435.984 209.021L414.492 227.724C414.298 227.893 414.048 227.984 413.79 227.98Z" fill="#6FA979"/>
<path d="M391.789 238.815C391.59 238.815 391.396 238.756 391.231 238.647C391.065 238.537 390.936 238.381 390.858 238.199C390.78 238.016 390.758 237.815 390.794 237.62C390.83 237.424 390.922 237.244 391.06 237.101L406.481 220.908C406.574 220.813 406.685 220.737 406.808 220.685C406.931 220.633 407.063 220.606 407.196 220.606C407.329 220.606 407.461 220.633 407.584 220.685C407.707 220.737 407.818 220.813 407.911 220.908C408.101 221.098 408.207 221.355 408.207 221.623C408.207 221.892 408.101 222.149 407.911 222.339L392.49 238.531C392.303 238.714 392.051 238.816 391.789 238.815Z" fill="#6FA979"/>
<path d="M435.378 238.221C435.245 238.224 435.113 238.2 434.99 238.148C434.867 238.097 434.755 238.021 434.663 237.925L419.256 222.501C419.077 222.309 418.98 222.055 418.985 221.793C418.989 221.531 419.095 221.281 419.281 221.095C419.466 220.91 419.716 220.804 419.978 220.799C420.241 220.794 420.494 220.892 420.686 221.07L436.053 236.481C436.243 236.67 436.349 236.928 436.349 237.196C436.349 237.464 436.243 237.721 436.053 237.911C435.876 238.097 435.635 238.209 435.378 238.221Z" fill="#6FA979"/>
<path d="M438.634 218.992C446.107 218.992 452.166 212.932 452.166 205.457C452.166 197.982 446.107 191.923 438.634 191.923C431.16 191.923 425.102 197.982 425.102 205.457C425.102 212.932 431.16 218.992 438.634 218.992Z" fill="#FF5F42"/>
<path d="M430.176 208.818C430.189 208.114 430.42 207.432 430.839 206.866C431.257 206.3 431.841 205.878 432.51 205.66C431.962 205.452 431.491 205.082 431.159 204.6C430.826 204.118 430.648 203.547 430.648 202.961C430.668 202.513 430.779 202.073 430.975 201.669C431.171 201.265 431.447 200.905 431.787 200.612C432.127 200.319 432.523 200.098 432.951 199.964C433.38 199.829 433.831 199.784 434.277 199.83C434.696 199.778 435.121 199.813 435.526 199.933C435.93 200.053 436.305 200.256 436.628 200.529C436.95 200.801 437.212 201.138 437.397 201.517C437.582 201.896 437.687 202.31 437.704 202.732C437.685 203.324 437.49 203.896 437.144 204.377C436.798 204.858 436.316 205.224 435.761 205.431C436.429 205.617 437.02 206.013 437.447 206.559C437.874 207.105 438.115 207.774 438.136 208.467C438.113 208.964 437.989 209.452 437.769 209.899C437.55 210.346 437.24 210.742 436.86 211.064C436.48 211.386 436.038 211.626 435.561 211.769C435.084 211.911 434.583 211.954 434.088 211.894C431.66 212.002 430.176 210.531 430.176 208.818ZM436.517 208.737C436.517 207.306 435.518 206.618 433.926 206.173C433.348 206.272 432.821 206.568 432.435 207.01C432.049 207.453 431.828 208.015 431.808 208.602C431.798 208.908 431.852 209.213 431.968 209.497C432.084 209.781 432.258 210.037 432.48 210.248C432.701 210.46 432.965 210.622 433.254 210.724C433.543 210.827 433.85 210.867 434.156 210.842C434.452 210.872 434.751 210.84 435.034 210.748C435.317 210.656 435.577 210.507 435.799 210.309C436.021 210.111 436.2 209.869 436.323 209.598C436.447 209.327 436.513 209.034 436.517 208.737ZM432.132 202.853C432.132 204.041 433.022 204.675 434.372 205.026C434.863 204.917 435.305 204.649 435.63 204.263C435.954 203.878 436.142 203.397 436.166 202.894C436.181 202.632 436.139 202.371 436.043 202.127C435.948 201.884 435.801 201.663 435.613 201.481C435.425 201.3 435.2 201.16 434.953 201.074C434.706 200.987 434.443 200.954 434.183 200.977C433.922 200.953 433.659 200.983 433.411 201.067C433.163 201.15 432.935 201.284 432.742 201.461C432.549 201.637 432.395 201.853 432.29 202.092C432.185 202.332 432.131 202.591 432.132 202.853Z" fill="white"/>
<path d="M446.632 201.369H442.126L441.68 204.392C441.998 204.35 442.318 204.327 442.638 204.324C443.525 204.308 444.4 204.527 445.175 204.958C445.701 205.264 446.135 205.706 446.429 206.238C446.724 206.771 446.869 207.373 446.848 207.981C446.849 208.541 446.735 209.095 446.512 209.609C446.288 210.122 445.961 210.584 445.55 210.965C445.139 211.345 444.654 211.636 444.125 211.819C443.596 212.003 443.034 212.074 442.476 212.029C441.449 212.053 440.433 211.802 439.535 211.301L439.94 210.086C440.708 210.512 441.571 210.735 442.449 210.734C442.803 210.762 443.158 210.716 443.493 210.601C443.829 210.486 444.137 210.303 444.399 210.064C444.66 209.825 444.87 209.535 445.015 209.211C445.161 208.888 445.238 208.538 445.242 208.184C445.242 206.672 444.203 205.579 441.856 205.579C441.309 205.587 440.764 205.632 440.223 205.714L440.992 200.06H446.618L446.632 201.369Z" fill="white"/>
<path d="M574.598 177.309H495.51C492.529 177.309 490.113 179.726 490.113 182.707V195.081C490.113 198.062 492.529 200.478 495.51 200.478H574.598C577.578 200.478 579.995 198.062 579.995 195.081V182.707C579.995 179.726 577.578 177.309 574.598 177.309Z" fill="#07BF26"/>
<path d="M501.219 194.973C501.059 194.976 500.899 194.944 500.752 194.879C500.605 194.814 500.475 194.717 500.369 194.595C500.156 194.324 500.054 193.981 500.086 193.637L500.423 190.641C500.423 190.56 500.423 190.52 500.423 190.493C500.423 190.466 500.315 190.493 500.235 190.493L497.766 192.274C497.636 192.382 497.484 192.46 497.321 192.502C497.157 192.544 496.987 192.549 496.821 192.517C496.653 192.483 496.494 192.412 496.356 192.309C496.219 192.207 496.106 192.075 496.025 191.923C495.915 191.774 495.845 191.598 495.821 191.414C495.798 191.23 495.821 191.043 495.89 190.871C495.954 190.719 496.049 190.582 496.17 190.47C496.291 190.358 496.435 190.274 496.592 190.223L499.358 188.968C499.439 188.968 499.479 188.927 499.479 188.846C499.479 188.846 499.479 188.766 499.358 188.739L496.592 187.484C496.431 187.423 496.286 187.327 496.167 187.203C496.048 187.08 495.958 186.931 495.904 186.768C495.857 186.604 495.843 186.433 495.864 186.263C495.885 186.094 495.94 185.931 496.025 185.783C496.106 185.632 496.219 185.5 496.356 185.397C496.494 185.294 496.653 185.223 496.821 185.19C496.984 185.156 497.152 185.157 497.315 185.192C497.477 185.226 497.631 185.295 497.766 185.392L500.235 187.214C500.315 187.214 500.369 187.281 500.423 187.214C500.477 187.146 500.491 187.214 500.423 187.065L500.086 184.07C500.066 183.898 500.082 183.724 500.133 183.559C500.185 183.394 500.27 183.242 500.383 183.111C500.5 182.987 500.643 182.889 500.801 182.823C500.959 182.758 501.129 182.728 501.3 182.734C501.469 182.731 501.637 182.765 501.79 182.835C501.944 182.905 502.08 183.009 502.189 183.138C502.298 183.267 502.376 183.419 502.418 183.583C502.461 183.746 502.466 183.917 502.434 184.083L502.096 187.079C502.096 187.16 502.096 187.2 502.096 187.227C502.096 187.254 502.204 187.227 502.285 187.227L504.754 185.446C504.886 185.337 505.04 185.258 505.206 185.216C505.371 185.174 505.544 185.17 505.712 185.203C505.881 185.232 506.04 185.301 506.176 185.404C506.312 185.508 506.421 185.642 506.495 185.797C506.601 185.948 506.669 186.123 506.693 186.306C506.716 186.49 506.695 186.676 506.63 186.849C506.564 187 506.467 187.135 506.347 187.247C506.226 187.358 506.083 187.444 505.928 187.497L503.149 188.752C503.081 188.752 503.041 188.82 503.041 188.86C503.041 188.9 503.041 188.954 503.149 188.981L505.928 190.236C506.089 190.299 506.235 190.395 506.356 190.518C506.477 190.642 506.57 190.789 506.63 190.952C506.684 191.115 506.701 191.289 506.677 191.46C506.654 191.631 506.591 191.794 506.495 191.937C506.421 192.091 506.312 192.226 506.176 192.329C506.04 192.432 505.881 192.501 505.712 192.53C505.547 192.564 505.377 192.564 505.212 192.529C505.047 192.494 504.891 192.426 504.754 192.328L502.285 190.506C502.204 190.506 502.137 190.439 502.096 190.506C502.056 190.574 502.029 190.574 502.096 190.655L502.434 193.65C502.465 193.821 502.455 193.997 502.406 194.163C502.357 194.33 502.269 194.482 502.15 194.608C502.028 194.729 501.882 194.824 501.722 194.886C501.562 194.949 501.391 194.978 501.219 194.973Z" fill="white"/>
<path d="M517.571 194.973C517.411 194.977 517.251 194.945 517.104 194.879C516.957 194.814 516.827 194.717 516.721 194.595C516.508 194.324 516.407 193.981 516.438 193.637L516.775 190.642C516.775 190.561 516.775 190.52 516.775 190.493C516.745 190.475 516.71 190.466 516.674 190.466C516.639 190.466 516.604 190.475 516.573 190.493L514.118 192.274C513.986 192.383 513.831 192.461 513.666 192.503C513.5 192.545 513.327 192.55 513.16 192.517C512.992 192.482 512.834 192.41 512.697 192.308C512.559 192.205 512.446 192.074 512.364 191.924C512.257 191.772 512.189 191.598 512.165 191.414C512.142 191.231 512.164 191.044 512.229 190.871C512.294 190.72 512.391 190.585 512.512 190.474C512.632 190.362 512.775 190.277 512.93 190.223L515.71 188.968C515.777 188.968 515.818 188.901 515.818 188.847C515.818 188.793 515.818 188.766 515.71 188.739L512.93 187.484C512.77 187.425 512.626 187.33 512.509 187.205C512.392 187.081 512.305 186.932 512.256 186.769C512.203 186.606 512.186 186.435 512.205 186.265C512.223 186.095 512.277 185.931 512.364 185.784C512.446 185.633 512.559 185.502 512.697 185.4C512.834 185.297 512.992 185.226 513.16 185.19C513.325 185.157 513.495 185.158 513.659 185.193C513.824 185.228 513.98 185.296 514.118 185.392L516.573 187.214C516.604 187.232 516.639 187.241 516.674 187.241C516.71 187.241 516.745 187.232 516.775 187.214C516.775 187.214 516.775 187.214 516.775 187.066L516.438 184.07C516.421 183.898 516.44 183.723 516.493 183.558C516.546 183.394 516.633 183.242 516.748 183.112C516.864 182.993 517.003 182.898 517.156 182.833C517.308 182.769 517.473 182.735 517.639 182.735C517.805 182.735 517.969 182.769 518.122 182.833C518.275 182.898 518.414 182.993 518.529 183.112C518.642 183.242 518.723 183.395 518.768 183.561C518.812 183.727 518.818 183.901 518.786 184.07L518.448 187.066C518.448 187.147 518.448 187.187 518.448 187.214C518.448 187.241 518.556 187.214 518.637 187.214L521.106 185.433C521.24 185.322 521.396 185.243 521.564 185.201C521.732 185.159 521.908 185.155 522.078 185.19C522.245 185.222 522.403 185.292 522.538 185.395C522.674 185.498 522.784 185.631 522.86 185.784C522.966 185.936 523.032 186.111 523.053 186.295C523.074 186.478 523.05 186.664 522.982 186.836C522.918 186.988 522.822 187.125 522.701 187.237C522.58 187.348 522.437 187.433 522.28 187.484L519.514 188.739C519.433 188.739 519.393 188.806 519.393 188.847C519.393 188.887 519.393 188.941 519.514 188.968L522.28 190.223C522.443 190.282 522.591 190.376 522.713 190.5C522.835 190.624 522.926 190.774 522.982 190.939C523.042 191.1 523.062 191.274 523.041 191.446C523.02 191.617 522.958 191.781 522.86 191.924C522.784 192.076 522.674 192.209 522.538 192.312C522.403 192.415 522.245 192.485 522.078 192.517C521.911 192.552 521.738 192.552 521.571 192.517C521.404 192.483 521.246 192.414 521.106 192.315L518.637 190.493C518.556 190.493 518.502 190.426 518.448 190.493C518.394 190.561 518.381 190.561 518.448 190.642L518.786 193.637C518.817 193.808 518.807 193.984 518.758 194.15C518.709 194.317 518.621 194.469 518.502 194.595C518.383 194.72 518.238 194.819 518.077 194.884C517.917 194.949 517.744 194.979 517.571 194.973Z" fill="white"/>
<path d="M533.938 194.973C533.777 194.976 533.618 194.944 533.471 194.879C533.324 194.814 533.193 194.717 533.088 194.595C532.87 194.326 532.764 193.983 532.791 193.637L533.142 190.641C533.142 190.56 533.142 190.52 533.142 190.493C533.142 190.466 533.034 190.493 532.953 190.493L530.484 192.274C530.354 192.381 530.202 192.459 530.039 192.501C529.876 192.543 529.705 192.548 529.54 192.517C529.372 192.483 529.213 192.412 529.075 192.309C528.938 192.207 528.824 192.075 528.744 191.923C528.634 191.774 528.564 191.598 528.54 191.414C528.517 191.23 528.54 191.043 528.609 190.871C528.673 190.719 528.768 190.582 528.889 190.47C529.01 190.358 529.154 190.274 529.311 190.223L532.076 188.968C532.157 188.968 532.198 188.927 532.198 188.846C532.198 188.846 532.198 188.766 532.076 188.739L529.311 187.484C529.149 187.424 529.003 187.329 528.884 187.205C528.765 187.081 528.675 186.932 528.622 186.768C528.572 186.605 528.557 186.433 528.578 186.263C528.599 186.093 528.655 185.93 528.744 185.783C528.824 185.632 528.938 185.5 529.075 185.397C529.213 185.294 529.372 185.223 529.54 185.19C529.703 185.157 529.871 185.158 530.033 185.193C530.196 185.228 530.349 185.295 530.484 185.392L532.953 187.214C533.034 187.214 533.088 187.281 533.142 187.214C533.196 187.146 533.21 187.214 533.142 187.065L532.791 184.07C532.767 183.722 532.878 183.379 533.102 183.111C533.219 182.987 533.361 182.889 533.52 182.823C533.678 182.758 533.848 182.728 534.019 182.734C534.188 182.731 534.355 182.765 534.509 182.835C534.663 182.905 534.799 183.009 534.908 183.138C535.016 183.267 535.095 183.419 535.137 183.583C535.179 183.746 535.185 183.917 535.152 184.083L534.815 187.079C534.815 187.16 534.815 187.2 534.815 187.227C534.846 187.245 534.881 187.254 534.916 187.254C534.952 187.254 534.987 187.245 535.017 187.227L537.486 185.446C537.618 185.337 537.772 185.258 537.938 185.216C538.104 185.174 538.277 185.17 538.444 185.203C538.613 185.232 538.772 185.301 538.908 185.404C539.044 185.508 539.154 185.642 539.227 185.797C539.334 185.948 539.402 186.123 539.425 186.306C539.449 186.49 539.427 186.676 539.362 186.849C539.294 186.999 539.197 187.133 539.077 187.244C538.956 187.355 538.814 187.441 538.66 187.497L535.881 188.752C535.813 188.752 535.773 188.82 535.773 188.86C535.773 188.9 535.773 188.954 535.881 188.981L538.66 190.236C538.821 190.299 538.967 190.395 539.088 190.518C539.209 190.642 539.302 190.789 539.362 190.952C539.417 191.115 539.433 191.289 539.41 191.46C539.386 191.631 539.324 191.794 539.227 191.937C539.154 192.091 539.044 192.226 538.908 192.329C538.772 192.432 538.613 192.501 538.444 192.53C538.279 192.564 538.109 192.564 537.944 192.529C537.78 192.494 537.624 192.426 537.486 192.328L535.017 190.506C534.987 190.488 534.952 190.479 534.916 190.479C534.881 190.479 534.846 190.488 534.815 190.506C534.815 190.506 534.815 190.574 534.815 190.655L535.152 193.65C535.184 193.821 535.174 193.997 535.125 194.163C535.076 194.33 534.988 194.482 534.869 194.608C534.747 194.729 534.601 194.824 534.441 194.886C534.281 194.949 534.11 194.978 533.938 194.973Z" fill="white"/>
<path d="M550.288 194.973C550.128 194.977 549.968 194.944 549.821 194.879C549.674 194.814 549.544 194.717 549.438 194.595C549.225 194.324 549.123 193.981 549.155 193.637L549.492 190.641C549.492 190.561 549.492 190.52 549.492 190.493C549.492 190.466 549.384 190.493 549.304 190.493L546.835 192.274C546.705 192.383 546.553 192.46 546.39 192.503C546.226 192.545 546.056 192.55 545.89 192.517C545.722 192.482 545.565 192.41 545.427 192.308C545.29 192.205 545.176 192.074 545.094 191.923C544.987 191.772 544.919 191.597 544.896 191.414C544.872 191.23 544.894 191.044 544.959 190.871C545.025 190.72 545.121 190.585 545.242 190.473C545.363 190.362 545.505 190.277 545.661 190.223L548.44 188.968C548.507 188.968 548.548 188.901 548.548 188.847C548.548 188.793 548.548 188.766 548.44 188.739L545.661 187.484C545.501 187.425 545.357 187.329 545.24 187.205C545.123 187.081 545.036 186.932 544.986 186.769C544.934 186.606 544.917 186.434 544.935 186.265C544.954 186.095 545.008 185.931 545.094 185.784C545.176 185.633 545.29 185.502 545.427 185.4C545.565 185.297 545.722 185.226 545.89 185.19C546.053 185.156 546.221 185.157 546.384 185.192C546.546 185.227 546.7 185.295 546.835 185.392L549.304 187.214C549.384 187.214 549.452 187.281 549.492 187.214C549.533 187.147 549.56 187.214 549.492 187.066L549.155 184.07C549.127 183.724 549.234 183.381 549.452 183.112C549.57 182.988 549.712 182.89 549.87 182.825C550.028 182.76 550.198 182.729 550.369 182.734C550.534 182.732 550.697 182.765 550.848 182.83C550.999 182.895 551.135 182.991 551.246 183.112C551.359 183.242 551.44 183.395 551.485 183.561C551.529 183.727 551.535 183.901 551.503 184.07L551.165 187.066C551.165 187.147 551.165 187.187 551.165 187.214C551.165 187.241 551.273 187.214 551.354 187.214L553.823 185.433C553.957 185.322 554.113 185.243 554.281 185.201C554.449 185.159 554.625 185.155 554.795 185.19C554.961 185.221 555.117 185.291 555.251 185.394C555.384 185.497 555.492 185.631 555.564 185.784C555.674 185.933 555.744 186.108 555.767 186.292C555.791 186.477 555.767 186.664 555.699 186.836C555.635 186.988 555.539 187.125 555.418 187.237C555.297 187.348 555.154 187.433 554.997 187.484L552.231 188.739C552.15 188.739 552.11 188.806 552.11 188.847C552.11 188.887 552.11 188.941 552.231 188.968L554.997 190.223C555.159 190.284 555.306 190.38 555.427 190.503C555.548 190.627 555.641 190.775 555.699 190.938C555.757 191.101 555.775 191.276 555.751 191.447C555.728 191.619 555.663 191.782 555.564 191.923C555.492 192.076 555.384 192.21 555.251 192.313C555.117 192.416 554.961 192.486 554.795 192.517C554.627 192.552 554.455 192.552 554.288 192.517C554.121 192.482 553.963 192.414 553.823 192.315L551.408 190.534C551.327 190.534 551.273 190.466 551.219 190.534C551.165 190.601 551.152 190.601 551.219 190.682L551.557 193.678C551.588 193.848 551.578 194.024 551.529 194.191C551.48 194.357 551.392 194.509 551.273 194.636C551.142 194.758 550.987 194.852 550.817 194.91C550.647 194.968 550.467 194.99 550.288 194.973Z" fill="white"/>
<path d="M566.654 194.973C566.493 194.977 566.334 194.946 566.186 194.88C566.039 194.815 565.909 194.717 565.804 194.595C565.586 194.326 565.48 193.983 565.507 193.637L565.858 190.641C565.858 190.56 565.858 190.52 565.858 190.493C565.83 190.475 565.797 190.465 565.764 190.465C565.73 190.465 565.698 190.475 565.669 190.493L563.2 192.274C563.07 192.381 562.919 192.459 562.755 192.501C562.592 192.543 562.422 192.548 562.256 192.517C562.086 192.483 561.925 192.412 561.785 192.31C561.646 192.207 561.53 192.075 561.446 191.923C561.341 191.771 561.275 191.596 561.253 191.412C561.232 191.228 561.257 191.042 561.325 190.871C561.389 190.719 561.484 190.582 561.605 190.47C561.726 190.358 561.87 190.274 562.027 190.223L564.792 188.968C564.873 188.968 564.914 188.927 564.914 188.846C564.914 188.846 564.914 188.766 564.792 188.739L562.027 187.484C561.864 187.427 561.716 187.333 561.597 187.209C561.477 187.084 561.389 186.933 561.339 186.768C561.29 186.605 561.274 186.434 561.292 186.265C561.311 186.096 561.363 185.932 561.446 185.783C561.53 185.631 561.646 185.499 561.785 185.397C561.925 185.294 562.086 185.223 562.256 185.19C562.419 185.157 562.587 185.158 562.749 185.193C562.912 185.228 563.065 185.295 563.2 185.392L565.669 187.214C565.698 187.232 565.73 187.241 565.764 187.241C565.797 187.241 565.83 187.232 565.858 187.214C565.858 187.214 565.926 187.214 565.858 187.065L565.507 184.07C565.49 183.897 565.509 183.723 565.562 183.558C565.616 183.393 565.703 183.241 565.818 183.111C565.935 182.987 566.077 182.889 566.236 182.823C566.394 182.758 566.564 182.728 566.735 182.734C566.904 182.731 567.072 182.765 567.225 182.835C567.379 182.905 567.515 183.009 567.624 183.138C567.732 183.267 567.811 183.419 567.853 183.583C567.895 183.746 567.901 183.917 567.869 184.083L567.599 187.146C567.599 187.227 567.599 187.268 567.599 187.295C567.629 187.312 567.664 187.322 567.7 187.322C567.735 187.322 567.77 187.312 567.801 187.295L570.257 185.513C570.391 185.405 570.548 185.327 570.715 185.285C570.883 185.243 571.058 185.238 571.228 185.271C571.396 185.301 571.555 185.37 571.691 185.473C571.827 185.576 571.936 185.71 572.01 185.864C572.117 186.015 572.185 186.19 572.209 186.374C572.232 186.557 572.21 186.744 572.145 186.917C572.078 187.066 571.981 187.2 571.86 187.312C571.74 187.423 571.598 187.509 571.444 187.565L568.665 188.819C568.597 188.819 568.557 188.887 568.557 188.927C568.557 188.968 568.557 189.022 568.665 189.049L571.444 190.304C571.605 190.366 571.751 190.462 571.872 190.586C571.993 190.709 572.086 190.857 572.145 191.019C572.2 191.183 572.217 191.357 572.193 191.527C572.17 191.698 572.107 191.861 572.01 192.004C571.936 192.158 571.827 192.292 571.691 192.395C571.555 192.498 571.396 192.568 571.228 192.598C571.061 192.631 570.889 192.63 570.722 192.596C570.555 192.561 570.397 192.493 570.257 192.395L567.801 190.574C567.77 190.556 567.735 190.547 567.7 190.547C567.664 190.547 567.629 190.556 567.599 190.574C567.599 190.574 567.599 190.641 567.599 190.722L567.936 193.718C567.967 193.889 567.958 194.064 567.909 194.231C567.859 194.397 567.772 194.55 567.653 194.676C567.517 194.793 567.357 194.88 567.185 194.932C567.013 194.983 566.832 194.997 566.654 194.973Z" fill="#67FF80"/>
<defs>
<linearGradient id="paint0_linear_391_5042" x1="1321.72" y1="-105.086" x2="262.102" y2="580.753" gradientUnits="userSpaceOnUse">
<stop stop-color="#02CF25"/>
<stop offset="1" stop-color="#15FD3C" stop-opacity="0"/>
</linearGradient>
<linearGradient id="paint1_linear_391_5042" x1="561.274" y1="165.36" x2="-560.645" y2="1015.8" gradientUnits="userSpaceOnUse">
<stop stop-color="#15FD3C" stop-opacity="0"/>
<stop offset="1" stop-color="#02CF25"/>
</linearGradient>
</defs>
</svg>
