<svg width="618" height="431" viewBox="0 0 618 431" fill="none" xmlns="http://www.w3.org/2000/svg">
<g clip-path="url(#clip0_398_6297)">
<path d="M323.501 17.5071C321.482 17.5071 319.463 17.5477 317.457 17.5883V419.038H607.261C618.495 387.512 624.648 353.564 624.648 318.181C624.648 152.122 489.822 17.5071 323.501 17.5071Z" fill="#E6E7E8" fill-opacity="0.2"/>
<path opacity="0.17" d="M318.03 17.0271C317.407 17.0271 316.784 17 316.147 17C149.826 17 15 151.615 15 317.674C15 353.057 21.1389 386.991 32.3869 418.531H318.03V17.0271Z" fill="url(#paint0_radial_398_6297)"/>
<path d="M253.447 89.5853C249.219 80.6822 236.561 74.2282 221.614 74.2282C218.565 74.2282 215.624 74.4988 212.819 74.9994C207.33 72.4421 200.175 70.8997 192.328 70.8997C175.104 70.8997 161.132 78.3549 161.132 87.5421C161.132 88.8411 161.417 90.0994 161.945 91.3036C150.264 95.3492 142.566 102.263 142.566 110.125C142.566 122.6 161.972 132.707 185.905 132.707C189.984 132.707 193.941 132.409 197.681 131.854C201.408 138.2 210.61 142.692 221.383 142.692C230.504 142.692 238.499 139.472 242.998 134.628C245.167 134.926 247.416 135.075 249.72 135.075C268.394 135.075 283.532 124.859 283.532 112.249C283.518 100.518 270.359 90.8436 253.447 89.5853Z" fill="white"/>
<path d="M34.6133 211.224C37.0119 211.008 39.3835 210.751 41.7008 210.412C47.6365 220.506 62.2859 227.664 79.4289 227.664C93.9428 227.664 106.668 222.536 113.837 214.837C117.292 215.311 120.87 215.554 124.529 215.554C154.262 215.554 178.357 199.29 178.357 179.225C178.357 160.512 157.406 145.114 130.478 143.112C124.719 130.975 109.107 121.707 89.796 119.285C66.2566 146.143 47.4468 177.222 34.6133 211.224Z" fill="white"/>
<path d="M231.113 328.804C231.113 328.804 240.898 325.949 237.97 318.02C237.97 318.02 244.38 319.184 245.099 312.311C245.099 312.311 254.476 308.062 248.812 299.565C248.812 299.565 259.165 293.977 253.555 283.639C253.555 283.639 257.065 275.941 250.289 272.477C250.289 272.477 253.419 262.924 245.302 258.026C245.302 258.026 248.039 246.62 236.724 241.14C236.724 241.14 239.583 234.253 232.943 231.331C232.943 231.331 232.184 221.995 223.497 224.998C223.497 224.998 216.613 224.281 215.895 231.155C215.895 231.155 207.154 230.83 208.224 239.151C208.224 239.151 200.784 240.707 203.237 249.083C203.237 249.083 197.153 251.613 199.605 259.988C199.605 259.988 190.133 266.537 197.193 275.088C197.193 275.088 191.271 285.453 200.784 289.945C200.784 289.945 194.971 297.549 202.655 301.527C202.655 301.527 200.934 310.66 208.672 313.258C208.672 313.258 208.414 320.145 216.152 322.743C216.125 322.716 221.248 333.499 231.113 328.804Z" fill="#3D7020"/>
<path d="M239.299 282.625C239.299 282.625 240.423 277.145 240.979 274.858C240.979 274.858 237.943 282.111 234.935 288.443C232.943 292.637 231.601 295.438 229.609 296.264C229.365 294.938 229.094 293.774 228.782 292.813C227.549 289.119 226.492 283.558 225.706 277.226C229.365 275.129 236.561 270.231 237.74 263.723C237.74 263.723 236.995 266.848 234.406 268.025C234.406 268.025 236.548 261.463 236.724 257.052C236.724 257.052 234.135 266.754 231.872 268.242C229.731 269.649 230.341 272.572 225.313 273.776C224.066 261.612 223.836 247.432 225.313 237.934C225.313 237.934 222.928 248.122 221.329 260.34C220.218 260.137 219.486 258.784 218.348 256.66C216.762 253.697 215.136 250.3 215.136 250.3C215.447 251.383 216.125 253.981 216.125 253.981C213.211 253.575 211.03 251.545 211.03 251.545C211.992 254.996 214.756 253.656 217.087 257.431C218.713 260.069 220.014 264.02 220.651 266.172C220.028 272.477 219.716 278.958 220.123 284.627C211.667 282.435 213.171 277.943 210.054 275.548C206.923 273.126 204.24 258.757 204.24 258.757C203.996 265.184 206.395 274.939 206.395 274.939C202.777 272.964 202.031 268.337 202.031 268.337C203.386 281.272 220.99 291.135 220.99 291.135C224.92 309.239 223.89 336.341 221.763 344.094C221.763 344.094 226.302 346.11 230.531 343.958C230.531 343.958 231.466 325.083 230.829 309.645C231.804 305.505 234.244 296.101 237.632 289.918C242.09 281.799 247.985 284.33 249.639 277.023C249.652 277.037 245.343 281.475 239.299 282.625Z" fill="#845415"/>
<path d="M147.255 365.973C147.255 365.973 174.061 361.927 174.223 352.753C174.399 343.58 176.961 336.584 170.456 332.282C163.951 327.979 169.304 319.144 165.116 315.314C160.929 311.485 164.981 299.267 160.251 296.033C155.522 292.8 159.601 281.163 153.638 276.265C147.675 271.367 155.996 264.697 149.491 260.394C142.986 256.091 141.414 246.417 135.059 245.551C128.703 244.685 120.192 259.961 122.157 265.603C124.122 271.246 116.804 274.439 119.867 278.89C122.93 283.342 113.444 289.485 118.309 295.573C123.174 301.662 113.498 303.813 116.018 308.86C118.539 313.907 109.744 322.891 112.861 328.48C115.978 334.068 111.75 342.281 114.243 346.759C116.737 351.238 110.164 358.409 115.991 360.439C121.846 362.509 144.016 370.708 147.255 365.973Z" fill="#85A331"/>
<path d="M162.907 330.333L147.418 341.658C145.737 328.912 143.678 314.935 141.767 302.487L148.963 287.387L140.737 295.83C138.094 278.863 135.98 266.172 135.98 266.172C135.98 266.172 135.899 272.193 135.831 281.583L127.565 270.542L135.79 291.122C135.763 300.16 135.763 310.863 135.858 321.863L122.062 314.922L135.967 332.295C136.251 352.523 136.902 372.264 138.257 382.994C138.257 382.994 145.832 385.524 150.264 381.884C151.741 380.667 150.63 367.285 148.502 350.034L162.907 330.333Z" fill="#A86F00"/>
<path d="M170.683 382.372C170.683 382.372 169.91 388.149 164.07 389.015C164.07 389.015 170.385 396.267 164.083 401.084C164.083 401.084 157.944 415.859 148.404 408.039C148.404 408.039 136.953 423.315 127.236 415.224C127.236 415.224 120.799 418.119 119.904 411.097C119.904 411.097 103.656 413.221 103.9 396.944C103.9 396.944 100.647 391.166 105.512 387.757C105.512 387.757 103.466 379.124 111.096 376.188C111.096 376.188 100.946 373.238 101.962 366.081C101.962 366.081 93.1127 363.821 97.002 353.849C97.002 353.849 86.8788 344.04 102.68 334.974C102.68 334.974 103.913 325.246 111.543 326.342C111.543 326.342 111.624 310.971 125.041 312.852C125.041 312.852 137.183 292.258 147.821 304.531C147.821 304.531 156.413 300.12 157.158 308.049C157.158 308.049 173.149 310.132 164.801 321.214C164.801 321.214 167.769 315.111 173.61 318.264C173.61 318.264 183.178 312.365 186.43 322.161C186.43 322.161 197.027 321.173 196.512 333.621C196.512 333.621 204.82 336.26 201.093 341.279C201.093 341.279 204.765 333.878 213.642 337.315C213.642 337.315 225.161 332.471 225.554 345.068C225.554 345.068 237.683 354.282 224.253 363.294C224.253 363.294 233.156 371.953 220.756 377.825C220.756 377.825 222.965 389.57 210.091 391.342C210.091 391.342 198.654 395.74 199.047 385.389C199.047 385.389 189.371 386.539 189.791 377.379C189.791 377.433 183.638 388.19 170.683 382.372Z" fill="#225402"/>
<path d="M228.225 379.665C228.225 379.665 224.186 383.887 218.955 381.154C218.955 381.154 219.782 390.733 211.854 390.923C211.854 390.923 198.181 399.258 195.077 387.337C195.077 387.337 176.823 392.966 173.733 380.707C173.733 380.707 166.822 379.273 170.237 373.063C170.237 373.063 155.845 365.228 165.643 352.212C165.643 352.212 166.415 345.636 172.351 345.731C172.351 345.731 175.793 337.545 183.68 339.656C183.68 339.656 177.216 331.307 182.257 326.112C182.257 326.112 176.43 319.089 185.456 313.312C185.456 313.312 183.057 299.43 201.176 301.378C201.176 301.378 207.897 294.247 213.426 299.606C213.426 299.606 222.547 287.239 232.29 296.629C232.29 296.629 254.244 287.117 255.613 303.286C255.613 303.286 265.167 304.774 261.088 311.621C261.088 311.621 272.783 322.702 259.502 326.761C259.502 326.761 265.492 323.568 268.365 329.548C268.365 329.548 279.572 330.401 276.442 340.238C276.442 340.238 285.589 345.663 277.838 355.419C277.838 355.419 283.001 362.428 277.025 364.308C277.025 364.308 284.356 360.479 289.506 368.476C289.506 368.476 301.675 371.317 294.561 381.749C294.561 381.749 298.938 396.321 282.771 395.726C282.771 395.726 284.871 407.958 271.374 405.414C271.374 405.414 266.237 416.198 254.786 410.068C254.786 410.068 242.956 406.902 249.366 398.77C249.366 398.77 240.869 394.008 246.601 386.864C246.587 386.904 235.272 391.978 228.225 379.665Z" fill="#225402"/>
<path d="M289.762 311.052C295.454 311.675 305.36 307.02 305.36 307.02C292.784 305.843 282.566 298.009 282.566 298.009C289.437 298.266 298.15 293.679 298.15 293.679C284.761 294.328 278.067 282.151 278.067 282.151C286.265 285.331 291.889 281.488 291.889 281.488C278.866 279.891 270.166 257.296 270.139 257.241V257.214C270.139 257.214 263.675 280.595 250.841 283.45C250.841 283.45 256.817 286.738 264.678 282.773C264.678 282.773 259.189 295.546 245.8 296.182C245.8 296.182 254.92 299.903 261.737 298.983C261.737 298.983 252.332 307.778 239.918 310.159C239.918 310.159 250.231 313.826 255.842 312.662C255.842 312.662 248.876 322.824 234.688 325.3C234.688 325.3 256.452 331.388 273.581 328.182V328.195C290.941 329.738 312.014 321.579 312.014 321.579C297.676 320.496 289.762 311.052 289.762 311.052Z" fill="#0B3300"/>
<path d="M269.488 335.529C269.488 335.529 273.174 337.802 276.63 335.191L270.735 269.094L269.488 335.529Z" fill="#A86F00"/>
<path d="M56.8508 378.597C61.0383 374.7 63.9926 364.173 63.9926 364.173C54.8722 372.9 42.2556 375.498 42.2556 375.498C46.9445 370.478 49.167 360.885 49.167 360.885C40.9139 371.425 27.2945 368.516 27.2945 368.516C35.0596 364.389 35.8321 357.624 35.8321 357.624C26.1019 366.419 3.29432 358.22 3.24011 358.206L3.22656 358.193C3.22656 358.193 16.7105 378.366 10.4903 389.922C10.4903 389.922 16.8867 387.554 19.0279 379.043C19.0279 379.043 25.1126 391.545 16.8596 402.072C16.8596 402.072 25.6547 397.62 29.395 391.87C29.395 391.87 29.9099 404.724 23.6084 415.657C23.6084 415.657 33.1353 410.258 35.9134 405.265C35.9134 405.265 39.0574 417.172 31.6581 429.498C31.6581 429.498 50.495 417.037 59.263 402.004L59.2766 402.018C71.7984 389.908 79.3873 368.652 79.3873 368.652C69.1829 378.786 56.8508 378.597 56.8508 378.597Z" fill="#0B3300"/>
<path d="M62.1488 409.92C62.1488 409.92 66.2821 408.621 66.5531 404.304L12.6172 365.54L62.1488 409.92Z" fill="#A86F00"/>
<path d="M34.5041 400.015C30.6283 409.987 39.4641 412.247 39.4641 412.247C38.4477 419.404 48.5979 422.354 48.5979 422.354C44.9525 423.748 43.5296 426.454 43.0282 428.903H108.117C108.171 428.659 108.198 428.51 108.198 428.51C108.51 428.646 108.822 428.781 109.134 428.903H121.384C125.369 426.954 127.306 423.572 127.306 423.572C127.198 426.021 127.808 427.712 128.77 428.903H158.11C158.706 426.237 158.286 424.018 158.286 424.018C170.686 418.146 161.782 409.487 161.782 409.487C175.212 400.475 163.083 391.261 163.083 391.261C162.69 378.651 151.171 383.494 151.171 383.494C144.083 380.748 140.316 384.902 139.096 386.701C141.495 382.168 134.055 379.801 134.055 379.801C134.584 367.353 123.986 368.34 123.986 368.34C120.734 358.544 111.166 364.444 111.166 364.444C107.25 362.333 104.621 364.376 103.32 365.959C109.269 356.136 94.7145 354.228 94.7145 354.228C93.9692 346.286 85.3774 350.71 85.3774 350.71C74.7257 338.438 62.5969 359.031 62.5969 359.031C49.1807 357.164 49.0994 372.521 49.0994 372.521C41.4697 371.425 40.2365 381.14 40.2365 381.14C24.381 390.206 34.5041 400.015 34.5041 400.015Z" fill="#225402"/>
<path d="M604.339 430.662C558.453 361.981 448.088 313.583 319.224 313.583C190.361 313.583 79.9956 361.981 34.1094 430.662H604.339Z" fill="#A1AF38"/>
<path d="M201.137 300.201C209.539 299.132 222.183 289.052 222.183 289.052C203.698 291.677 186.311 283.91 186.311 283.91C196.272 281.935 207.235 272.342 207.235 272.342C188.222 277.862 174.386 262.654 174.386 262.654C187.273 264.399 194.036 256.944 194.036 256.944C174.751 259.109 154.478 229.612 154.437 229.545L154.424 229.518C154.424 229.518 153.164 265.346 135.709 273.843C135.709 273.843 145.426 276.509 155.359 268.134C155.359 268.134 151.849 288.375 132.836 293.896C132.836 293.896 147.241 296.128 156.714 292.461C156.714 292.461 146.212 308.319 129.191 316.004C129.191 316.004 145.276 317.736 152.947 314.151C152.947 314.151 146.428 331.145 126.887 339.561C126.887 339.561 160.265 340.86 183.79 330.374L183.804 330.401C209.295 326.666 236.778 307.697 236.778 307.697C215.759 311.066 201.137 300.201 201.137 300.201Z" fill="#0B3300"/>
<path d="M180.401 342.348C180.401 342.348 186.486 344.364 190.552 339.399L159.355 246.404L180.401 342.348Z" fill="#A86F00"/>
<path d="M237.304 248.406C237.304 248.406 233.347 252.695 228.062 250.057C228.062 250.057 229.051 259.609 221.123 259.948C221.123 259.948 207.585 268.512 204.292 256.646C204.292 256.646 186.133 262.573 182.84 250.382C182.84 250.382 175.901 249.069 179.208 242.805C179.208 242.805 164.68 235.228 174.262 222.035C174.262 222.035 174.926 215.446 180.861 215.446C180.861 215.446 184.168 207.206 192.082 209.181C192.082 209.181 185.482 200.941 190.429 195.664C190.429 195.664 184.493 188.737 193.397 182.81C193.397 182.81 190.754 168.969 208.913 170.619C208.913 170.619 215.513 163.367 221.123 168.644C221.123 168.644 230.04 156.115 239.933 165.343C239.933 165.343 261.724 155.452 263.364 171.607C263.364 171.607 272.932 172.92 268.975 179.847C268.975 179.847 280.859 190.726 267.66 195.015C267.66 195.015 273.596 191.713 276.577 197.653C276.577 197.653 287.798 198.316 284.83 208.194C284.83 208.194 294.072 213.47 286.483 223.361C286.483 223.361 291.769 230.289 285.819 232.264C285.819 232.264 293.083 228.313 298.368 236.215C298.368 236.215 310.578 238.854 303.654 249.394C303.654 249.394 308.275 263.899 292.094 263.56C292.094 263.56 294.411 275.751 280.873 273.451C280.873 273.451 275.927 284.33 264.367 278.39C264.367 278.39 252.482 275.427 258.757 267.187C258.757 267.187 250.178 262.573 255.789 255.32C255.802 255.334 244.568 260.611 237.304 248.406Z" fill="#225402"/>
<path d="M233.022 326.518C233.022 326.518 246.885 333.107 251.506 325.855C256.127 318.602 242.928 273.776 248.2 271.137C253.485 268.499 273.948 273.113 278.569 252.019C278.569 252.019 282.526 247.405 294.411 247.405C294.411 247.405 285.494 244.767 282.201 245.754C278.894 246.742 283.19 241.465 283.854 236.851C283.854 236.851 281.537 241.79 277.255 245.091C272.959 248.393 276.929 256.633 269.666 259.258C262.402 261.896 269.666 252.993 271.644 248.379C271.644 248.379 263.391 255.956 262.402 260.57C261.413 265.184 247.874 265.847 246.56 261.883C245.245 257.932 247.549 241.452 246.56 232.549C245.571 223.645 262.741 228.922 265.37 227.61C268.012 226.297 275.601 225.296 279.897 227.935C279.897 227.935 277.919 223.645 269.666 223.645C261.413 223.645 266.698 216.068 272.308 212.767C272.308 212.767 263.73 213.755 261.413 218.369C259.095 222.983 251.506 224.958 247.874 222.32C244.243 219.681 247.21 200.562 248.538 196.936C249.853 193.31 252.834 194.961 255.477 191.335C255.477 191.335 249.867 193.31 247.549 192.322C245.232 191.335 246.235 188.372 245.232 184.407C245.232 184.407 241.925 189.684 242.915 193.635C243.904 197.586 243.24 209.452 242.25 214.066C241.261 218.68 238.619 219.005 234.662 216.041C230.704 213.078 229.051 198.898 229.051 198.898C229.051 198.898 235.651 196.923 236.64 194.609C236.64 194.609 232.019 196.585 230.366 195.597C228.712 194.609 230.04 191.646 229.702 185.706C229.702 185.706 228.048 191.971 225.08 191.308C222.113 190.645 218.142 184.38 216.163 181.755C216.163 181.755 218.481 188.683 221.11 192.634C223.752 196.585 226.72 202.524 228.048 210.101C229.363 217.679 230.027 223.618 234.323 225.269C238.619 226.92 241.261 236.148 240.258 240.437C239.269 244.726 232.005 230.884 225.406 226.92C218.806 222.969 209.889 227.583 208.236 218.017C208.236 218.017 205.918 222.631 209.225 224.944C212.532 227.258 202.95 227.583 199.983 224.944C197.015 222.306 193.044 219.018 188.762 219.018C188.762 219.018 195.036 222.644 195.036 226.27C195.036 229.897 189.101 225.946 184.141 226.595C184.141 226.595 190.415 228.909 192.068 230.884C193.722 232.86 196.364 231.209 199.996 229.897C203.628 228.584 213.534 228.909 216.177 230.884C218.82 232.86 210.567 234.51 204.292 233.523C204.292 233.523 216.177 240.112 221.123 234.186C226.07 228.259 232.683 238.137 234.323 242.101C235.976 246.052 240.597 261.883 236.64 273.086C232.683 284.33 231.368 310.376 233.022 326.518Z" fill="#59360D"/>
<path d="M81.7985 368.394C81.7985 368.394 107.113 350.182 102.451 340.697C97.7896 331.213 96.7326 322.702 87.802 321.714C78.8714 320.726 79.698 308.874 73.3965 307.155C67.0949 305.437 64.8047 290.797 58.2592 289.972C51.7137 289.146 49.7487 275.088 41.0756 273.194C32.4025 271.313 37.403 260.11 28.4724 259.122C19.5418 258.134 12.8337 249.056 5.8817 251.505C-1.0839 253.954 -1.74793 274.06 3.23911 278.809C8.22615 283.558 2.41245 290.662 7.9009 293.611C13.3894 296.561 6.91163 307.832 15.0969 311.526C23.2821 315.206 14.5142 322.485 19.7587 326.328C25.0032 330.171 20.7344 343.985 26.8733 348.085C33.0123 352.171 32.9987 362.806 37.918 366.081C42.8237 369.355 39.8695 380.139 46.9164 379.165C53.9497 378.19 80.9719 374.943 81.7985 368.394Z" fill="#85A331"/>
<path d="M79.0464 323.676L69.1401 343.404C60.6973 331.24 51.2247 318.007 42.7142 306.262L42.1315 287.022L38.1473 299.998C26.5063 284.005 17.657 272.125 17.657 272.125C17.657 272.125 20.7468 278.336 25.6255 287.996L11.3555 281.028L30.6125 297.779C35.342 307.061 40.9796 318.007 46.8746 329.224L29.0947 329.359L52.4986 339.845C63.4484 360.411 74.5066 380.274 81.5535 390.557C81.5535 390.557 90.6467 389.177 93.2622 383.129C94.143 381.1 85.9578 367.988 74.6692 351.427L79.0464 323.676Z" fill="#A86F00"/>
<path d="M53.517 418.403C53.517 418.403 42.8518 402.505 35.168 398.486C35.168 398.486 46.3617 409.392 49.3431 419.188C49.3431 419.188 51.2674 421.867 53.517 418.403Z" fill="#225402"/>
<path d="M54.7197 418.687C54.7197 418.687 57.9179 417.997 57.9721 416.414C58.0263 414.831 50.7219 404.345 50.4915 398.554C50.4915 398.554 49.3125 410.407 54.7197 418.687Z" fill="#1D3F08"/>
<path d="M52.648 420.757C52.648 420.757 57.2014 419.743 57.3234 417.862C57.4453 415.981 41.4814 396.132 41.1697 388.555C41.1697 388.555 40.98 396.172 48.3928 408.905C48.3928 408.905 35.1121 389.204 29.0273 386.512C29.0273 386.512 45.6282 403.641 52.648 420.757Z" fill="#1D3F08"/>
<path d="M58.5146 414.777C58.5146 414.777 60.8184 415.156 60.8726 413.573C60.9268 411.99 55.9262 406.036 55.1673 401.071C55.1808 401.084 52.6873 406.239 58.5146 414.777Z" fill="#225402"/>
<path d="M44.6532 418.728C44.6532 418.728 47.7972 419.621 47.987 417.429C47.987 417.429 41.699 408.134 37.4844 404.277C37.4844 404.291 43.1083 411.665 44.6532 418.728Z" fill="#1D3F08"/>
<path d="M70.2397 403.465C70.2397 403.465 59.5745 387.567 51.8906 383.549C51.8906 383.549 63.0844 394.454 66.0522 404.25C66.0657 404.237 67.9901 406.929 70.2397 403.465Z" fill="#225402"/>
<path d="M71.4588 403.75C71.4588 403.75 74.657 403.06 74.7112 401.476C74.7654 399.893 67.461 389.421 67.2306 383.616C67.2171 383.603 66.0381 395.455 71.4588 403.75Z" fill="#1D3F08"/>
<path d="M69.3707 405.806C69.3707 405.806 73.9241 404.791 74.046 402.911C74.168 401.016 58.2041 381.181 57.8924 373.604C57.8924 373.604 57.7026 381.221 65.1154 393.954C65.1154 393.954 51.8347 374.253 45.75 371.561C45.75 371.574 62.3509 388.69 69.3707 405.806Z" fill="#1D3F08"/>
<path d="M75.2372 399.839C75.2372 399.839 77.541 400.218 77.5952 398.635C77.6494 397.052 72.6488 391.098 71.8899 386.133C71.9035 386.133 69.41 391.301 75.2372 399.839Z" fill="#225402"/>
<path d="M61.3759 403.79C61.3759 403.79 64.5199 404.683 64.7096 402.491C64.7096 402.491 58.4081 393.196 54.207 389.353C54.207 389.34 59.831 396.727 61.3759 403.79Z" fill="#1D3F08"/>
<path d="M308.004 310.294C308.004 310.294 309.63 293.287 326.936 295.546C326.936 295.546 329.646 276.171 355.665 282.111C355.665 282.111 366.48 267.241 379.937 277.415C379.937 277.415 406.349 245.429 441.611 267.322C441.611 267.322 479.799 248.69 493.758 279.905C493.758 279.905 515.522 273.424 521.769 293.517C521.769 293.517 543.696 277.645 558.155 301.446C558.155 301.446 584.432 302.92 581.817 327.384C581.817 327.384 603.676 325.99 602.619 350.913C602.619 350.913 618.447 361.575 618 381.302C617.553 401.03 601.982 420.717 588.511 415.738C575.027 410.745 308.004 310.294 308.004 310.294Z" fill="#BCBEC0"/>
<path d="M172.282 369.612C172.282 369.612 166.36 351.427 160.059 345.46C160.059 345.46 167.851 359.004 168.054 369.234C168.054 369.234 169.179 372.332 172.282 369.612Z" fill="#225402"/>
<path d="M173.382 370.208C173.382 370.208 176.648 370.411 177.122 368.909C177.596 367.393 173.436 355.338 174.791 349.682C174.791 349.682 170.427 360.777 173.382 370.208Z" fill="#1D3F08"/>
<path d="M170.805 371.642C170.805 371.642 175.467 371.899 176.09 370.126C176.727 368.34 166.767 344.906 168.542 337.545C168.542 337.545 166.292 344.824 169.938 359.099C169.938 359.099 162.525 336.53 157.402 332.295C157.402 332.268 168.718 353.254 170.805 371.642Z" fill="#1D3F08"/>
<path d="M178.082 367.488C178.082 367.488 180.197 368.476 180.684 366.974C181.159 365.459 177.974 358.382 178.597 353.403C178.611 353.389 174.803 357.692 178.082 367.488Z" fill="#225402"/>
<path d="M163.663 367.515C163.663 367.515 166.441 369.233 167.227 367.177C167.227 367.177 163.704 356.528 160.695 351.671C160.709 351.671 164.11 360.303 163.663 367.515Z" fill="#1D3F08"/>
<path d="M329.484 312.392C329.484 312.392 333.604 296.602 349.433 301.405C349.433 301.405 354.935 283.558 378.311 293.165C378.311 293.165 390.684 280.812 401.688 292.475C401.688 292.475 431.258 266.388 460.828 292.475C460.828 292.475 499.342 280.798 507.595 312.392C507.595 312.392 528.912 309.645 531.663 329.562C531.663 329.562 554.565 317.98 564.431 342.66C564.431 342.66 588.743 348.112 582.55 370.762C582.55 370.762 603.175 372.819 598.364 396.173C598.364 396.173 618.99 399.609 615.562 418.146C612.119 436.683 569.621 430.418 557.791 423.639C545.973 416.847 329.484 312.392 329.484 312.392Z" fill="#D1D3D4"/>
<path d="M548.194 379.828L462.547 339.723L520.02 247.026L581.68 275.9L548.194 379.828Z" fill="#6D6E71"/>
<path d="M581.978 276.387C580.162 280.27 564.74 276.901 547.557 268.851C530.373 260.8 517.919 251.139 519.749 247.256C521.578 243.373 536.986 246.742 554.17 254.792C571.354 262.83 583.808 272.504 581.978 276.387Z" fill="#A7A9AC"/>
<path d="M577.4 273.897C575.855 277.172 562.859 274.33 548.345 267.538C533.845 260.746 523.328 252.587 524.873 249.299C526.405 246.025 539.414 248.866 553.915 255.658C568.429 262.451 578.945 270.623 577.4 273.897Z" fill="#414042"/>
<path d="M588.511 415.738L514.668 381.154L564.227 301.229L617.39 326.125L588.511 415.738Z" fill="#808285"/>
<path d="M617.646 326.545C616.074 329.887 602.793 326.978 587.967 320.05C573.155 313.109 562.409 304.774 563.981 301.419C565.553 298.077 578.833 300.986 593.659 307.913C608.471 314.854 619.218 323.189 617.646 326.545Z" fill="#A7A9AC"/>
<path d="M613.689 324.393C612.361 327.221 601.14 324.759 588.645 318.913C576.137 313.055 567.071 306.019 568.399 303.191C569.727 300.363 580.934 302.826 593.442 308.671C605.964 314.53 615.017 321.565 613.689 324.393Z" fill="#414042"/>
<path d="M319.224 313.583C316.622 313.583 314.034 313.61 311.445 313.65L317.991 320.361L307.691 331.253L317.991 343.837L307.691 357.313L317.991 368.489L307.691 379.665L317.991 390.842L307.691 402.018L317.991 413.194L307.691 424.37L313.505 430.675H604.339C558.453 361.981 448.087 313.583 319.224 313.583Z" fill="#A89463"/>
<path d="M397.126 181.76L396.492 295.023L408.811 295.092L409.445 181.828L397.126 181.76Z" fill="#6D6E71"/>
<path d="M409.53 181.917C409.53 182.716 406.725 183.351 403.269 183.338C399.827 183.324 397.022 182.648 397.035 181.85C397.035 181.051 399.84 180.415 403.296 180.429C406.752 180.456 409.543 181.119 409.53 181.917Z" fill="#414042"/>
<path d="M446.772 239.719H393.961V339.48H446.772V239.719Z" fill="#A7A9AC"/>
<path d="M429.168 326.518H414.641V339.48H429.168V326.518Z" fill="#011316"/>
<path d="M406.065 251.748H395.941V282.07H406.065V251.748Z" fill="#002731"/>
<path d="M418.924 251.748H408.801V282.07H418.924V251.748Z" fill="#002731"/>
<path d="M431.787 251.748H421.664V282.07H431.787V251.748Z" fill="#002731"/>
<path d="M444.631 251.748H434.508V282.07H444.631V251.748Z" fill="#002731"/>
<path d="M406.065 283.829H395.941V314.151H406.065V283.829Z" fill="#002731"/>
<path d="M418.924 283.829H408.801V314.151H418.924V283.829Z" fill="#002731"/>
<path d="M431.787 283.829H421.664V314.151H431.787V283.829Z" fill="#002731"/>
<path d="M444.631 283.829H434.508V314.151H444.631V283.829Z" fill="#002731"/>
<path d="M406.065 316.356H395.941V324.326H406.065V316.356Z" fill="#002731"/>
<path d="M418.924 316.356H408.801V324.326H418.924V316.356Z" fill="#002731"/>
<path d="M431.787 316.356H421.664V324.326H431.787V316.356Z" fill="#002731"/>
<path d="M444.631 316.356H434.508V324.326H444.631V316.356Z" fill="#002731"/>
<path d="M406.065 242.087H395.941V250.057H406.065V242.087Z" fill="#002731"/>
<path d="M418.924 242.087H408.801V250.057H418.924V242.087Z" fill="#002731"/>
<path d="M431.787 242.087H421.664V250.057H431.787V242.087Z" fill="#002731"/>
<path d="M444.631 242.087H434.508V250.057H444.631V242.087Z" fill="#002731"/>
<path d="M109.009 423.815C109.009 423.815 90.1179 425.628 78.9648 402.654C78.9648 402.667 107.952 407.308 109.009 423.815Z" fill="#225402"/>
<path d="M108.86 423.829C108.86 423.829 126.477 416.752 125.772 391.234C125.772 391.234 102.178 408.688 108.86 423.829Z" fill="#1D3F08"/>
<path d="M109.01 423.815C109.01 423.815 103.02 421.421 100.391 392.858C100.391 392.871 116.761 404.683 109.01 423.815Z" fill="#0B3300"/>
<path d="M287.473 335.394C287.473 335.394 273.664 336.72 265.52 319.928C265.52 319.942 286.701 323.338 287.473 335.394Z" fill="#225402"/>
<path d="M287.366 335.407C287.366 335.407 300.227 330.239 299.726 311.594C299.712 311.58 282.488 324.339 287.366 335.407Z" fill="#1D3F08"/>
<path d="M287.473 335.394C287.473 335.394 283.096 333.648 281.172 312.784C281.172 312.784 293.138 321.403 287.473 335.394Z" fill="#0B3300"/>
<path d="M183.938 410.569C183.938 410.569 196.73 411.8 204.265 396.254C204.265 396.254 184.656 399.393 183.938 410.569Z" fill="#225402"/>
<path d="M184.046 410.569C184.046 410.569 172.134 405.779 172.595 388.514C172.595 388.514 188.559 400.326 184.046 410.569Z" fill="#1D3F08"/>
<path d="M183.936 410.569C183.936 410.569 187.988 408.945 189.777 389.624C189.777 389.624 178.692 397.607 183.936 410.569Z" fill="#0B3300"/>
<path d="M218.93 350.588C218.93 350.588 231.723 351.82 239.257 336.273C239.257 336.26 219.648 339.412 218.93 350.588Z" fill="#225402"/>
<path d="M219.037 350.588C219.037 350.588 207.125 345.799 207.6 328.534C207.586 328.534 223.55 340.346 219.037 350.588Z" fill="#1D3F08"/>
<path d="M218.928 350.588C218.928 350.588 222.98 348.965 224.769 329.643C224.769 329.63 213.684 337.626 218.928 350.588Z" fill="#0B3300"/>
<path d="M233.294 324.488C233.294 324.488 246.751 318.805 241.479 308.251C237.509 312.649 231.343 313.961 233.294 324.488Z" fill="#85A331"/>
<path d="M234.609 327.126C234.609 327.126 216.815 323.636 225.488 307.548C228.7 316.6 238.39 316.167 234.609 327.126Z" fill="#3D7020"/>
<path d="M136.848 353.322C136.848 353.322 150.305 347.639 145.033 337.085C141.076 341.482 134.91 342.808 136.848 353.322Z" fill="#85A331"/>
<path d="M138.175 355.96C138.175 355.96 120.382 352.469 129.055 336.381C132.266 345.447 141.956 345 138.175 355.96Z" fill="#3D7020"/>
<path d="M270.9 370.329C270.9 370.329 284.356 364.647 279.085 354.093C275.114 358.49 268.948 359.816 270.9 370.329Z" fill="#225402"/>
<path d="M272.214 372.968C272.214 372.968 254.421 369.477 263.094 353.389C266.306 362.455 275.995 362.008 272.214 372.968Z" fill="#3D7020"/>
<path d="M62.1881 420.46C62.1881 420.46 70.8883 408.729 60.9684 402.329C59.7894 408.12 55.1547 412.396 62.1881 420.46Z" fill="#225402"/>
<path d="M64.6682 422.056C64.6682 422.056 47.5795 428.077 46.8477 409.825C54.2198 415.995 62.3373 410.704 64.6682 422.056Z" fill="#3D7020"/>
<path d="M254.462 352.09C254.462 352.09 263.162 340.359 253.242 333.959C252.063 339.764 247.428 344.026 254.462 352.09Z" fill="#225402"/>
<path d="M256.942 353.7C256.942 353.7 239.853 359.721 239.121 341.469C246.507 347.639 254.611 342.335 256.942 353.7Z" fill="#3D7020"/>
<path d="M157.173 382.317C157.173 382.317 140.45 364.295 147.05 360.79C153.649 357.272 158.487 372.657 157.173 382.317Z" fill="#0B3300"/>
<path d="M157.172 382.317C157.172 382.317 165.1 379.679 165.533 374.402C165.967 369.139 158.039 371.331 157.172 382.317Z" fill="#1D3F08"/>
<path d="M241.911 408.688C241.911 408.688 258.634 390.666 252.034 387.161C245.435 383.643 240.583 399.014 241.911 408.688Z" fill="#0B3300"/>
<path d="M241.911 408.688C241.911 408.688 233.983 406.05 233.549 400.773C233.102 395.51 241.03 397.701 241.911 408.688Z" fill="#1D3F08"/>
<path d="M300.657 393.751C300.657 393.751 283.934 375.728 290.534 372.224C297.134 368.706 301.972 384.076 300.657 393.751Z" fill="#0B3300"/>
<path d="M300.656 393.75C300.656 393.75 308.584 391.112 309.018 385.835C309.451 380.572 301.537 382.764 300.656 393.75Z" fill="#1D3F08"/>
<path d="M111.951 379.002C111.951 379.002 110.637 354.39 98.3047 340.332C98.3047 340.332 118.998 350.44 111.951 379.002Z" fill="#0B3300"/>
<path d="M111.951 379.002C111.951 379.002 115.908 380.761 117.236 379.002C118.55 377.243 111.517 343.404 117.236 325.828C117.236 325.828 110.189 333.743 111.951 379.002Z" fill="#1D3F08"/>
<path d="M221.192 424.546C221.192 424.546 220.216 406.347 211.109 395.956C211.096 395.956 226.396 403.425 221.192 424.546Z" fill="#0B3300"/>
<path d="M221.193 424.546C221.193 424.546 224.12 425.845 225.096 424.546C226.072 423.247 220.868 398.229 225.096 385.226C225.096 385.24 219.892 391.085 221.193 424.546Z" fill="#1D3F08"/>
<path d="M198.086 427.184C198.086 427.184 197.111 408.986 188.004 398.594C187.99 398.594 203.29 406.063 198.086 427.184Z" fill="#0B3300"/>
<path d="M198.088 427.184C198.088 427.184 201.015 428.483 201.991 427.184C202.966 425.885 197.762 400.868 201.991 387.865C201.991 387.878 196.787 393.723 198.088 427.184Z" fill="#1D3F08"/>
<path d="M256.142 335.042C256.142 335.042 255.397 321.051 248.391 313.068C248.391 313.055 260.14 318.805 256.142 335.042Z" fill="#0B3300"/>
<path d="M256.142 335.042C256.142 335.042 258.391 336.043 259.15 335.042C259.896 334.04 255.898 314.814 259.15 304.828C259.137 304.815 255.139 309.307 256.142 335.042Z" fill="#1D3F08"/>
<path d="M199.361 339.656C199.361 339.656 198.616 325.665 191.609 317.682C191.609 317.669 203.372 323.419 199.361 339.656Z" fill="#225402"/>
<path d="M199.36 339.656C199.36 339.656 201.61 340.657 202.369 339.656C203.114 338.655 199.116 319.428 202.369 309.429C202.369 309.429 198.357 313.921 199.36 339.656Z" fill="#1D3F08"/>
<path d="M182.895 363.902C182.895 363.902 181.919 345.704 172.813 335.312C172.813 335.312 188.112 342.781 182.895 363.902Z" fill="#0B3300"/>
<path d="M182.896 363.902C182.896 363.902 185.823 365.201 186.799 363.902C187.775 362.603 182.571 337.586 186.799 324.583C186.799 324.596 181.595 330.441 182.896 363.902Z" fill="#1D3F08"/>
<path d="M92.7198 387.716C92.7198 387.716 85.2392 370.654 72.7852 363.97C72.7852 363.97 90.1178 365.648 92.7198 387.716Z" fill="#0B3300"/>
<path d="M92.7217 387.716C92.7217 387.716 95.9876 387.905 96.462 386.309C96.9227 384.712 82.9509 362.644 82.3275 348.694C82.3275 348.708 79.441 356.163 92.7217 387.716Z" fill="#1D3F08"/>
<path d="M43.3784 431C43.3784 431 31.5613 416.59 17.7656 413.519C17.7656 413.505 34.895 410.447 43.3784 431Z" fill="#0B3300"/>
<path d="M43.3794 431C43.3794 431 46.5776 430.31 46.6047 428.646C46.6183 426.981 27.1986 409.514 22.8079 396.24C22.8079 396.227 22.0625 404.196 43.3794 431Z" fill="#1D3F08"/>
<path d="M130.992 388.379C130.992 388.379 130.382 380.058 137.144 373.157C143.893 366.27 123.863 359.356 130.992 388.379Z" fill="#3D7020"/>
<path d="M130.395 392.343C130.395 392.343 131.005 384.022 124.243 377.122C117.494 370.221 137.537 363.32 130.395 392.343Z" fill="#1D3F08"/>
<path d="M255.113 424.424C255.113 424.424 254.503 416.103 261.265 409.202C268.014 402.302 247.985 395.401 255.113 424.424Z" fill="#3D7020"/>
<path d="M254.517 428.375C254.517 428.375 255.127 420.054 248.365 413.153C241.616 406.266 261.645 399.352 254.517 428.375Z" fill="#1D3F08"/>
<path d="M235.571 373.807C235.571 373.807 236.181 365.485 229.419 358.585C222.67 351.698 242.713 344.784 235.571 373.807Z" fill="#3D7020"/>
<path d="M236.167 377.758C236.167 377.758 235.557 369.436 242.319 362.536C249.081 355.649 229.038 348.735 236.167 377.758Z" fill="#1D3F08"/>
<path d="M154.813 348.978C154.813 348.978 155.423 340.657 148.661 333.757C141.912 326.87 161.955 319.955 154.813 348.978Z" fill="#3D7020"/>
<path d="M155.409 352.929C155.409 352.929 154.799 344.608 161.561 337.707C168.324 330.82 148.281 323.906 155.409 352.929Z" fill="#1D3F08"/>
<path d="M267.404 317.371C267.404 317.371 268.014 309.05 261.252 302.149C254.49 295.249 274.533 288.348 267.404 317.371Z" fill="#3D7020"/>
<path d="M268 321.322C268 321.322 267.39 313.001 274.153 306.1C280.901 299.213 260.858 292.299 268 321.322Z" fill="#1D3F08"/>
<path d="M293.763 361.561C293.763 361.561 294.224 355.216 289.061 349.939C283.911 344.675 299.211 339.399 293.763 361.561Z" fill="#3D7020"/>
<path d="M294.223 364.579C294.223 364.579 293.762 358.233 298.925 352.97C304.075 347.693 288.775 342.416 294.223 364.579Z" fill="#1D3F08"/>
<path d="M281.473 422.408C281.473 422.408 280.809 403.29 276.418 395.821C276.418 395.821 280.158 410.988 277.516 420.866C277.516 420.879 277.732 424.167 281.473 422.408Z" fill="#225402"/>
<path d="M282.352 423.301C282.352 423.301 285.429 424.397 286.31 423.085C287.19 421.772 286.526 409.026 289.386 403.966C289.399 403.953 282.136 413.41 282.352 423.301Z" fill="#1D3F08"/>
<path d="M279.494 423.951C279.494 423.951 283.898 425.493 284.996 423.951C286.094 422.408 283.018 397.147 286.758 390.557C286.758 390.557 282.57 396.93 282.137 411.651C282.137 411.651 281.256 387.919 277.516 382.426C277.516 382.426 282.57 405.711 279.494 423.951Z" fill="#1D3F08"/>
<path d="M287.638 421.975C287.638 421.975 289.4 423.518 290.281 422.192C291.162 420.879 290.064 413.18 292.043 408.566C292.043 408.566 287.191 411.651 287.638 421.975Z" fill="#225402"/>
<path d="M273.773 418.024C273.773 418.024 275.969 420.446 277.297 418.687C277.297 418.687 276.863 407.484 275.318 401.991C275.305 401.977 276.186 411.205 273.773 418.024Z" fill="#1D3F08"/>
<path d="M145.981 424.086C145.981 424.086 145.317 404.967 140.926 397.499C140.926 397.499 144.666 412.666 142.023 422.543C142.023 422.543 142.24 425.845 145.981 424.086Z" fill="#225402"/>
<path d="M146.86 424.965C146.86 424.965 149.936 426.061 150.817 424.749C151.698 423.436 151.034 410.691 153.894 405.63C153.907 405.63 146.643 415.075 146.86 424.965Z" fill="#225402"/>
<path d="M144.002 425.615C144.002 425.615 148.406 427.157 149.504 425.615C150.602 424.072 147.525 398.811 151.266 392.222C151.266 392.222 147.092 398.595 146.645 413.316C146.645 413.316 145.764 389.583 142.023 384.09C142.023 384.09 147.078 407.376 144.002 425.615Z" fill="#225402"/>
<path d="M152.145 423.639C152.145 423.639 153.906 425.182 154.787 423.856C155.668 422.543 154.57 414.845 156.549 410.231C156.549 410.244 151.711 413.316 152.145 423.639Z" fill="#225402"/>
<path d="M138.281 419.688C138.281 419.688 140.477 422.11 141.805 420.351C141.805 420.351 141.357 409.148 139.826 403.655C139.826 403.641 140.693 412.869 138.281 419.688Z" fill="#225402"/>
<path d="M268.785 350.913C268.785 350.913 268.121 331.795 263.73 324.326C263.73 324.326 267.471 339.493 264.828 349.371C264.815 349.371 265.045 352.672 268.785 350.913Z" fill="#1D3F08"/>
<path d="M269.666 351.793C269.666 351.793 272.742 352.889 273.623 351.576C274.503 350.264 273.839 337.518 276.699 332.458C276.699 332.458 269.435 341.902 269.666 351.793Z" fill="#1D3F08"/>
<path d="M266.807 352.455C266.807 352.455 271.211 353.998 272.309 352.455C273.406 350.913 270.33 325.652 274.07 319.062C274.07 319.062 269.883 325.435 269.449 340.156C269.449 340.156 268.568 316.424 264.828 310.93C264.815 310.917 269.883 334.216 266.807 352.455Z" fill="#1D3F08"/>
<path d="M274.938 350.467C274.938 350.467 276.699 352.009 277.58 350.683C278.461 349.371 277.363 341.672 279.342 337.058C279.342 337.071 274.504 340.143 274.938 350.467Z" fill="#1D3F08"/>
<path d="M261.074 346.516C261.074 346.516 263.27 348.938 264.598 347.179C264.598 347.179 264.15 335.975 262.619 330.482C262.619 330.482 263.5 339.71 261.074 346.516Z" fill="#1D3F08"/>
<path d="M117.996 343.891C117.996 343.891 129.691 336.449 122.847 327.194C122.847 327.194 131.656 326.274 129.976 317.019C129.976 317.019 140.6 307.9 129.962 298.956C129.962 298.956 141.346 287.712 130.098 276.347C130.098 276.347 131.765 264.967 121.574 263.005C121.574 263.005 122.021 249.353 109.553 246.025C109.553 246.025 108.781 230.099 91.9089 227.231C91.9089 227.231 93.0066 217.151 83.2358 215.852C83.2358 215.852 78.6824 203.958 68.4915 211.157C68.4915 211.157 59.2221 212.834 60.9025 222.089C60.9025 222.089 49.3564 224.985 53.9233 235.444C53.9233 235.444 44.803 240.301 51.1994 250.314C51.1994 250.314 44.2067 255.929 50.6032 265.942C50.6032 265.942 40.7375 278.092 53.2051 286.576C53.2051 286.576 49.4242 302.366 63.5586 304.625C63.5586 304.625 58.8562 316.762 70.4158 319.035C70.4158 319.035 71.649 331.632 82.7343 332.079C82.7343 332.079 85.0246 341.185 96.1099 341.631C96.1099 341.631 106.911 353.768 117.996 343.891Z" fill="#3D7020"/>
<path d="M111.099 280.473C111.099 280.473 110.489 272.883 110.327 269.703C110.327 269.703 109.121 280.325 107.603 289.728C106.6 295.966 105.922 300.133 103.632 301.96C102.819 300.309 102.006 298.902 101.233 297.779C98.2114 293.422 94.7151 286.562 91.273 278.579C95.2436 274.452 102.778 265.319 101.843 256.362C101.843 256.362 102.06 260.732 99.133 263.236C99.133 263.236 99.4447 253.859 97.9675 248.027C97.9675 248.027 98.2928 261.68 95.8941 264.494C93.631 267.159 95.5418 270.745 89.4299 274.209C83.1555 258.798 77.4502 240.356 75.7698 227.393C75.7698 227.393 76.5287 241.6 79.117 258.175C77.5993 258.324 76.1221 256.836 73.8183 254.495C70.6201 251.234 67.1915 247.405 67.1915 247.405C68.0182 248.69 69.8748 251.829 69.8748 251.829C65.9041 252.398 62.2993 250.585 62.2993 250.585C64.8742 254.738 67.9775 251.924 72.4496 255.983C75.5665 258.811 78.7783 263.479 80.4451 266.05C82.0171 274.52 84.0905 283.098 86.7873 290.364C74.916 290.716 75.1599 284.289 70.1864 282.327C65.1723 280.365 56.1875 262.613 56.1875 262.613C58.3287 271.11 65.1723 282.936 65.1723 282.936C59.6974 281.732 56.9599 275.968 56.9599 275.968C63.6545 292.353 90.4192 298.55 90.4192 298.55C102.44 320.7 111.438 356.501 111.601 367.42C111.601 367.42 118.295 368.327 122.998 363.929C122.998 363.929 117.021 338.925 110.313 318.995C110.001 313.204 109.608 299.998 111.682 290.648C114.406 278.349 123.065 279.404 122.456 269.243C122.496 269.23 118.553 276.671 111.099 280.473Z" fill="#683F0F"/>
<path d="M165.588 393.791C165.588 393.791 172.404 392.695 171.523 386.322C171.523 386.322 162.715 385.213 165.588 393.791Z" fill="#225402"/>
<path d="M166.238 393.345C166.238 393.345 159.191 397.742 153.473 388.731C153.473 388.731 166.022 381.262 166.238 393.345Z" fill="#1D3F08"/>
<path d="M161.618 390.273C161.618 390.273 160.52 386.755 164.477 388.514C164.477 388.514 168.882 386.972 167.553 390.273C167.553 390.273 171.294 393.128 166.889 393.345C166.889 393.345 165.345 397.079 163.149 394.008C163.163 394.008 158.758 395.32 161.618 390.273Z" fill="#FFF86C"/>
<path d="M166.129 391.261C166.129 391.964 165.438 392.519 164.584 392.519C163.73 392.519 163.039 391.951 163.039 391.261C163.039 390.557 163.73 390.002 164.584 390.002C165.438 389.989 166.129 390.557 166.129 391.261Z" fill="#FDFFE2"/>
<path d="M236.344 424.126C236.344 424.126 227.549 422.706 228.688 414.493C228.674 414.493 240.03 413.072 236.344 424.126Z" fill="#225402"/>
<path d="M235.492 423.558C235.492 423.558 244.572 429.227 251.958 417.605C251.958 417.605 235.777 407.971 235.492 423.558Z" fill="#1D3F08"/>
<path d="M241.452 419.594C241.452 419.594 242.874 415.061 237.765 417.334C237.765 417.334 232.087 415.345 233.795 419.594C233.795 419.594 228.97 423.274 234.649 423.558C234.649 423.558 236.641 428.375 239.473 424.411C239.459 424.411 245.138 426.115 241.452 419.594Z" fill="#FFF86C"/>
<path d="M235.641 420.866C235.641 421.772 236.535 422.489 237.633 422.489C238.73 422.489 239.625 421.759 239.625 420.866C239.625 419.973 238.73 419.242 237.633 419.242C236.521 419.242 235.641 419.973 235.641 420.866Z" fill="#FDFFE2"/>
<path d="M201 378.894C201 378.894 198.71 370.262 202.274 377.879C202.274 377.879 207.112 371.533 204.049 378.393C204.049 378.393 212.194 380.166 203.792 380.423C203.792 380.423 202.518 387.026 201.759 381.181C201.759 381.181 194.644 382.195 201 378.894Z" fill="#009ACD"/>
<path d="M203.791 379.57C203.791 380.125 203.33 380.585 202.774 380.585C202.205 380.585 201.758 380.125 201.758 379.57C201.758 379.002 202.219 378.556 202.774 378.556C203.343 378.542 203.791 379.002 203.791 379.57Z" fill="#FFF86C"/>
<path d="M228.522 377.406C228.522 377.406 226.231 368.773 229.795 376.391C229.795 376.391 234.633 370.045 231.571 376.905C231.571 376.905 239.715 378.678 231.313 378.935C231.313 378.935 230.039 385.538 229.281 379.692C229.281 379.692 222.152 380.707 228.522 377.406Z" fill="#009ACD"/>
<path d="M231.314 378.082C231.314 378.65 230.853 379.097 230.298 379.097C229.742 379.097 229.281 378.637 229.281 378.082C229.281 377.527 229.742 377.067 230.298 377.067C230.853 377.067 231.314 377.527 231.314 378.082Z" fill="#FFF86C"/>
<path d="M219.526 370.302C219.526 370.302 217.589 363.023 220.597 369.45C220.597 369.45 224.676 364.092 222.101 369.883C222.101 369.883 228.972 371.385 221.884 371.601C221.884 371.601 220.814 377.176 220.163 372.237C220.177 372.224 214.174 373.09 219.526 370.302Z" fill="#009ACD"/>
<path d="M221.899 370.87C221.899 371.344 221.519 371.723 221.045 371.723C220.571 371.723 220.191 371.344 220.191 370.87C220.191 370.397 220.571 370.018 221.045 370.018C221.506 370.018 221.899 370.397 221.899 370.87Z" fill="#FFF86C"/>
<path d="M211.135 380.843C211.135 380.843 207.652 367.704 213.073 379.3C213.073 379.3 220.418 369.639 215.783 380.071C215.783 380.071 228.169 382.777 215.39 383.156C215.39 383.156 213.452 393.196 212.3 384.32C212.3 384.32 201.459 385.862 211.135 380.843Z" fill="#009ACD"/>
<path d="M215.391 381.871C215.391 382.723 214.699 383.413 213.846 383.413C212.992 383.413 212.301 382.723 212.301 381.871C212.301 381.018 212.992 380.328 213.846 380.328C214.699 380.328 215.391 381.018 215.391 381.871Z" fill="#FFF86C"/>
<path d="M232.615 384.861C232.615 384.861 240.489 373.78 235.041 385.362C235.041 385.362 247.17 384.82 236.18 387.933C236.18 387.933 242.02 399.163 233.551 389.61C233.551 389.61 224.579 394.549 230.678 387.973C230.678 387.973 222.56 380.653 232.615 384.861Z" fill="#009ACD"/>
<path d="M234.539 388.785C233.875 389.326 232.899 389.245 232.357 388.582C231.815 387.932 231.896 386.958 232.56 386.403C233.211 385.862 234.186 385.943 234.742 386.606C235.284 387.256 235.203 388.244 234.539 388.785Z" fill="#FFF86C"/>
<path d="M196.663 390.368C196.663 390.368 190.889 389.137 196.446 389.313C196.446 389.313 194.142 384.577 197.272 388.42C197.272 388.42 200.742 384.171 198.397 389.177C198.397 389.177 201.907 391.897 198.235 390.598C198.235 390.598 196.717 395.09 196.663 390.368Z" fill="#009ACD"/>
<path d="M197.895 388.92C198.22 389.082 198.356 389.488 198.193 389.827C198.03 390.151 197.624 390.287 197.285 390.124C196.96 389.962 196.824 389.556 196.987 389.218C197.163 388.893 197.556 388.758 197.895 388.92Z" fill="#FFF86C"/>
<path d="M217.666 392.33C217.666 392.33 211.893 391.099 217.45 391.275C217.45 391.275 215.146 386.539 218.276 390.382C218.276 390.382 221.745 386.133 219.401 391.139C219.401 391.139 222.911 393.859 219.238 392.56C219.238 392.573 217.707 397.052 217.666 392.33Z" fill="#009ACD"/>
<path d="M218.899 390.896C219.224 391.058 219.36 391.464 219.197 391.802C219.034 392.127 218.628 392.262 218.289 392.1C217.964 391.937 217.828 391.532 217.991 391.193C218.153 390.855 218.56 390.72 218.899 390.896Z" fill="#FFF86C"/>
<path d="M269.274 394.035C269.274 394.035 264.653 389.867 267.079 388.325C269.491 386.782 270.589 391.396 269.274 394.035Z" fill="#FF7F86"/>
<path d="M268.461 394.346C268.461 394.346 269.315 388.176 271.957 389.313C274.586 390.436 271.388 393.94 268.461 394.346Z" fill="#FF7F86"/>
<path d="M268.879 393.764C268.879 393.764 274.855 391.978 274.909 394.846C274.977 397.701 270.451 396.254 268.879 393.764Z" fill="#FF7F86"/>
<path d="M269.125 392.858C269.125 392.858 273.76 397.025 271.348 398.568C268.922 400.096 267.811 395.496 269.125 392.858Z" fill="#FF7F86"/>
<path d="M269.353 393.263C269.353 393.263 268.296 399.393 265.694 398.175C263.105 396.957 266.426 393.561 269.353 393.263Z" fill="#FF7F86"/>
<path d="M269.734 394.292C269.734 394.292 263.73 395.956 263.73 393.088C263.717 390.219 268.203 391.762 269.734 394.292Z" fill="#FF7F86"/>
<path d="M270.586 394.035C270.586 394.765 269.99 395.347 269.272 395.347C268.553 395.347 267.957 394.752 267.957 394.035C267.957 393.304 268.553 392.722 269.272 392.722C269.99 392.722 270.586 393.304 270.586 394.035Z" fill="#FFF86C"/>
<path d="M250.993 378.881C250.993 378.881 246.372 374.713 248.798 373.171C251.21 371.628 252.321 376.242 250.993 378.881Z" fill="#FF7F86"/>
<path d="M250.191 379.192C250.191 379.192 251.045 373.036 253.688 374.159C256.317 375.295 253.119 378.8 250.191 379.192Z" fill="#FF7F86"/>
<path d="M250.598 378.61C250.598 378.61 256.56 376.824 256.628 379.693C256.696 382.548 252.17 381.1 250.598 378.61Z" fill="#FF7F86"/>
<path d="M250.841 377.704C250.841 377.704 255.476 381.871 253.064 383.413C250.652 384.956 249.527 380.342 250.841 377.704Z" fill="#FF7F86"/>
<path d="M251.085 378.109C251.085 378.109 250.028 384.239 247.426 383.021C244.838 381.803 248.144 378.407 251.085 378.109Z" fill="#FF7F86"/>
<path d="M251.453 379.138C251.453 379.138 245.449 380.802 245.449 377.934C245.449 375.065 249.935 376.621 251.453 379.138Z" fill="#FF7F86"/>
<path d="M252.32 378.881C252.32 379.611 251.724 380.193 251.006 380.193C250.274 380.193 249.691 379.598 249.691 378.881C249.691 378.15 250.288 377.568 251.006 377.568C251.724 377.568 252.32 378.15 252.32 378.881Z" fill="#FFF86C"/>
<path d="M276.428 380.464C276.428 380.464 272.214 372.237 276.388 371.371C280.548 370.505 279.654 377.501 276.428 380.464Z" fill="#FF7F86"/>
<path d="M275.152 380.477C275.152 380.477 279.584 372.373 282.646 375.322C285.709 378.272 279.421 381.465 275.152 380.477Z" fill="#FF7F86"/>
<path d="M276.02 379.882C276.02 379.882 285.248 380.531 283.825 384.55C282.416 388.555 276.9 384.171 276.02 379.882Z" fill="#FF7F86"/>
<path d="M276.848 378.745C276.848 378.745 281.09 386.958 276.916 387.838C272.756 388.717 273.637 381.722 276.848 378.745Z" fill="#FF7F86"/>
<path d="M276.955 379.449C276.955 379.449 272.253 387.405 269.285 384.347C266.331 381.289 272.727 378.312 276.955 379.449Z" fill="#FF7F86"/>
<path d="M276.928 381.073C276.928 381.073 267.713 380.22 269.217 376.242C270.721 372.251 276.155 376.756 276.928 381.073Z" fill="#FF7F86"/>
<path d="M278.256 381.154C277.877 382.169 276.738 382.669 275.722 382.29C274.706 381.912 274.204 380.775 274.584 379.76C274.963 378.745 276.101 378.245 277.118 378.624C278.134 379.016 278.649 380.153 278.256 381.154Z" fill="#FFF86C"/>
<path d="M230.624 424.641C230.624 424.641 231.505 421.826 228.333 423.233C228.333 423.233 224.81 422.002 225.867 424.641C225.867 424.641 222.872 426.927 226.395 427.103C226.395 427.103 227.629 430.093 229.39 427.631C229.39 427.644 232.914 428.7 230.624 424.641Z" fill="#FFF86C"/>
<path d="M227.02 425.439C227.02 425.994 227.575 426.454 228.253 426.454C228.93 426.454 229.486 425.994 229.486 425.439C229.486 424.884 228.93 424.424 228.253 424.424C227.575 424.424 227.02 424.884 227.02 425.439Z" fill="#FDFFE2"/>
<path d="M172.092 396.998C172.092 396.998 172.973 394.184 169.802 395.591C169.802 395.591 166.279 394.36 167.336 396.998C167.336 396.998 164.341 399.285 167.864 399.461C167.864 399.461 169.097 402.451 170.859 399.988C170.859 399.988 174.383 401.044 172.092 396.998Z" fill="#FFF86C"/>
<path d="M168.473 397.796C168.473 398.351 169.028 398.811 169.706 398.811C170.383 398.811 170.939 398.351 170.939 397.796C170.939 397.242 170.383 396.781 169.706 396.781C169.028 396.781 168.473 397.228 168.473 397.796Z" fill="#FDFFE2"/>
<path d="M161.308 398.026C161.308 398.026 162.623 393.818 157.88 395.929C157.88 395.929 152.608 394.089 154.194 398.026C154.194 398.026 149.708 401.449 154.98 401.706C154.98 401.706 156.823 406.185 159.465 402.491C159.465 402.491 164.737 404.074 161.308 398.026Z" fill="#FFF86C"/>
<path d="M155.902 399.203C155.902 400.042 156.729 400.719 157.745 400.719C158.762 400.719 159.588 400.042 159.588 399.203C159.588 398.364 158.762 397.688 157.745 397.688C156.729 397.688 155.902 398.378 155.902 399.203Z" fill="#FDFFE2"/>
<path d="M253.917 423.964C253.917 423.964 255.083 420.23 250.868 422.097C250.868 422.097 246.193 420.46 247.589 423.964C247.589 423.964 243.618 426.995 248.293 427.238C248.293 427.238 249.933 431.216 252.264 427.942C252.278 427.928 256.967 429.336 253.917 423.964Z" fill="#FFF86C"/>
<path d="M249.121 425.006C249.121 425.75 249.853 426.346 250.761 426.346C251.669 426.346 252.401 425.75 252.401 425.006C252.401 424.262 251.669 423.667 250.761 423.667C249.853 423.667 249.121 424.262 249.121 425.006Z" fill="#FDFFE2"/>
<path d="M235.489 408.052C235.489 408.052 236.329 405.387 233.321 406.726C233.321 406.726 229.987 405.563 230.99 408.052C230.99 408.052 228.157 410.217 231.491 410.38C231.491 410.38 232.656 413.207 234.323 410.88C234.31 410.88 237.657 411.881 235.489 408.052Z" fill="#FFF86C"/>
<path d="M232.059 408.797C232.059 409.324 232.587 409.757 233.224 409.757C233.875 409.757 234.389 409.324 234.389 408.797C234.389 408.269 233.861 407.836 233.224 407.836C232.587 407.849 232.059 408.269 232.059 408.797Z" fill="#FDFFE2"/>
<path d="M200.676 370.897C200.676 370.897 194.97 352.631 188.75 346.597C188.75 346.597 196.38 360.235 196.447 370.464C196.447 370.464 197.532 373.576 200.676 370.897Z" fill="#1D3F08"/>
<path d="M201.746 371.506C201.746 371.506 205.012 371.75 205.514 370.248C206.015 368.746 202.004 356.623 203.427 350.994C203.427 351.008 198.914 362.035 201.746 371.506Z" fill="#1D3F08"/>
<path d="M199.171 372.9C199.171 372.9 203.819 373.225 204.483 371.452C205.134 369.68 195.471 346.123 197.328 338.776C197.328 338.776 194.983 346.028 198.466 360.344C198.466 360.344 191.324 337.694 186.27 333.377C186.256 333.377 197.301 354.499 199.171 372.9Z" fill="#1D3F08"/>
<path d="M206.504 368.841C206.504 368.841 208.605 369.856 209.106 368.354C209.607 366.852 206.504 359.721 207.195 354.756C207.195 354.756 203.333 359.004 206.504 368.841Z" fill="#1D3F08"/>
<path d="M192.085 368.692C192.085 368.692 194.849 370.437 195.649 368.394C195.649 368.394 192.261 357.705 189.32 352.807C189.32 352.821 192.613 361.48 192.085 368.692Z" fill="#1D3F08"/>
<path d="M355.082 317.655C355.082 317.655 355.53 327.505 354.242 334.758C354.242 334.758 373.811 341.902 389.233 333.445C389.233 333.445 386.644 323.974 387.159 317.493L355.082 317.655Z" fill="#59360D"/>
<path d="M387.28 317.614C387.28 319.644 380.057 321.308 371.154 321.308C362.25 321.308 355.027 319.658 355.027 317.614C355.027 315.571 362.25 313.921 371.154 313.921C380.057 313.921 387.28 315.571 387.28 317.614Z" fill="#7A4613"/>
<path d="M339.121 327.316C339.121 327.316 339.5 337.166 338.402 344.418C338.402 344.418 355.017 351.562 368.108 343.106C368.108 343.106 365.912 333.635 366.346 327.167L339.121 327.316Z" fill="#59360D"/>
<path d="M366.456 327.275C366.456 329.318 360.317 330.969 352.755 330.969C345.194 330.969 339.055 329.318 339.055 327.275C339.055 325.246 345.194 323.595 352.755 323.595C360.331 323.595 366.456 325.246 366.456 327.275Z" fill="#7A4613"/>
<path d="M322.626 305.559C322.626 305.559 322.897 312.487 322.125 317.574C322.125 317.574 333.793 322.594 342.995 316.64C342.995 316.64 341.45 309.983 341.761 305.437L322.626 305.559Z" fill="#683F0F"/>
<path d="M341.841 305.532C341.841 306.966 337.532 308.13 332.219 308.13C326.907 308.13 322.598 306.966 322.598 305.532C322.598 304.098 326.907 302.934 332.219 302.934C337.532 302.934 341.841 304.098 341.841 305.532Z" fill="#A86F00"/>
<path d="M362.386 394.508C362.386 394.508 351.26 386.715 342.898 392.871C342.898 392.871 354.079 381.289 366.221 392.438C366.235 392.425 367.346 394.387 362.386 394.508Z" fill="#624E00"/>
<path d="M366.233 392.425C366.233 392.425 363.156 377.04 352.152 376.607C352.152 376.607 362.709 380.125 361.395 392.425C361.395 392.425 364.471 394.184 366.233 392.425Z" fill="#624E00"/>
<path d="M365.789 393.642C365.789 393.642 368.432 386.606 378.108 387.932C378.108 387.932 369.692 383.143 362.699 392.763C362.713 392.763 363.648 394.901 365.789 393.642Z" fill="#624E00"/>
<path d="M390.112 352.32C390.112 352.32 378.986 344.527 370.625 350.683C370.625 350.683 381.805 339.101 393.948 350.25C393.961 350.25 395.072 352.198 390.112 352.32Z" fill="#624E00"/>
<path d="M393.959 350.25C393.959 350.25 390.883 334.866 379.879 334.433C379.879 334.433 390.436 337.951 389.121 350.25C389.121 350.25 392.197 351.995 393.959 350.25Z" fill="#624E00"/>
<path d="M393.516 351.454C393.516 351.454 396.158 344.418 405.834 345.744C405.834 345.744 397.418 340.955 390.426 350.575C390.439 350.575 391.374 352.713 393.516 351.454Z" fill="#624E00"/>
<path d="M410.686 397.268C410.686 397.268 400.562 393.751 397.486 399.027C397.486 399.027 395.291 391.992 401.443 390.233C407.609 388.474 410.686 397.268 410.686 397.268Z" fill="#624E00"/>
<path d="M408.488 397.269C408.488 397.269 404.992 375.038 425.469 380.261C425.469 380.261 411.131 376.174 408.488 397.269Z" fill="#624E00"/>
<path d="M424.78 391.545C424.78 391.545 415.537 398.581 409.818 397.255C404.086 395.943 413.559 378.745 424.78 391.545Z" fill="#624E00"/>
<path d="M325.457 356.866C325.457 356.866 332.843 354.296 335.106 358.152C335.106 358.152 336.719 353.024 332.219 351.738C327.707 350.453 325.457 356.866 325.457 356.866Z" fill="#624E00"/>
<path d="M327.056 356.866C327.056 356.866 329.617 340.63 314.656 344.445C314.656 344.445 325.132 341.469 327.056 356.866Z" fill="#624E00"/>
<path d="M315.172 352.699C315.172 352.699 321.921 357.827 326.108 356.866C330.282 355.906 323.357 343.336 315.172 352.699Z" fill="#624E00"/>
<path d="M505.411 386.999C502.633 386.688 492.497 382.845 490.708 386.931C489.569 389.678 497.321 390.138 493.974 393.033C491.711 394.847 483.688 392.668 483.295 397.241C483.01 401.355 493.269 402.559 495.966 403.181C499.299 403.953 508.122 404.156 510.358 407.511C512.35 410.474 507.837 412.612 512.418 414.506C516.551 416.13 521.47 416.604 525.834 417.943C532.393 419.959 539.182 421.705 545.958 422.76C549.211 423.179 560.486 424.289 560.757 418.836C560.946 415.873 555.932 414.385 558.466 412.125C561.421 409.473 570.92 412.504 572.669 408.566C573.509 406.415 569.877 404.751 568.237 403.871C563.928 401.544 558.724 400.164 554.076 398.594C548.953 396.903 543.695 395.022 538.6 393.182C532.433 390.923 526.335 390.517 519.993 389.042" fill="#CFD161"/>
<path d="M526.703 396.754L533.641 366.865L513.598 362.238L506.66 392.14C506.646 392.167 506.633 392.195 506.619 392.222C506.294 393.642 510.522 395.834 516.051 397.12C521.594 398.405 526.35 398.283 526.689 396.863C526.703 396.822 526.703 396.781 526.703 396.754Z" fill="#58595B"/>
<path d="M533.656 366.838C533.331 368.259 528.56 368.367 523.018 367.095C517.475 365.81 513.247 363.632 513.572 362.211C513.898 360.79 518.668 360.682 524.197 361.954C529.767 363.226 533.995 365.418 533.656 366.838Z" fill="#414042"/>
<path d="M515.915 373.679L514.789 374.381L524.155 389.343L525.281 388.64L515.915 373.679Z" fill="#414042"/>
<path d="M527.205 376.221L512.223 385.579L512.927 386.703L527.909 377.345L527.205 376.221Z" fill="#414042"/>
<path d="M544.672 408.634L552.37 375.471L530.145 370.329L522.447 403.493C522.434 403.52 522.407 403.56 522.407 403.587C522.041 405.157 526.73 407.592 532.882 409.013C539.035 410.434 544.32 410.312 544.672 408.729C544.686 408.715 544.672 408.675 544.672 408.634Z" fill="#414042"/>
<path d="M552.397 375.457C552.031 377.027 546.746 377.162 540.593 375.742C534.441 374.321 529.752 371.885 530.118 370.316C530.484 368.733 535.769 368.611 541.908 370.032C548.074 371.452 552.763 373.888 552.397 375.457Z" fill="#231F20"/>
<path d="M532.679 383.017L531.426 383.798L541.804 400.393L543.057 399.612L532.679 383.017Z" fill="#231F20"/>
<path d="M545.193 385.91L528.566 396.264L529.348 397.516L545.975 387.162L545.193 385.91Z" fill="#231F20"/>
<path d="M420.32 405.712C419.019 405.847 414.005 405.103 413.598 407.159C413.354 408.526 416.945 407.958 415.699 409.622C414.845 410.677 410.969 410.488 411.24 412.612C411.525 414.52 416.322 414.033 417.623 414.046C419.222 414.06 423.274 413.275 424.629 414.574C425.835 415.724 423.992 417.158 426.269 417.564C428.315 417.889 430.606 417.618 432.747 417.794C435.945 418.065 439.224 418.173 442.423 417.984C443.954 417.848 449.212 417.226 448.778 414.709C448.562 413.343 446.122 413.153 447.057 411.881C448.142 410.366 452.79 410.799 453.183 408.837C453.345 407.768 451.529 407.376 450.689 407.132C448.48 406.496 445.973 406.402 443.683 406.145C441.176 405.887 438.588 405.549 436.067 405.224C433.018 404.805 430.199 405.238 427.15 405.197" fill="#CFD161"/>
<path d="M497.116 190.922L481.445 335.76L497.195 337.459L512.866 192.621L497.116 190.922Z" fill="#6D6E71"/>
<path d="M512.972 192.742C512.864 193.77 509.191 194.216 504.787 193.743C500.369 193.269 496.886 192.052 496.995 191.023C497.103 189.995 500.776 189.548 505.18 190.022C509.598 190.496 513.081 191.713 512.972 192.742Z" fill="#414042"/>
<path d="M428.885 263.134L417.258 370.602L494.055 378.885L505.682 271.417L428.885 263.134Z" fill="#BCBEC0"/>
<path d="M424.958 299.545L422.402 323.14L499.199 331.431L501.754 307.836L424.958 299.545Z" fill="#006573"/>
<path d="M422.053 326.134L419.5 349.729L496.297 358.012L498.85 334.417L422.053 326.134Z" fill="#006573"/>
<path d="M427.834 272.973L425.281 296.568L502.078 304.851L504.631 281.256L427.834 272.973Z" fill="#006573"/>
<path d="M450.03 356.025L448.094 373.916L466.916 375.946L468.851 358.055L450.03 356.025Z" fill="#002731"/>
<path d="M471.753 360.148L470.477 371.945L474.855 372.418L476.132 360.62L471.753 360.148Z" fill="#002731"/>
<path d="M478.768 360.894L477.488 372.691L481.867 373.165L483.147 361.367L478.768 360.894Z" fill="#002731"/>
<path d="M485.745 361.661L484.469 373.458L488.848 373.93L490.124 362.133L485.745 361.661Z" fill="#002731"/>
<path d="M426.694 355.272L425.414 367.069L429.793 367.543L431.073 355.745L426.694 355.272Z" fill="#002731"/>
<path d="M433.683 356.009L432.41 367.807L436.789 368.278L438.062 356.48L433.683 356.009Z" fill="#002731"/>
<path d="M440.663 356.787L439.387 368.584L443.765 369.056L445.042 357.259L440.663 356.787Z" fill="#002731"/>
<path d="M411.567 169.632C411.567 171.58 407.826 173.15 403.205 173.15C398.584 173.15 394.844 171.58 394.844 169.632C394.844 167.697 398.584 166.114 403.205 166.114C407.826 166.114 411.567 167.683 411.567 169.632Z" fill="#D1D3D4"/>
<path d="M421.256 139.743C421.256 146.535 411.594 152.042 399.682 152.042C387.77 152.042 378.121 146.535 378.121 139.743C378.121 132.951 387.783 127.444 399.682 127.444C411.594 127.444 421.256 132.951 421.256 139.743Z" fill="#D1D3D4"/>
<path d="M491.67 72.5098C491.67 95.5658 455.812 114.251 411.565 114.251C367.319 114.251 331.461 95.5658 331.461 72.5098C331.461 49.4539 367.319 30.7683 411.565 30.7683C455.812 30.7683 491.67 49.4539 491.67 72.5098Z" fill="#D1D3D4"/>
<path d="M524.251 101.073C524.251 118.541 503.164 132.707 477.159 132.707C451.153 132.707 430.066 118.541 430.066 101.073C430.066 83.6049 451.153 69.4385 477.159 69.4385C503.164 69.4385 524.251 83.6049 524.251 101.073Z" fill="#D1D3D4"/>
<path d="M516.321 151.176C516.321 157.008 508.434 161.716 498.717 161.716C489 161.716 481.113 156.994 481.113 151.176C481.113 145.344 489 140.636 498.717 140.636C508.434 140.622 516.321 145.344 516.321 151.176Z" fill="#D1D3D4"/>
<path d="M507.46 181.322C512.287 181.322 516.2 178.899 516.2 175.91C516.2 172.921 512.287 170.498 507.46 170.498C502.632 170.498 498.719 172.921 498.719 175.91C498.719 178.899 502.632 181.322 507.46 181.322Z" fill="#D1D3D4"/>
<path d="M529.52 118.649C564.038 118.649 592.021 99.7606 592.021 76.4608C592.021 53.1609 564.038 34.2727 529.52 34.2727C495.002 34.2727 467.02 53.1609 467.02 76.4608C467.02 99.7606 495.002 118.649 529.52 118.649Z" fill="#D1D3D4"/>
<path d="M589.515 168.143C585.951 178.724 569.798 182.851 553.441 177.358C537.084 171.864 526.703 158.834 530.267 148.254C533.831 137.673 549.985 133.546 566.342 139.039C582.712 144.533 593.08 157.562 589.515 168.143Z" fill="#D1D3D4"/>
<path d="M578.877 214.025C577.034 221.075 567.724 224.741 558.089 222.238C548.44 219.722 542.125 211.982 543.968 204.933C545.811 197.883 555.121 194.217 564.756 196.72C574.392 199.236 580.72 206.989 578.877 214.025Z" fill="#D1D3D4"/>
<path d="M615.073 276.874C612.254 281.975 604.963 283.342 598.797 279.932C592.631 276.522 589.921 269.635 592.74 264.534C595.559 259.433 602.849 258.067 609.029 261.477C615.195 264.886 617.905 271.773 615.073 276.874Z" fill="#D1D3D4"/>
<path d="M610.276 222.671C607.389 233.712 593.417 239.625 579.08 235.89C564.728 232.156 555.432 220.182 558.318 209.141C561.205 198.1 575.177 192.187 589.515 195.921C603.866 199.656 613.162 211.63 610.276 222.671Z" fill="#D1D3D4"/>
<path d="M585.963 252.168C584.256 256.714 577.71 258.459 571.341 256.078C564.972 253.697 561.191 248.068 562.898 243.522C564.606 238.975 571.151 237.23 577.534 239.611C583.876 242.006 587.671 247.621 585.963 252.168Z" fill="#D1D3D4"/>
<path d="M477.592 87.0144C511.624 87.0144 539.212 68.9137 539.212 46.5853C539.212 24.257 511.624 6.15625 477.592 6.15625C443.561 6.15625 415.973 24.257 415.973 46.5853C415.973 68.9137 443.561 87.0144 477.592 87.0144Z" fill="#D1D3D4"/>
<path d="M481.114 30.7548C481.114 47.7491 455.298 61.5096 423.452 61.5096C391.605 61.5096 365.789 47.7355 365.789 30.7548C365.789 13.774 391.605 0 423.452 0C455.298 0 481.114 13.774 481.114 30.7548Z" fill="#D1D3D4"/>
</g>
<defs>
<radialGradient id="paint0_radial_398_6297" cx="0" cy="0" r="1" gradientUnits="userSpaceOnUse" gradientTransform="translate(180.396 276.545) rotate(128.888) scale(82.0397 137.428)">
<stop stop-color="#232738" stop-opacity="0"/>
<stop offset="0.2911" stop-color="#576265" stop-opacity="0.3019"/>
<stop offset="0.9645" stop-color="#DAF6D5"/>
</radialGradient>
<clipPath id="clip0_398_6297">
<rect width="618" height="431" fill="white"/>
</clipPath>
</defs>
</svg>
