<svg width="30" height="30" viewBox="0 0 30 30" fill="none" xmlns="http://www.w3.org/2000/svg">
<path opacity="0.2" d="M15 3.75C11.1375 3.75 8.1 6.68438 7.67531 10.4297C6.85842 10.5613 6.09231 10.9114 5.45808 11.4428C4.82385 11.9742 4.3451 12.6672 4.0725 13.4484C1.76625 14.1131 0 16.17 0 18.75C0 21.8662 2.50875 24.375 5.625 24.375H24.375C27.4912 24.375 30 21.8662 30 18.75C30 17.1 29.1984 15.6225 28.0369 14.5894C27.8194 11.295 25.1916 8.66625 21.885 8.49563C20.7563 5.74969 18.1669 3.75 15 3.75ZM15 10.8694L14.325 11.5134L10.575 15.2634L11.925 16.6134L14.0625 14.4722V20.625H15.9375V14.4722L18.075 16.6116L19.425 15.2616L15.675 11.5116L15 10.8694Z" fill="white"/>
<path d="M15 3.75C11.1375 3.75 8.1 6.68438 7.67531 10.4297C6.85842 10.5613 6.09231 10.9114 5.45808 11.4428C4.82385 11.9742 4.3451 12.6672 4.0725 13.4484C1.76625 14.1131 0 16.17 0 18.75C0 21.8662 2.50875 24.375 5.625 24.375H24.375C27.4912 24.375 30 21.8662 30 18.75C30 17.1 29.1984 15.6225 28.0369 14.5894C27.8194 11.295 25.1916 8.66625 21.885 8.49563C20.7563 5.74969 18.1669 3.75 15 3.75ZM15 5.625C17.5894 5.625 19.6594 7.28437 20.3906 9.6375L20.5969 10.3125H21.5625C24.1453 10.3125 26.25 12.4172 26.25 15V15.4688L26.6306 15.7622C27.09 16.1143 27.4633 16.5662 27.7222 17.0839C27.9811 17.6015 28.1188 18.1713 28.125 18.75C28.125 20.8837 26.5087 22.5 24.375 22.5H5.625C3.49125 22.5 1.875 20.8837 1.875 18.75C1.875 16.8563 3.23438 15.3863 4.95 15.0881L5.56594 14.9709L5.68313 14.3541C5.96438 13.0912 7.08375 12.1875 8.4375 12.1875H9.375V11.25C9.375 8.09063 11.8406 5.625 15 5.625ZM15 10.8694L14.325 11.5134L10.575 15.2634L11.925 16.6134L14.0625 14.4722V20.625H15.9375V14.4722L18.075 16.6116L19.425 15.2616L15.675 11.5116L15 10.8694Z" fill="white"/>
</svg>
