<svg width="1264" height="564" viewBox="0 0 1264 564" fill="none" xmlns="http://www.w3.org/2000/svg">
<path d="M166.682 229.079C165.677 227.432 164.713 225.785 163.587 224.218C161.738 224.921 159.749 225.283 157.759 225.524C155.327 225.825 151.931 226.367 149.7 225.142C149.137 224.821 149.157 223.997 149.78 223.756C152.011 222.932 154.845 223.434 157.216 223.213C158.905 223.053 160.553 222.731 162.221 222.47C162 222.209 161.799 221.948 161.557 221.707C158.844 218.894 155.83 216.343 152.936 213.711C152.393 213.209 151.85 212.707 151.308 212.225C149.157 213.249 146.163 212.948 143.952 212.667C141.46 212.365 137.762 211.843 136.134 209.714C135.793 209.272 136.175 208.649 136.697 208.589C139.189 208.368 141.922 209.894 144.435 210.236C146.002 210.457 147.69 210.316 149.338 210.397C146.042 207.403 142.767 204.39 139.471 201.397C138.767 201.819 137.642 201.557 136.878 201.598C135.933 201.658 134.547 202.14 133.662 201.678C133.421 201.557 133.261 201.216 133.421 200.975C134.024 199.93 135.692 199.87 136.778 199.87C137.079 199.87 137.461 199.87 137.843 199.91C136.436 198.624 135.009 197.319 133.602 196.033C133.1 195.591 133.763 194.828 134.285 195.249C135.29 196.073 136.295 196.917 137.3 197.74C137.541 197.118 137.682 196.455 137.642 195.792C137.602 195.229 137.36 194.667 137.461 194.104C137.501 193.863 137.782 193.723 138.003 193.823C139.531 194.607 138.848 197.198 138.003 198.223C137.983 198.243 137.943 198.243 137.923 198.263C139.852 199.87 141.782 201.477 143.731 203.064C143.731 202.16 144.053 201.115 144.033 200.352C144.033 199.609 143.972 198.845 143.832 198.102C143.711 197.459 143.49 196.816 143.691 196.153C143.832 195.671 144.314 195.491 144.736 195.792C145.761 196.555 145.861 198.363 145.922 199.528C145.962 200.232 145.902 200.935 145.821 201.638C145.781 201.959 145.419 202.964 145.439 203.426C145.48 203.466 145.5 203.506 145.5 203.566C145.52 203.827 145.48 203.868 145.379 204.129C145.339 204.209 145.279 204.249 145.238 204.31C149.278 207.664 153.318 211.019 157.357 214.394C157.799 214.756 158.261 215.138 158.764 215.539C159.528 213.51 159.95 211.341 159.749 209.171C159.648 208.066 159.407 206.981 159.025 205.937C158.683 205.013 158.141 204.209 158.121 203.225C158.101 202.803 158.563 202.441 158.965 202.662C160.954 203.707 161.477 207.022 161.598 209.051C161.758 211.662 161.176 214.173 159.789 216.363C162.361 218.412 165.295 220.843 167.386 223.575C167.426 222.932 167.486 222.269 167.546 221.646C168.33 213.852 167.406 207.383 162.18 201.256C157.116 195.33 149.78 191.915 142.324 190.066C136.134 188.54 129.623 188.359 123.453 186.852C125.463 190.187 125.804 195.049 126.307 198.544C127.312 205.515 128.698 212.586 132.477 218.653C136.356 224.881 142.204 228.959 149.479 229.923C155.267 230.687 160.914 229.401 166.682 229.079Z" fill="#B5CD4C"/>
<path d="M167.548 230.425C167.729 230.687 167.889 230.948 168.07 231.209C168.754 233.157 169.979 234.865 172.029 236.01C172.914 236.512 173.999 235.307 173.356 234.483C168.11 227.653 171.889 220.28 170.723 212.606C169.819 206.62 166.623 201.236 162.302 197.078C151.47 186.631 135.975 186.149 121.867 184.984C121.666 184.803 121.445 184.602 121.224 184.442C120.48 183.899 119.415 184.502 119.716 185.446C120.782 189.002 122.47 191.995 123.113 195.752C123.676 199.006 124.037 202.301 124.721 205.535C126.127 212.285 128.599 218.955 133.222 224.178C141.723 233.74 155.992 234.483 167.548 230.425ZM132.418 218.653C128.64 212.586 127.253 205.515 126.248 198.544C125.746 195.049 125.404 190.207 123.394 186.852C129.564 188.379 136.096 188.54 142.266 190.066C149.701 191.915 157.057 195.33 162.122 201.256C167.347 207.383 168.271 213.852 167.487 221.646C167.427 222.269 167.367 222.912 167.327 223.575C165.237 220.843 162.302 218.432 159.73 216.363C161.137 214.173 161.72 211.662 161.539 209.051C161.398 207.022 160.875 203.707 158.906 202.662C158.504 202.441 158.062 202.803 158.062 203.225C158.082 204.209 158.625 205.013 158.966 205.937C159.348 206.981 159.589 208.066 159.69 209.171C159.871 211.341 159.469 213.51 158.705 215.539C158.223 215.138 157.74 214.756 157.298 214.394C153.279 211.019 149.239 207.664 145.18 204.31C145.22 204.249 145.28 204.209 145.32 204.129C145.421 203.888 145.461 203.827 145.441 203.566C145.441 203.506 145.401 203.466 145.381 203.426C145.36 202.964 145.722 201.959 145.762 201.638C145.843 200.935 145.903 200.232 145.863 199.528C145.803 198.363 145.702 196.535 144.677 195.792C144.275 195.491 143.773 195.671 143.632 196.153C143.431 196.816 143.652 197.439 143.773 198.102C143.913 198.845 143.974 199.609 143.974 200.352C143.974 201.115 143.652 202.16 143.672 203.064C141.743 201.457 139.814 199.87 137.864 198.263C137.884 198.243 137.925 198.243 137.945 198.223C138.789 197.198 139.472 194.607 137.945 193.823C137.724 193.703 137.442 193.863 137.402 194.104C137.281 194.667 137.543 195.229 137.583 195.792C137.623 196.455 137.482 197.118 137.241 197.741C136.236 196.917 135.231 196.073 134.227 195.249C133.704 194.828 133.041 195.571 133.543 196.033C134.95 197.319 136.377 198.624 137.784 199.91C137.402 199.87 137.02 199.87 136.719 199.87C135.633 199.87 133.985 199.93 133.362 200.975C133.222 201.236 133.362 201.557 133.604 201.678C134.488 202.14 135.875 201.658 136.819 201.598C137.583 201.557 138.708 201.798 139.412 201.397C142.708 204.39 145.983 207.403 149.279 210.397C147.652 210.316 145.943 210.457 144.376 210.236C141.884 209.894 139.13 208.368 136.638 208.589C136.136 208.629 135.734 209.252 136.076 209.714C137.703 211.843 141.401 212.345 143.893 212.667C146.104 212.928 149.099 213.249 151.249 212.225C151.792 212.727 152.334 213.229 152.877 213.711C155.771 216.343 158.785 218.894 161.498 221.707C161.74 221.968 161.941 222.229 162.162 222.47C160.494 222.731 158.846 223.053 157.157 223.213C154.786 223.434 151.952 222.932 149.722 223.756C149.099 223.997 149.058 224.821 149.641 225.142C151.872 226.367 155.268 225.825 157.7 225.524C159.67 225.283 161.659 224.921 163.528 224.218C164.654 225.805 165.598 227.432 166.623 229.079C160.855 229.401 155.208 230.687 149.36 229.923C142.145 228.959 136.297 224.881 132.418 218.653Z" fill="#32594A"/>
<g opacity="0.2">
<path d="M49.0923 44.9432C47.5649 44.9432 46.0778 44.9231 44.5504 45.0236C44.269 46.5704 43.6862 48.0369 43.0431 49.4633C42.2593 51.211 41.2343 53.7221 39.4859 54.7266C39.0437 54.9877 38.5011 54.6261 38.6016 54.1038C38.9634 52.2757 40.4706 50.5682 41.2745 48.9008C41.8573 47.7155 42.3196 46.47 42.822 45.2446C42.5607 45.2847 42.2995 45.3048 42.0382 45.3651C39.0236 46.028 36.0895 47.0124 33.1352 47.8762C32.5724 48.0369 32.0097 48.1976 31.4671 48.3584C31.2661 50.2266 29.8392 52.0949 28.754 53.4811C27.5281 55.0279 25.6791 57.298 23.5689 57.5391C23.1268 57.5792 22.8655 57.077 23.0464 56.7154C23.9106 54.9677 26.061 53.7221 27.307 52.1954C28.0908 51.2311 28.6937 50.0458 29.4172 48.9811C26.061 49.9655 22.6846 50.9498 19.3284 51.9141C19.3083 52.557 18.6853 53.1998 18.4039 53.7422C18.0422 54.4052 17.801 55.5301 17.1378 55.9319C16.9569 56.0324 16.6756 56.0123 16.555 55.8114C16.1129 54.9877 16.7359 53.8427 17.178 53.1195C17.2986 52.9186 17.4594 52.6574 17.6403 52.4163C16.1933 52.8382 14.7463 53.2601 13.2993 53.682C12.7968 53.8226 12.5557 53.0793 13.0581 52.8985C14.0228 52.5771 14.9874 52.2355 15.9722 51.894C15.6506 51.4722 15.2688 51.1106 14.8066 50.8695C14.4046 50.6686 13.9424 50.6083 13.6007 50.2869C13.46 50.1664 13.4801 49.9052 13.6409 49.8048C14.7865 49.1017 16.2535 50.6284 16.5952 51.6128C16.5952 51.6329 16.5952 51.653 16.5952 51.6731C18.4642 51.0302 20.3333 50.3873 22.2023 49.7445C21.5994 49.3829 21.0166 48.74 20.5141 48.4387C20.0117 48.1374 19.4691 47.8561 18.9265 47.6552C18.4441 47.4744 17.9216 47.3539 17.5599 46.9521C17.2986 46.6709 17.379 46.2691 17.7407 46.1084C18.6652 45.7267 19.9313 46.4097 20.7352 46.8517C21.2175 47.1128 21.6798 47.4343 22.1018 47.7959C22.3028 47.9566 22.8253 48.6195 23.1469 48.7802C23.1871 48.7802 23.2273 48.7802 23.2675 48.8003C23.4483 48.8807 23.4684 48.9409 23.589 49.1017C23.6292 49.1619 23.6292 49.2021 23.6493 49.2624C27.5482 47.9164 31.4671 46.5704 35.366 45.2446C35.788 45.1039 36.2502 44.9432 36.7125 44.7624C35.6674 43.4165 34.3812 42.2513 32.8337 41.4879C32.0499 41.1062 31.2259 40.825 30.3618 40.6442C29.6182 40.4835 28.8545 40.5236 28.1712 40.1419C27.8898 39.9812 27.8295 39.5393 28.131 39.3384C29.6383 38.4344 32.0901 39.4388 33.4969 40.1821C35.3057 41.1263 36.7728 42.5526 37.657 44.3807C40.0888 43.4968 42.9225 42.5124 45.5954 42.2312C45.1734 41.9299 44.7714 41.6285 44.3695 41.3473C39.4457 37.6308 34.7228 35.6018 28.4726 36.6063C22.4234 37.5906 17.1177 41.1062 12.837 45.3651C9.27983 48.8807 6.48632 53.1998 2.94922 56.7154C6.02409 56.7355 9.42051 58.4832 11.9728 59.5881C17.0775 61.7778 22.3832 63.7265 28.0104 63.6863C33.7783 63.626 38.9031 61.3761 42.5406 56.8761C45.4949 53.2802 46.9419 48.9409 49.0923 44.9432Z" fill="#B5CD4C"/>
<path d="M50.3586 44.9231C50.5998 44.9231 50.8409 44.9031 51.1022 44.883C52.6899 45.2245 54.3378 45.1039 55.9456 44.1799C56.649 43.7781 56.2672 42.5727 55.4633 42.6531C48.7307 43.3964 45.3142 37.8317 39.687 35.4612C35.3058 33.613 30.3619 33.5728 25.7999 34.7581C14.3445 37.7514 7.6923 47.9566 1.12053 56.9565C0.899456 57.0168 0.698484 57.077 0.497513 57.1775C-0.165694 57.4587 -0.185791 58.4029 0.557804 58.6038C3.37141 59.3471 6.08453 59.4475 8.85794 60.5524C11.2696 61.5167 13.621 62.6216 16.0929 63.4854C21.1976 65.2934 26.6841 66.3783 32.0903 65.3939C42.0183 63.606 48.3489 54.3449 50.3586 44.9231ZM28.0708 63.6863C22.4436 63.7466 17.1179 61.7779 12.0333 59.5882C9.48095 58.4833 6.08453 56.7355 3.00966 56.7154C6.56686 53.1998 9.34027 48.8807 12.8975 45.3651C17.1782 41.1263 22.4838 37.5906 28.5331 36.6063C34.7833 35.6018 39.5061 37.6308 44.4299 41.3473C44.8319 41.6486 45.2338 41.95 45.6559 42.2312C42.9628 42.5125 40.1492 43.4968 37.7175 44.3807C36.8131 42.5526 35.3661 41.1263 33.5574 40.1821C32.1305 39.4388 29.6987 38.4344 28.1914 39.3384C27.89 39.5192 27.9503 39.9612 28.2316 40.142C28.9149 40.5236 29.6786 40.4835 30.4222 40.6442C31.2864 40.825 32.1104 41.0861 32.8942 41.4879C34.4416 42.2513 35.7078 43.4165 36.7729 44.7624C36.3107 44.9231 35.8484 45.0839 35.4264 45.2446C31.5074 46.5704 27.6086 47.9164 23.7097 49.2624C23.6896 49.2021 23.6897 49.1418 23.6495 49.1017C23.5289 48.941 23.5088 48.8807 23.3279 48.8003C23.2877 48.7802 23.2475 48.7802 23.2073 48.7802C22.8858 48.5994 22.3632 47.9566 22.1623 47.7959C21.7402 47.4544 21.278 47.1329 20.7957 46.8517C19.9918 46.4097 18.7256 45.7267 17.8012 46.1084C17.4394 46.2691 17.359 46.6508 17.6203 46.9521C17.9821 47.3539 18.5046 47.4745 18.9869 47.6553C19.5496 47.8562 20.0722 48.1374 20.5746 48.4387C21.0971 48.7602 21.6598 49.3829 22.2628 49.7445C20.3937 50.3874 18.5247 51.0302 16.6556 51.6731C16.6556 51.653 16.6757 51.6329 16.6556 51.6128C16.314 50.6284 14.8469 49.1017 13.7014 49.8048C13.5406 49.9052 13.5205 50.1664 13.6612 50.2869C14.0028 50.5883 14.465 50.6485 14.867 50.8695C15.3292 51.1106 15.7111 51.4722 16.0326 51.894C15.068 52.2356 14.1033 52.557 13.1185 52.8985C12.6161 53.0592 12.8573 53.8226 13.3597 53.682C14.8067 53.2601 16.2537 52.8382 17.7007 52.4164C17.5198 52.6574 17.359 52.9186 17.2385 53.1195C16.7963 53.8427 16.1532 54.9878 16.6154 55.8114C16.7159 56.0123 17.0174 56.0525 17.1983 55.9319C17.8816 55.5302 18.1026 54.4052 18.4644 53.7422C18.7457 53.1998 19.3688 52.557 19.3889 51.9141C22.7451 50.9298 26.1214 49.9655 29.4776 48.9811C28.7541 50.0459 28.1512 51.2512 27.3674 52.1954C26.1013 53.7422 23.971 54.9677 23.1068 56.7154C22.926 57.077 23.1872 57.5993 23.6294 57.5391C25.7195 57.3181 27.5885 55.048 28.8144 53.4811C29.8997 52.115 31.3266 50.2267 31.5275 48.3584C32.0903 48.1977 32.6329 48.0369 33.1956 47.8762C36.1499 47.0124 39.0841 46.028 42.0987 45.3651C42.3599 45.3048 42.6212 45.2848 42.8824 45.2446C42.38 46.47 41.9178 47.7155 41.335 48.9008C40.511 50.5883 39.0238 52.2757 38.662 54.1038C38.5616 54.6262 39.1042 54.9878 39.5463 54.7266C41.2747 53.7422 42.3197 51.2311 43.1035 49.4633C43.7466 48.037 44.3294 46.5504 44.6108 45.0236C46.1382 44.9031 47.6254 44.9432 49.1528 44.9432C47.0024 48.941 45.5554 53.2802 42.6614 56.8761C38.9836 61.3761 33.8387 63.626 28.0708 63.6863Z" fill="#32594A"/>
</g>
<path d="M99.8017 514.424C100.344 516.092 100.847 517.719 101.51 519.346C103.299 519.105 105.107 519.206 106.896 519.406C109.087 519.647 112.202 519.868 113.91 521.415C114.352 521.817 114.151 522.54 113.548 522.601C111.418 522.862 109.026 521.817 106.896 521.516C105.389 521.295 103.861 521.235 102.354 521.134C102.495 521.415 102.615 521.677 102.776 521.958C104.565 525.011 106.675 527.864 108.685 530.797C109.067 531.339 109.428 531.902 109.81 532.444C111.92 532.002 114.473 532.886 116.362 533.589C118.492 534.373 121.627 535.598 122.632 537.808C122.833 538.27 122.371 538.732 121.909 538.672C119.678 538.35 117.588 536.442 115.457 535.618C114.131 535.096 112.604 534.855 111.177 534.453C113.448 537.788 115.699 541.103 117.97 544.437C118.673 544.216 119.618 544.678 120.301 544.799C121.145 544.96 122.471 544.819 123.135 545.402C123.315 545.562 123.396 545.884 123.195 546.085C122.451 546.868 120.964 546.587 120.019 546.366C119.758 546.306 119.417 546.225 119.095 546.105C120.06 547.531 121.044 548.957 122.009 550.404C122.351 550.906 121.607 551.428 121.245 550.946C120.542 550.002 119.839 549.058 119.115 548.134C118.773 548.616 118.512 549.178 118.412 549.781C118.331 550.283 118.432 550.826 118.211 551.308C118.11 551.509 117.849 551.589 117.668 551.428C116.482 550.424 117.628 548.294 118.593 547.551C118.613 547.531 118.633 547.551 118.673 547.531C117.306 545.723 115.94 543.915 114.573 542.087C114.392 542.891 113.89 543.734 113.729 544.417C113.568 545.08 113.468 545.763 113.428 546.446C113.408 547.049 113.448 547.652 113.146 548.194C112.925 548.576 112.463 548.636 112.161 548.294C111.418 547.411 111.719 545.803 111.9 544.759C112.021 544.136 112.202 543.513 112.443 542.931C112.543 542.649 113.086 541.846 113.166 541.444C113.146 541.404 113.126 541.364 113.126 541.304C113.166 541.083 113.207 541.042 113.347 540.841C113.387 540.781 113.448 540.761 113.508 540.721C110.654 536.924 107.8 533.147 104.967 529.33C104.665 528.909 104.324 528.487 103.982 528.025C102.877 529.652 102.073 531.46 101.791 533.408C101.651 534.413 101.631 535.397 101.751 536.402C101.852 537.286 102.173 538.089 101.972 538.973C101.892 539.355 101.43 539.576 101.108 539.295C99.5807 537.969 99.8218 534.935 100.123 533.127C100.525 530.797 101.55 528.728 103.258 527.08C101.43 524.73 99.3596 521.998 98.0935 519.165C97.9126 519.728 97.7317 520.29 97.5509 520.833C95.2397 527.522 94.677 533.408 98.0131 539.877C101.229 546.145 106.956 550.685 113.126 553.859C118.231 556.491 123.938 558.018 129.043 560.629C127.978 557.274 128.681 552.935 128.983 549.761C129.566 543.413 129.827 536.924 127.777 530.777C125.667 524.509 121.386 519.688 115.176 517.317C110.172 515.409 104.947 515.369 99.8017 514.424Z" fill="#B5CD4C"/>
<path d="M99.3182 513.058C99.2177 512.797 99.1172 512.536 99.0167 512.275C98.8158 510.407 98.1124 508.659 96.5448 507.232C95.8615 506.61 94.6758 507.453 95.0576 508.297C98.2531 515.389 93.3895 521.094 92.7866 528.085C92.3244 533.529 94.0126 538.933 96.9467 543.513C104.282 554.964 117.808 558.62 129.966 562.598C130.107 562.799 130.248 563.02 130.429 563.201C130.971 563.823 132.016 563.522 131.976 562.638C131.775 559.303 130.931 556.31 131.152 552.875C131.353 549.902 131.715 546.928 131.795 543.935C131.956 537.708 131.192 531.339 128.218 525.775C122.711 515.549 110.331 511.913 99.3182 513.058ZM127.736 530.757C129.786 536.884 129.524 543.393 128.941 549.741C128.64 552.915 127.937 557.254 129.002 560.609C123.897 557.977 118.189 556.471 113.085 553.839C106.935 550.665 101.187 546.125 97.9717 539.857C94.6557 533.388 95.1983 527.502 97.5095 520.813C97.6903 520.27 97.8712 519.728 98.0521 519.145C99.3182 521.978 101.388 524.73 103.217 527.06C101.529 528.688 100.484 530.777 100.082 533.107C99.7804 534.915 99.5393 537.949 101.067 539.275C101.388 539.556 101.85 539.335 101.931 538.953C102.112 538.069 101.81 537.266 101.71 536.382C101.589 535.377 101.609 534.393 101.75 533.388C102.031 531.44 102.855 529.632 103.941 528.005C104.282 528.446 104.624 528.889 104.925 529.31C107.759 533.107 110.613 536.904 113.467 540.701C113.406 540.741 113.346 540.761 113.306 540.821C113.165 541.022 113.125 541.062 113.085 541.283C113.085 541.344 113.105 541.384 113.125 541.424C113.045 541.826 112.522 542.629 112.401 542.911C112.18 543.493 111.979 544.116 111.859 544.739C111.658 545.783 111.377 547.411 112.12 548.274C112.422 548.616 112.884 548.576 113.105 548.174C113.406 547.632 113.366 547.029 113.386 546.426C113.426 545.743 113.527 545.06 113.688 544.397C113.848 543.714 114.351 542.87 114.532 542.067C115.898 543.875 117.265 545.683 118.632 547.511C118.611 547.531 118.591 547.511 118.551 547.531C117.587 548.254 116.461 550.384 117.627 551.408C117.808 551.549 118.069 551.489 118.169 551.288C118.39 550.806 118.29 550.263 118.37 549.761C118.471 549.158 118.732 548.616 119.074 548.114C119.777 549.058 120.501 550.002 121.204 550.926C121.566 551.408 122.309 550.886 121.968 550.384C120.983 548.957 120.018 547.531 119.054 546.085C119.395 546.185 119.717 546.265 119.978 546.346C120.923 546.567 122.41 546.868 123.153 546.065C123.334 545.864 123.274 545.542 123.093 545.382C122.41 544.779 121.104 544.92 120.259 544.779C119.576 544.658 118.652 544.196 117.928 544.417C115.657 541.083 113.406 537.768 111.135 534.433C112.562 534.835 114.09 535.076 115.416 535.598C117.546 536.422 119.636 538.33 121.867 538.652C122.329 538.712 122.792 538.25 122.591 537.788C121.606 535.578 118.471 534.353 116.32 533.569C114.431 532.866 111.859 531.982 109.769 532.424C109.387 531.882 109.025 531.319 108.643 530.777C106.654 527.864 104.543 524.991 102.735 521.938C102.574 521.656 102.453 521.395 102.313 521.114C103.82 521.235 105.347 521.295 106.855 521.496C108.985 521.797 111.356 522.842 113.507 522.581C114.11 522.5 114.311 521.777 113.869 521.395C112.16 519.848 109.065 519.627 106.855 519.386C105.066 519.185 103.237 519.085 101.469 519.326C100.805 517.699 100.323 516.072 99.7603 514.404C104.905 515.328 110.13 515.369 115.115 517.277C121.345 519.668 125.646 524.469 127.736 530.757Z" fill="#32594A"/>
<path d="M287.972 320.404C286.665 320.505 285.399 320.625 284.093 320.645C283.751 319.36 283.148 318.134 282.505 316.949C281.721 315.503 280.676 313.433 279.109 312.71C278.707 312.529 278.265 312.871 278.385 313.293C278.827 314.84 280.214 316.166 281.038 317.552C281.621 318.536 282.103 319.561 282.606 320.565C282.385 320.545 282.164 320.545 281.922 320.505C279.31 320.143 276.737 319.5 274.165 318.958C273.683 318.857 273.2 318.757 272.698 318.657C272.396 317.09 271.05 315.563 270.045 314.478C268.899 313.233 267.151 311.425 265.342 311.384C264.96 311.364 264.779 311.826 264.96 312.128C265.825 313.574 267.734 314.478 268.92 315.703C269.663 316.467 270.246 317.451 270.949 318.315C268.015 317.712 265.081 317.11 262.147 316.507C262.086 315.965 261.524 315.442 261.242 315C260.901 314.458 260.619 313.514 260.016 313.212C259.856 313.132 259.615 313.172 259.534 313.353C259.213 314.096 259.836 315.02 260.258 315.623C260.378 315.784 260.519 315.985 260.7 316.186C259.434 315.924 258.168 315.663 256.921 315.402C256.479 315.302 256.339 315.965 256.761 316.085C257.605 316.306 258.469 316.527 259.313 316.748C259.072 317.13 258.77 317.471 258.389 317.712C258.067 317.913 257.665 317.994 257.404 318.295C257.283 318.415 257.323 318.636 257.464 318.697C258.489 319.219 259.635 317.813 259.856 316.949C259.856 316.929 259.856 316.909 259.856 316.889C261.504 317.311 263.132 317.732 264.759 318.154C264.257 318.516 263.815 319.099 263.393 319.4C262.971 319.701 262.549 319.962 262.086 320.183C261.685 320.384 261.242 320.505 260.981 320.886C260.78 321.148 260.881 321.489 261.202 321.59C262.026 321.851 263.051 321.188 263.714 320.746C264.116 320.485 264.478 320.183 264.82 319.862C264.98 319.701 265.382 319.119 265.644 318.938C265.684 318.938 265.704 318.938 265.744 318.918C265.885 318.837 265.905 318.797 266.005 318.636C266.026 318.596 266.026 318.536 266.046 318.496C269.462 319.38 272.899 320.264 276.335 321.107C276.697 321.208 277.099 321.308 277.521 321.429C276.717 322.654 275.692 323.719 274.446 324.482C273.803 324.864 273.12 325.165 272.396 325.366C271.773 325.547 271.11 325.567 270.567 325.949C270.326 326.11 270.306 326.491 270.588 326.632C271.934 327.295 273.944 326.27 275.109 325.547C276.597 324.603 277.742 323.297 278.385 321.67C280.516 322.252 283.008 322.915 285.319 322.956C284.977 323.237 284.656 323.518 284.334 323.799C280.395 327.295 276.496 329.364 271.09 328.922C265.865 328.5 261.102 325.848 257.143 322.514C253.867 319.741 251.194 316.266 247.918 313.494C250.531 313.273 253.304 311.545 255.414 310.44C259.615 308.23 264.016 306.201 268.819 305.86C273.743 305.518 278.285 307.085 281.681 310.681C284.334 313.534 285.861 317.13 287.972 320.404Z" fill="#B5CD4C"/>
<path d="M272.053 304.112C267.37 303.65 262.768 304.936 258.528 306.844C256.498 307.748 254.548 308.853 252.559 309.837C250.268 310.962 247.956 311.244 245.605 312.067C244.982 312.288 245.062 313.092 245.645 313.293C245.826 313.353 246.007 313.393 246.188 313.433C252.398 320.665 258.789 328.922 268.757 330.69C272.736 331.393 276.937 331.011 280.554 329.143C285.197 326.732 287.729 321.77 293.517 321.931C294.22 321.951 294.441 320.886 293.818 320.605C292.391 319.942 290.984 319.942 289.638 320.344C289.417 320.344 289.216 320.364 289.015 320.364C286.684 312.429 280.655 304.956 272.053 304.112ZM281.619 310.661C284.352 313.534 285.86 317.13 287.97 320.404C286.664 320.505 285.397 320.625 284.091 320.645C283.75 319.36 283.147 318.134 282.504 316.949C281.72 315.503 280.675 313.433 279.107 312.71C278.705 312.529 278.263 312.871 278.384 313.293C278.826 314.84 280.212 316.165 281.036 317.552C281.619 318.536 282.102 319.561 282.604 320.565C282.383 320.545 282.162 320.545 281.921 320.505C279.308 320.143 276.736 319.5 274.163 318.958C273.681 318.857 273.199 318.757 272.696 318.657C272.395 317.09 271.048 315.563 270.043 314.478C268.898 313.232 267.149 311.424 265.341 311.384C264.959 311.364 264.778 311.826 264.959 312.128C265.823 313.574 267.732 314.478 268.918 315.703C269.661 316.467 270.244 317.451 270.948 318.315C268.013 317.712 265.079 317.11 262.145 316.507C262.085 315.965 261.522 315.442 261.241 315C260.899 314.458 260.618 313.514 260.015 313.212C259.854 313.132 259.613 313.172 259.532 313.353C259.211 314.096 259.834 315.02 260.256 315.623C260.377 315.784 260.517 315.985 260.698 316.186C259.432 315.924 258.166 315.663 256.92 315.402C256.478 315.302 256.337 315.965 256.759 316.085C257.603 316.306 258.467 316.527 259.311 316.748C259.07 317.13 258.769 317.471 258.387 317.712C258.065 317.913 257.663 317.994 257.402 318.295C257.282 318.415 257.322 318.636 257.462 318.697C258.487 319.219 259.633 317.813 259.854 316.949C259.854 316.929 259.854 316.909 259.854 316.889C261.502 317.311 263.13 317.732 264.758 318.154C264.255 318.516 263.813 319.099 263.391 319.4C262.969 319.701 262.547 319.962 262.085 320.183C261.683 320.384 261.241 320.505 260.979 320.886C260.778 321.148 260.879 321.489 261.2 321.59C262.024 321.851 263.049 321.188 263.713 320.746C264.115 320.485 264.476 320.183 264.818 319.862C264.979 319.701 265.381 319.119 265.642 318.938C265.682 318.938 265.702 318.938 265.742 318.918C265.883 318.837 265.903 318.797 266.004 318.636C266.024 318.596 266.024 318.536 266.044 318.496C269.46 319.38 272.897 320.264 276.334 321.107C276.695 321.208 277.097 321.308 277.519 321.429C276.716 322.654 275.691 323.719 274.445 324.482C273.801 324.864 273.118 325.165 272.395 325.366C271.772 325.547 271.108 325.567 270.566 325.949C270.325 326.11 270.305 326.491 270.586 326.632C271.932 327.295 273.942 326.27 275.108 325.547C276.595 324.603 277.74 323.297 278.384 321.67C280.514 322.252 283.006 322.915 285.317 322.956C284.975 323.237 284.654 323.518 284.332 323.799C280.393 327.295 276.494 329.364 271.088 328.922C265.863 328.5 261.1 325.848 257.141 322.514C253.865 319.741 251.192 316.266 247.916 313.494C250.529 313.273 253.302 311.545 255.413 310.44C259.613 308.23 264.014 306.201 268.817 305.86C273.661 305.498 278.203 307.065 281.619 310.661Z" fill="#32594A"/>
<g opacity="0.2">
<path d="M47.6257 319.882C46.5204 321.248 45.415 322.554 44.4102 323.98C45.5758 325.346 46.4802 326.933 47.2841 328.54C48.2688 330.509 49.7761 333.241 49.4144 335.511C49.3139 336.094 48.6105 336.315 48.2085 335.853C46.8419 334.205 46.3998 331.634 45.4954 329.685C44.8523 328.299 44.0685 326.993 43.345 325.668C43.1842 325.929 43.0235 326.19 42.8828 326.471C41.3152 329.645 40.0491 332.96 38.6825 336.234C38.4212 336.857 38.1599 337.46 37.8987 338.083C39.4261 339.609 40.0692 342.241 40.5113 344.21C41.0137 346.44 41.697 349.714 40.3706 351.763C40.0893 352.185 39.4462 352.044 39.2452 351.623C38.3006 349.574 38.7628 346.781 38.3006 344.551C38.0193 343.165 37.3761 341.759 36.9541 340.333C35.4066 344.049 33.839 347.745 32.2715 351.462C32.8342 351.944 32.9749 352.969 33.2361 353.611C33.5778 354.415 34.4018 355.44 34.2812 356.323C34.241 356.564 34.0199 356.806 33.7587 356.745C32.6935 356.544 32.1308 355.158 31.8092 354.234C31.7288 353.973 31.6083 353.652 31.5078 353.31C30.8446 354.897 30.1613 356.504 29.4981 358.091C29.2569 358.654 28.4128 358.312 28.6339 357.75C29.0358 356.645 29.4378 355.54 29.8397 354.435C29.2368 354.415 28.6339 354.495 28.0712 354.736C27.6089 354.937 27.207 355.319 26.6844 355.399C26.4634 355.44 26.2624 355.239 26.2825 355.018C26.4835 353.471 28.8951 353.27 30.0206 353.692C30.0407 353.712 30.0608 353.732 30.0809 353.752C30.8647 351.623 31.6284 349.493 32.4121 347.364C31.6484 347.645 30.6637 347.685 30.0005 347.926C29.3574 348.167 28.7344 348.428 28.1515 348.77C27.629 349.071 27.1467 349.453 26.5438 349.473C26.1016 349.493 25.8002 349.132 25.9208 348.69C26.2624 347.585 27.7697 346.942 28.7545 346.54C29.3373 346.299 29.9603 346.118 30.5833 345.998C30.8647 345.937 31.8293 345.937 32.2313 345.797C32.2514 345.757 32.2715 345.716 32.3318 345.696C32.5327 345.596 32.593 345.616 32.8342 345.616C32.9146 345.616 32.9548 345.656 33.0151 345.676C34.6429 341.216 36.2708 336.757 37.9188 332.317C38.0996 331.835 38.2805 331.313 38.4614 330.77C36.4919 330.73 34.5424 331.051 32.7337 331.855C31.8092 332.277 30.9852 332.819 30.2015 333.462C29.5182 334.025 28.9956 334.728 28.1716 335.049C27.8099 335.19 27.3678 334.909 27.428 334.507C27.7094 332.498 30.3823 331.051 32.0705 330.328C34.241 329.404 36.5522 329.123 38.8432 329.665C39.8079 326.853 40.9735 323.618 42.6818 321.027C42.1191 321.188 41.5564 321.348 40.9936 321.469C34.1204 323.177 28.875 325.909 25.2576 332.217C21.7606 338.324 21.0773 345.596 21.7606 352.507C22.3234 358.232 24.1723 363.837 24.7551 369.542C26.9859 366.83 31.0053 365.062 33.839 363.576C39.4663 360.602 45.0734 357.288 49.0928 352.225C53.2127 347.042 54.921 340.815 53.5142 334.326C52.4691 329.103 49.6555 324.683 47.6257 319.882Z" fill="#B5CD4C"/>
<path d="M48.5096 318.737C48.6704 318.516 48.8513 318.295 49.0121 318.054C50.4591 316.869 51.5443 315.322 51.886 313.232C52.0266 312.328 50.6801 311.786 50.1777 312.57C45.9573 319.098 38.5414 318.134 32.3515 321.449C27.5282 324.02 23.9107 328.4 21.6799 333.322C16.0728 345.696 20.3736 359.035 23.6494 371.39C23.549 371.631 23.4686 371.852 23.3882 372.113C23.147 372.897 23.9911 373.62 24.7146 373.098C27.4076 371.109 29.4575 368.779 32.452 367.091C35.0646 365.625 37.7376 364.319 40.2899 362.752C45.5956 359.498 50.5395 355.379 53.5741 349.855C59.1611 339.69 55.4834 327.335 48.5096 318.737ZM49.1528 352.185C45.1333 357.248 39.5262 360.562 33.899 363.535C31.0653 365.022 27.0459 366.79 24.8151 369.502C24.2323 363.797 22.4034 358.192 21.8206 352.466C21.1373 345.576 21.8005 338.284 25.3175 332.176C28.935 325.868 34.1804 323.116 41.0536 321.429C41.6163 321.288 42.179 321.148 42.7418 320.987C41.0536 323.578 39.888 326.833 38.9032 329.625C36.6121 329.103 34.3009 329.364 32.1304 330.288C30.4423 331.011 27.7895 332.458 27.488 334.467C27.4277 334.868 27.8698 335.15 28.2316 335.009C29.0757 334.688 29.5781 333.984 30.2614 333.422C31.0452 332.779 31.8692 332.237 32.7937 331.815C34.5823 330.991 36.5518 330.69 38.5213 330.73C38.3405 331.272 38.1596 331.795 37.9787 332.277C36.3308 336.717 34.7029 341.176 33.075 345.636C33.0147 345.616 32.9544 345.576 32.8941 345.576C32.653 345.556 32.5927 345.556 32.3917 345.656C32.3515 345.676 32.3113 345.716 32.2912 345.757C31.9094 345.917 30.9447 345.897 30.6433 345.958C30.0202 346.098 29.3972 346.259 28.8144 346.5C27.8297 346.902 26.3224 347.545 25.9807 348.649C25.84 349.091 26.1415 349.453 26.6037 349.433C27.2267 349.393 27.7091 349.031 28.2115 348.73C28.7943 348.388 29.4374 348.107 30.0604 347.886C30.7236 347.645 31.6883 347.605 32.4721 347.324C31.6883 349.453 30.9246 351.582 30.1408 353.712C30.1207 353.692 30.1207 353.672 30.0805 353.652C28.9551 353.25 26.5434 353.451 26.3425 354.978C26.3023 355.198 26.5233 355.399 26.7444 355.359C27.2669 355.279 27.6689 354.897 28.1311 354.696C28.6938 354.455 29.2967 354.375 29.8997 354.395C29.4977 355.5 29.0958 356.605 28.6938 357.71C28.4929 358.272 29.3369 358.614 29.558 358.051C30.2212 356.464 30.9045 354.857 31.5677 353.27C31.6682 353.611 31.7687 353.933 31.8692 354.194C32.1907 355.118 32.7535 356.504 33.8186 356.705C34.0799 356.745 34.321 356.524 34.3411 356.283C34.4617 355.399 33.6377 354.355 33.2961 353.571C33.0348 352.928 32.8941 351.904 32.3314 351.422C33.899 347.705 35.4465 344.009 37.0141 340.292C37.4361 341.719 38.0792 343.125 38.3606 344.511C38.8228 346.741 38.3606 349.553 39.3051 351.582C39.5061 352.004 40.1492 352.145 40.4306 351.723C41.7369 349.694 41.0536 346.399 40.5713 344.17C40.1291 342.201 39.486 339.569 37.9586 338.042C38.2199 337.42 38.4812 336.817 38.7424 336.194C40.109 332.94 41.3551 329.605 42.9427 326.431C43.0834 326.15 43.2442 325.909 43.405 325.627C44.1285 326.953 44.9123 328.279 45.5554 329.645C46.4597 331.594 46.8818 334.165 48.2685 335.813C48.6503 336.275 49.3738 336.054 49.4743 335.471C49.8361 333.201 48.3489 330.469 47.344 328.5C46.5401 326.893 45.6357 325.306 44.4701 323.94C45.475 322.494 46.5803 321.188 47.6857 319.842C49.6954 324.663 52.5291 329.063 53.6344 334.266C54.9809 340.795 53.2727 347.002 49.1528 352.185Z" fill="#32594A"/>
</g>
<path opacity="0.2" d="M59.3023 307.366C65.1908 301.721 72.0037 297.021 80.3642 296.257C82.3739 296.076 84.464 296.117 86.4938 296.478C79.1784 304.393 85.0468 314.699 95.5777 314.699C99.778 314.699 101.426 312.75 100.381 308.733C98.8737 303.027 95.8591 297.905 90.252 295.594C90.5333 295.373 90.8348 295.172 91.1362 294.992C97.507 291.034 105.908 291.818 111.515 296.679C112.037 297.141 112.68 296.297 112.178 295.835C105.707 289.869 95.0954 289.286 88.2222 294.871C77.5104 291.757 64.5276 297.583 58.3779 306.382C57.9156 306.985 58.6994 307.949 59.3023 307.366ZM92.7842 299.07C96.0601 301.48 99.979 307.387 97.8286 311.204C97.4267 313.212 96.2007 313.815 94.191 313.012C92.8445 312.871 91.5583 312.529 90.3123 312.007C88.1619 311.063 86.0115 309.315 85.2076 307.025C83.9214 303.349 85.8507 299.592 88.5638 296.98C90.0711 297.442 91.5181 298.126 92.7842 299.07Z" fill="#32594A"/>
<path opacity="0.2" d="M103.797 29.8965C95.6372 24.5528 84.2622 27.4858 79.1374 36.1643C78.7556 36.787 79.68 37.45 80.082 36.8272C84.1215 30.4389 91.7584 27.0438 99.114 29.6152C99.5963 29.776 100.079 29.9969 100.601 30.238C97.3053 30.7201 93.949 31.825 92.281 34.4969C89.9296 38.2736 92.5221 43.3562 95.6774 45.7468C104.58 52.4766 114.609 41.2669 107.273 32.9299C106.811 32.4076 106.349 31.9456 105.847 31.5036C107.655 31.5036 109.464 31.6643 111.233 32.0862C119.352 33.9746 122.989 41.4477 121.181 49.2824C121.02 50.0056 121.964 50.3873 122.286 49.6842C124.436 45.0436 123.633 39.6799 120.477 35.6219C116.84 30.9612 110.931 29.6554 105.284 29.8563C104.822 29.8563 104.319 29.8764 103.797 29.8965ZM107.896 41.3473C105.867 47.5548 97.7675 46.4901 94.6323 42.1106C93.7882 41.1464 93.2657 40.0013 93.0246 38.7156C93.9892 36.9076 94.9539 35.0795 95.9185 33.2715C96.9435 32.4478 99.315 32.1465 100.661 31.9255C101.445 31.805 102.229 31.7045 103.013 31.6442C106.329 33.8741 109.183 37.4098 107.896 41.3473Z" fill="#32594A"/>
<g opacity="0.2">
<path d="M1132.06 14.6489C1133.75 15.4324 1135.38 16.236 1137.13 16.8989C1138.23 15.332 1139.64 14.0061 1141.09 12.7405C1142.87 11.2137 1145.31 8.94364 1147.74 8.74275C1148.36 8.68248 1148.78 9.36551 1148.4 9.88783C1147.06 11.736 1144.5 12.8409 1142.73 14.2672C1141.47 15.2918 1140.32 16.4168 1139.12 17.5217C1139.44 17.602 1139.74 17.7226 1140.06 17.7828C1143.74 18.6065 1147.52 19.0283 1151.24 19.6109C1151.94 19.7114 1152.64 19.8319 1153.35 19.9324C1154.53 17.9636 1157.08 16.6177 1158.99 15.6534C1161.16 14.5686 1164.4 13.0217 1166.83 13.8454C1167.35 14.0262 1167.37 14.7293 1166.99 15.0306C1165.12 16.5172 1162.11 16.7784 1159.92 17.823C1158.55 18.4859 1157.26 19.4904 1155.9 20.294C1160.14 20.9569 1164.38 21.5997 1168.6 22.2627C1168.94 21.5596 1169.97 21.1578 1170.57 20.7158C1171.31 20.1734 1172.16 19.0484 1173.1 18.948C1173.36 18.9279 1173.66 19.1087 1173.68 19.3899C1173.74 20.5551 1172.46 21.4792 1171.59 22.0618C1171.35 22.2225 1171.05 22.4234 1170.73 22.6042C1172.56 22.8854 1174.37 23.1667 1176.2 23.4479C1176.84 23.5484 1176.7 24.5127 1176.06 24.4323C1174.81 24.2917 1173.56 24.1711 1172.32 24.0305C1172.46 24.6533 1172.7 25.2559 1173.08 25.7783C1173.4 26.2202 1173.9 26.5216 1174.13 27.0439C1174.21 27.2649 1174.07 27.526 1173.82 27.5662C1172.18 27.747 1171.35 25.3162 1171.47 24.0305C1171.47 23.9903 1171.49 23.9903 1171.51 23.9502C1169.1 23.689 1166.71 23.4479 1164.3 23.1868C1164.78 23.91 1165.08 24.9144 1165.5 25.5171C1165.91 26.1198 1166.37 26.7024 1166.87 27.2247C1167.31 27.6867 1167.84 28.0885 1168.02 28.7113C1168.16 29.1733 1167.86 29.5751 1167.37 29.555C1166.15 29.4947 1165.1 28.0885 1164.44 27.1845C1164.04 26.6421 1163.7 26.0394 1163.39 25.4367C1163.25 25.1555 1163.01 24.151 1162.75 23.7894C1162.71 23.7694 1162.65 23.7493 1162.61 23.7091C1162.45 23.5283 1162.45 23.4479 1162.41 23.2069C1162.39 23.1265 1162.43 23.0662 1162.43 22.9859C1157.41 22.4636 1152.38 21.9212 1147.36 21.3587C1146.81 21.2984 1146.23 21.2381 1145.63 21.1779C1146.09 23.227 1146.91 25.1555 1148.24 26.8028C1148.9 27.6465 1149.69 28.3697 1150.55 29.0126C1151.32 29.5751 1152.18 29.9166 1152.72 30.7001C1152.96 31.0416 1152.78 31.5639 1152.36 31.6041C1150.21 31.8251 1148.04 29.4546 1146.83 27.8876C1145.31 25.8988 1144.44 23.5685 1144.4 21.0573C1141.25 20.7761 1137.61 20.4145 1134.47 19.3297C1134.8 19.8721 1135.1 20.4145 1135.38 20.9569C1138.92 27.6064 1143.1 32.3273 1150.55 34.4366C1157.77 36.4857 1165.46 35.3206 1172.42 32.8295C1178.19 30.7603 1183.51 27.4256 1189.26 25.3564C1185.86 23.7493 1183.01 20.0529 1180.74 17.5016C1176.22 12.4391 1171.33 7.51732 1165.06 4.66467C1158.65 1.73167 1151.78 1.59105 1145.43 4.70485C1140.36 7.25616 1136.52 11.3141 1132.06 14.6489Z" fill="#B5CD4C"/>
<path d="M1130.66 14.0061C1130.38 13.8855 1130.11 13.7851 1129.81 13.6646C1128.23 12.4592 1126.34 11.7561 1124.09 11.9369C1123.12 12.0173 1122.88 13.544 1123.82 13.8655C1131.66 16.5373 1132.59 24.4725 1137.59 29.997C1141.49 34.3161 1146.94 36.9277 1152.62 37.9723C1166.87 40.5839 1179.55 32.709 1191.49 26.1399C1191.75 26.18 1192.03 26.2202 1192.3 26.2202C1193.18 26.2604 1193.7 25.2158 1192.98 24.6131C1190.23 22.343 1187.29 20.8364 1184.78 18.1645C1182.59 15.8543 1180.56 13.4034 1178.29 11.1735C1173.56 6.53295 1168.04 2.47497 1161.53 0.767397C1149.59 -2.38658 1137.77 4.6044 1130.66 14.0061ZM1165.1 4.74503C1171.37 7.59767 1176.26 12.5195 1180.78 17.5819C1183.05 20.1132 1185.9 23.8296 1189.3 25.4367C1183.53 27.5059 1178.23 30.8407 1172.46 32.9099C1165.51 35.4009 1157.81 36.5661 1150.59 34.517C1143.14 32.4076 1138.96 27.6867 1135.42 21.0372C1135.14 20.4948 1134.84 19.9524 1134.52 19.41C1137.63 20.4948 1141.29 20.8564 1144.44 21.1377C1144.48 23.6488 1145.37 25.9591 1146.88 27.968C1148.06 29.5349 1150.25 31.9054 1152.4 31.6844C1152.84 31.6443 1153.01 31.122 1152.76 30.7804C1152.22 29.997 1151.36 29.6555 1150.59 29.093C1149.73 28.4501 1148.97 27.7269 1148.28 26.8832C1146.98 25.2359 1146.15 23.2872 1145.67 21.2582C1146.27 21.3185 1146.86 21.3788 1147.4 21.439C1152.42 22.0015 1157.45 22.5238 1162.47 23.0662C1162.47 23.1466 1162.43 23.2069 1162.45 23.2872C1162.51 23.5484 1162.51 23.6086 1162.65 23.7894C1162.69 23.8296 1162.73 23.8497 1162.79 23.8698C1163.05 24.2314 1163.29 25.2359 1163.44 25.5171C1163.74 26.1198 1164.08 26.7225 1164.48 27.2649C1165.14 28.1689 1166.21 29.5751 1167.41 29.6354C1167.9 29.6554 1168.2 29.2537 1168.06 28.7916C1167.86 28.1689 1167.35 27.7671 1166.91 27.305C1166.41 26.7827 1165.97 26.2001 1165.55 25.5975C1165.12 24.9747 1164.82 23.9702 1164.34 23.2671C1166.75 23.5283 1169.14 23.7694 1171.55 24.0305C1171.55 24.0506 1171.51 24.0707 1171.51 24.1109C1171.39 25.3765 1172.22 27.8273 1173.87 27.6465C1174.11 27.6265 1174.25 27.3452 1174.17 27.1242C1173.95 26.622 1173.46 26.3006 1173.12 25.8586C1172.74 25.3564 1172.5 24.7336 1172.36 24.1109C1173.6 24.2515 1174.85 24.372 1176.1 24.5127C1176.74 24.5729 1176.86 23.6287 1176.24 23.5283C1174.41 23.247 1172.6 22.9658 1170.77 22.6846C1171.09 22.5037 1171.41 22.3029 1171.64 22.1421C1172.5 21.5797 1173.81 20.6355 1173.73 19.4703C1173.71 19.1891 1173.4 19.0083 1173.14 19.0283C1172.18 19.1288 1171.33 20.2538 1170.61 20.7962C1170.01 21.2381 1168.98 21.6399 1168.64 22.343C1164.4 21.6801 1160.16 21.0372 1155.94 20.3743C1157.29 19.5707 1158.59 18.5462 1159.96 17.9034C1162.15 16.8587 1165.16 16.5976 1167.03 15.111C1167.41 14.8096 1167.39 14.0864 1166.87 13.9257C1164.42 13.082 1161.2 14.6489 1159.03 15.7337C1157.13 16.698 1154.55 18.044 1153.39 20.0127C1152.68 19.9123 1151.98 19.7917 1151.28 19.6913C1147.56 19.1288 1143.78 18.6868 1140.1 17.8632C1139.78 17.7828 1139.48 17.6824 1139.16 17.602C1140.34 16.4971 1141.51 15.3721 1142.78 14.3476C1144.56 12.9012 1147.1 11.8164 1148.44 9.96818C1148.83 9.44587 1148.4 8.76284 1147.78 8.8231C1145.35 9.024 1142.9 11.274 1141.13 12.8208C1139.68 14.0663 1138.27 15.4123 1137.17 16.9793C1135.42 16.3163 1133.79 15.5128 1132.1 14.7293C1136.57 11.3945 1140.4 7.35661 1145.49 4.86556C1151.8 1.6714 1158.67 1.81203 1165.1 4.74503Z" fill="#32594A"/>
</g>
<path d="M1227.57 483.326C1227.17 484.572 1226.83 485.797 1226.34 487.003C1225.02 486.842 1223.65 486.943 1222.32 487.103C1220.7 487.304 1218.38 487.505 1217.12 488.67C1216.8 488.972 1216.96 489.514 1217.4 489.554C1218.99 489.715 1220.76 488.931 1222.34 488.69C1223.47 488.509 1224.59 488.449 1225.72 488.349C1225.62 488.55 1225.54 488.751 1225.42 488.971C1224.11 491.262 1222.56 493.411 1221.1 495.601C1220.82 496.023 1220.56 496.425 1220.27 496.846C1218.71 496.525 1216.8 497.228 1215.41 497.75C1213.82 498.353 1211.51 499.297 1210.79 500.965C1210.63 501.306 1210.99 501.668 1211.33 501.608C1212.98 501.346 1214.55 499.9 1216.11 499.257C1217.1 498.855 1218.22 498.675 1219.29 498.353C1217.64 500.844 1215.97 503.355 1214.32 505.846C1213.8 505.686 1213.1 506.027 1212.6 506.128C1211.97 506.248 1210.99 506.168 1210.49 506.61C1210.35 506.73 1210.31 506.971 1210.45 507.112C1211.01 507.694 1212.11 507.473 1212.82 507.293C1213.02 507.253 1213.26 507.172 1213.5 507.092C1212.8 508.157 1212.07 509.241 1211.37 510.326C1211.13 510.708 1211.67 511.09 1211.95 510.728C1212.48 510.025 1213 509.322 1213.5 508.599C1213.76 508.96 1213.96 509.362 1214.04 509.804C1214.1 510.186 1214.04 510.587 1214.2 510.929C1214.28 511.069 1214.49 511.13 1214.61 511.009C1215.47 510.246 1214.61 508.659 1213.88 508.136C1213.86 508.116 1213.84 508.136 1213.82 508.116C1214.83 506.75 1215.81 505.384 1216.82 504.018C1216.96 504.601 1217.34 505.244 1217.46 505.746C1217.58 506.228 1217.66 506.75 1217.7 507.253C1217.72 507.695 1217.7 508.157 1217.92 508.538C1218.1 508.819 1218.44 508.86 1218.67 508.599C1219.21 507.936 1218.99 506.73 1218.83 505.967C1218.73 505.505 1218.59 505.043 1218.4 504.601C1218.32 504.4 1217.92 503.797 1217.86 503.496C1217.88 503.456 1217.88 503.436 1217.88 503.395C1217.86 503.235 1217.82 503.195 1217.72 503.054C1217.68 503.014 1217.64 502.994 1217.6 502.974C1219.69 500.121 1221.78 497.268 1223.85 494.416C1224.07 494.114 1224.31 493.773 1224.57 493.431C1225.42 494.637 1226.02 495.983 1226.26 497.429C1226.38 498.172 1226.4 498.916 1226.32 499.659C1226.26 500.322 1226.02 500.924 1226.18 501.587C1226.24 501.869 1226.58 502.029 1226.83 501.829C1227.95 500.824 1227.75 498.574 1227.49 497.228C1227.17 495.5 1226.38 493.954 1225.1 492.748C1226.44 490.98 1227.97 488.931 1228.88 486.802C1229.02 487.224 1229.16 487.626 1229.3 488.027C1231.09 492.989 1231.55 497.369 1229.14 502.23C1226.81 506.931 1222.56 510.366 1218 512.777C1214.22 514.786 1209.98 515.971 1206.21 517.98C1206.97 515.469 1206.41 512.255 1206.15 509.884C1205.66 505.163 1205.4 500.322 1206.87 495.742C1208.38 491.041 1211.53 487.425 1216.13 485.597C1219.83 484.15 1223.73 484.07 1227.57 483.326Z" fill="#B5CD4C"/>
<path d="M1206.51 492.025C1204.34 496.204 1203.83 500.965 1204.01 505.585C1204.09 507.815 1204.4 510.025 1204.58 512.235C1204.78 514.786 1204.18 517.016 1204.05 519.507C1204.01 520.17 1204.82 520.391 1205.2 519.909C1205.32 519.768 1205.44 519.607 1205.54 519.447C1214.57 516.373 1224.59 513.52 1229.96 504.922C1232.09 501.487 1233.32 497.449 1232.91 493.391C1232.41 488.188 1228.73 483.989 1231.05 478.666C1231.33 478.023 1230.42 477.42 1229.92 477.882C1228.77 478.967 1228.25 480.273 1228.11 481.659C1228.03 481.86 1227.97 482.061 1227.89 482.242C1219.69 481.539 1210.51 484.371 1206.51 492.025ZM1216.15 485.597C1219.83 484.13 1223.75 484.07 1227.57 483.326C1227.17 484.572 1226.82 485.797 1226.34 487.003C1225.02 486.842 1223.65 486.943 1222.32 487.103C1220.7 487.304 1218.38 487.505 1217.12 488.67C1216.8 488.972 1216.96 489.514 1217.4 489.554C1218.99 489.715 1220.76 488.931 1222.34 488.69C1223.47 488.509 1224.59 488.449 1225.72 488.349C1225.62 488.55 1225.54 488.751 1225.42 488.972C1224.11 491.262 1222.56 493.411 1221.1 495.601C1220.82 496.023 1220.55 496.425 1220.27 496.846C1218.71 496.525 1216.8 497.228 1215.41 497.75C1213.82 498.353 1211.51 499.297 1210.79 500.965C1210.63 501.306 1210.99 501.668 1211.33 501.608C1212.98 501.346 1214.55 499.9 1216.11 499.257C1217.1 498.855 1218.22 498.675 1219.29 498.353C1217.64 500.844 1215.97 503.355 1214.32 505.846C1213.8 505.686 1213.1 506.027 1212.6 506.128C1211.97 506.248 1210.99 506.168 1210.49 506.61C1210.35 506.73 1210.3 506.971 1210.45 507.112C1211.01 507.694 1212.11 507.474 1212.82 507.293C1213.02 507.253 1213.26 507.172 1213.5 507.092C1212.8 508.157 1212.07 509.241 1211.37 510.326C1211.13 510.708 1211.67 511.09 1211.95 510.728C1212.48 510.025 1213 509.322 1213.5 508.599C1213.76 508.96 1213.96 509.362 1214.04 509.804C1214.1 510.186 1214.04 510.587 1214.2 510.929C1214.28 511.069 1214.49 511.13 1214.61 511.009C1215.47 510.246 1214.61 508.659 1213.88 508.136C1213.86 508.116 1213.84 508.136 1213.82 508.116C1214.83 506.75 1215.81 505.384 1216.82 504.018C1216.96 504.601 1217.34 505.244 1217.46 505.746C1217.58 506.228 1217.66 506.75 1217.7 507.253C1217.72 507.695 1217.7 508.157 1217.92 508.538C1218.1 508.819 1218.44 508.86 1218.67 508.599C1219.21 507.936 1218.99 506.73 1218.83 505.967C1218.73 505.505 1218.58 505.043 1218.4 504.601C1218.32 504.4 1217.92 503.797 1217.86 503.496C1217.88 503.456 1217.88 503.436 1217.88 503.395C1217.86 503.235 1217.82 503.195 1217.72 503.054C1217.68 503.014 1217.64 502.994 1217.6 502.974C1219.69 500.121 1221.78 497.268 1223.85 494.416C1224.07 494.114 1224.31 493.773 1224.57 493.431C1225.42 494.637 1226.02 495.983 1226.26 497.429C1226.38 498.172 1226.4 498.916 1226.32 499.659C1226.26 500.322 1226.02 500.924 1226.18 501.587C1226.24 501.869 1226.58 502.029 1226.82 501.829C1227.95 500.824 1227.75 498.574 1227.49 497.228C1227.17 495.5 1226.38 493.954 1225.1 492.748C1226.44 490.98 1227.97 488.931 1228.87 486.802C1229.02 487.224 1229.16 487.626 1229.3 488.027C1231.09 492.989 1231.55 497.369 1229.14 502.23C1226.8 506.931 1222.56 510.366 1218 512.777C1214.22 514.786 1209.98 515.971 1206.21 517.98C1206.97 515.469 1206.41 512.255 1206.14 509.884C1205.66 505.163 1205.4 500.322 1206.87 495.742C1208.4 491.041 1211.55 487.425 1216.15 485.597Z" fill="#32594A"/>
<g opacity="0.2">
<path d="M1077.59 332.799C1075.84 330.69 1074.17 328.581 1072.26 326.612C1069.81 327.978 1067.1 328.882 1064.36 329.625C1061.03 330.549 1056.36 332.016 1052.99 330.73C1052.12 330.409 1052 329.223 1052.83 328.781C1055.78 327.174 1059.86 327.315 1063.14 326.511C1065.47 325.949 1067.72 325.165 1069.99 324.442C1069.63 324.121 1069.29 323.799 1068.91 323.498C1064.52 320.103 1059.78 317.15 1055.2 314.036C1054.33 313.453 1053.47 312.871 1052.61 312.268C1049.79 314.136 1045.55 314.317 1042.4 314.398C1038.82 314.478 1033.55 314.518 1030.82 311.866C1030.26 311.304 1030.66 310.36 1031.36 310.179C1034.8 309.375 1038.96 310.922 1042.54 310.902C1044.77 310.882 1047.12 310.36 1049.43 310.139C1044.21 306.603 1038.98 303.067 1033.78 299.532C1032.87 300.255 1031.24 300.134 1030.18 300.355C1028.85 300.617 1027.02 301.581 1025.68 301.119C1025.31 300.998 1025.03 300.556 1025.19 300.175C1025.84 298.588 1028.15 298.166 1029.66 297.945C1030.08 297.884 1030.6 297.804 1031.16 297.764C1028.91 296.237 1026.68 294.71 1024.43 293.204C1023.65 292.681 1024.43 291.476 1025.23 291.978C1026.8 292.943 1028.39 293.907 1029.96 294.851C1030.18 293.927 1030.24 292.983 1030.04 292.059C1029.88 291.275 1029.41 290.532 1029.45 289.728C1029.47 289.387 1029.84 289.106 1030.18 289.226C1032.47 290.01 1032.05 293.786 1031.08 295.393C1031.06 295.434 1031.02 295.434 1030.98 295.474C1034.02 297.322 1037.05 299.19 1040.09 301.038C1039.89 299.773 1040.13 298.246 1039.97 297.181C1039.8 296.137 1039.56 295.072 1039.22 294.068C1038.92 293.184 1038.5 292.32 1038.64 291.376C1038.74 290.672 1039.38 290.331 1040.03 290.672C1041.61 291.516 1042.14 294.047 1042.44 295.675C1042.62 296.639 1042.7 297.663 1042.72 298.648C1042.72 299.11 1042.42 300.596 1042.54 301.239C1042.6 301.279 1042.64 301.34 1042.66 301.42C1042.74 301.762 1042.7 301.862 1042.62 302.224C1042.6 302.344 1042.52 302.404 1042.46 302.485C1048.81 306.362 1055.16 310.239 1061.49 314.136C1062.17 314.558 1062.92 315 1063.68 315.462C1064.34 312.449 1064.48 309.355 1063.76 306.342C1063.4 304.795 1062.84 303.349 1062.09 301.963C1061.45 300.737 1060.5 299.733 1060.26 298.346C1060.16 297.764 1060.71 297.161 1061.33 297.382C1064.32 298.447 1065.73 302.987 1066.33 305.8C1067.1 309.416 1066.8 313.052 1065.27 316.407C1069.29 318.777 1073.91 321.549 1077.39 324.964C1077.31 324.04 1077.25 323.136 1077.21 322.232C1076.7 311.163 1074.11 302.244 1065.53 294.751C1057.23 287.478 1046.24 284.184 1035.42 283.119C1026.44 282.235 1017.28 283.32 1008.31 282.456C1011.81 286.735 1013.28 293.465 1014.68 298.266C1017.5 307.849 1020.89 317.471 1027.42 325.206C1034.12 333.141 1043.16 337.661 1053.57 337.52C1061.91 337.4 1069.55 334.426 1077.59 332.799Z" fill="#B5CD4C"/>
<path d="M1079.07 334.527C1079.38 334.848 1079.66 335.19 1079.98 335.511C1081.35 338.103 1083.4 340.232 1086.51 341.417C1087.86 341.92 1089.12 340.031 1088.08 339.007C1079.34 330.509 1083.11 319.4 1079.94 308.873C1077.47 300.677 1071.86 293.766 1064.97 288.804C1047.66 276.369 1025.84 278.84 1005.82 280.065C1005.5 279.844 1005.16 279.624 1004.8 279.443C1003.65 278.84 1002.28 279.905 1002.89 281.17C1005.1 285.931 1008.07 289.789 1009.74 294.911C1011.19 299.371 1012.35 303.891 1013.98 308.311C1017.34 317.471 1022.14 326.331 1029.7 332.699C1043.54 344.411 1063.7 342.563 1079.07 334.527ZM1027.42 325.185C1020.89 317.451 1017.5 307.829 1014.68 298.246C1013.28 293.445 1011.79 286.715 1008.31 282.436C1017.28 283.32 1026.46 282.215 1035.42 283.099C1046.24 284.164 1057.23 287.458 1065.53 294.73C1074.11 302.244 1076.7 311.143 1077.21 322.212C1077.25 323.096 1077.31 324.02 1077.39 324.944C1073.91 321.529 1069.29 318.757 1065.27 316.386C1066.79 313.032 1067.1 309.395 1066.33 305.779C1065.73 302.947 1064.32 298.427 1061.33 297.362C1060.73 297.141 1060.16 297.744 1060.26 298.326C1060.5 299.713 1061.43 300.717 1062.09 301.942C1062.84 303.329 1063.4 304.795 1063.76 306.322C1064.46 309.335 1064.34 312.449 1063.68 315.442C1062.92 314.98 1062.17 314.538 1061.49 314.116C1055.16 310.199 1048.81 306.322 1042.46 302.465C1042.52 302.384 1042.6 302.304 1042.62 302.204C1042.72 301.842 1042.74 301.742 1042.66 301.4C1042.64 301.32 1042.58 301.259 1042.54 301.219C1042.42 300.576 1042.72 299.11 1042.72 298.628C1042.7 297.643 1042.62 296.619 1042.44 295.655C1042.12 294.027 1041.61 291.496 1040.03 290.652C1039.38 290.311 1038.74 290.672 1038.64 291.356C1038.5 292.32 1038.92 293.164 1039.22 294.047C1039.56 295.052 1039.8 296.117 1039.97 297.161C1040.13 298.246 1039.9 299.753 1040.09 301.018C1037.05 299.17 1034.02 297.322 1030.98 295.454C1031 295.413 1031.06 295.413 1031.08 295.373C1032.05 293.766 1032.49 289.989 1030.18 289.206C1029.84 289.085 1029.47 289.367 1029.45 289.708C1029.41 290.512 1029.88 291.255 1030.04 292.039C1030.24 292.963 1030.18 293.927 1029.96 294.831C1028.39 293.867 1026.8 292.922 1025.23 291.958C1024.43 291.456 1023.65 292.661 1024.43 293.184C1026.68 294.71 1028.91 296.237 1031.16 297.744C1030.62 297.784 1030.08 297.864 1029.66 297.925C1028.15 298.146 1025.82 298.567 1025.19 300.155C1025.03 300.536 1025.33 300.978 1025.68 301.099C1027 301.581 1028.85 300.617 1030.18 300.335C1031.24 300.114 1032.87 300.235 1033.78 299.512C1039 303.047 1044.21 306.583 1049.43 310.119C1047.12 310.34 1044.77 310.882 1042.54 310.882C1038.96 310.902 1034.8 309.335 1031.36 310.159C1030.66 310.32 1030.24 311.284 1030.82 311.846C1033.55 314.498 1038.82 314.458 1042.4 314.378C1045.55 314.297 1049.81 314.116 1052.61 312.248C1053.47 312.831 1054.33 313.413 1055.2 314.016C1059.8 317.11 1064.52 320.063 1068.91 323.478C1069.29 323.779 1069.63 324.121 1069.99 324.422C1067.72 325.125 1065.47 325.929 1063.14 326.491C1059.86 327.275 1055.78 327.154 1052.83 328.761C1051.98 329.223 1052.12 330.389 1052.99 330.71C1056.36 331.976 1061.03 330.509 1064.36 329.605C1067.08 328.862 1069.79 327.958 1072.26 326.592C1074.17 328.58 1075.82 330.69 1077.59 332.779C1069.55 334.386 1061.91 337.359 1053.57 337.48C1043.16 337.641 1034.12 333.121 1027.42 325.185Z" fill="#32594A"/>
</g>
<path opacity="0.2" d="M1124.99 51.3316C1122.17 57.3784 1118.27 62.5814 1111.82 65.0122C1109.23 65.9765 1106.5 66.3783 1103.76 66.2778C1104.95 62.5814 1104.85 58.3025 1102.64 55.0681C1100.43 51.7936 1095.99 50.1865 1092.39 52.2557C1089.01 54.2043 1088.57 58.5234 1090.34 61.7578C1092.45 65.635 1097.05 67.3626 1101.27 67.9251C1100.31 69.934 1098.92 71.7219 1097.17 73.0679C1091 77.8491 1082.54 76.3223 1075.75 74.0121C1075.13 73.7911 1074.76 74.7554 1075.39 74.9764C1085.09 78.4719 1097.83 79.1348 1103.02 68.2264C1103.04 68.1863 1103.06 68.126 1103.08 68.0657C1113.43 68.6483 1123.88 61.9587 1126.11 51.5525C1126.25 50.9097 1125.23 50.7892 1124.99 51.3316ZM1100.15 65.876C1098.44 65.5345 1096.51 65.0524 1095.04 64.0479C1092.23 62.1194 1087.5 55.3695 1094.56 53.2199C1099.76 51.6128 1102.86 58.0815 1102.72 62.1796C1102.68 63.5055 1102.4 64.8314 1101.97 66.1171C1101.37 66.0568 1100.75 66.0166 1100.15 65.876Z" fill="#32594A"/>
<path opacity="0.2" d="M1162.29 374.062C1151.3 376.453 1139.91 377.075 1129.52 371.953C1127.02 370.727 1124.59 369.16 1122.48 367.272C1136.79 363.214 1137.31 346.882 1124.95 339.288C1120.03 336.254 1116.67 337.359 1115.01 342.844C1112.65 350.638 1112.51 358.835 1117.44 365.605C1116.93 365.645 1116.45 365.665 1115.97 365.665C1105.62 365.725 1096.31 358.754 1093.24 348.991C1092.96 348.067 1091.59 348.609 1091.85 349.513C1095.17 361.205 1107.23 369.522 1119.33 367.915C1129.68 379.305 1149.13 381.796 1162.72 375.89C1163.66 375.529 1163.4 373.821 1162.29 374.062ZM1116.93 359.698C1114.82 354.515 1114.46 344.732 1119.77 341.799C1121.7 339.73 1123.57 339.891 1125.36 342.301C1126.82 343.446 1128.11 344.772 1129.19 346.299C1131.04 348.951 1132.31 352.567 1131.59 355.841C1130.44 361.085 1125.46 364.098 1120.39 365.223C1118.94 363.556 1117.76 361.727 1116.93 359.698Z" fill="#32594A"/>
<path d="M1183.75 172.127C1186.28 171.846 1188.75 171.645 1191.27 171.203C1191.47 168.591 1192.17 166.04 1192.99 163.569C1194 160.516 1195.27 156.176 1197.98 154.228C1198.68 153.725 1199.65 154.228 1199.57 155.112C1199.29 158.225 1197.09 161.299 1196.01 164.232C1195.25 166.301 1194.7 168.451 1194.08 170.58C1194.5 170.46 1194.94 170.379 1195.37 170.239C1200.25 168.611 1204.95 166.462 1209.72 164.513C1210.62 164.152 1211.5 163.79 1212.41 163.408C1212.41 160.274 1214.46 156.899 1216.03 154.449C1217.79 151.656 1220.49 147.558 1223.92 146.815C1224.65 146.654 1225.17 147.478 1224.93 148.1C1223.78 151.174 1220.45 153.585 1218.62 156.357C1217.47 158.085 1216.69 160.174 1215.66 162.082C1221.07 159.873 1226.5 157.663 1231.9 155.453C1231.8 154.368 1232.73 153.183 1233.11 152.259C1233.59 151.094 1233.79 149.185 1234.84 148.402C1235.12 148.181 1235.6 148.181 1235.82 148.502C1236.71 149.808 1235.86 151.817 1235.24 153.103C1235.08 153.464 1234.86 153.906 1234.6 154.348C1236.93 153.404 1239.26 152.46 1241.59 151.496C1242.41 151.154 1242.94 152.379 1242.13 152.741C1240.58 153.464 1239.04 154.187 1237.47 154.911C1238.07 155.554 1238.78 156.096 1239.58 156.417C1240.26 156.699 1241.09 156.719 1241.69 157.161C1241.95 157.362 1241.97 157.763 1241.71 157.964C1239.92 159.33 1237.23 157.06 1236.48 155.493C1236.46 155.453 1236.48 155.413 1236.48 155.373C1233.49 156.759 1230.5 158.145 1227.52 159.551C1228.59 160.053 1229.65 161.018 1230.58 161.44C1231.48 161.861 1232.41 162.223 1233.37 162.464C1234.21 162.685 1235.1 162.786 1235.76 163.388C1236.24 163.83 1236.18 164.513 1235.6 164.815C1234.13 165.598 1231.9 164.694 1230.5 164.111C1229.65 163.75 1228.83 163.288 1228.06 162.806C1227.7 162.565 1226.72 161.58 1226.15 161.339C1226.09 161.359 1226.01 161.379 1225.95 161.339C1225.63 161.219 1225.59 161.158 1225.35 160.897C1225.27 160.817 1225.27 160.716 1225.23 160.636C1218.98 163.549 1212.71 166.462 1206.44 169.335C1205.76 169.636 1205.03 169.998 1204.29 170.359C1206.28 172.408 1208.61 174.116 1211.28 175.12C1212.65 175.622 1214.08 175.944 1215.52 176.085C1216.81 176.205 1218.06 176.004 1219.24 176.547C1219.74 176.768 1219.92 177.491 1219.44 177.852C1217.09 179.62 1212.87 178.375 1210.38 177.37C1207.2 176.105 1204.55 173.995 1202.72 171.102C1198.84 172.991 1194.3 175.12 1189.9 176.044C1190.64 176.466 1191.39 176.888 1192.09 177.31C1200.89 182.613 1209.11 185.185 1219.32 182.433C1229.21 179.761 1237.39 172.971 1243.78 165.176C1249.09 158.708 1252.94 151.054 1258.23 144.605C1253.13 145.107 1247.18 142.777 1242.76 141.411C1233.91 138.659 1224.75 136.328 1215.4 137.393C1205.84 138.478 1197.7 143.138 1192.45 151.234C1188.25 157.663 1186.62 165.096 1183.75 172.127Z" fill="#B5CD4C"/>
<path d="M1181.64 172.388C1181.24 172.448 1180.83 172.509 1180.41 172.569C1177.7 172.288 1175.01 172.77 1172.49 174.558C1171.41 175.341 1172.23 177.29 1173.56 177.009C1184.61 174.618 1191.24 183.256 1201.01 186.209C1208.61 188.52 1216.83 187.736 1224.2 184.964C1242.71 178.013 1252 159.893 1261.34 143.822C1261.68 143.681 1262.03 143.54 1262.35 143.359C1263.39 142.777 1263.29 141.19 1262.01 140.989C1257.2 140.246 1252.68 140.567 1247.88 139.201C1243.7 138.016 1239.6 136.61 1235.36 135.585C1226.56 133.476 1217.25 132.632 1208.45 135.183C1192.27 139.884 1183.35 156.397 1181.64 172.388ZM1215.4 137.333C1224.75 136.268 1233.91 138.598 1242.75 141.351C1247.19 142.717 1253.14 145.047 1258.23 144.545C1252.94 151.013 1249.06 158.647 1243.78 165.116C1237.39 172.91 1229.21 179.701 1219.32 182.372C1209.11 185.125 1200.89 182.573 1192.09 177.25C1191.38 176.828 1190.64 176.386 1189.9 175.984C1194.32 175.06 1198.84 172.931 1202.72 171.042C1204.53 173.935 1207.18 176.044 1210.38 177.31C1212.87 178.294 1217.09 179.54 1219.44 177.792C1219.92 177.431 1219.74 176.707 1219.24 176.486C1218.05 175.964 1216.79 176.165 1215.52 176.024C1214.05 175.884 1212.65 175.582 1211.28 175.06C1208.59 174.056 1206.26 172.368 1204.29 170.299C1205.03 169.937 1205.75 169.596 1206.44 169.274C1212.71 166.402 1218.96 163.489 1225.23 160.576C1225.27 160.656 1225.29 160.757 1225.35 160.837C1225.59 161.098 1225.63 161.178 1225.95 161.279C1226.03 161.299 1226.09 161.299 1226.15 161.279C1226.72 161.52 1227.7 162.524 1228.06 162.745C1228.83 163.248 1229.65 163.71 1230.49 164.051C1231.92 164.654 1234.13 165.558 1235.6 164.754C1236.18 164.433 1236.24 163.77 1235.76 163.328C1235.1 162.725 1234.21 162.625 1233.37 162.404C1232.4 162.143 1231.48 161.781 1230.57 161.379C1229.65 160.957 1228.6 159.993 1227.52 159.491C1230.51 158.105 1233.51 156.719 1236.48 155.312C1236.48 155.353 1236.46 155.393 1236.48 155.433C1237.23 157.02 1239.92 159.29 1241.71 157.904C1241.97 157.703 1241.95 157.281 1241.69 157.1C1241.09 156.658 1240.28 156.638 1239.58 156.357C1238.75 156.036 1238.05 155.493 1237.47 154.85C1239.02 154.127 1240.56 153.404 1242.13 152.681C1242.93 152.319 1242.41 151.094 1241.59 151.435C1239.26 152.379 1236.93 153.344 1234.59 154.288C1234.86 153.846 1235.06 153.404 1235.24 153.042C1235.84 151.757 1236.7 149.748 1235.82 148.442C1235.6 148.121 1235.12 148.121 1234.84 148.342C1233.79 149.125 1233.59 151.033 1233.11 152.199C1232.72 153.143 1231.8 154.308 1231.9 155.393C1226.47 157.603 1221.07 159.812 1215.66 162.022C1216.69 160.134 1217.47 158.024 1218.62 156.297C1220.45 153.525 1223.78 151.114 1224.93 148.04C1225.17 147.417 1224.65 146.594 1223.92 146.755C1220.47 147.498 1217.79 151.576 1216.02 154.388C1214.46 156.859 1212.41 160.234 1212.41 163.348C1211.5 163.71 1210.62 164.071 1209.71 164.453C1204.95 166.402 1200.25 168.531 1195.36 170.178C1194.92 170.319 1194.5 170.419 1194.08 170.52C1194.7 168.39 1195.24 166.261 1196.01 164.172C1197.07 161.239 1199.28 158.165 1199.56 155.051C1199.64 154.167 1198.66 153.665 1197.98 154.167C1195.26 156.116 1194 160.475 1192.99 163.509C1192.17 166 1191.47 168.551 1191.26 171.143C1188.75 171.585 1186.28 171.785 1183.75 172.067C1186.62 165.036 1188.27 157.603 1192.47 151.114C1197.7 143.078 1205.83 138.438 1215.4 137.333Z" fill="#32594A"/>
</svg>
