<svg width="650" height="220" viewBox="0 0 650 220" fill="none" xmlns="http://www.w3.org/2000/svg">
<path d="M252.985 58.3216L252.985 58.3218C251.116 68.6116 246.466 76.4476 239.716 81.7629C232.975 87.0709 224.219 89.8034 214.236 90.0415M252.985 58.3216L1.55316 118.614C0.834748 88.0089 27.6732 65.9272 56.9659 73.3504L56.9662 73.3504C69.2228 76.4535 80.2699 83.0124 90.9811 90.2293L92.5488 91.2855L92.5399 89.3952C92.4341 67.0577 92.6041 45.8515 93.1971 29.7094C93.4936 21.6361 93.8955 14.8457 94.4193 9.81972C94.6814 7.30486 94.972 5.25183 95.2905 3.70923C95.4499 2.93766 95.6127 2.31085 95.7763 1.82617C95.8159 1.70887 95.8544 1.60344 95.8914 1.50901C96.2833 1.58165 96.7968 1.6482 97.4114 1.71072C98.7141 1.84323 100.561 1.96636 102.877 2.08103C107.513 2.3106 114.084 2.50888 122.062 2.67623C137.605 3.00225 158.519 3.21143 180.94 3.3042C175.303 12.323 170.361 21.8014 167.775 32.184C160.151 62.7732 182.878 90.7932 214.236 90.0415M252.985 58.3216C255.172 46.2616 252.773 33.7763 248.287 22.5114C245.619 15.8113 242.231 9.46036 238.575 3.28927C260.146 3.18714 280.08 2.97403 294.848 2.65048C302.429 2.48436 308.657 2.28897 313.047 2.06407C315.24 1.95174 316.988 1.83136 318.223 1.70198C318.785 1.64305 319.26 1.58036 319.628 1.51198C319.69 1.66878 319.755 1.85512 319.822 2.07446C320.014 2.6957 320.201 3.50428 320.381 4.49941C320.742 6.48837 321.063 9.14911 321.345 12.398C321.908 18.8915 322.31 27.6559 322.577 37.929C323.111 58.4707 323.107 84.985 322.796 111.299C322.485 137.612 321.868 163.715 321.178 183.431C320.833 193.29 320.47 201.546 320.119 207.43C319.943 210.374 319.77 212.715 319.605 214.362C319.522 215.188 319.443 215.824 319.368 216.269C319.352 216.369 319.336 216.455 319.321 216.529C319.265 216.54 319.202 216.552 319.13 216.564C318.689 216.637 318.041 216.712 317.183 216.787C315.473 216.935 313.013 217.073 309.899 217.201C303.675 217.458 294.89 217.672 284.392 217.843C263.398 218.186 235.58 218.357 207.76 218.357C179.939 218.357 152.122 218.186 131.128 217.843C120.63 217.672 111.845 217.458 105.621 217.201C102.507 217.073 100.046 216.935 98.3367 216.787C97.4788 216.712 96.8303 216.637 96.3898 216.564C96.318 216.552 96.2545 216.54 96.1987 216.529C96.1954 216.513 96.1922 216.496 96.1888 216.479C96.1303 216.175 96.0669 215.736 96 215.159C95.8667 214.008 95.7272 212.373 95.5841 210.298C95.2981 206.154 95.0008 200.303 94.7087 193.174C94.1245 178.92 93.562 159.583 93.1517 138.629L93.1169 136.852L91.6163 137.804C83.4759 142.967 75.2235 147.857 66.3895 151.432L66.3892 151.432M252.985 58.3216L66.3892 151.432M214.236 90.0415L214.212 89.0417L214.236 90.0414C214.236 90.0414 214.236 90.0415 214.236 90.0415ZM66.3892 151.432C55.3367 155.908 43.2389 158.235 31.656 156.097C21.7819 154.275 14.3978 149.774 9.4156 143.341M66.3892 151.432L9.4156 143.341M9.4156 143.341C4.42523 136.898 1.78487 128.439 1.55317 118.614L9.4156 143.341ZM96.2705 216.822C96.273 216.828 96.2745 216.832 96.2751 216.834C96.2761 216.837 96.2744 216.833 96.2705 216.822Z" fill="url(#paint0_linear_245_1362)" stroke="url(#paint1_linear_245_1362)" stroke-width="2"/>
<g clip-path="url(#clip0_245_1362)">
<path d="M231.559 119.621L231.462 119.546C230.672 118.927 229.683 117.994 228.52 116.74L228.52 116.74C227.457 115.594 226.62 114.735 226.012 114.172C225.966 114.694 225.901 115.528 225.813 116.678C225.734 117.908 225.609 118.895 225.412 119.638L225.363 119.824H225.193C225.187 119.826 225.179 119.829 225.168 119.833C225.131 119.848 225.076 119.872 225.001 119.91C224.803 120.009 224.62 120.035 224.452 119.998L224.452 119.998C224.078 119.914 223.778 119.737 223.575 119.452C223.374 119.171 223.289 118.813 223.289 118.404C223.289 118.159 223.325 117.851 223.382 117.48C223.39 117.419 223.397 117.36 223.405 117.304C223.444 117.004 223.472 116.789 223.493 116.683C223.548 115.837 223.582 114.836 223.604 113.665V111.26C223.604 109.249 223.717 107.548 223.933 106.159L223.933 106.158L223.933 106.158C224.02 105.618 224.328 105.219 224.829 104.976C225.315 104.74 225.973 104.653 226.778 104.688L231.559 119.621ZM231.559 119.621L231.678 119.591M231.559 119.621L231.678 119.591M231.678 119.591C232.046 119.498 232.346 119.378 232.559 119.221C232.779 119.06 232.924 118.843 232.924 118.573C232.924 118.45 232.889 118.332 232.814 118.23C232.367 117.471 231.617 116.645 230.639 115.735L230.639 115.735L230.637 115.732C229.832 115.007 229.228 114.458 228.823 114.09C228.621 113.906 228.468 113.767 228.366 113.673C228.305 113.618 228.264 113.58 228.241 113.559C228.223 113.542 228.215 113.535 228.216 113.536L228.207 113.527L228.196 113.518L227.842 113.232L227.492 112.948C227.351 112.822 227.253 112.715 227.193 112.626C227.131 112.535 227.119 112.48 227.119 112.453C227.119 112.413 227.139 112.321 227.382 112.189L227.382 112.189L227.385 112.187C228.057 111.81 228.636 111.302 229.096 110.653C229.636 109.925 229.92 109.188 229.92 108.425C229.92 107.542 229.617 106.725 229.048 105.979L229.048 105.979M231.678 119.591L229.048 105.979M229.048 105.979L229.046 105.977M229.048 105.979L229.046 105.977M229.046 105.977C228.416 105.167 227.666 104.726 226.779 104.688L229.046 105.977ZM226.117 109.581L226.117 109.581C226.072 108.78 226.05 108.293 226.05 108.11C226.05 107.661 226.082 107.272 226.152 106.93C226.192 106.855 226.295 106.774 226.577 106.774C227.015 106.774 227.262 106.878 227.408 107.054C227.592 107.277 227.695 107.502 227.734 107.763C227.743 107.954 227.733 108.157 227.692 108.404C227.569 109.048 227.069 109.763 226.142 110.542C226.146 110.257 226.137 109.937 226.117 109.581Z" fill="#132F02" stroke="#132F02" stroke-width="0.5"/>
<path d="M243.571 107.396L243.602 107.383L243.628 107.363C243.781 107.244 243.852 107.102 243.886 106.967L243.894 106.937V106.907C243.894 106.84 243.878 106.766 243.861 106.703C243.843 106.634 243.818 106.556 243.789 106.474C243.774 106.432 243.756 106.384 243.741 106.342C243.731 106.314 243.722 106.289 243.716 106.272C243.706 106.246 243.699 106.225 243.694 106.208C243.691 106.2 243.689 106.193 243.688 106.189C243.687 106.184 243.686 106.182 243.686 106.182L243.664 106.071L243.566 106.015C243.019 105.701 242.502 105.52 242.046 105.52C241.916 105.52 241.823 105.534 241.743 105.545L241.741 105.545L241.728 105.547L241.715 105.55C240.995 105.73 240.284 105.911 239.573 106.103L239.573 106.103C238.735 106.329 238.035 106.581 237.454 106.87L236.046 107.44L236.038 107.443L236.03 107.447C235.471 107.72 235.128 108.127 235.114 108.677L235.114 108.678C235.106 108.997 235.248 109.264 235.506 109.463C235.71 109.62 235.984 109.734 236.314 109.816C236.276 110.354 236.244 110.778 236.218 111.087C236.204 111.262 236.191 111.399 236.18 111.498C236.174 111.547 236.169 111.586 236.165 111.614C236.161 111.641 236.159 111.651 236.159 111.651C236.159 111.651 236.159 111.65 236.159 111.65L236.156 111.661L236.154 111.668C236.152 111.672 236.144 111.685 236.12 111.707C236.082 111.742 236.02 111.786 235.926 111.836C235.693 111.947 235.48 112.124 235.453 112.387C235.394 112.768 235.629 113.088 235.986 113.357C235.867 114.356 235.874 115.474 236.004 116.709C236.055 117.206 236.272 117.662 236.645 118.048C237.01 118.437 237.422 118.69 237.89 118.804C239.236 119.149 240.812 119.284 242.605 119.228L242.613 119.227L242.621 119.227C242.927 119.198 243.181 119.059 243.351 118.782C243.504 118.53 243.564 118.254 243.507 117.952C243.436 117.583 243.324 117.274 243.144 117.068C243.051 116.961 242.937 116.88 242.802 116.836C242.674 116.794 242.542 116.791 242.409 116.816C242.327 116.822 242.249 116.85 242.182 116.884C242.103 116.923 242.022 116.979 241.945 117.049C241.854 117.132 241.776 117.153 241.742 117.153V117.152L241.731 117.153C240.08 117.229 238.976 117.025 238.34 116.615C238.258 116.42 238.212 116.145 238.212 115.772C238.212 115.185 238.332 114.393 238.589 113.371C238.944 113.246 239.422 113.174 240.036 113.164L240.036 113.164L240.039 113.164C240.821 113.142 241.413 113.111 241.756 113.03C241.978 113.034 242.197 112.953 242.357 112.765C242.384 112.737 242.409 112.71 242.431 112.686C242.484 112.629 242.527 112.584 242.561 112.548C242.582 112.527 242.597 112.512 242.607 112.503L242.623 112.492C242.764 112.398 242.892 112.252 242.892 112.037C242.892 111.968 242.872 111.905 242.854 111.859C242.835 111.809 242.809 111.757 242.779 111.704C242.719 111.597 242.635 111.468 242.533 111.32L242.503 111.277L242.458 111.25C242.119 111.041 241.723 110.943 241.27 110.943C241.036 110.943 240.671 110.979 240.194 111.059C239.726 111.137 239.404 111.168 239.2 111.168C238.986 111.168 238.8 111.145 238.637 111.103C238.663 110.528 238.697 110.052 238.738 109.673C238.776 109.327 238.818 109.074 238.864 108.905C239.388 108.696 240.148 108.455 241.134 108.182C242.194 107.889 243.016 107.627 243.571 107.396Z" fill="#132F02" stroke="#132F02" stroke-width="0.5"/>
<path d="M254.894 110.669L254.894 110.669C254.334 111.868 253.845 112.718 253.404 113.148L252.392 114.159L252.382 114.17L252.37 114.179C251.972 114.493 251.566 114.704 251.151 114.809C251.114 115.05 251.093 115.328 251.093 115.636C251.093 115.907 251.115 116.327 251.16 116.888C251.205 117.451 251.228 117.876 251.228 118.156C251.228 119.192 250.984 120.02 250.45 120.579L250.32 120.716L250.153 120.628L249.534 120.301L249.531 120.3L249.531 120.3C249.26 120.152 249.025 119.941 248.987 119.63C248.838 118.661 248.759 117.581 248.759 116.39C248.759 115.606 248.805 114.431 248.895 112.888L254.894 110.669ZM254.894 110.669L254.896 110.665M254.894 110.669L254.896 110.665M254.896 110.665C255.143 110.113 255.278 109.57 255.267 109.03C255.266 108.43 255.094 107.875 254.761 107.394L254.761 107.394L254.76 107.392C253.747 105.955 252.231 105.094 250.265 104.77L250.265 104.77L250.26 104.769C249.908 104.718 249.611 104.686 249.37 104.677C249.153 104.669 248.959 104.678 248.805 104.724C248.608 104.744 248.483 104.894 248.411 105.033C248.331 105.186 248.275 105.394 248.234 105.639L248.197 105.859M254.896 110.665L248.197 105.859M248.197 105.859L248.392 105.915M248.197 105.859L248.392 105.915M248.392 105.915C248.397 105.92 248.404 105.927 248.414 105.939C248.444 105.975 248.483 106.035 248.53 106.123C248.586 106.23 248.659 106.339 248.76 106.411C248.791 106.433 248.823 106.45 248.856 106.464C248.971 107.354 249.029 108.334 249.029 109.393C249.029 110.173 248.985 111.337 248.895 112.888L248.392 105.915ZM252.991 108.831L252.991 108.834C252.871 109.821 252.326 110.849 251.326 111.909C251.34 110.831 251.287 109.264 251.172 107.212C251.506 107.351 251.772 107.46 251.97 107.54C252.103 107.594 252.206 107.635 252.279 107.663C252.315 107.676 252.345 107.688 252.369 107.696C252.375 107.698 252.381 107.7 252.387 107.702C252.629 107.849 252.791 108.015 252.887 108.193C252.986 108.375 253.024 108.585 252.991 108.831Z" fill="#132F02" stroke="#132F02" stroke-width="0.5"/>
<path d="M261.034 115.795L261.035 115.796C261.914 116.732 262.819 117.248 263.76 117.248C263.971 117.248 264.181 117.223 264.39 117.174C266.076 116.791 267.365 115.548 268.252 113.544C268.415 113.181 268.488 112.785 268.488 112.363C268.488 111.597 268.209 110.711 267.683 109.704L267.683 109.704L267.682 109.701C267.343 109.074 266.792 108.643 266.033 108.391L266.033 108.391L266.031 108.39C265.585 108.245 265.23 108.115 264.964 108.001C264.691 107.884 264.535 107.793 264.466 107.732C264.224 107.517 263.942 107.399 263.637 107.399C263.125 107.399 262.638 107.676 262.156 108.157C261.742 108.56 261.39 109.042 261.098 109.59L261.098 109.59L261.097 109.593C260.443 110.867 260.102 112.076 260.102 113.218C260.102 114.261 260.412 115.123 261.034 115.795ZM266.009 112.094L266.009 112.094L266.009 112.095C266.068 112.674 265.856 113.321 265.295 114.043L265.295 114.043L265.293 114.046C264.705 114.83 264.151 115.161 263.614 115.161C263.561 115.161 263.463 115.132 263.311 115.001C263.163 114.872 262.988 114.666 262.786 114.371C262.527 113.982 262.39 113.493 262.39 112.903C262.39 112.039 262.622 111.444 263.041 111.067C263.042 111.068 263.043 111.068 263.044 111.069C263.094 111.096 263.164 111.141 263.256 111.206C263.363 111.281 263.472 111.342 263.58 111.375C263.685 111.408 263.809 111.419 263.929 111.37C264.057 111.325 264.181 111.236 264.301 111.132C264.426 111.022 264.563 110.879 264.712 110.707C264.839 110.569 264.944 110.476 265.03 110.419C265.117 110.361 265.167 110.351 265.189 110.351C265.218 110.351 265.241 110.354 265.291 110.375C265.455 110.45 265.609 110.606 265.736 110.887C265.865 111.171 265.96 111.568 266.009 112.094ZM262.994 111.045C262.993 111.045 262.992 111.044 262.992 111.044L262.994 111.045Z" fill="#132F02" stroke="#132F02" stroke-width="0.5"/>
<path d="M281.372 119.621L281.275 119.546C280.484 118.927 279.496 117.994 278.332 116.74L278.332 116.74C277.269 115.594 276.432 114.735 275.825 114.172C275.779 114.694 275.714 115.528 275.626 116.678C275.547 117.908 275.422 118.895 275.224 119.638L275.175 119.824H275.005C275 119.826 274.991 119.829 274.98 119.833C274.943 119.848 274.889 119.872 274.813 119.91C274.615 120.009 274.433 120.035 274.265 119.998L274.264 119.998C273.891 119.914 273.59 119.737 273.387 119.452C273.187 119.171 273.102 118.813 273.102 118.404C273.102 118.159 273.138 117.851 273.194 117.48C273.202 117.419 273.21 117.36 273.217 117.304C273.256 117.004 273.284 116.789 273.306 116.683C273.361 115.837 273.394 114.836 273.417 113.665V111.26C273.417 109.249 273.529 107.548 273.746 106.159L273.746 106.158L273.746 106.158C273.833 105.618 274.14 105.219 274.642 104.976C275.127 104.74 275.786 104.653 276.591 104.688L281.372 119.621ZM281.372 119.621L281.491 119.591M281.372 119.621L281.491 119.591M281.491 119.591C281.858 119.498 282.158 119.378 282.372 119.221C282.592 119.06 282.737 118.843 282.737 118.573C282.737 118.45 282.702 118.332 282.627 118.23C282.18 117.471 281.442 116.646 280.451 115.734L280.449 115.732C279.645 115.007 279.04 114.458 278.636 114.09C278.433 113.906 278.281 113.767 278.178 113.673C278.118 113.618 278.077 113.58 278.053 113.559C278.035 113.542 278.027 113.535 278.028 113.536L278.019 113.527L278.009 113.518L277.305 112.948C277.163 112.822 277.066 112.715 277.005 112.626C276.943 112.535 276.932 112.48 276.932 112.453C276.932 112.413 276.951 112.321 277.194 112.189L277.194 112.189L277.198 112.187C277.869 111.81 278.448 111.302 278.909 110.653C279.449 109.925 279.733 109.188 279.733 108.425C279.733 107.542 279.429 106.725 278.86 105.979L278.86 105.979M281.491 119.591L278.86 105.979M278.86 105.979L278.859 105.977M278.86 105.979L278.859 105.977M278.859 105.977C278.228 105.167 277.479 104.726 276.591 104.688L278.859 105.977ZM275.941 109.581L275.941 109.581C275.896 108.78 275.874 108.293 275.874 108.11C275.874 107.661 275.905 107.272 275.975 106.93C276.015 106.855 276.119 106.774 276.4 106.774C276.838 106.774 277.086 106.878 277.231 107.054C277.416 107.277 277.518 107.502 277.557 107.763C277.567 107.953 277.557 108.156 277.516 108.402C277.383 109.049 276.889 109.764 275.966 110.541C275.969 110.257 275.961 109.937 275.941 109.581Z" fill="#132F02" stroke="#132F02" stroke-width="0.5"/>
<path d="M297.084 104.474L297.076 104.504C296.93 105.075 296.64 105.498 296.14 105.619C295.199 105.852 293.589 106.147 291.319 106.525C291.037 110.102 290.896 113.09 290.896 115.479C290.896 116.411 290.908 117.319 290.941 118.214C290.941 118.214 290.941 118.214 290.941 118.215L290.691 118.224C290.703 118.505 290.691 118.719 290.646 118.865L297.084 104.474ZM297.084 104.474V104.443C297.084 104.238 296.998 104.056 296.82 103.941C296.723 103.879 296.609 103.844 296.487 103.828C296.468 103.767 296.435 103.707 296.383 103.654C296.262 103.53 296.092 103.497 295.939 103.495C295.539 103.448 295.072 103.5 294.533 103.638L294.533 103.638L294.527 103.639C293.8 103.844 293.378 103.936 293.23 103.946L293.203 103.947L293.178 103.954C292.595 104.116 291.988 104.193 291.344 104.193C290.703 104.193 290.146 104.106 289.66 103.937L289.556 103.901L289.46 103.952C288.873 104.267 287.955 104.499 286.684 104.633C285.236 104.767 284.242 104.927 283.739 105.094L283.67 105.117L283.624 105.173C283.512 105.31 283.41 105.479 283.41 105.669C283.41 105.7 283.416 105.724 283.417 105.729C283.417 105.729 283.417 105.729 283.417 105.729C283.42 105.738 283.422 105.745 283.423 105.75C283.426 105.758 283.429 105.766 283.431 105.771C283.435 105.783 283.441 105.796 283.447 105.811C283.459 105.84 283.477 105.88 283.5 105.931C283.546 106.032 283.614 106.18 283.704 106.372L283.727 106.421L283.768 106.456C284.273 106.885 284.932 107.089 285.696 107.089C286.021 107.089 286.599 107.03 287.409 106.906C287.98 106.825 288.433 106.782 288.778 106.785L297.084 104.474ZM288.956 118.808C289.278 119.208 289.69 119.425 290.192 119.441L288.439 117.506C288.439 117.506 288.439 117.507 288.439 117.507C288.465 117.992 288.645 118.423 288.956 118.808Z" fill="#132F02" stroke="#132F02" stroke-width="0.5"/>
<path d="M302.479 105.848L302.479 105.848L302.484 105.845C302.937 105.607 303.259 105.283 303.259 104.848C303.259 104.598 303.154 104.384 302.96 104.165L302.96 104.165L302.955 104.16C302.579 103.756 302.042 103.574 301.378 103.574C301.016 103.574 300.642 103.677 300.282 103.845L300.282 103.845L300.28 103.846C299.493 104.221 298.88 104.85 298.464 105.705C298.097 106.452 297.91 107.289 297.91 108.223C297.91 109.377 298.418 110.872 299.367 112.703L299.368 112.704C300.322 114.522 300.768 115.859 300.768 116.75C300.768 117.388 300.63 118.014 300.331 118.633L300.328 118.641L300.324 118.649C300.304 118.7 300.254 118.754 300.105 118.762C299.985 118.768 299.872 118.784 299.774 118.816C299.684 118.844 299.579 118.895 299.506 118.99C299.288 119.244 299.125 119.515 299.125 119.788C299.125 120.235 299.473 120.545 299.939 120.748L299.939 120.748L299.946 120.751C300.091 120.809 300.247 120.836 300.41 120.836C300.823 120.836 301.257 120.646 301.702 120.329L301.702 120.329L301.707 120.326C302.239 119.929 302.604 119.576 302.767 119.277L302.767 119.277L302.769 119.273C303.18 118.487 303.394 117.671 303.394 116.818C303.394 115.773 303.027 114.54 302.31 113.106C301.781 112.049 301.377 111.234 301.097 110.664C300.813 110.083 300.668 109.775 300.646 109.714L300.646 109.714L300.645 109.712C300.521 109.37 300.458 109.006 300.458 108.605C300.458 107.522 300.826 106.619 301.577 105.868C301.614 105.831 301.64 105.816 301.655 105.81C301.666 105.813 301.679 105.817 301.694 105.821C301.707 105.825 301.723 105.829 301.74 105.834C301.788 105.848 301.849 105.865 301.921 105.885C302.11 105.95 302.312 105.932 302.479 105.848Z" fill="#132F02" stroke="#132F02" stroke-width="0.5"/>
</g>
<path d="M272.129 153.506L272.227 167.757C272.228 167.967 272.312 168.168 272.461 168.316C272.61 168.464 272.811 168.547 273.021 168.547L276.773 168.526C276.878 168.526 276.981 168.504 277.077 168.464C277.173 168.424 277.261 168.364 277.334 168.29C277.407 168.216 277.465 168.128 277.505 168.031C277.544 167.935 277.564 167.831 277.563 167.727L277.465 153.475C277.463 153.265 277.379 153.065 277.23 152.917C277.081 152.769 276.88 152.686 276.671 152.686C276.565 152.686 272.813 152.706 272.919 152.707C272.708 152.707 272.126 153.072 272.129 153.506ZM275.883 154.279L275.969 166.942L273.81 166.955L273.723 154.291L275.883 154.279ZM280.593 168.664H280.598C284.238 168.571 284.51 168.809 284.907 168.408C285.347 167.963 285.055 168.746 285.009 147.448C285.007 147.238 284.923 147.038 284.774 146.89C284.626 146.742 284.424 146.659 284.215 146.659C284.109 146.659 280.356 146.678 280.463 146.679C280.359 146.68 280.256 146.701 280.159 146.742C280.063 146.782 279.976 146.841 279.903 146.915C279.829 146.99 279.771 147.078 279.732 147.174C279.693 147.271 279.673 147.375 279.673 147.479L279.8 167.875C279.802 168.085 279.886 168.285 280.035 168.433C280.184 168.581 280.385 168.664 280.595 168.664H280.593ZM283.426 148.252L283.542 167.06L281.382 167.071L281.266 148.263L283.426 148.252ZM269.301 159.423C265.138 159.423 265.278 159.386 264.989 159.68C264.575 160.099 264.84 159.956 264.809 167.759C264.81 167.968 264.894 168.169 265.043 168.317C265.192 168.464 265.393 168.547 265.603 168.547H265.607C269.264 168.454 269.511 168.701 269.916 168.291C270.329 167.871 270.065 168.014 270.095 160.212C270.094 160.003 270.01 159.802 269.861 159.654C269.712 159.506 269.511 159.423 269.301 159.423ZM266.391 166.955L266.352 161.028L268.512 161.016L268.551 166.942L266.391 166.955ZM258.276 168.636C261.915 168.543 262.187 168.782 262.583 168.38C263.022 167.937 262.731 168.12 262.742 156.441C262.74 156.231 262.656 156.03 262.507 155.883C262.358 155.735 262.157 155.652 261.948 155.652L258.196 155.672C258.092 155.673 257.989 155.694 257.892 155.734C257.796 155.775 257.709 155.834 257.635 155.908C257.562 155.982 257.504 156.07 257.465 156.167C257.425 156.264 257.406 156.367 257.406 156.471L257.477 167.847C257.479 168.057 257.563 168.258 257.712 168.406C257.86 168.553 258.062 168.636 258.271 168.636H258.276ZM261.159 157.243L261.22 167.032L259.06 167.044L259 157.256L261.159 157.243ZM261.481 153.536C264.38 150.477 268.179 148.423 272.326 147.673L272.052 148.037C271.421 148.878 272.689 149.832 273.32 148.993L274.968 146.804C275.094 146.638 275.149 146.428 275.121 146.222C275.093 146.015 274.986 145.827 274.821 145.699C274.096 145.135 273.289 144.685 272.428 144.365C271.44 144 270.89 145.487 271.874 145.854C272.035 145.914 272.192 145.987 272.348 146.058C267.752 146.821 263.53 149.065 260.325 152.448C259.605 153.21 260.76 154.3 261.481 153.536Z" fill="#132F02"/>
<path d="M294.867 143.94C294.892 137.95 290.255 132.939 284.31 132.53C265.819 131.258 249.591 133.984 246.595 134.312C246.451 134.329 246.315 134.384 246.201 134.472C246.087 134.561 245.999 134.679 245.947 134.813L245.79 134.789C245.712 136.055 245.604 137.031 245.562 138.114C242.815 138.136 241.792 137.89 241.62 138.814C241.486 139.017 241.264 139.574 240.598 140.035C242.119 156.546 242.84 173.208 242.551 189.786C242.527 191.198 242.548 192.566 243.69 193.404C243.964 193.813 244.288 193.736 244.395 193.763C247.568 193.732 250.527 192.822 274.882 194.113C291.651 195 290.754 194.881 291.048 194.601C291.371 194.296 291.321 194.355 291.296 189.822C293.475 189.913 294.712 189.95 294.603 189.95C294.813 189.95 295.014 189.867 295.163 189.719C295.312 189.571 295.396 189.37 295.397 189.16C295.481 174.691 294.802 158.773 294.867 143.94ZM249.219 189.29C249.554 186.283 249.364 176.689 249.311 173.667C249.297 163.144 249.356 149.356 248.023 139.502C248.056 139.276 247.631 135.902 247.616 135.795C251.381 135.352 266.815 132.924 284.202 134.114C284.751 134.155 285.295 134.242 285.828 134.375L286.23 142.612C286.293 143.917 287.561 142.907 292.926 144.13C293.099 144.168 293.174 144.144 293.279 144.119C293.222 158.773 293.867 174.16 293.813 188.336C277.772 187.751 264.95 187.335 249.219 189.29Z" fill="#132F02"/>
<path d="M294.867 143.94C294.892 137.95 290.255 132.939 284.31 132.53C265.819 131.258 249.591 133.984 246.595 134.312C246.451 134.329 246.315 134.384 246.201 134.472C246.087 134.561 245.999 134.679 245.947 134.813L245.79 134.789C245.712 136.055 245.604 137.031 245.562 138.114C242.815 138.136 241.792 137.89 241.62 138.814C241.486 139.017 241.264 139.574 240.598 140.035C242.119 156.546 242.84 173.208 242.551 189.786C242.527 191.198 242.548 192.566 243.69 193.404C243.964 193.813 244.288 193.736 244.395 193.763C247.568 193.732 250.527 192.822 274.882 194.113C291.651 195 290.754 194.881 291.048 194.601C291.371 194.296 291.321 194.355 291.296 189.822C293.475 189.913 294.712 189.95 294.603 189.95C294.813 189.95 295.014 189.867 295.163 189.719C295.312 189.571 295.396 189.37 295.397 189.16C295.481 174.691 294.802 158.773 294.867 143.94ZM293.178 142.562C291.403 142.162 289.598 141.912 287.781 141.812L287.445 134.928C288.971 135.607 290.299 136.665 291.302 138.001C292.305 139.337 292.951 140.907 293.178 142.562ZM245.363 192.11C245.528 190.406 245.499 186.901 245.271 179.673C245.049 172.634 245.637 153.131 243.36 139.692C243.983 139.68 244.703 139.709 245.555 139.703C247.512 193.554 247.359 189.961 247.429 190.203C247.375 192.474 251.468 188.544 286.922 189.674L289.713 189.768C289.72 190.916 289.72 192.062 289.713 193.197C269.321 192.387 258.875 191.297 245.363 192.11ZM249.219 189.29C249.554 186.283 249.364 176.689 249.311 173.667C249.297 163.144 249.356 149.356 248.023 139.502C248.056 139.276 247.631 135.902 247.616 135.795C251.381 135.352 266.815 132.924 284.202 134.114C284.751 134.155 285.295 134.242 285.828 134.375L286.23 142.612C286.293 143.917 287.561 142.907 292.926 144.13C293.099 144.168 293.174 144.144 293.279 144.119C293.222 158.773 293.867 174.16 293.813 188.336C277.772 187.751 264.95 187.335 249.219 189.29Z" fill="#132F02"/>
<path d="M287.091 174.61H258.777C257.725 174.61 257.725 176.198 258.777 176.198H287.09C288.141 176.198 288.142 174.61 287.091 174.61ZM275.198 180.786H260.893C260.683 180.786 260.481 180.87 260.332 181.019C260.183 181.168 260.099 181.37 260.099 181.58C260.099 181.791 260.183 181.993 260.332 182.142C260.481 182.291 260.683 182.374 260.893 182.374H275.198C275.409 182.374 275.611 182.291 275.76 182.142C275.909 181.993 275.992 181.791 275.992 181.58C275.992 181.37 275.909 181.168 275.76 181.019C275.611 180.87 275.409 180.786 275.198 180.786Z" fill="#132F02"/>
<path d="M355.129 86.3302L358.75 69.1974H367.879L367.375 71.5646H361.023L360.039 76.2169H365.98L365.488 78.5724H359.547L358.398 83.9513H364.75L364.246 86.3302H355.129ZM365.992 86.3302L371.594 79.6622L368.875 73.3575H371.746L373.445 77.7404L376.832 73.3575H380.043L374.617 79.8029L377.535 86.3302H374.629L372.777 81.7716L369.168 86.3302H365.992ZM378.496 92.0841L382.469 73.3575H384.613L384.355 75.5958H384.449C384.77 75.1661 385.129 74.7638 385.527 74.3888C385.926 74.0138 386.371 73.7091 386.863 73.4747C387.363 73.2404 387.91 73.1232 388.504 73.1232C389.168 73.1232 389.77 73.2872 390.309 73.6154C390.855 73.9357 391.289 74.4357 391.609 75.1154C391.938 75.7872 392.102 76.6544 392.102 77.7169C392.102 78.6075 392.008 79.4825 391.82 80.3419C391.641 81.1935 391.375 81.9943 391.023 82.7443C390.672 83.4943 390.242 84.1583 389.734 84.7365C389.234 85.3068 388.664 85.756 388.023 86.0841C387.383 86.4044 386.68 86.5646 385.914 86.5646C385.352 86.5646 384.867 86.4708 384.461 86.2833C384.062 86.088 383.727 85.8302 383.453 85.5099C383.18 85.1896 382.949 84.838 382.762 84.4552H382.656C382.617 84.9161 382.562 85.3966 382.492 85.8966C382.422 86.3966 382.336 86.8732 382.234 87.3263L381.227 92.0841H378.496ZM385.551 84.3263C385.996 84.3263 386.41 84.2052 386.793 83.963C387.176 83.713 387.523 83.3732 387.836 82.9435C388.148 82.5138 388.414 82.0177 388.633 81.4552C388.852 80.8927 389.02 80.299 389.137 79.674C389.254 79.0411 389.312 78.4044 389.312 77.7638C389.312 76.9669 389.156 76.3693 388.844 75.9708C388.539 75.5646 388.078 75.3615 387.461 75.3615C387.086 75.3615 386.727 75.4591 386.383 75.6544C386.039 75.8419 385.719 76.0997 385.422 76.4279C385.125 76.756 384.855 77.1388 384.613 77.5763C384.371 78.006 384.164 78.4669 383.992 78.9591C383.82 79.4513 383.688 79.9513 383.594 80.4591C383.508 80.9669 383.465 81.4591 383.465 81.9357C383.465 82.6544 383.641 83.2325 383.992 83.67C384.352 84.1075 384.871 84.3263 385.551 84.3263ZM399.238 86.5411C398.254 86.5411 397.395 86.338 396.66 85.9318C395.926 85.5255 395.355 84.9513 394.949 84.2091C394.551 83.4591 394.352 82.5724 394.352 81.549C394.352 80.6818 394.441 79.838 394.621 79.0177C394.809 78.1974 395.082 77.4318 395.441 76.7208C395.801 76.0099 396.25 75.3888 396.789 74.8575C397.328 74.3185 397.953 73.9005 398.664 73.6036C399.375 73.299 400.172 73.1466 401.055 73.1466C402.062 73.1466 402.93 73.3497 403.656 73.756C404.383 74.1622 404.941 74.7443 405.332 75.5021C405.723 76.2599 405.918 77.1661 405.918 78.2208C405.918 79.0646 405.828 79.8888 405.648 80.6935C405.477 81.4982 405.215 82.256 404.863 82.9669C404.512 83.67 404.066 84.2911 403.527 84.8302C402.996 85.3615 402.371 85.7794 401.652 86.0841C400.941 86.3888 400.137 86.5411 399.238 86.5411ZM399.438 84.2911C399.875 84.2911 400.281 84.1935 400.656 83.9982C401.039 83.795 401.383 83.5099 401.688 83.1427C401.992 82.7677 402.25 82.3263 402.461 81.8185C402.68 81.3029 402.848 80.7325 402.965 80.1075C403.082 79.4825 403.141 78.8146 403.141 78.1036C403.141 77.6271 403.07 77.1857 402.93 76.7794C402.789 76.3654 402.555 76.0333 402.227 75.7833C401.906 75.5255 401.477 75.3966 400.938 75.3966C400.453 75.3966 400.008 75.5138 399.602 75.7482C399.203 75.9747 398.848 76.2911 398.535 76.6974C398.23 77.1036 397.973 77.5724 397.762 78.1036C397.551 78.6271 397.391 79.1896 397.281 79.7911C397.172 80.3849 397.117 80.9865 397.117 81.5958C397.117 82.463 397.312 83.131 397.703 83.5997C398.102 84.0607 398.68 84.2911 399.438 84.2911ZM407.582 86.3302L410.336 73.3575H412.48L412.199 75.8068H412.328C412.664 75.3068 413.027 74.8536 413.418 74.4474C413.816 74.0411 414.258 73.7169 414.742 73.4747C415.227 73.2325 415.766 73.1115 416.359 73.1115C416.57 73.1115 416.789 73.1271 417.016 73.1583C417.25 73.1818 417.453 73.2169 417.625 73.2638L417.027 75.8419C416.855 75.795 416.668 75.756 416.465 75.7247C416.262 75.6935 416.047 75.6779 415.82 75.6779C415.305 75.6779 414.82 75.799 414.367 76.0411C413.914 76.2833 413.504 76.6193 413.137 77.049C412.77 77.4786 412.453 77.9825 412.188 78.5607C411.922 79.131 411.715 79.7521 411.566 80.424L410.324 86.3302H407.582ZM421.387 86.5646C420.441 86.5646 419.672 86.3536 419.078 85.9318C418.492 85.5021 418.199 84.7521 418.199 83.6818C418.199 83.4708 418.211 83.2404 418.234 82.9904C418.266 82.7325 418.309 82.4669 418.363 82.1935L419.793 75.4435H417.918L418.176 74.131L420.391 73.2286L421.867 70.4865H423.59L422.98 73.3575H426.285L425.84 75.4435H422.547L421.105 82.2052C421.066 82.3693 421.031 82.545 421 82.7325C420.977 82.9122 420.965 83.0763 420.965 83.2247C420.965 83.5763 421.062 83.8497 421.258 84.045C421.453 84.2404 421.75 84.338 422.148 84.338C422.453 84.338 422.746 84.3068 423.027 84.2443C423.309 84.1818 423.617 84.0919 423.953 83.9747V86.049C423.664 86.1818 423.289 86.299 422.828 86.4005C422.367 86.5099 421.887 86.5646 421.387 86.5646ZM437.863 86.5646C436.934 86.5646 436.105 86.3927 435.379 86.049C434.652 85.7052 434.082 85.1779 433.668 84.4669C433.254 83.756 433.047 82.8497 433.047 81.7482C433.047 80.8185 433.145 79.9279 433.34 79.0763C433.543 78.2169 433.836 77.4279 434.219 76.7091C434.602 75.9825 435.07 75.3536 435.625 74.8224C436.18 74.2833 436.812 73.8654 437.523 73.5685C438.234 73.2638 439.02 73.1115 439.879 73.1115C440.551 73.1115 441.18 73.1779 441.766 73.3107C442.352 73.4357 442.891 73.6115 443.383 73.838L442.562 76.006C442.188 75.8341 441.785 75.6857 441.355 75.5607C440.934 75.4279 440.469 75.3615 439.961 75.3615C439.328 75.3615 438.758 75.5333 438.25 75.8771C437.742 76.213 437.309 76.6779 436.949 77.2716C436.59 77.8575 436.312 78.5216 436.117 79.2638C435.93 80.006 435.836 80.7833 435.836 81.5958C435.836 82.174 435.934 82.6661 436.129 83.0724C436.324 83.4786 436.605 83.7911 436.973 84.0099C437.348 84.2208 437.797 84.3263 438.32 84.3263C438.898 84.3263 439.441 84.2443 439.949 84.0802C440.457 83.9083 440.965 83.6974 441.473 83.4474V85.7208C440.988 85.9786 440.449 86.1818 439.855 86.3302C439.262 86.4865 438.598 86.5646 437.863 86.5646ZM449.184 86.5411C448.199 86.5411 447.34 86.338 446.605 85.9318C445.871 85.5255 445.301 84.9513 444.895 84.2091C444.496 83.4591 444.297 82.5724 444.297 81.549C444.297 80.6818 444.387 79.838 444.566 79.0177C444.754 78.1974 445.027 77.4318 445.387 76.7208C445.746 76.0099 446.195 75.3888 446.734 74.8575C447.273 74.3185 447.898 73.9005 448.609 73.6036C449.32 73.299 450.117 73.1466 451 73.1466C452.008 73.1466 452.875 73.3497 453.602 73.756C454.328 74.1622 454.887 74.7443 455.277 75.5021C455.668 76.2599 455.863 77.1661 455.863 78.2208C455.863 79.0646 455.773 79.8888 455.594 80.6935C455.422 81.4982 455.16 82.256 454.809 82.9669C454.457 83.67 454.012 84.2911 453.473 84.8302C452.941 85.3615 452.316 85.7794 451.598 86.0841C450.887 86.3888 450.082 86.5411 449.184 86.5411ZM449.383 84.2911C449.82 84.2911 450.227 84.1935 450.602 83.9982C450.984 83.795 451.328 83.5099 451.633 83.1427C451.938 82.7677 452.195 82.3263 452.406 81.8185C452.625 81.3029 452.793 80.7325 452.91 80.1075C453.027 79.4825 453.086 78.8146 453.086 78.1036C453.086 77.6271 453.016 77.1857 452.875 76.7794C452.734 76.3654 452.5 76.0333 452.172 75.7833C451.852 75.5255 451.422 75.3966 450.883 75.3966C450.398 75.3966 449.953 75.5138 449.547 75.7482C449.148 75.9747 448.793 76.2911 448.48 76.6974C448.176 77.1036 447.918 77.5724 447.707 78.1036C447.496 78.6271 447.336 79.1896 447.227 79.7911C447.117 80.3849 447.062 80.9865 447.062 81.5958C447.062 82.463 447.258 83.131 447.648 83.5997C448.047 84.0607 448.625 84.2911 449.383 84.2911ZM457.527 86.3302L460.281 73.3575H462.426L462.145 75.8068H462.262C462.566 75.3458 462.918 74.9122 463.316 74.506C463.723 74.0919 464.18 73.756 464.688 73.4982C465.203 73.2404 465.781 73.1115 466.422 73.1115C467.328 73.1115 468.02 73.3615 468.496 73.8615C468.98 74.3615 469.281 75.045 469.398 75.9122H469.492C469.812 75.4122 470.184 74.9513 470.605 74.5294C471.035 74.1075 471.516 73.7677 472.047 73.5099C472.586 73.2443 473.172 73.1115 473.805 73.1115C474.852 73.1115 475.645 73.4161 476.184 74.0255C476.723 74.6349 476.992 75.4865 476.992 76.5802C476.992 76.9083 476.969 77.2443 476.922 77.588C476.883 77.9318 476.82 78.2872 476.734 78.6544L475.117 86.3302H472.375L474.051 78.4552C474.113 78.1505 474.16 77.8771 474.191 77.6349C474.23 77.3849 474.25 77.1505 474.25 76.9318C474.25 76.424 474.129 76.0372 473.887 75.7716C473.652 75.4982 473.293 75.3615 472.809 75.3615C472.402 75.3615 472 75.4825 471.602 75.7247C471.211 75.9669 470.84 76.3185 470.488 76.7794C470.137 77.2404 469.824 77.799 469.551 78.4552C469.277 79.1036 469.055 79.838 468.883 80.6583L467.688 86.3302H464.957L466.609 78.4786C466.68 78.1661 466.73 77.8849 466.762 77.6349C466.793 77.3849 466.809 77.1661 466.809 76.9786C466.809 76.4552 466.695 76.0568 466.469 75.7833C466.25 75.5021 465.898 75.3615 465.414 75.3615C465.008 75.3615 464.605 75.4825 464.207 75.7247C463.809 75.9669 463.434 76.3224 463.082 76.7911C462.73 77.2599 462.414 77.8302 462.133 78.5021C461.852 79.1661 461.621 79.9279 461.441 80.7872L460.27 86.3302H457.527ZM477.637 92.0841L481.609 73.3575H483.754L483.496 75.5958H483.59C483.91 75.1661 484.27 74.7638 484.668 74.3888C485.066 74.0138 485.512 73.7091 486.004 73.4747C486.504 73.2404 487.051 73.1232 487.645 73.1232C488.309 73.1232 488.91 73.2872 489.449 73.6154C489.996 73.9357 490.43 74.4357 490.75 75.1154C491.078 75.7872 491.242 76.6544 491.242 77.7169C491.242 78.6075 491.148 79.4825 490.961 80.3419C490.781 81.1935 490.516 81.9943 490.164 82.7443C489.812 83.4943 489.383 84.1583 488.875 84.7365C488.375 85.3068 487.805 85.756 487.164 86.0841C486.523 86.4044 485.82 86.5646 485.055 86.5646C484.492 86.5646 484.008 86.4708 483.602 86.2833C483.203 86.088 482.867 85.8302 482.594 85.5099C482.32 85.1896 482.09 84.838 481.902 84.4552H481.797C481.758 84.9161 481.703 85.3966 481.633 85.8966C481.562 86.3966 481.477 86.8732 481.375 87.3263L480.367 92.0841H477.637ZM484.691 84.3263C485.137 84.3263 485.551 84.2052 485.934 83.963C486.316 83.713 486.664 83.3732 486.977 82.9435C487.289 82.5138 487.555 82.0177 487.773 81.4552C487.992 80.8927 488.16 80.299 488.277 79.674C488.395 79.0411 488.453 78.4044 488.453 77.7638C488.453 76.9669 488.297 76.3693 487.984 75.9708C487.68 75.5646 487.219 75.3615 486.602 75.3615C486.227 75.3615 485.867 75.4591 485.523 75.6544C485.18 75.8419 484.859 76.0997 484.562 76.4279C484.266 76.756 483.996 77.1388 483.754 77.5763C483.512 78.006 483.305 78.4669 483.133 78.9591C482.961 79.4513 482.828 79.9513 482.734 80.4591C482.648 80.9669 482.605 81.4591 482.605 81.9357C482.605 82.6544 482.781 83.2325 483.133 83.67C483.492 84.1075 484.012 84.3263 484.691 84.3263ZM492.93 86.3302L496.809 68.0958H499.539L495.672 86.3302H492.93ZM499.551 86.3302L502.305 73.3575H505.047L502.293 86.3302H499.551ZM504.285 71.4122C503.879 71.4122 503.539 71.3146 503.266 71.1193C502.992 70.9161 502.855 70.5997 502.855 70.17C502.855 69.8107 502.922 69.4982 503.055 69.2325C503.195 68.9669 503.395 68.7638 503.652 68.6232C503.918 68.4747 504.234 68.4005 504.602 68.4005C505.008 68.4005 505.34 68.4982 505.598 68.6935C505.855 68.881 505.984 69.1857 505.984 69.6075C505.984 70.1544 505.832 70.5919 505.527 70.92C505.223 71.2482 504.809 71.4122 504.285 71.4122ZM510.297 86.5646C509.633 86.5646 509.027 86.4044 508.48 86.0841C507.941 85.756 507.512 85.256 507.191 84.5841C506.871 83.9044 506.711 83.0411 506.711 81.9943C506.711 81.088 506.805 80.2052 506.992 79.3458C507.188 78.4865 507.461 77.6818 507.812 76.9318C508.172 76.1818 508.605 75.5216 509.113 74.9513C509.621 74.3732 510.195 73.924 510.836 73.6036C511.477 73.2755 512.168 73.1115 512.91 73.1115C513.473 73.1115 513.965 73.2091 514.387 73.4044C514.809 73.5919 515.164 73.8458 515.453 74.1661C515.742 74.4865 515.977 74.8419 516.156 75.2325H516.262L516.965 73.3575H519.074L516.32 86.3302H514.223L514.48 84.2325H514.387C514.051 84.6622 513.676 85.0529 513.262 85.4044C512.855 85.756 512.406 86.0372 511.914 86.2482C511.422 86.4591 510.883 86.5646 510.297 86.5646ZM511.305 84.3263C511.852 84.3263 512.375 84.1232 512.875 83.7169C513.375 83.3029 513.816 82.756 514.199 82.0763C514.59 81.3966 514.879 80.6505 515.066 79.838C515.16 79.4474 515.223 79.0763 515.254 78.7247C515.293 78.3732 515.312 78.0216 515.312 77.67C515.312 76.9904 515.133 76.4357 514.773 76.006C514.414 75.5763 513.922 75.3615 513.297 75.3615C512.867 75.3615 512.457 75.4825 512.066 75.7247C511.684 75.9669 511.336 76.3029 511.023 76.7325C510.711 77.1544 510.438 77.6427 510.203 78.1974C509.977 78.7521 509.801 79.3497 509.676 79.9904C509.559 80.6232 509.5 81.2677 509.5 81.924C509.5 82.713 509.656 83.3107 509.969 83.7169C510.289 84.1232 510.734 84.3263 511.305 84.3263ZM520.035 86.3302L522.801 73.3224H525.016L524.734 75.7716H524.805C525.117 75.3107 525.48 74.8771 525.895 74.4708C526.309 74.0568 526.777 73.7208 527.301 73.463C527.832 73.2052 528.426 73.0763 529.082 73.0763C529.801 73.0763 530.41 73.2169 530.91 73.4982C531.41 73.7794 531.789 74.1818 532.047 74.7052C532.305 75.2286 532.434 75.8536 532.434 76.5802C532.434 76.9005 532.406 77.2443 532.352 77.6115C532.305 77.9708 532.242 78.3224 532.164 78.6661L530.535 86.3302H527.734L529.398 78.4435C529.469 78.1388 529.52 77.8654 529.551 77.6232C529.59 77.381 529.609 77.1544 529.609 76.9435C529.609 76.4279 529.48 76.0411 529.223 75.7833C528.973 75.5255 528.598 75.3966 528.098 75.3966C527.551 75.3966 527.012 75.6075 526.48 76.0294C525.949 76.4513 525.469 77.0646 525.039 77.8693C524.609 78.674 524.27 79.6466 524.02 80.7872L522.848 86.3302H520.035ZM538.27 86.5646C537.324 86.5646 536.555 86.3536 535.961 85.9318C535.375 85.5021 535.082 84.7521 535.082 83.6818C535.082 83.4708 535.094 83.2404 535.117 82.9904C535.148 82.7325 535.191 82.4669 535.246 82.1935L536.676 75.4435H534.801L535.059 74.131L537.273 73.2286L538.75 70.4865H540.473L539.863 73.3575H543.168L542.723 75.4435H539.43L537.988 82.2052C537.949 82.3693 537.914 82.545 537.883 82.7325C537.859 82.9122 537.848 83.0763 537.848 83.2247C537.848 83.5763 537.945 83.8497 538.141 84.045C538.336 84.2404 538.633 84.338 539.031 84.338C539.336 84.338 539.629 84.3068 539.91 84.2443C540.191 84.1818 540.5 84.0919 540.836 83.9747V86.049C540.547 86.1818 540.172 86.299 539.711 86.4005C539.25 86.5099 538.77 86.5646 538.27 86.5646ZM358.281 119.565C357.469 119.565 356.758 119.494 356.148 119.354C355.547 119.221 355.004 119.026 354.52 118.768V116.412C355.02 116.709 355.582 116.959 356.207 117.162C356.84 117.358 357.488 117.455 358.152 117.455C358.668 117.455 359.117 117.385 359.5 117.244C359.883 117.104 360.18 116.904 360.391 116.647C360.609 116.381 360.719 116.061 360.719 115.686C360.719 115.412 360.656 115.17 360.531 114.959C360.406 114.748 360.191 114.533 359.887 114.315C359.582 114.096 359.16 113.834 358.621 113.529C358.051 113.209 357.566 112.885 357.168 112.557C356.777 112.221 356.477 111.85 356.266 111.443C356.062 111.037 355.961 110.561 355.961 110.014C355.961 109.193 356.148 108.494 356.523 107.916C356.906 107.33 357.445 106.885 358.141 106.58C358.844 106.268 359.672 106.111 360.625 106.111C361.391 106.111 362.113 106.201 362.793 106.381C363.473 106.553 364.102 106.795 364.68 107.108L363.777 109.147C363.348 108.904 362.871 108.697 362.348 108.526C361.824 108.346 361.262 108.256 360.66 108.256C360.105 108.256 359.641 108.385 359.266 108.643C358.898 108.901 358.715 109.268 358.715 109.744C358.715 109.994 358.773 110.221 358.891 110.424C359.016 110.619 359.223 110.818 359.512 111.022C359.801 111.225 360.195 111.459 360.695 111.725C361.234 112.022 361.715 112.334 362.137 112.662C362.559 112.99 362.891 113.369 363.133 113.799C363.375 114.221 363.496 114.733 363.496 115.334C363.496 116.248 363.281 117.022 362.852 117.654C362.43 118.279 361.828 118.756 361.047 119.084C360.266 119.404 359.344 119.565 358.281 119.565ZM369.742 119.565C369.047 119.565 368.453 119.428 367.961 119.154C367.477 118.881 367.105 118.486 366.848 117.971C366.598 117.447 366.473 116.822 366.473 116.096C366.473 115.776 366.496 115.424 366.543 115.041C366.598 114.651 366.664 114.248 366.742 113.834L368.336 106.358H371.078L369.402 114.233C369.348 114.537 369.301 114.815 369.262 115.065C369.23 115.307 369.215 115.529 369.215 115.733C369.215 116.256 369.336 116.654 369.578 116.928C369.828 117.193 370.215 117.326 370.738 117.326C371.301 117.326 371.848 117.115 372.379 116.693C372.918 116.264 373.406 115.643 373.844 114.83C374.281 114.018 374.621 113.037 374.863 111.889L376.035 106.358H378.754L376.012 119.33H373.855L374.137 116.869H374.02C373.707 117.33 373.344 117.768 372.93 118.182C372.516 118.588 372.047 118.92 371.523 119.178C371 119.436 370.406 119.565 369.742 119.565ZM383.312 119.565C382.5 119.565 381.789 119.494 381.18 119.354C380.578 119.221 380.035 119.026 379.551 118.768V116.412C380.051 116.709 380.613 116.959 381.238 117.162C381.871 117.358 382.52 117.455 383.184 117.455C383.699 117.455 384.148 117.385 384.531 117.244C384.914 117.104 385.211 116.904 385.422 116.647C385.641 116.381 385.75 116.061 385.75 115.686C385.75 115.412 385.688 115.17 385.562 114.959C385.438 114.748 385.223 114.533 384.918 114.315C384.613 114.096 384.191 113.834 383.652 113.529C383.082 113.209 382.598 112.885 382.199 112.557C381.809 112.221 381.508 111.85 381.297 111.443C381.094 111.037 380.992 110.561 380.992 110.014C380.992 109.193 381.18 108.494 381.555 107.916C381.938 107.33 382.477 106.885 383.172 106.58C383.875 106.268 384.703 106.111 385.656 106.111C386.422 106.111 387.145 106.201 387.824 106.381C388.504 106.553 389.133 106.795 389.711 107.108L388.809 109.147C388.379 108.904 387.902 108.697 387.379 108.526C386.855 108.346 386.293 108.256 385.691 108.256C385.137 108.256 384.672 108.385 384.297 108.643C383.93 108.901 383.746 109.268 383.746 109.744C383.746 109.994 383.805 110.221 383.922 110.424C384.047 110.619 384.254 110.818 384.543 111.022C384.832 111.225 385.227 111.459 385.727 111.725C386.266 112.022 386.746 112.334 387.168 112.662C387.59 112.99 387.922 113.369 388.164 113.799C388.406 114.221 388.527 114.733 388.527 115.334C388.527 116.248 388.312 117.022 387.883 117.654C387.461 118.279 386.859 118.756 386.078 119.084C385.297 119.404 384.375 119.565 383.312 119.565ZM394.762 119.565C393.816 119.565 393.047 119.354 392.453 118.932C391.867 118.502 391.574 117.752 391.574 116.682C391.574 116.471 391.586 116.24 391.609 115.99C391.641 115.733 391.684 115.467 391.738 115.193L393.168 108.443H391.293L391.551 107.131L393.766 106.229L395.242 103.486H396.965L396.355 106.358H399.66L399.215 108.443H395.922L394.48 115.205C394.441 115.369 394.406 115.545 394.375 115.733C394.352 115.912 394.34 116.076 394.34 116.225C394.34 116.576 394.438 116.85 394.633 117.045C394.828 117.24 395.125 117.338 395.523 117.338C395.828 117.338 396.121 117.307 396.402 117.244C396.684 117.182 396.992 117.092 397.328 116.975V119.049C397.039 119.182 396.664 119.299 396.203 119.401C395.742 119.51 395.262 119.565 394.762 119.565ZM403.773 119.565C403.109 119.565 402.504 119.404 401.957 119.084C401.418 118.756 400.988 118.256 400.668 117.584C400.348 116.904 400.188 116.041 400.188 114.994C400.188 114.088 400.281 113.205 400.469 112.346C400.664 111.486 400.938 110.682 401.289 109.932C401.648 109.182 402.082 108.522 402.59 107.951C403.098 107.373 403.672 106.924 404.312 106.604C404.953 106.276 405.645 106.111 406.387 106.111C406.949 106.111 407.441 106.209 407.863 106.404C408.285 106.592 408.641 106.846 408.93 107.166C409.219 107.486 409.453 107.842 409.633 108.233H409.738L410.441 106.358H412.551L409.797 119.33H407.699L407.957 117.233H407.863C407.527 117.662 407.152 118.053 406.738 118.404C406.332 118.756 405.883 119.037 405.391 119.248C404.898 119.459 404.359 119.565 403.773 119.565ZM404.781 117.326C405.328 117.326 405.852 117.123 406.352 116.717C406.852 116.303 407.293 115.756 407.676 115.076C408.066 114.397 408.355 113.651 408.543 112.838C408.637 112.447 408.699 112.076 408.73 111.725C408.77 111.373 408.789 111.022 408.789 110.67C408.789 109.99 408.609 109.436 408.25 109.006C407.891 108.576 407.398 108.361 406.773 108.361C406.344 108.361 405.934 108.483 405.543 108.725C405.16 108.967 404.812 109.303 404.5 109.733C404.188 110.154 403.914 110.643 403.68 111.197C403.453 111.752 403.277 112.35 403.152 112.99C403.035 113.623 402.977 114.268 402.977 114.924C402.977 115.713 403.133 116.311 403.445 116.717C403.766 117.123 404.211 117.326 404.781 117.326ZM413.559 119.33L416.312 106.358H419.055L416.301 119.33H413.559ZM418.293 104.412C417.887 104.412 417.547 104.315 417.273 104.119C417 103.916 416.863 103.6 416.863 103.17C416.863 102.811 416.93 102.498 417.062 102.233C417.203 101.967 417.402 101.764 417.66 101.623C417.926 101.475 418.242 101.401 418.609 101.401C419.016 101.401 419.348 101.498 419.605 101.693C419.863 101.881 419.992 102.186 419.992 102.608C419.992 103.154 419.84 103.592 419.535 103.92C419.23 104.248 418.816 104.412 418.293 104.412ZM420.121 119.33L422.887 106.322H425.102L424.82 108.772H424.891C425.203 108.311 425.566 107.877 425.98 107.471C426.395 107.057 426.863 106.721 427.387 106.463C427.918 106.205 428.512 106.076 429.168 106.076C429.887 106.076 430.496 106.217 430.996 106.498C431.496 106.779 431.875 107.182 432.133 107.705C432.391 108.229 432.52 108.854 432.52 109.58C432.52 109.901 432.492 110.244 432.438 110.611C432.391 110.971 432.328 111.322 432.25 111.666L430.621 119.33H427.82L429.484 111.443C429.555 111.139 429.605 110.865 429.637 110.623C429.676 110.381 429.695 110.154 429.695 109.943C429.695 109.428 429.566 109.041 429.309 108.783C429.059 108.526 428.684 108.397 428.184 108.397C427.637 108.397 427.098 108.608 426.566 109.029C426.035 109.451 425.555 110.065 425.125 110.869C424.695 111.674 424.355 112.647 424.105 113.787L422.934 119.33H420.121ZM438.484 119.565C437.82 119.565 437.215 119.404 436.668 119.084C436.129 118.756 435.699 118.256 435.379 117.584C435.059 116.904 434.898 116.041 434.898 114.994C434.898 114.088 434.992 113.205 435.18 112.346C435.375 111.486 435.648 110.682 436 109.932C436.359 109.182 436.793 108.522 437.301 107.951C437.809 107.373 438.383 106.924 439.023 106.604C439.664 106.276 440.355 106.111 441.098 106.111C441.66 106.111 442.152 106.209 442.574 106.404C442.996 106.592 443.352 106.846 443.641 107.166C443.93 107.486 444.164 107.842 444.344 108.233H444.449L445.152 106.358H447.262L444.508 119.33H442.41L442.668 117.233H442.574C442.238 117.662 441.863 118.053 441.449 118.404C441.043 118.756 440.594 119.037 440.102 119.248C439.609 119.459 439.07 119.565 438.484 119.565ZM439.492 117.326C440.039 117.326 440.562 117.123 441.062 116.717C441.562 116.303 442.004 115.756 442.387 115.076C442.777 114.397 443.066 113.651 443.254 112.838C443.348 112.447 443.41 112.076 443.441 111.725C443.48 111.373 443.5 111.022 443.5 110.67C443.5 109.99 443.32 109.436 442.961 109.006C442.602 108.576 442.109 108.361 441.484 108.361C441.055 108.361 440.645 108.483 440.254 108.725C439.871 108.967 439.523 109.303 439.211 109.733C438.898 110.154 438.625 110.643 438.391 111.197C438.164 111.752 437.988 112.35 437.863 112.99C437.746 113.623 437.688 114.268 437.688 114.924C437.688 115.713 437.844 116.311 438.156 116.717C438.477 117.123 438.922 117.326 439.492 117.326ZM454.469 119.565C453.898 119.565 453.398 119.471 452.969 119.283C452.539 119.096 452.18 118.842 451.891 118.522C451.602 118.201 451.367 117.846 451.188 117.455H451.082L450.355 119.33H448.27L452.137 101.096H454.867L454.035 104.986C453.949 105.408 453.848 105.854 453.73 106.322C453.613 106.791 453.496 107.221 453.379 107.611C453.27 108.002 453.18 108.291 453.109 108.479H453.203C453.531 108.065 453.879 107.678 454.246 107.318C454.613 106.959 455.023 106.67 455.477 106.451C455.938 106.233 456.457 106.123 457.035 106.123C457.707 106.123 458.316 106.287 458.863 106.615C459.41 106.936 459.844 107.432 460.164 108.104C460.492 108.776 460.656 109.639 460.656 110.693C460.656 111.584 460.562 112.459 460.375 113.318C460.195 114.178 459.93 114.983 459.578 115.733C459.227 116.483 458.801 117.147 458.301 117.725C457.801 118.295 457.227 118.744 456.578 119.072C455.938 119.401 455.234 119.565 454.469 119.565ZM454.105 117.326C454.551 117.326 454.965 117.205 455.348 116.963C455.73 116.713 456.078 116.373 456.391 115.943C456.703 115.514 456.969 115.018 457.188 114.455C457.406 113.893 457.574 113.299 457.691 112.674C457.809 112.041 457.867 111.404 457.867 110.764C457.867 109.967 457.711 109.369 457.398 108.971C457.094 108.565 456.633 108.361 456.016 108.361C455.641 108.361 455.277 108.459 454.926 108.654C454.582 108.842 454.262 109.104 453.965 109.44C453.668 109.768 453.398 110.151 453.156 110.588C452.922 111.018 452.719 111.479 452.547 111.971C452.375 112.463 452.242 112.963 452.148 113.471C452.062 113.979 452.02 114.467 452.02 114.936C452.02 115.654 452.195 116.233 452.547 116.67C452.906 117.108 453.426 117.326 454.105 117.326ZM462.355 119.33L465.109 106.358H467.852L465.098 119.33H462.355ZM467.09 104.412C466.684 104.412 466.344 104.315 466.07 104.119C465.797 103.916 465.66 103.6 465.66 103.17C465.66 102.811 465.727 102.498 465.859 102.233C466 101.967 466.199 101.764 466.457 101.623C466.723 101.475 467.039 101.401 467.406 101.401C467.812 101.401 468.145 101.498 468.402 101.693C468.66 101.881 468.789 102.186 468.789 102.608C468.789 103.154 468.637 103.592 468.332 103.92C468.027 104.248 467.613 104.412 467.09 104.412ZM468.953 119.33L472.832 101.096H475.562L471.695 119.33H468.953ZM475.574 119.33L478.328 106.358H481.07L478.316 119.33H475.574ZM480.309 104.412C479.902 104.412 479.562 104.315 479.289 104.119C479.016 103.916 478.879 103.6 478.879 103.17C478.879 102.811 478.945 102.498 479.078 102.233C479.219 101.967 479.418 101.764 479.676 101.623C479.941 101.475 480.258 101.401 480.625 101.401C481.031 101.401 481.363 101.498 481.621 101.693C481.879 101.881 482.008 102.186 482.008 102.608C482.008 103.154 481.855 103.592 481.551 103.92C481.246 104.248 480.832 104.412 480.309 104.412ZM486.191 119.565C485.246 119.565 484.477 119.354 483.883 118.932C483.297 118.502 483.004 117.752 483.004 116.682C483.004 116.471 483.016 116.24 483.039 115.99C483.07 115.733 483.113 115.467 483.168 115.193L484.598 108.443H482.723L482.98 107.131L485.195 106.229L486.672 103.486H488.395L487.785 106.358H491.09L490.645 108.443H487.352L485.91 115.205C485.871 115.369 485.836 115.545 485.805 115.733C485.781 115.912 485.77 116.076 485.77 116.225C485.77 116.576 485.867 116.85 486.062 117.045C486.258 117.24 486.555 117.338 486.953 117.338C487.258 117.338 487.551 117.307 487.832 117.244C488.113 117.182 488.422 117.092 488.758 116.975V119.049C488.469 119.182 488.094 119.299 487.633 119.401C487.172 119.51 486.691 119.565 486.191 119.565ZM490.199 125.096C489.801 125.096 489.477 125.072 489.227 125.026C488.969 124.979 488.734 124.924 488.523 124.861V122.67C488.734 122.717 488.957 122.756 489.191 122.787C489.426 122.826 489.684 122.846 489.965 122.846C490.66 122.846 491.242 122.635 491.711 122.213C492.188 121.799 492.625 121.225 493.023 120.49L493.621 119.401L491.676 106.358H494.395L495.168 112.686C495.223 113.123 495.266 113.592 495.297 114.092C495.336 114.592 495.363 115.076 495.379 115.545C495.395 116.006 495.402 116.397 495.402 116.717H495.484C495.594 116.451 495.73 116.115 495.895 115.709C496.059 115.303 496.242 114.869 496.445 114.408C496.648 113.947 496.852 113.518 497.055 113.119L500.5 106.358H503.465L495.367 121.381C494.922 122.209 494.441 122.901 493.926 123.455C493.418 124.01 492.859 124.42 492.25 124.686C491.641 124.959 490.957 125.096 490.199 125.096ZM514.035 119.565C512.582 119.565 511.43 119.193 510.578 118.451C509.734 117.709 509.312 116.639 509.312 115.24C509.312 114.404 509.477 113.67 509.805 113.037C510.141 112.404 510.633 111.83 511.281 111.315C511.93 110.799 512.734 110.311 513.695 109.85C513.383 109.334 513.129 108.799 512.934 108.244C512.738 107.69 512.641 107.123 512.641 106.545C512.641 105.6 512.84 104.783 513.238 104.096C513.645 103.401 514.207 102.865 514.926 102.49C515.652 102.115 516.5 101.928 517.469 101.928C518.352 101.928 519.09 102.08 519.684 102.385C520.277 102.69 520.723 103.108 521.02 103.639C521.324 104.162 521.477 104.756 521.477 105.42C521.477 106.225 521.281 106.928 520.891 107.529C520.508 108.123 519.977 108.647 519.297 109.1C518.625 109.553 517.855 109.979 516.988 110.377L519.766 114.209C520.258 113.686 520.668 113.131 520.996 112.545C521.332 111.951 521.629 111.334 521.887 110.693H524.617C524.32 111.397 523.992 112.065 523.633 112.697C523.281 113.33 522.898 113.928 522.484 114.49C522.07 115.045 521.621 115.572 521.137 116.072L523.504 119.33H520.305L519.191 117.783C518.504 118.307 517.754 118.736 516.941 119.072C516.129 119.401 515.16 119.565 514.035 119.565ZM514.48 117.256C514.957 117.256 515.395 117.201 515.793 117.092C516.191 116.975 516.566 116.818 516.918 116.623C517.27 116.428 517.605 116.213 517.926 115.979L514.82 111.526C514.32 111.791 513.863 112.08 513.449 112.393C513.043 112.697 512.719 113.061 512.477 113.483C512.242 113.897 512.125 114.404 512.125 115.006C512.125 115.443 512.223 115.834 512.418 116.178C512.613 116.514 512.887 116.779 513.238 116.975C513.598 117.162 514.012 117.256 514.48 117.256ZM515.922 108.783C516.281 108.604 516.633 108.416 516.977 108.221C517.328 108.018 517.648 107.795 517.938 107.553C518.227 107.303 518.457 107.026 518.629 106.721C518.801 106.416 518.887 106.076 518.887 105.701C518.887 105.186 518.742 104.791 518.453 104.518C518.164 104.236 517.785 104.096 517.316 104.096C516.863 104.096 516.477 104.193 516.156 104.389C515.844 104.584 515.605 104.858 515.441 105.209C515.277 105.553 515.195 105.959 515.195 106.428C515.195 106.85 515.258 107.264 515.383 107.67C515.508 108.076 515.688 108.447 515.922 108.783ZM532.152 119.33L535.773 102.197H544.902L544.398 104.565H538.047L537.062 109.217H543.004L542.512 111.572H536.57L535.422 116.951H541.773L541.27 119.33H532.152ZM548.605 119.565C547.746 119.565 546.977 119.486 546.297 119.33C545.625 119.174 545.027 118.947 544.504 118.651V116.072C545.105 116.393 545.742 116.662 546.414 116.881C547.094 117.092 547.832 117.197 548.629 117.197C549.098 117.197 549.539 117.151 549.953 117.057C550.367 116.955 550.734 116.799 551.055 116.588C551.375 116.377 551.625 116.111 551.805 115.791C551.984 115.463 552.074 115.076 552.074 114.631C552.074 114.178 551.98 113.787 551.793 113.459C551.605 113.131 551.328 112.822 550.961 112.533C550.594 112.236 550.133 111.916 549.578 111.572C549.047 111.229 548.551 110.85 548.09 110.436C547.629 110.022 547.258 109.541 546.977 108.994C546.695 108.44 546.555 107.783 546.555 107.026C546.555 106.244 546.695 105.541 546.977 104.916C547.266 104.291 547.668 103.76 548.184 103.322C548.707 102.877 549.316 102.537 550.012 102.303C550.715 102.068 551.477 101.951 552.297 101.951C553.188 101.951 553.988 102.045 554.699 102.233C555.41 102.412 556.098 102.678 556.762 103.029L555.742 105.233C555.219 104.975 554.664 104.764 554.078 104.6C553.5 104.428 552.906 104.342 552.297 104.342C551.891 104.342 551.512 104.397 551.16 104.506C550.816 104.615 550.516 104.776 550.258 104.986C550 105.197 549.797 105.459 549.648 105.772C549.508 106.076 549.438 106.428 549.438 106.826C549.438 107.279 549.527 107.662 549.707 107.975C549.887 108.287 550.148 108.576 550.492 108.842C550.836 109.1 551.254 109.381 551.746 109.686C552.41 110.1 552.98 110.526 553.457 110.963C553.934 111.401 554.297 111.889 554.547 112.428C554.797 112.967 554.922 113.604 554.922 114.338C554.922 115.221 554.762 115.99 554.441 116.647C554.129 117.295 553.684 117.838 553.105 118.276C552.535 118.705 551.867 119.029 551.102 119.248C550.336 119.459 549.504 119.565 548.605 119.565ZM564.449 119.565C562.441 119.565 560.875 118.998 559.75 117.865C558.625 116.725 558.062 115.1 558.062 112.99C558.062 111.779 558.203 110.623 558.484 109.522C558.766 108.412 559.176 107.397 559.715 106.475C560.254 105.553 560.914 104.752 561.695 104.072C562.484 103.393 563.379 102.869 564.379 102.502C565.387 102.127 566.492 101.94 567.695 101.94C568.648 101.94 569.512 102.033 570.285 102.221C571.066 102.401 571.828 102.666 572.57 103.018L571.516 105.361C570.93 105.065 570.316 104.822 569.676 104.635C569.035 104.447 568.344 104.354 567.602 104.354C566.57 104.354 565.645 104.58 564.824 105.033C564.004 105.479 563.301 106.092 562.715 106.873C562.137 107.654 561.695 108.553 561.391 109.568C561.086 110.584 560.934 111.658 560.934 112.791C560.934 113.682 561.074 114.455 561.355 115.111C561.637 115.768 562.074 116.276 562.668 116.635C563.262 116.986 564.016 117.162 564.93 117.162C565.445 117.162 565.91 117.127 566.324 117.057C566.746 116.979 567.137 116.889 567.496 116.787L568.457 112.416H565.129L565.645 110.037H571.691L569.84 118.651C569.09 118.916 568.289 119.135 567.438 119.307C566.594 119.479 565.598 119.565 564.449 119.565ZM354.871 152.33L357.625 139.358H359.77L359.488 141.807H359.617C359.953 141.307 360.316 140.854 360.707 140.447C361.105 140.041 361.547 139.717 362.031 139.475C362.516 139.233 363.055 139.111 363.648 139.111C363.859 139.111 364.078 139.127 364.305 139.158C364.539 139.182 364.742 139.217 364.914 139.264L364.316 141.842C364.145 141.795 363.957 141.756 363.754 141.725C363.551 141.693 363.336 141.678 363.109 141.678C362.594 141.678 362.109 141.799 361.656 142.041C361.203 142.283 360.793 142.619 360.426 143.049C360.059 143.479 359.742 143.983 359.477 144.561C359.211 145.131 359.004 145.752 358.855 146.424L357.613 152.33H354.871ZM370.141 152.565C369.148 152.565 368.281 152.377 367.539 152.002C366.805 151.619 366.234 151.061 365.828 150.326C365.43 149.584 365.23 148.678 365.23 147.608C365.23 146.545 365.383 145.51 365.688 144.502C365.992 143.486 366.441 142.572 367.035 141.76C367.629 140.947 368.352 140.303 369.203 139.826C370.055 139.35 371.023 139.111 372.109 139.111C373.438 139.111 374.434 139.412 375.098 140.014C375.77 140.608 376.105 141.397 376.105 142.381C376.105 143.053 375.953 143.666 375.648 144.221C375.344 144.776 374.879 145.256 374.254 145.662C373.637 146.061 372.852 146.369 371.898 146.588C370.953 146.807 369.84 146.916 368.559 146.916H368.031C368.023 147.033 368.016 147.154 368.008 147.279C368 147.397 367.996 147.514 367.996 147.631C367.996 148.498 368.223 149.182 368.676 149.682C369.129 150.174 369.789 150.42 370.656 150.42C371.312 150.42 371.918 150.338 372.473 150.174C373.027 150.01 373.648 149.764 374.336 149.436V151.604C373.703 151.908 373.062 152.147 372.414 152.318C371.766 152.483 371.008 152.565 370.141 152.565ZM368.371 144.924H368.77C369.723 144.924 370.551 144.834 371.254 144.654C371.957 144.467 372.5 144.193 372.883 143.834C373.266 143.467 373.457 143.022 373.457 142.498C373.457 142.092 373.328 141.776 373.07 141.549C372.82 141.315 372.445 141.197 371.945 141.197C371.453 141.197 370.969 141.35 370.492 141.654C370.016 141.951 369.59 142.381 369.215 142.943C368.84 143.498 368.559 144.158 368.371 144.924ZM376.129 158.084L380.102 139.358H382.246L381.988 141.596H382.082C382.402 141.166 382.762 140.764 383.16 140.389C383.559 140.014 384.004 139.709 384.496 139.475C384.996 139.24 385.543 139.123 386.137 139.123C386.801 139.123 387.402 139.287 387.941 139.615C388.488 139.936 388.922 140.436 389.242 141.115C389.57 141.787 389.734 142.654 389.734 143.717C389.734 144.608 389.641 145.483 389.453 146.342C389.273 147.193 389.008 147.994 388.656 148.744C388.305 149.494 387.875 150.158 387.367 150.736C386.867 151.307 386.297 151.756 385.656 152.084C385.016 152.404 384.312 152.565 383.547 152.565C382.984 152.565 382.5 152.471 382.094 152.283C381.695 152.088 381.359 151.83 381.086 151.51C380.812 151.19 380.582 150.838 380.395 150.455H380.289C380.25 150.916 380.195 151.397 380.125 151.897C380.055 152.397 379.969 152.873 379.867 153.326L378.859 158.084H376.129ZM383.184 150.326C383.629 150.326 384.043 150.205 384.426 149.963C384.809 149.713 385.156 149.373 385.469 148.943C385.781 148.514 386.047 148.018 386.266 147.455C386.484 146.893 386.652 146.299 386.77 145.674C386.887 145.041 386.945 144.404 386.945 143.764C386.945 142.967 386.789 142.369 386.477 141.971C386.172 141.565 385.711 141.361 385.094 141.361C384.719 141.361 384.359 141.459 384.016 141.654C383.672 141.842 383.352 142.1 383.055 142.428C382.758 142.756 382.488 143.139 382.246 143.576C382.004 144.006 381.797 144.467 381.625 144.959C381.453 145.451 381.32 145.951 381.227 146.459C381.141 146.967 381.098 147.459 381.098 147.936C381.098 148.654 381.273 149.233 381.625 149.67C381.984 150.108 382.504 150.326 383.184 150.326ZM396.871 152.541C395.887 152.541 395.027 152.338 394.293 151.932C393.559 151.526 392.988 150.951 392.582 150.209C392.184 149.459 391.984 148.572 391.984 147.549C391.984 146.682 392.074 145.838 392.254 145.018C392.441 144.197 392.715 143.432 393.074 142.721C393.434 142.01 393.883 141.389 394.422 140.858C394.961 140.318 395.586 139.901 396.297 139.604C397.008 139.299 397.805 139.147 398.688 139.147C399.695 139.147 400.562 139.35 401.289 139.756C402.016 140.162 402.574 140.744 402.965 141.502C403.355 142.26 403.551 143.166 403.551 144.221C403.551 145.065 403.461 145.889 403.281 146.693C403.109 147.498 402.848 148.256 402.496 148.967C402.145 149.67 401.699 150.291 401.16 150.83C400.629 151.361 400.004 151.779 399.285 152.084C398.574 152.389 397.77 152.541 396.871 152.541ZM397.07 150.291C397.508 150.291 397.914 150.193 398.289 149.998C398.672 149.795 399.016 149.51 399.32 149.143C399.625 148.768 399.883 148.326 400.094 147.818C400.312 147.303 400.48 146.733 400.598 146.108C400.715 145.483 400.773 144.815 400.773 144.104C400.773 143.627 400.703 143.186 400.562 142.779C400.422 142.365 400.188 142.033 399.859 141.783C399.539 141.526 399.109 141.397 398.57 141.397C398.086 141.397 397.641 141.514 397.234 141.748C396.836 141.975 396.48 142.291 396.168 142.697C395.863 143.104 395.605 143.572 395.395 144.104C395.184 144.627 395.023 145.19 394.914 145.791C394.805 146.385 394.75 146.986 394.75 147.596C394.75 148.463 394.945 149.131 395.336 149.6C395.734 150.061 396.312 150.291 397.07 150.291ZM405.215 152.33L407.969 139.358H410.113L409.832 141.807H409.961C410.297 141.307 410.66 140.854 411.051 140.447C411.449 140.041 411.891 139.717 412.375 139.475C412.859 139.233 413.398 139.111 413.992 139.111C414.203 139.111 414.422 139.127 414.648 139.158C414.883 139.182 415.086 139.217 415.258 139.264L414.66 141.842C414.488 141.795 414.301 141.756 414.098 141.725C413.895 141.693 413.68 141.678 413.453 141.678C412.938 141.678 412.453 141.799 412 142.041C411.547 142.283 411.137 142.619 410.77 143.049C410.402 143.479 410.086 143.983 409.82 144.561C409.555 145.131 409.348 145.752 409.199 146.424L407.957 152.33H405.215ZM419.02 152.565C418.074 152.565 417.305 152.354 416.711 151.932C416.125 151.502 415.832 150.752 415.832 149.682C415.832 149.471 415.844 149.24 415.867 148.99C415.898 148.733 415.941 148.467 415.996 148.193L417.426 141.443H415.551L415.809 140.131L418.023 139.229L419.5 136.486H421.223L420.613 139.358H423.918L423.473 141.443H420.18L418.738 148.205C418.699 148.369 418.664 148.545 418.633 148.733C418.609 148.912 418.598 149.076 418.598 149.225C418.598 149.576 418.695 149.85 418.891 150.045C419.086 150.24 419.383 150.338 419.781 150.338C420.086 150.338 420.379 150.307 420.66 150.244C420.941 150.182 421.25 150.092 421.586 149.975V152.049C421.297 152.182 420.922 152.299 420.461 152.401C420 152.51 419.52 152.565 419.02 152.565ZM423.895 152.33L426.648 139.358H429.391L426.637 152.33H423.895ZM428.629 137.412C428.223 137.412 427.883 137.315 427.609 137.119C427.336 136.916 427.199 136.6 427.199 136.17C427.199 135.811 427.266 135.498 427.398 135.233C427.539 134.967 427.738 134.764 427.996 134.623C428.262 134.475 428.578 134.401 428.945 134.401C429.352 134.401 429.684 134.498 429.941 134.693C430.199 134.881 430.328 135.186 430.328 135.608C430.328 136.154 430.176 136.592 429.871 136.92C429.566 137.248 429.152 137.412 428.629 137.412ZM430.457 152.33L433.223 139.322H435.438L435.156 141.772H435.227C435.539 141.311 435.902 140.877 436.316 140.471C436.73 140.057 437.199 139.721 437.723 139.463C438.254 139.205 438.848 139.076 439.504 139.076C440.223 139.076 440.832 139.217 441.332 139.498C441.832 139.779 442.211 140.182 442.469 140.705C442.727 141.229 442.855 141.854 442.855 142.58C442.855 142.901 442.828 143.244 442.773 143.611C442.727 143.971 442.664 144.322 442.586 144.666L440.957 152.33H438.156L439.82 144.443C439.891 144.139 439.941 143.865 439.973 143.623C440.012 143.381 440.031 143.154 440.031 142.943C440.031 142.428 439.902 142.041 439.645 141.783C439.395 141.526 439.02 141.397 438.52 141.397C437.973 141.397 437.434 141.608 436.902 142.029C436.371 142.451 435.891 143.065 435.461 143.869C435.031 144.674 434.691 145.647 434.441 146.787L433.27 152.33H430.457ZM447.895 158.096C446.324 158.096 445.098 157.803 444.215 157.217C443.34 156.639 442.902 155.83 442.902 154.791C442.902 153.979 443.18 153.276 443.734 152.682C444.281 152.088 445.152 151.592 446.348 151.193C446.051 151.029 445.828 150.822 445.68 150.572C445.531 150.322 445.457 150.033 445.457 149.705C445.457 149.166 445.641 148.701 446.008 148.311C446.383 147.912 446.945 147.537 447.695 147.186C447.188 146.865 446.797 146.459 446.523 145.967C446.25 145.467 446.113 144.881 446.113 144.209C446.121 143.443 446.246 142.748 446.488 142.123C446.738 141.498 447.094 140.963 447.555 140.518C448.008 140.072 448.555 139.729 449.195 139.486C449.836 139.244 450.547 139.123 451.328 139.123C451.641 139.123 451.953 139.147 452.266 139.193C452.578 139.233 452.887 139.295 453.191 139.381H457.668L457.328 140.94L455.031 141.315C455.156 141.533 455.246 141.783 455.301 142.065C455.363 142.346 455.395 142.651 455.395 142.979C455.395 143.729 455.27 144.408 455.02 145.018C454.777 145.619 454.43 146.135 453.977 146.565C453.539 146.986 453.004 147.311 452.371 147.537C451.746 147.756 451.043 147.869 450.262 147.877C450.043 147.877 449.844 147.869 449.664 147.854C449.484 147.83 449.324 147.803 449.184 147.772C448.738 147.92 448.406 148.104 448.188 148.322C447.969 148.533 447.859 148.764 447.859 149.014C447.859 149.217 447.922 149.381 448.047 149.506C448.164 149.615 448.328 149.701 448.539 149.764C448.75 149.818 449.012 149.865 449.324 149.904L450.824 150.092C451.715 150.201 452.441 150.385 453.004 150.643C453.574 150.901 453.992 151.248 454.258 151.686C454.531 152.115 454.668 152.651 454.668 153.291C454.668 154.135 454.488 154.869 454.129 155.494C453.777 156.119 453.262 156.635 452.582 157.041C452.012 157.385 451.332 157.647 450.543 157.826C449.754 158.006 448.871 158.096 447.895 158.096ZM448.035 156.186C448.715 156.186 449.312 156.127 449.828 156.01C450.352 155.893 450.785 155.721 451.129 155.494C451.457 155.283 451.707 155.029 451.879 154.733C452.051 154.436 452.137 154.096 452.137 153.713C452.137 153.541 452.109 153.389 452.055 153.256C452.008 153.131 451.934 153.018 451.832 152.916C451.645 152.729 451.387 152.584 451.059 152.483C450.73 152.381 450.32 152.303 449.828 152.248L448.094 152.061C447.492 152.17 446.984 152.338 446.57 152.565C446.164 152.791 445.855 153.065 445.645 153.385C445.441 153.713 445.34 154.08 445.34 154.486C445.34 155.033 445.566 155.451 446.02 155.74C446.473 156.037 447.145 156.186 448.035 156.186ZM450.309 146.108C450.84 146.108 451.297 145.955 451.68 145.651C452.062 145.338 452.355 144.924 452.559 144.408C452.77 143.885 452.875 143.303 452.875 142.662C452.875 142.365 452.836 142.108 452.758 141.889C452.688 141.67 452.578 141.49 452.43 141.35C452.297 141.209 452.129 141.104 451.926 141.033C451.73 140.963 451.504 140.928 451.246 140.928C450.848 140.928 450.488 141.018 450.168 141.197C449.855 141.369 449.586 141.611 449.359 141.924C449.141 142.229 448.969 142.588 448.844 143.002C448.727 143.416 448.668 143.861 448.668 144.338C448.668 144.572 448.691 144.783 448.738 144.971C448.793 145.158 448.871 145.322 448.973 145.463C449.238 145.893 449.684 146.108 450.309 146.108ZM463.645 152.33L466.398 139.358H469.141L466.387 152.33H463.645ZM468.379 137.412C467.973 137.412 467.633 137.315 467.359 137.119C467.086 136.916 466.949 136.6 466.949 136.17C466.949 135.811 467.016 135.498 467.148 135.233C467.289 134.967 467.488 134.764 467.746 134.623C468.012 134.475 468.328 134.401 468.695 134.401C469.102 134.401 469.434 134.498 469.691 134.693C469.949 134.881 470.078 135.186 470.078 135.608C470.078 136.154 469.926 136.592 469.621 136.92C469.316 137.248 468.902 137.412 468.379 137.412ZM470.207 152.33L472.973 139.322H475.188L474.906 141.772H474.977C475.289 141.311 475.652 140.877 476.066 140.471C476.48 140.057 476.949 139.721 477.473 139.463C478.004 139.205 478.598 139.076 479.254 139.076C479.973 139.076 480.582 139.217 481.082 139.498C481.582 139.779 481.961 140.182 482.219 140.705C482.477 141.229 482.605 141.854 482.605 142.58C482.605 142.901 482.578 143.244 482.523 143.611C482.477 143.971 482.414 144.322 482.336 144.666L480.707 152.33H477.906L479.57 144.443C479.641 144.139 479.691 143.865 479.723 143.623C479.762 143.381 479.781 143.154 479.781 142.943C479.781 142.428 479.652 142.041 479.395 141.783C479.145 141.526 478.77 141.397 478.27 141.397C477.723 141.397 477.184 141.608 476.652 142.029C476.121 142.451 475.641 143.065 475.211 143.869C474.781 144.674 474.441 145.647 474.191 146.787L473.02 152.33H470.207ZM490.668 152.33L493.422 139.358H495.566L495.285 141.807H495.402C495.707 141.346 496.059 140.912 496.457 140.506C496.863 140.092 497.32 139.756 497.828 139.498C498.344 139.24 498.922 139.111 499.562 139.111C500.469 139.111 501.16 139.361 501.637 139.861C502.121 140.361 502.422 141.045 502.539 141.912H502.633C502.953 141.412 503.324 140.951 503.746 140.529C504.176 140.108 504.656 139.768 505.188 139.51C505.727 139.244 506.312 139.111 506.945 139.111C507.992 139.111 508.785 139.416 509.324 140.026C509.863 140.635 510.133 141.486 510.133 142.58C510.133 142.908 510.109 143.244 510.062 143.588C510.023 143.932 509.961 144.287 509.875 144.654L508.258 152.33H505.516L507.191 144.455C507.254 144.151 507.301 143.877 507.332 143.635C507.371 143.385 507.391 143.151 507.391 142.932C507.391 142.424 507.27 142.037 507.027 141.772C506.793 141.498 506.434 141.361 505.949 141.361C505.543 141.361 505.141 141.483 504.742 141.725C504.352 141.967 503.98 142.318 503.629 142.779C503.277 143.24 502.965 143.799 502.691 144.455C502.418 145.104 502.195 145.838 502.023 146.658L500.828 152.33H498.098L499.75 144.479C499.82 144.166 499.871 143.885 499.902 143.635C499.934 143.385 499.949 143.166 499.949 142.979C499.949 142.455 499.836 142.057 499.609 141.783C499.391 141.502 499.039 141.361 498.555 141.361C498.148 141.361 497.746 141.483 497.348 141.725C496.949 141.967 496.574 142.322 496.223 142.791C495.871 143.26 495.555 143.83 495.273 144.502C494.992 145.166 494.762 145.928 494.582 146.787L493.41 152.33H490.668ZM511.996 152.33L514.75 139.358H517.492L514.738 152.33H511.996ZM516.73 137.412C516.324 137.412 515.984 137.315 515.711 137.119C515.438 136.916 515.301 136.6 515.301 136.17C515.301 135.811 515.367 135.498 515.5 135.233C515.641 134.967 515.84 134.764 516.098 134.623C516.363 134.475 516.68 134.401 517.047 134.401C517.453 134.401 517.785 134.498 518.043 134.693C518.301 134.881 518.43 135.186 518.43 135.608C518.43 136.154 518.277 136.592 517.973 136.92C517.668 137.248 517.254 137.412 516.73 137.412ZM518.559 152.33L521.324 139.322H523.539L523.258 141.772H523.328C523.641 141.311 524.004 140.877 524.418 140.471C524.832 140.057 525.301 139.721 525.824 139.463C526.355 139.205 526.949 139.076 527.605 139.076C528.324 139.076 528.934 139.217 529.434 139.498C529.934 139.779 530.312 140.182 530.57 140.705C530.828 141.229 530.957 141.854 530.957 142.58C530.957 142.901 530.93 143.244 530.875 143.611C530.828 143.971 530.766 144.322 530.688 144.666L529.059 152.33H526.258L527.922 144.443C527.992 144.139 528.043 143.865 528.074 143.623C528.113 143.381 528.133 143.154 528.133 142.943C528.133 142.428 528.004 142.041 527.746 141.783C527.496 141.526 527.121 141.397 526.621 141.397C526.074 141.397 525.535 141.608 525.004 142.029C524.473 142.451 523.992 143.065 523.562 143.869C523.133 144.674 522.793 145.647 522.543 146.787L521.371 152.33H518.559ZM536.805 152.565C536.109 152.565 535.516 152.428 535.023 152.154C534.539 151.881 534.168 151.486 533.91 150.971C533.66 150.447 533.535 149.822 533.535 149.096C533.535 148.776 533.559 148.424 533.605 148.041C533.66 147.651 533.727 147.248 533.805 146.834L535.398 139.358H538.141L536.465 147.233C536.41 147.537 536.363 147.815 536.324 148.065C536.293 148.307 536.277 148.529 536.277 148.733C536.277 149.256 536.398 149.654 536.641 149.928C536.891 150.193 537.277 150.326 537.801 150.326C538.363 150.326 538.91 150.115 539.441 149.693C539.98 149.264 540.469 148.643 540.906 147.83C541.344 147.018 541.684 146.037 541.926 144.889L543.098 139.358H545.816L543.074 152.33H540.918L541.199 149.869H541.082C540.77 150.33 540.406 150.768 539.992 151.182C539.578 151.588 539.109 151.92 538.586 152.178C538.062 152.436 537.469 152.565 536.805 152.565ZM550.973 152.565C550.027 152.565 549.258 152.354 548.664 151.932C548.078 151.502 547.785 150.752 547.785 149.682C547.785 149.471 547.797 149.24 547.82 148.99C547.852 148.733 547.895 148.467 547.949 148.193L549.379 141.443H547.504L547.762 140.131L549.977 139.229L551.453 136.486H553.176L552.566 139.358H555.871L555.426 141.443H552.133L550.691 148.205C550.652 148.369 550.617 148.545 550.586 148.733C550.562 148.912 550.551 149.076 550.551 149.225C550.551 149.576 550.648 149.85 550.844 150.045C551.039 150.24 551.336 150.338 551.734 150.338C552.039 150.338 552.332 150.307 552.613 150.244C552.895 150.182 553.203 150.092 553.539 149.975V152.049C553.25 152.182 552.875 152.299 552.414 152.401C551.953 152.51 551.473 152.565 550.973 152.565ZM561.32 152.565C560.328 152.565 559.461 152.377 558.719 152.002C557.984 151.619 557.414 151.061 557.008 150.326C556.609 149.584 556.41 148.678 556.41 147.608C556.41 146.545 556.562 145.51 556.867 144.502C557.172 143.486 557.621 142.572 558.215 141.76C558.809 140.947 559.531 140.303 560.383 139.826C561.234 139.35 562.203 139.111 563.289 139.111C564.617 139.111 565.613 139.412 566.277 140.014C566.949 140.608 567.285 141.397 567.285 142.381C567.285 143.053 567.133 143.666 566.828 144.221C566.523 144.776 566.059 145.256 565.434 145.662C564.816 146.061 564.031 146.369 563.078 146.588C562.133 146.807 561.02 146.916 559.738 146.916H559.211C559.203 147.033 559.195 147.154 559.188 147.279C559.18 147.397 559.176 147.514 559.176 147.631C559.176 148.498 559.402 149.182 559.855 149.682C560.309 150.174 560.969 150.42 561.836 150.42C562.492 150.42 563.098 150.338 563.652 150.174C564.207 150.01 564.828 149.764 565.516 149.436V151.604C564.883 151.908 564.242 152.147 563.594 152.318C562.945 152.483 562.188 152.565 561.32 152.565ZM559.551 144.924H559.949C560.902 144.924 561.73 144.834 562.434 144.654C563.137 144.467 563.68 144.193 564.062 143.834C564.445 143.467 564.637 143.022 564.637 142.498C564.637 142.092 564.508 141.776 564.25 141.549C564 141.315 563.625 141.197 563.125 141.197C562.633 141.197 562.148 141.35 561.672 141.654C561.195 141.951 560.77 142.381 560.395 142.943C560.02 143.498 559.738 144.158 559.551 144.924ZM571.938 152.565C571.125 152.565 570.414 152.494 569.805 152.354C569.203 152.221 568.66 152.026 568.176 151.768V149.412C568.676 149.709 569.238 149.959 569.863 150.162C570.496 150.358 571.145 150.455 571.809 150.455C572.324 150.455 572.773 150.385 573.156 150.244C573.539 150.104 573.836 149.904 574.047 149.647C574.266 149.381 574.375 149.061 574.375 148.686C574.375 148.412 574.312 148.17 574.188 147.959C574.062 147.748 573.848 147.533 573.543 147.315C573.238 147.096 572.816 146.834 572.277 146.529C571.707 146.209 571.223 145.885 570.824 145.557C570.434 145.221 570.133 144.85 569.922 144.443C569.719 144.037 569.617 143.561 569.617 143.014C569.617 142.193 569.805 141.494 570.18 140.916C570.562 140.33 571.102 139.885 571.797 139.58C572.5 139.268 573.328 139.111 574.281 139.111C575.047 139.111 575.77 139.201 576.449 139.381C577.129 139.553 577.758 139.795 578.336 140.108L577.434 142.147C577.004 141.904 576.527 141.697 576.004 141.526C575.48 141.346 574.918 141.256 574.316 141.256C573.762 141.256 573.297 141.385 572.922 141.643C572.555 141.901 572.371 142.268 572.371 142.744C572.371 142.994 572.43 143.221 572.547 143.424C572.672 143.619 572.879 143.818 573.168 144.022C573.457 144.225 573.852 144.459 574.352 144.725C574.891 145.022 575.371 145.334 575.793 145.662C576.215 145.99 576.547 146.369 576.789 146.799C577.031 147.221 577.152 147.733 577.152 148.334C577.152 149.248 576.938 150.022 576.508 150.654C576.086 151.279 575.484 151.756 574.703 152.084C573.922 152.404 573 152.565 571.938 152.565ZM580.715 152.647C580.199 152.647 579.82 152.51 579.578 152.236C579.344 151.963 579.227 151.627 579.227 151.229C579.227 150.69 579.383 150.205 579.695 149.776C580.016 149.346 580.543 149.131 581.277 149.131C581.707 149.131 582.051 149.256 582.309 149.506C582.574 149.756 582.707 150.111 582.707 150.572C582.707 151.135 582.531 151.623 582.18 152.037C581.836 152.443 581.348 152.647 580.715 152.647Z" fill="#EDF8E6"/>
<defs>
<linearGradient id="paint0_linear_245_1362" x1="-54.4508" y1="-23.7927" x2="229.818" y2="355.405" gradientUnits="userSpaceOnUse">
<stop stop-color="#28F17C"/>
<stop offset="1" stop-color="#ECFF38"/>
</linearGradient>
<linearGradient id="paint1_linear_245_1362" x1="-54.4508" y1="-23.7927" x2="229.818" y2="355.405" gradientUnits="userSpaceOnUse">
<stop stop-color="#28F17C"/>
<stop offset="1" stop-color="#ECFF38"/>
</linearGradient>
<clipPath id="clip0_245_1362">
<rect width="81" height="18" fill="white" transform="translate(223 103.509)"/>
</clipPath>
</defs>
</svg>
