<svg width="661" height="217" viewBox="0 0 661 217" fill="none" xmlns="http://www.w3.org/2000/svg">
<path d="M575.57 74.1475L575.568 75.9547L577.1 74.9969C585.785 69.5697 594.79 64.9172 604.565 62.4575C633.704 55.1265 660.388 76.9384 659.669 107.15C659.439 116.85 656.815 125.2 651.853 131.561C646.9 137.911 639.557 142.357 629.734 144.157C618.215 146.267 606.183 143.968 595.189 139.551C589.103 137.102 583.289 134.032 577.597 130.676L576.057 129.768L576.09 131.556C576.48 153.312 577.05 173.69 577.649 188.797C577.949 196.35 578.257 202.592 578.554 207.033C578.702 209.252 578.849 211.033 578.992 212.306C579.051 212.832 579.111 213.283 579.171 213.648C578.925 213.683 578.626 213.719 578.273 213.756C577.083 213.879 575.363 213.996 573.162 214.107C568.765 214.329 562.503 214.523 554.848 214.689C539.945 215.012 519.791 215.227 497.898 215.333C502.064 208.443 505.96 201.355 508.95 193.828C513.439 182.538 515.838 170.027 513.648 157.94C511.779 147.628 507.129 139.776 500.378 134.449C493.637 129.13 484.881 126.391 474.899 126.152C443.541 125.397 420.815 153.482 428.438 184.13C431.246 195.419 436.824 205.648 443.061 215.378C418.687 215.303 395.636 215.1 378.436 214.77C369.619 214.601 362.346 214.398 357.224 214.162C354.661 214.044 352.649 213.918 351.255 213.785C350.555 213.719 350.033 213.652 349.682 213.588C349.661 213.584 349.641 213.581 349.623 213.577C349.609 213.506 349.594 213.424 349.578 213.331C349.505 212.894 349.427 212.271 349.345 211.462C349.183 209.848 349.013 207.558 348.84 204.677C348.495 198.919 348.138 190.845 347.799 181.203C347.121 161.923 346.514 136.401 346.209 110.669C345.903 84.9348 345.899 59.0008 346.424 38.8934C346.687 28.8375 347.082 20.2537 347.635 13.8861C347.913 10.7003 348.228 8.08861 348.582 6.13274C348.76 5.15421 348.944 4.35781 349.132 3.74435C349.252 3.35165 349.365 3.06447 349.463 2.86322C349.527 2.85538 349.601 2.84711 349.686 2.83854C350.13 2.79405 350.787 2.74958 351.655 2.70592C353.386 2.61885 355.898 2.53759 359.088 2.46242C365.463 2.31213 374.513 2.1868 385.348 2.08651C407.016 1.88594 435.81 1.78564 464.605 1.78564C493.401 1.78564 522.195 1.88594 543.863 2.08651C554.698 2.1868 563.747 2.31213 570.123 2.46242C573.312 2.53759 575.825 2.61885 577.555 2.70592C578.085 2.73255 578.536 2.75948 578.908 2.78653C578.741 3.26862 578.594 3.81512 578.46 4.40303C578.157 5.73062 577.886 7.4353 577.642 9.46302C577.155 13.5216 576.768 18.9542 576.466 25.418C575.862 38.3502 575.597 55.479 575.57 74.1475ZM349.695 213.876C349.697 213.88 349.698 213.883 349.698 213.883C349.698 213.884 349.697 213.881 349.695 213.876Z" fill="url(#paint0_linear_247_1846)" stroke="url(#paint1_linear_247_1846)" stroke-width="2"/>
<path d="M365.872 107.517L365.873 107.518C365.982 108.109 366.172 108.592 366.457 108.951C366.744 109.315 367.119 109.54 367.57 109.626C367.651 109.644 367.727 109.631 367.785 109.614C367.846 109.595 367.906 109.565 367.963 109.531C368.076 109.463 368.204 109.362 368.344 109.234C368.659 108.948 368.833 108.6 368.833 108.199C368.833 107.962 368.774 107.71 368.67 107.436C367.813 104.988 366.979 101.863 366.155 98.0927C366.07 97.431 365.984 96.7798 365.885 96.1158L365.885 96.1158L365.884 96.1088C365.742 95.3116 365.44 94.6576 364.924 94.2249C364.705 94.0376 364.438 93.944 364.159 93.944C363.977 93.944 363.805 93.9767 363.658 94.0584C363.506 94.1422 363.396 94.2685 363.327 94.425L363.327 94.4249L363.324 94.4307C362.9 95.4543 362.416 96.931 361.885 98.8311C361.256 101.025 360.803 102.518 360.511 103.308L360.506 103.322C360.503 103.324 360.499 103.327 360.494 103.33C360.452 103.353 360.376 103.381 360.247 103.41L360.247 103.41L360.244 103.411C360.111 103.442 359.988 103.477 359.884 103.52C359.783 103.562 359.673 103.624 359.597 103.725C359.514 103.836 359.436 103.965 359.436 104.134C359.436 104.271 359.509 104.387 359.576 104.468C359.648 104.556 359.747 104.646 359.865 104.738L359.865 104.738L359.87 104.742C360.088 104.902 360.091 104.989 360.09 105L360.339 105.021L360.09 104.996C360.045 105.448 359.788 106.254 359.306 107.44L359.306 107.441C358.894 108.477 358.705 109.345 358.759 110.017L358.759 110.017L358.76 110.027C358.816 110.49 359.232 110.783 359.781 110.962L359.781 110.962L359.788 110.964C360.02 111.032 360.248 111.057 360.452 110.998C360.669 110.935 360.826 110.786 360.915 110.575C361.181 109.94 361.456 109.038 361.729 107.849C362.011 106.635 362.236 105.781 362.402 105.279C362.706 105.038 363.129 104.88 363.694 104.801C363.969 104.777 364.241 104.753 364.512 104.728L364.514 104.728C364.725 104.709 364.936 104.69 365.149 104.671C365.423 105.438 365.668 106.395 365.872 107.517ZM364.082 99.8688C364.168 100.231 364.257 100.594 364.347 100.951C364.481 101.571 364.579 102.142 364.635 102.653C364.018 102.655 363.542 102.667 363.214 102.689C363.473 101.747 363.762 100.81 364.082 99.8688Z" fill="#132F02" stroke="#132F02" stroke-width="0.5"/>
<path d="M384.642 94.0594L384.647 94.0115L384.634 93.9651C384.564 93.722 384.396 93.5358 384.163 93.4724L384.163 93.4723L384.158 93.471C384.148 93.4686 384.134 93.4645 384.112 93.458C384.09 93.4515 384.06 93.4425 384.017 93.4301C383.939 93.4079 383.835 93.3795 383.703 93.348C383.503 93.2949 383.309 93.2665 383.136 93.2665C382.899 93.2665 382.679 93.3112 382.505 93.4302C382.323 93.5551 382.22 93.7411 382.187 93.9589L382.187 93.9588L382.186 93.9673C381.731 97.7771 381.39 100.741 381.147 102.858C380.661 101.835 380.127 100.492 379.553 98.8185C378.8 96.5983 378.154 94.9946 377.628 93.9915L377.604 93.9462L377.564 93.9138C377.292 93.6924 377.042 93.5201 376.818 93.4072C376.605 93.3002 376.388 93.2319 376.183 93.2542C375.878 93.2556 375.608 93.3002 375.405 93.4195C375.18 93.5518 375.059 93.7629 375.049 94.0219C375.029 94.3581 374.916 95.7901 374.716 98.3287C374.664 98.9778 374.607 99.6992 374.545 100.493L374.545 100.494C374.347 103.059 374.248 105.197 374.248 106.918C374.248 107.907 374.273 108.859 374.322 109.763C374.329 109.908 374.338 110.046 374.347 110.178L374.349 110.203C374.358 110.327 374.366 110.445 374.372 110.563L374.372 110.577L374.374 110.59C374.427 110.934 374.573 111.248 374.901 111.36C374.984 111.407 375.132 111.479 375.346 111.575C375.53 111.679 375.719 111.75 375.891 111.75C376.091 111.75 376.267 111.654 376.406 111.523C376.772 111.272 376.918 110.857 376.904 110.348H376.904L376.904 110.342C376.843 109.077 376.806 107.837 376.806 106.61C376.806 104.141 376.933 101.79 377.188 99.5559C378.666 103.702 379.913 106.759 380.929 108.742C381.281 109.459 381.767 109.89 382.409 109.89C382.737 109.89 383.032 109.763 383.273 109.524C383.533 109.279 383.648 108.988 383.632 108.655L383.632 108.655L383.632 108.65C383.596 108.103 383.583 107.555 383.583 106.992C383.583 105.279 383.718 103.133 383.989 100.564L383.989 100.562C384.198 98.3944 384.42 96.2149 384.642 94.0594Z" fill="#132F02" stroke="#132F02" stroke-width="0.5"/>
<path d="M396.642 107.517L396.642 107.518C396.751 108.109 396.942 108.592 397.226 108.951C397.514 109.315 397.889 109.54 398.34 109.626C398.421 109.644 398.496 109.631 398.554 109.614C398.616 109.595 398.676 109.565 398.732 109.531C398.845 109.463 398.973 109.362 399.114 109.234C399.429 108.948 399.602 108.6 399.602 108.199C399.602 107.962 399.544 107.709 399.439 107.435C398.57 104.988 397.736 101.863 396.925 98.0931C396.839 97.4313 396.753 96.7799 396.655 96.1158L396.655 96.1158L396.653 96.1088C396.512 95.3116 396.21 94.6576 395.694 94.2249C395.475 94.0376 395.208 93.944 394.929 93.944C394.746 93.944 394.575 93.9767 394.427 94.0584C394.276 94.1422 394.166 94.2685 394.096 94.425L394.096 94.4249L394.094 94.4307C393.669 95.4543 393.186 96.931 392.655 98.8311C392.026 101.025 391.573 102.518 391.281 103.308L391.276 103.322C391.273 103.324 391.269 103.327 391.263 103.33C391.222 103.353 391.145 103.381 391.016 103.41L391.016 103.41L391.014 103.411C390.881 103.442 390.757 103.477 390.653 103.52C390.552 103.562 390.443 103.624 390.366 103.725C390.283 103.836 390.205 103.965 390.205 104.134C390.205 104.271 390.279 104.387 390.345 104.468C390.417 104.556 390.517 104.646 390.635 104.738L390.635 104.738L390.64 104.742C390.857 104.902 390.86 104.989 390.859 105L391.109 105.021L390.86 104.996C390.815 105.448 390.558 106.254 390.076 107.44L390.075 107.441C389.663 108.477 389.475 109.345 389.529 110.017L389.528 110.017L389.53 110.027C389.585 110.49 390.002 110.783 390.551 110.962L390.551 110.962L390.557 110.964C390.789 111.032 391.018 111.057 391.221 110.998C391.438 110.935 391.596 110.786 391.684 110.575C391.951 109.94 392.226 109.038 392.498 107.849C392.781 106.635 393.005 105.781 393.171 105.279C393.475 105.038 393.898 104.88 394.464 104.801C394.739 104.777 395.01 104.753 395.282 104.728L395.284 104.728C395.495 104.709 395.706 104.69 395.918 104.671C396.193 105.438 396.438 106.395 396.642 107.517ZM394.839 99.8688C394.925 100.231 395.015 100.594 395.104 100.951C395.238 101.571 395.337 102.142 395.393 102.653C394.775 102.655 394.299 102.667 393.971 102.689C394.23 101.747 394.519 100.81 394.839 99.8688Z" fill="#132F02" stroke="#132F02" stroke-width="0.5"/>
<path d="M411.967 106.126C411.976 106.12 411.983 106.115 411.988 106.112L412.033 106.097L412.079 106.038C412.207 105.876 412.273 105.684 412.267 105.474C412.26 105.27 412.186 105.065 412.06 104.867C411.865 104.53 411.547 104.352 411.143 104.352C411.039 104.352 410.863 104.367 410.654 104.406C410.466 104.441 410.335 104.451 410.281 104.451H410.222L410.169 104.477C409.808 104.658 409.217 105.023 408.427 105.578C407.883 105.938 407.429 106.209 407.051 106.402C407.044 105.103 407.108 103.258 407.253 100.873C407.413 98.2359 407.475 96.2424 407.425 94.9114L407.425 94.8927L407.421 94.8743C407.367 94.5854 407.22 94.3531 406.978 94.2C406.746 94.0527 406.45 93.9933 406.116 93.9933C405.733 93.9933 405.397 94.1279 405.138 94.3867L405.056 94.4689L405.066 94.5847C405.127 95.3048 405.163 96.0738 405.163 96.8915C405.163 98.0747 405.053 100.012 404.807 102.707L404.807 102.707L404.807 102.709C404.597 105.249 404.498 107.243 404.535 108.674L404.538 108.773L404.598 108.834L404.619 108.862C404.625 108.87 404.632 108.879 404.639 108.889C404.657 108.913 404.679 108.944 404.706 108.979C404.782 109.081 404.892 109.229 405.039 109.419C405.253 109.724 405.527 109.952 405.869 109.952C406.009 109.952 406.144 109.917 406.271 109.854C407.129 109.475 408.104 108.886 409.194 108.107C409.774 107.692 410.266 107.34 410.667 107.052C410.909 106.879 411.118 106.729 411.295 106.602C411.531 106.434 411.709 106.307 411.83 106.221C411.891 106.179 411.936 106.147 411.967 106.126ZM404.592 108.825C404.592 108.825 404.592 108.826 404.593 108.827C404.592 108.826 404.592 108.826 404.592 108.825Z" fill="#132F02" stroke="#132F02" stroke-width="0.5"/>
<path d="M425.534 94.4271L425.569 94.2898L425.468 94.1897C425.11 93.8316 424.667 93.664 424.172 93.6365L424.172 93.6361H424.158C423.782 93.6361 423.447 93.7695 423.265 94.091C422.797 94.8392 422.384 95.7809 422.011 96.8973C421.75 97.651 421.497 98.3971 421.245 99.1534C421.031 98.6597 420.811 98.1688 420.59 97.6765C420.533 97.5492 420.475 97.4219 420.418 97.2944L420.418 97.2942C419.983 96.3258 419.558 95.5246 419.142 94.8939L419.093 94.8195L419.008 94.793C418.712 94.7005 418.488 94.6322 418.333 94.5869C418.256 94.5643 418.195 94.547 418.149 94.5351C418.126 94.5291 418.105 94.524 418.087 94.5202C418.087 94.5201 418.086 94.52 418.086 94.5199C418.075 94.5176 418.042 94.5106 418.009 94.5106C417.746 94.5106 417.497 94.6097 417.266 94.7953C417.018 94.9732 416.859 95.2116 416.859 95.4874C416.859 95.6296 416.903 95.7463 416.966 95.8578L416.967 95.8582C417.761 97.2424 418.718 99.4385 419.848 102.457C419.608 103.074 419.369 103.689 419.131 104.303C418.882 104.946 418.632 105.589 418.38 106.236L418.38 106.236L418.378 106.241C417.818 107.77 417.515 109.136 417.464 110.35C417.429 110.731 417.672 111.025 418.015 111.262C418.356 111.498 418.709 111.632 419.06 111.59C419.373 111.587 419.649 111.504 419.855 111.309C420.064 111.111 420.165 110.832 420.193 110.512C420.206 110.359 420.206 110 420.194 109.477C420.194 109.097 420.23 108.808 420.304 108.586L420.304 108.586L420.305 108.583C420.708 107.313 421.616 104.97 423.033 101.57L423.033 101.569C424.243 98.6448 425.074 96.2671 425.534 94.4271Z" fill="#132F02" stroke="#132F02" stroke-width="0.5"/>
<path d="M439.815 107.937L439.815 107.937L439.812 107.93C439.719 107.738 439.615 107.576 439.498 107.457C439.383 107.34 439.239 107.249 439.069 107.236C437.452 107.039 435.522 106.623 433.288 105.974C434.266 104.836 435.253 103.679 436.229 102.522L436.229 102.522L436.234 102.515C437.402 101.037 438.254 99.637 438.783 98.3409L438.784 98.3393C438.845 98.186 438.875 98.0189 438.875 97.8646C438.875 97.3337 438.61 96.906 438.126 96.5744L438.125 96.5735C437.661 96.26 437.014 96.0549 436.217 95.9537L436.217 95.9536L436.209 95.9528C436.148 95.9472 436.087 95.9415 436.026 95.9359C435.424 95.8801 434.83 95.825 434.245 95.78L434.201 95.7766L434.159 95.7885C433.882 95.866 433.526 95.9025 433.068 95.9025H433.067H433.067H433.066H433.066H433.065H433.064H433.064H433.063H433.063H433.062H433.061H433.061H433.06H433.06H433.059H433.059H433.058H433.057H433.057H433.056H433.056H433.055H433.054H433.054H433.053H433.053H433.052H433.051H433.051H433.05H433.05H433.049H433.048H433.048H433.047H433.047H433.046H433.045H433.045H433.044H433.043H433.043H433.042H433.042H433.041H433.04H433.04H433.039H433.039H433.038H433.037H433.037H433.036H433.035H433.035H433.034H433.034H433.033H433.032H433.032H433.031H433.03H433.03H433.029H433.029H433.028H433.027H433.027H433.026H433.025H433.025H433.024H433.023H433.023H433.022H433.021H433.021H433.02H433.02H433.019H433.018H433.018H433.017H433.016H433.016H433.015H433.014H433.014H433.013H433.012H433.012H433.011H433.01H433.01H433.009H433.008H433.008H433.007H433.006H433.006H433.005H433.004H433.004H433.003H433.002H433.002H433.001H433H433H432.999H432.998H432.998H432.997H432.996H432.996H432.995H432.994H432.994H432.993H432.992H432.991H432.991H432.99H432.989H432.989H432.988H432.987H432.987H432.986H432.985H432.985H432.984H432.983H432.982H432.982H432.981H432.98H432.98H432.979H432.978H432.978H432.977H432.976H432.975H432.975H432.974H432.973H432.973H432.972H432.971H432.97H432.97H432.969H432.968H432.968H432.967H432.966H432.965H432.965H432.964H432.963H432.962H432.962H432.961H432.96H432.96H432.959H432.958H432.957H432.957H432.956H432.955H432.954H432.954H432.953H432.952H432.951H432.951H432.95H432.949H432.948H432.948H432.947H432.946H432.945H432.945H432.944H432.943H432.942H432.942H432.941H432.94H432.939H432.939H432.938H432.937H432.936H432.936H432.935H432.934H432.933H432.932H432.932H432.931H432.93H432.929H432.929H432.928H432.927H432.926H432.925H432.925H432.924H432.923H432.922H432.922H432.921H432.92H432.919H432.918H432.918H432.917H432.916H432.915H432.914H432.914H432.913H432.912H432.911H432.91H432.91H432.909H432.908H432.907H432.906H432.906H432.905H432.904H432.903H432.902H432.902H432.901H432.9H432.899H432.898H432.897H432.897H432.896H432.895H432.894H432.893H432.893H432.892H432.891H432.89H432.889H432.888H432.888H432.887H432.886H432.885H432.884H432.883H432.883H432.882H432.881H432.88H432.879H432.878H432.877H432.877H432.876H432.875H432.874H432.873H432.872H432.872H432.871H432.87H432.869H432.868H432.867H432.866H432.866H432.865H432.864H432.863H432.862H432.861H432.86H432.859H432.859H432.858H432.857H432.856H432.855H432.854H432.853H432.852H432.852H432.851H432.85H432.849H432.848H432.847H432.846H432.845H432.844H432.844H432.843H432.842H432.841H432.84H432.839H432.838H432.837H432.836H432.836H432.835H432.834H432.833H432.832H432.831H432.83H432.829H432.828H432.827H432.826H432.826H432.825H432.824H432.823H432.822H432.821H432.82H432.819H432.818H432.817H432.816H432.815H432.814H432.814H432.813H432.812H432.811H432.81H432.809H432.808H432.807H432.806H432.805H432.804H432.803H432.802H432.801H432.8H432.799H432.798H432.798H432.797H432.796H432.795H432.794H432.793H432.792H432.791H432.79H432.789H432.788H432.787H432.786H432.785H432.784H432.783H432.782H432.781H432.78H432.779H432.778H432.777H432.776H432.775H432.774H432.773H432.772H432.771H432.77H432.769H432.768H432.767H432.766H432.765H432.764H432.763H432.762H432.761H432.76H432.759H432.758H432.757H432.756H432.755H432.754H432.753H432.752H432.751H432.75H432.749H432.748H432.747H432.746H432.745H432.744H432.743H432.742H432.741H432.74H432.739H432.738H432.737H432.736H432.735H432.734H432.733H432.732H432.731H432.73H432.729H432.728H432.727H432.726H432.725H432.724H432.723H432.721H432.72H432.719H432.718H432.717H432.716H432.715H432.714H432.713H432.712H432.711H432.71H432.709H432.708H432.707H432.706H432.704H432.703H432.702H432.701H432.7H432.699H432.698H432.697H432.696H432.695H432.694H432.693H432.692H432.69H432.689H432.688H432.687H432.686H432.685H432.684H432.683H432.682H432.681H432.679H432.678H432.677H432.676H432.675H432.674H432.673H432.672H432.671H432.67H432.668H432.667H432.666H432.665H432.664H432.663H432.662H432.661H432.659H432.658H432.657H432.656H432.655H432.654H432.653H432.651H432.65H432.649H432.648H432.647H432.646H432.645H432.644H432.642H432.641H432.64H432.639H432.638H432.637H432.636H432.634H432.633H432.632H432.631H432.63H432.629H432.628H432.627H432.626H432.625H432.624H432.623H432.622H432.62H432.619H432.618H432.617H432.616H432.615H432.614H432.613H432.612H432.611H432.61H432.609H432.608H432.607H432.606H432.604H432.603H432.602H432.601H432.6H432.599H432.598H432.597H432.596H432.595H432.594H432.593H432.592H432.591H432.59H432.589H432.588H432.587H432.586H432.585H432.584H432.582H432.581H432.58H432.579H432.578H432.577H432.576H432.575H432.574H432.573H432.572H432.571H432.57H432.569H432.568H432.567H432.566H432.565H432.564H432.563H432.562H432.561H432.56H432.559H432.558H432.557H432.556H432.555H432.554H432.553H432.552H432.551H432.55H432.549H432.548H432.547H432.546H432.545H432.544H432.543H432.542H432.541H432.54H432.539H432.538H432.537H432.536H432.535H432.534H432.533H432.532H432.531H432.53H432.529H432.528H432.527H432.526H432.525H432.524H432.523H432.522H432.521H432.52H432.519H432.518H432.517H432.516H432.515H432.514H432.513H432.512H432.511H432.51H432.509H432.508H432.507H432.506H432.505H432.504H432.503H432.502H432.501H432.5H432.499H432.498H432.497H432.496H432.495H432.494H432.494H432.493H432.492H432.491H432.49H432.489H432.488H432.487H432.486H432.485H432.484H432.483H432.482H432.481H432.48H432.479H432.478H432.477H432.476H432.475H432.475H432.474H432.473H432.472H432.471H432.47H432.469H432.468H432.467H432.466H432.465H432.464H432.463H432.462H432.461H432.461H432.46H432.459H432.458H432.457H432.456H432.455H432.454H432.453H432.452H432.451H432.45H432.449H432.449H432.448H432.447H432.446H432.445H432.444H432.443H432.442H432.441H432.44H432.439H432.439H432.438H432.437H432.436H432.435H432.434H432.433H432.432H432.431H432.43H432.43H432.429H432.428H432.427H432.426H432.425H432.424H432.423H432.422H432.422H432.421H432.42H432.419H432.418H432.417H432.416H432.415H432.414H432.414H432.413H432.412H432.411H432.41H432.409H432.408H432.408H432.407H432.406H432.405H432.404H432.403H432.402H432.401H432.401H432.4H432.399H432.398H432.397H432.396H432.395H432.395H432.394H432.393H432.392H432.391H432.39H432.389H432.389H432.388H432.387H432.386H432.385H432.384H432.384H432.383H432.382H432.381H432.38H432.379H432.378H432.378H432.377H432.376H432.375H432.374H432.373H432.373H432.372H432.371H432.37H432.369H432.369H432.368H432.367H432.366H432.365H432.364H432.364H432.363H432.362H432.361H432.36H432.36H432.359H432.358H432.357H432.356H432.355H432.355H432.354H432.353H432.352H432.351H432.351H432.35H432.349H432.348H432.347H432.347H432.346H432.345H432.344H432.343H432.343H432.342H432.341H432.34H432.339H432.339H432.338H432.337H432.336H432.336H432.335H432.334H432.333H432.332H432.332H432.331H432.33H432.329H432.329H432.328H432.327H432.326H432.325H432.325H432.324H432.323H432.322H432.322H432.321H432.32H432.319H432.319H432.318H432.317H432.316H432.316H432.315H432.314H432.313H432.313H432.312H432.311H432.31H432.31H432.309H432.308H432.307H432.307H432.306H432.305H432.304H432.304H432.303H432.302H432.301H432.301H432.3H432.299H432.298H432.298H432.297H432.296H432.296H432.295H432.294H432.293H432.293H432.292H432.291H432.29H432.29H432.289H432.288H432.288H432.287H432.286H432.285H432.285H432.284H432.283H432.283H432.282H432.281H432.28H432.28H432.279H432.278H432.278H432.277H432.276H432.276H432.275H432.274H432.273H432.273H432.272H432.271H432.271H432.27H432.269H432.269H432.268H432.267H432.267H432.266H432.265H432.265H432.264H432.263H432.262H432.262H432.261H432.26H432.26H432.259H432.258H432.258H432.257H432.256H432.256H432.255H432.254H432.254H432.253H432.252H432.252H432.251H432.25H432.25H432.249H432.248H432.248H432.247H432.247H432.246H432.245H432.245H432.244H432.243H432.243H432.242H432.241H432.241H432.24H432.239H432.239H432.238H432.237H432.237H432.236H432.236H432.235H432.234H432.234H432.233H432.232H432.232H432.231H432.231H432.23H432.229H432.229H432.228H432.227H432.227H432.226H432.226H432.225H432.224H432.224H432.223H432.223H432.222H432.221H432.221H432.22H432.219H432.219H432.218H432.218H432.217H432.216H432.216H432.215H432.215H432.214H432.213H432.213H432.212H432.212H432.211H432.211H432.21H432.209H432.209H432.208H432.208H432.207H432.206H432.206H432.205C431.288 95.9025 430.547 96.0928 430.017 96.5105L429.999 96.5248L429.984 96.5421C429.857 96.6872 429.799 96.8569 429.799 97.027C429.799 97.4747 430.138 97.8352 430.626 98.1179L430.648 98.1307L430.672 98.1387C431.033 98.2589 431.442 98.324 431.885 98.324C432.226 98.324 432.735 98.2721 433.393 98.1603C434.04 98.0505 434.53 98.0037 434.842 98.0037C435.292 98.0037 435.703 98.0827 436.074 98.2437C435.369 99.4927 434.435 100.833 433.268 102.264L433.268 102.264C432.841 102.789 431.699 104.103 429.861 106.199L429.792 106.277L429.799 106.38C429.811 106.556 429.811 106.703 429.8 106.821L429.793 106.9L429.832 106.969C430.045 107.337 430.369 107.63 430.796 107.823L430.796 107.823L430.804 107.827C431.023 107.917 431.402 108.055 431.963 108.217L431.965 108.218C434.577 108.948 436.898 109.383 438.915 109.532L439.017 109.54L439.095 109.474C439.207 109.379 439.323 109.269 439.433 109.165C439.485 109.115 439.536 109.067 439.584 109.023C439.781 108.841 439.911 108.606 439.911 108.347C439.911 108.218 439.875 108.073 439.815 107.937Z" fill="#132F02" stroke="#132F02" stroke-width="0.5"/>
<path d="M452.782 96.8267L452.813 96.8139L452.839 96.7933C453.002 96.6671 453.077 96.5164 453.113 96.3733L453.121 96.3435V96.3127C453.121 96.2426 453.104 96.1648 453.086 96.0953C453.067 96.0212 453.04 95.9368 453.007 95.8467C452.991 95.8007 452.972 95.7485 452.955 95.7038C452.944 95.6728 452.934 95.6454 452.927 95.6261C452.917 95.597 452.909 95.5738 452.903 95.5551C452.9 95.5459 452.898 95.5387 452.896 95.5331L452.894 95.5268C452.894 95.5253 452.894 95.5246 452.894 95.5246L452.872 95.4133L452.773 95.3568C452.176 95.0138 451.614 94.8186 451.121 94.8186C450.98 94.8186 450.879 94.833 450.791 94.8455L450.79 94.8457L450.777 94.8476L450.764 94.8507C449.976 95.0477 449.186 95.2452 448.395 95.4552L448.394 95.4555C447.478 95.7029 446.711 95.9777 446.099 96.2947L444.558 96.9185L444.549 96.9218L444.542 96.9256C443.934 97.2224 443.567 97.661 443.551 98.2522L443.551 98.2527C443.543 98.5941 443.695 98.8791 443.972 99.0927C444.196 99.265 444.499 99.3909 444.867 99.4798C444.825 100.078 444.79 100.55 444.761 100.892C444.745 101.084 444.731 101.234 444.719 101.342C444.713 101.397 444.707 101.439 444.703 101.47C444.699 101.496 444.696 101.508 444.695 101.512C444.695 101.513 444.695 101.513 444.695 101.513L444.692 101.524L444.69 101.533C444.689 101.536 444.681 101.554 444.646 101.586C444.602 101.627 444.532 101.676 444.428 101.731C444.175 101.852 443.951 102.04 443.923 102.317C443.86 102.724 444.114 103.07 444.508 103.364C444.376 104.459 444.383 105.686 444.526 107.042C444.581 107.582 444.817 108.076 445.222 108.495C445.619 108.918 446.066 109.192 446.574 109.316C448.033 109.693 449.758 109.841 451.72 109.779L451.728 109.779L451.736 109.778C452.064 109.747 452.336 109.598 452.517 109.302C452.683 109.032 452.747 108.735 452.685 108.411C452.608 108.008 452.487 107.675 452.293 107.454C452.193 107.34 452.072 107.253 451.929 107.207C451.793 107.162 451.651 107.159 451.509 107.186C451.422 107.192 451.34 107.223 451.27 107.259C451.189 107.301 451.106 107.359 451.022 107.428L451.022 107.428L451.014 107.435C450.911 107.529 450.82 107.555 450.776 107.555V107.555L450.764 107.555C448.95 107.639 447.732 107.414 447.03 106.959C446.936 106.74 446.885 106.433 446.885 106.019C446.885 105.371 447.018 104.499 447.302 103.373C447.695 103.232 448.226 103.151 448.907 103.14L448.907 103.14L448.909 103.14C449.773 103.116 450.406 103.081 450.788 102.994C451.027 102.999 451.262 102.912 451.433 102.708C451.526 102.604 451.596 102.525 451.647 102.471C451.67 102.447 451.686 102.431 451.697 102.42L451.715 102.408C451.866 102.308 451.999 102.155 451.999 101.929C451.999 101.863 451.982 101.8 451.964 101.75C451.944 101.697 451.918 101.64 451.887 101.581C451.825 101.464 451.735 101.323 451.622 101.159L451.592 101.116L451.547 101.088C451.181 100.863 450.751 100.756 450.258 100.756C450.004 100.756 449.606 100.795 449.083 100.882C448.57 100.968 448.217 101.002 447.991 101.002C447.747 101.002 447.537 100.976 447.351 100.926C447.385 100.287 447.425 99.7594 447.472 99.3398C447.515 98.9527 447.564 98.6706 447.615 98.4827C448.191 98.2526 449.029 97.9872 450.115 97.6868C451.276 97.366 452.175 97.0793 452.782 96.8267Z" fill="#132F02" stroke="#132F02" stroke-width="0.5"/>
<path d="M385.746 55.7582C385.553 55.3643 385.408 55.0588 385.256 54.7533C384.998 54.2388 385.143 53.8128 385.497 53.4028C385.971 52.848 386.422 52.2772 386.856 51.7467C386.213 50.1067 385.593 48.5631 385.014 47.0115C384.105 44.5917 383.808 42.0594 383.784 39.4948C383.752 35.435 385.264 31.938 387.853 28.8911C390.314 25.9969 393.113 23.4646 396.322 21.4065C398.156 20.2248 400.231 19.8148 402.338 19.6138C404.775 19.3887 407.244 19.0993 409.673 19.2279C412.93 19.3967 416.035 20.2569 418.834 22.1461C422.678 24.7428 425.276 28.3283 427.286 32.3721C428.115 34.0362 428.807 35.8289 429.16 37.6458C429.546 39.6235 429.305 41.6654 428.453 43.5707C427.777 45.0982 427.142 46.6417 426.522 48.1853C425.284 51.2643 423.193 53.6841 420.732 55.8628C418.649 57.7118 416.252 59.0383 413.783 60.2763C411.627 61.3616 409.343 61.852 406.979 62.0851C405.949 62.1896 404.92 62.2861 403.89 62.2942C401.228 62.3344 398.944 61.1446 396.668 59.9708C396.451 59.8583 396.25 59.7055 396.033 59.5849C394.521 58.7247 394.505 58.7087 393.145 59.9467C392.51 60.5255 391.826 60.8471 390.998 60.4612C390.21 60.0914 389.687 60.4451 389.196 60.9918C387.403 62.9534 385.601 64.8989 383.816 66.8765C381.411 69.5375 379.111 72.295 376.618 74.8676C374.189 77.3678 371.921 80.0448 369.082 82.1189C368.647 82.4405 368.205 82.7621 367.755 83.0596C365.302 84.6272 362.254 83.6303 361.232 80.897C360.975 80.2137 360.79 79.4821 360.685 78.7585C360.629 78.3485 360.669 77.834 360.878 77.4883C361.682 76.1458 362.559 74.8515 363.766 73.8144C367.489 70.6148 371.149 67.3348 375.09 64.3844C376.505 63.3232 377.776 62.0771 379.159 60.9757C381.154 59.384 383.197 57.8404 385.215 56.2647C385.376 56.1441 385.505 55.9914 385.746 55.7582ZM424.182 30.0889C423.37 28.9715 422.654 27.7817 421.737 26.7607C418.576 23.2395 414.635 21.1252 409.89 20.8599C407.204 20.7071 404.469 20.7956 401.791 21.0689C399.33 21.3181 396.974 22.1461 395.035 23.8022C393.395 25.2091 391.746 26.616 390.218 28.1515C386.494 31.8817 384.773 36.3354 385.44 41.6735C385.875 45.1625 387.17 48.3139 388.754 51.401C389.365 52.5827 390.218 53.4751 391.296 54.2147C392.309 54.9141 393.322 55.6135 394.271 56.3853C396.443 58.1539 398.952 59.2714 401.542 60.212C402.266 60.4773 403.094 60.622 403.858 60.5818C405.523 60.5094 407.204 60.3808 408.845 60.0914C412.158 59.5045 415.062 57.9047 417.788 56.0316C420.611 54.0861 423.032 51.6663 424.536 48.539C425.622 46.288 426.571 43.9486 427.311 41.5609C427.681 40.347 427.737 38.8758 427.431 37.6458C426.764 34.9687 425.75 32.3962 424.182 30.0889ZM393.073 57.8324C392.993 57.6716 392.976 57.559 392.904 57.5028C391.255 56.1924 389.607 54.882 387.934 53.5877C387.797 53.4831 387.524 53.5555 387.113 53.5314C388.111 55.3804 388.843 57.1008 390.419 58.3389C391.794 59.4242 391.85 59.4965 392.96 58.17C393.017 58.1057 393.017 57.9932 393.073 57.8324ZM375.146 66.6354C373.803 67.2061 367.433 72.4879 366.468 73.9109C369.991 72.0538 372.371 69.1034 375.146 66.6354ZM366.227 77.4401C365.688 77.9948 365.286 78.5495 365.688 79.257C365.784 79.4338 366.315 79.5142 366.572 79.4258C366.886 79.3132 367.296 79.0158 367.353 78.7344C367.513 77.9144 366.79 77.7697 366.227 77.4401Z" fill="#132F02"/>
<path d="M391.296 48.4668C390.588 47.0198 389.68 45.6289 389.229 44.1095C388.465 41.553 388.449 39.0046 389.398 36.3517C390.339 33.7309 392.012 31.6246 393.548 29.4459C394.497 28.1034 396.09 27.1628 397.529 26.2383C400.022 24.6385 402.813 23.5853 405.749 23.2718C409.062 22.91 412.279 23.32 415.247 25.1932C418.143 27.0181 420.499 29.2932 422.156 32.2677C422.526 32.935 422.646 33.7469 422.839 34.4946C422.96 34.9689 422.96 35.4754 423.089 35.9497C424.07 39.503 423.644 42.8795 422.148 46.248C420.861 49.1501 418.834 51.4655 416.655 53.636C414.797 55.4931 412.231 56.1443 409.738 56.7231C404.575 57.921 400.063 55.9433 395.728 53.5637C394.063 52.6472 392.913 50.9992 391.988 49.2868C391.827 48.9813 391.674 48.6758 391.521 48.3623C391.441 48.4025 391.369 48.4347 391.296 48.4668ZM392.527 46.256C393.162 47.5182 393.572 48.6196 394.232 49.5521C395.382 51.1841 396.926 52.3578 398.784 53.2019C401.1 54.247 403.513 55.0268 405.99 55.2761C409.159 55.5896 412.07 54.3596 414.845 52.9206C415.303 52.6794 415.69 52.2453 416.035 51.8353C416.872 50.8705 417.628 49.8335 418.488 48.8848C420.266 46.9233 421.126 44.5356 421.73 42.0354C421.842 41.5852 421.81 41.0948 421.85 40.5803C421.456 40.5481 421.215 40.5079 420.974 40.5079C415.754 40.5401 410.542 40.5482 405.331 40.6285C402.524 40.6768 399.725 40.8376 396.926 40.9823C396.234 41.0144 395.808 40.8134 395.583 39.9291C396.283 39.7603 396.918 39.487 397.561 39.4789C403.408 39.3664 409.255 39.2699 415.102 39.2458C417.354 39.2378 419.614 39.4307 422.035 39.5352C421.77 38.2248 421.512 36.9466 421.231 35.5638C418.722 35.5638 416.317 35.5397 413.912 35.5718C412.585 35.5879 411.258 35.805 409.931 35.7728C405.644 35.6603 401.366 35.6362 397.095 36.1024C396.025 36.223 394.931 36.2311 393.854 36.2311C393.178 36.2311 392.744 35.9015 392.872 34.9046C393.701 34.8403 394.561 34.792 395.422 34.7197C399.451 34.366 403.481 34.2615 407.518 34.4464C408.885 34.5107 410.277 34.6393 411.636 34.5107C414.435 34.2293 417.21 34.2534 419.984 34.7438C420.354 34.8081 420.732 34.8081 421.36 34.8564C421.006 34.0283 420.805 33.3771 420.467 32.7983C418.931 30.2177 416.88 28.1677 414.266 26.6242C410.993 24.6947 407.574 24.5822 404.012 25.4263C403.77 25.4826 403.545 25.571 403.312 25.6514C402.532 25.9408 401.752 26.2383 400.963 26.5277C398.84 27.2995 396.974 28.4732 395.551 30.2338C394.505 31.5361 393.444 32.8546 392.607 34.2936C391.827 35.6362 391.175 37.0913 390.757 38.5866C390.234 40.4195 390.757 42.2927 391.111 44.1256C391.151 44.3427 391.344 44.5356 391.473 44.7286C393.323 44.6401 395.116 44.5356 396.918 44.4713C400.159 44.3507 403.4 44.2542 406.65 44.1417C407.671 44.1095 408.692 44.005 409.714 44.0131C411.773 44.0372 413.832 44.1095 415.891 44.1899C416.164 44.198 416.437 44.4231 416.703 44.5437C416.687 44.6482 416.671 44.7607 416.655 44.8652C408.668 45.3395 400.698 45.6611 392.527 46.256Z" fill="#132F02"/>
<path d="M413.059 30.3222C411.965 30.4588 410.871 30.6196 409.77 30.7161C407.124 30.9573 404.486 31.1824 401.84 31.3592C401.349 31.3914 400.818 31.1984 400.352 30.9894C400.191 30.9171 400.07 30.4427 400.151 30.2337C400.223 30.0488 400.585 29.88 400.826 29.8639C402.588 29.7433 404.341 29.5986 406.102 29.5825C408.145 29.5584 410.196 29.6629 412.239 29.7031C412.528 29.7112 412.826 29.6549 413.115 29.6227C413.107 29.8639 413.083 30.0971 413.059 30.3222Z" fill="#132F02"/>
<path d="M401.045 49.8414C400.707 48.9651 401.19 48.6355 401.801 48.4667C402.549 48.2496 403.321 48.0728 404.093 47.9763C406.273 47.7029 408.436 47.1804 410.648 47.502C411.05 47.5582 411.436 47.6788 412.039 47.8075C410.624 48.5953 402.71 50.0102 401.045 49.8414Z" fill="#132F02"/>
<path d="M127.496 85.0847L131.117 67.9519H140.246L139.742 70.3191H133.391L132.406 74.9714H138.348L137.855 77.3269H131.914L130.766 82.7058H137.117L136.613 85.0847H127.496ZM144.078 85.3191C143.414 85.3191 142.809 85.1589 142.262 84.8386C141.723 84.5105 141.293 84.0105 140.973 83.3386C140.652 82.6589 140.492 81.7957 140.492 80.7488C140.492 79.8425 140.586 78.9597 140.773 78.1003C140.969 77.241 141.242 76.4363 141.594 75.6863C141.953 74.9363 142.387 74.2761 142.895 73.7058C143.402 73.1277 143.977 72.6785 144.617 72.3582C145.258 72.03 145.949 71.866 146.691 71.866C147.254 71.866 147.746 71.9636 148.168 72.1589C148.59 72.3464 148.945 72.6003 149.234 72.9207C149.523 73.241 149.758 73.5964 149.938 73.9871H150.043L150.746 72.1121H152.855L150.102 85.0847H148.004L148.262 82.9871H148.168C147.832 83.4167 147.457 83.8074 147.043 84.1589C146.637 84.5105 146.188 84.7917 145.695 85.0027C145.203 85.2136 144.664 85.3191 144.078 85.3191ZM145.086 83.0808C145.633 83.0808 146.156 82.8777 146.656 82.4714C147.156 82.0574 147.598 81.5105 147.98 80.8308C148.371 80.1511 148.66 79.405 148.848 78.5925C148.941 78.2019 149.004 77.8308 149.035 77.4792C149.074 77.1277 149.094 76.7761 149.094 76.4246C149.094 75.7449 148.914 75.1902 148.555 74.7605C148.195 74.3308 147.703 74.116 147.078 74.116C146.648 74.116 146.238 74.2371 145.848 74.4792C145.465 74.7214 145.117 75.0574 144.805 75.4871C144.492 75.9089 144.219 76.3972 143.984 76.9519C143.758 77.5066 143.582 78.1042 143.457 78.7449C143.34 79.3777 143.281 80.0222 143.281 80.6785C143.281 81.4675 143.438 82.0652 143.75 82.4714C144.07 82.8777 144.516 83.0808 145.086 83.0808ZM157.273 85.3191C156.461 85.3191 155.75 85.2488 155.141 85.1082C154.539 84.9753 153.996 84.78 153.512 84.5222V82.1667C154.012 82.4636 154.574 82.7136 155.199 82.9167C155.832 83.1121 156.48 83.2097 157.145 83.2097C157.66 83.2097 158.109 83.1394 158.492 82.9988C158.875 82.8582 159.172 82.6589 159.383 82.4011C159.602 82.1355 159.711 81.8152 159.711 81.4402C159.711 81.1667 159.648 80.9246 159.523 80.7136C159.398 80.5027 159.184 80.2878 158.879 80.0691C158.574 79.8503 158.152 79.5886 157.613 79.2839C157.043 78.9636 156.559 78.6394 156.16 78.3113C155.77 77.9753 155.469 77.6042 155.258 77.198C155.055 76.7917 154.953 76.3152 154.953 75.7683C154.953 74.948 155.141 74.2488 155.516 73.6707C155.898 73.0847 156.438 72.6394 157.133 72.3347C157.836 72.0222 158.664 71.866 159.617 71.866C160.383 71.866 161.105 71.9558 161.785 72.1355C162.465 72.3074 163.094 72.5496 163.672 72.8621L162.77 74.9011C162.34 74.6589 161.863 74.4519 161.34 74.28C160.816 74.1003 160.254 74.0105 159.652 74.0105C159.098 74.0105 158.633 74.1394 158.258 74.3972C157.891 74.655 157.707 75.0222 157.707 75.4988C157.707 75.7488 157.766 75.9753 157.883 76.1785C158.008 76.3738 158.215 76.573 158.504 76.7761C158.793 76.9792 159.188 77.2136 159.688 77.4792C160.227 77.7761 160.707 78.0886 161.129 78.4167C161.551 78.7449 161.883 79.1238 162.125 79.5535C162.367 79.9753 162.488 80.4871 162.488 81.0886C162.488 82.0027 162.273 82.7761 161.844 83.4089C161.422 84.0339 160.82 84.5105 160.039 84.8386C159.258 85.1589 158.336 85.3191 157.273 85.3191ZM164.715 85.0847L167.469 72.1121H170.211L167.457 85.0847H164.715ZM169.449 70.1667C169.043 70.1667 168.703 70.0691 168.43 69.8738C168.156 69.6707 168.02 69.3542 168.02 68.9246C168.02 68.5652 168.086 68.2527 168.219 67.9871C168.359 67.7214 168.559 67.5183 168.816 67.3777C169.082 67.2292 169.398 67.155 169.766 67.155C170.172 67.155 170.504 67.2527 170.762 67.448C171.02 67.6355 171.148 67.9402 171.148 68.3621C171.148 68.9089 170.996 69.3464 170.691 69.6746C170.387 70.0027 169.973 70.1667 169.449 70.1667ZM171.312 85.0847L175.191 66.8503H177.922L174.055 85.0847H171.312ZM177.066 90.8503C176.668 90.8503 176.344 90.8269 176.094 90.78C175.836 90.7332 175.602 90.6785 175.391 90.616V88.4246C175.602 88.4714 175.824 88.5105 176.059 88.5417C176.293 88.5808 176.551 88.6003 176.832 88.6003C177.527 88.6003 178.109 88.3894 178.578 87.9675C179.055 87.5535 179.492 86.9792 179.891 86.2449L180.488 85.155L178.543 72.1121H181.262L182.035 78.4402C182.09 78.8777 182.133 79.3464 182.164 79.8464C182.203 80.3464 182.23 80.8308 182.246 81.2996C182.262 81.7605 182.27 82.1511 182.27 82.4714H182.352C182.461 82.2058 182.598 81.8699 182.762 81.4636C182.926 81.0574 183.109 80.6238 183.312 80.1628C183.516 79.7019 183.719 79.2722 183.922 78.8738L187.367 72.1121H190.332L182.234 87.1355C181.789 87.9636 181.309 88.655 180.793 89.2097C180.285 89.7644 179.727 90.1746 179.117 90.4402C178.508 90.7136 177.824 90.8503 177.066 90.8503ZM201.301 85.3191C200.371 85.3191 199.543 85.1472 198.816 84.8035C198.09 84.4597 197.52 83.9324 197.105 83.2214C196.691 82.5105 196.484 81.6042 196.484 80.5027C196.484 79.573 196.582 78.6824 196.777 77.8308C196.98 76.9714 197.273 76.1824 197.656 75.4636C198.039 74.7371 198.508 74.1082 199.062 73.5769C199.617 73.0378 200.25 72.6199 200.961 72.323C201.672 72.0183 202.457 71.866 203.316 71.866C203.988 71.866 204.617 71.9324 205.203 72.0652C205.789 72.1902 206.328 72.366 206.82 72.5925L206 74.7605C205.625 74.5886 205.223 74.4402 204.793 74.3152C204.371 74.1824 203.906 74.116 203.398 74.116C202.766 74.116 202.195 74.2878 201.688 74.6316C201.18 74.9675 200.746 75.4324 200.387 76.0261C200.027 76.6121 199.75 77.2761 199.555 78.0183C199.367 78.7605 199.273 79.5378 199.273 80.3503C199.273 80.9285 199.371 81.4207 199.566 81.8269C199.762 82.2332 200.043 82.5457 200.41 82.7644C200.785 82.9753 201.234 83.0808 201.758 83.0808C202.336 83.0808 202.879 82.9988 203.387 82.8347C203.895 82.6628 204.402 82.4519 204.91 82.2019V84.4753C204.426 84.7332 203.887 84.9363 203.293 85.0847C202.699 85.241 202.035 85.3191 201.301 85.3191ZM212.621 85.2957C211.637 85.2957 210.777 85.0925 210.043 84.6863C209.309 84.28 208.738 83.7058 208.332 82.9636C207.934 82.2136 207.734 81.3269 207.734 80.3035C207.734 79.4363 207.824 78.5925 208.004 77.7722C208.191 76.9519 208.465 76.1863 208.824 75.4753C209.184 74.7644 209.633 74.1433 210.172 73.6121C210.711 73.073 211.336 72.655 212.047 72.3582C212.758 72.0535 213.555 71.9011 214.438 71.9011C215.445 71.9011 216.312 72.1042 217.039 72.5105C217.766 72.9167 218.324 73.4988 218.715 74.2566C219.105 75.0144 219.301 75.9207 219.301 76.9753C219.301 77.8191 219.211 78.6433 219.031 79.448C218.859 80.2527 218.598 81.0105 218.246 81.7214C217.895 82.4246 217.449 83.0457 216.91 83.5847C216.379 84.116 215.754 84.5339 215.035 84.8386C214.324 85.1433 213.52 85.2957 212.621 85.2957ZM212.82 83.0457C213.258 83.0457 213.664 82.948 214.039 82.7527C214.422 82.5496 214.766 82.2644 215.07 81.8972C215.375 81.5222 215.633 81.0808 215.844 80.573C216.062 80.0574 216.23 79.4871 216.348 78.8621C216.465 78.2371 216.523 77.5691 216.523 76.8582C216.523 76.3816 216.453 75.9402 216.312 75.5339C216.172 75.1199 215.938 74.7878 215.609 74.5378C215.289 74.28 214.859 74.1511 214.32 74.1511C213.836 74.1511 213.391 74.2683 212.984 74.5027C212.586 74.7292 212.23 75.0457 211.918 75.4519C211.613 75.8582 211.355 76.3269 211.145 76.8582C210.934 77.3816 210.773 77.9441 210.664 78.5457C210.555 79.1394 210.5 79.741 210.5 80.3503C210.5 81.2175 210.695 81.8855 211.086 82.3542C211.484 82.8152 212.062 83.0457 212.82 83.0457ZM220.953 85.0847L224.832 66.8503H227.562L223.695 85.0847H220.953ZM227.562 85.0847L231.441 66.8503H234.172L230.305 85.0847H227.562ZM239.656 85.3191C238.664 85.3191 237.797 85.1316 237.055 84.7566C236.32 84.3738 235.75 83.8152 235.344 83.0808C234.945 82.3386 234.746 81.4324 234.746 80.3621C234.746 79.2996 234.898 78.2644 235.203 77.2566C235.508 76.241 235.957 75.3269 236.551 74.5144C237.145 73.7019 237.867 73.0574 238.719 72.5808C239.57 72.1042 240.539 71.866 241.625 71.866C242.953 71.866 243.949 72.1667 244.613 72.7683C245.285 73.3621 245.621 74.1511 245.621 75.1355C245.621 75.8074 245.469 76.4207 245.164 76.9753C244.859 77.53 244.395 78.0105 243.77 78.4167C243.152 78.8152 242.367 79.1238 241.414 79.3425C240.469 79.5613 239.355 79.6707 238.074 79.6707H237.547C237.539 79.7878 237.531 79.9089 237.523 80.0339C237.516 80.1511 237.512 80.2683 237.512 80.3855C237.512 81.2527 237.738 81.9363 238.191 82.4363C238.645 82.9285 239.305 83.1746 240.172 83.1746C240.828 83.1746 241.434 83.0925 241.988 82.9285C242.543 82.7644 243.164 82.5183 243.852 82.1902V84.3582C243.219 84.6628 242.578 84.9011 241.93 85.073C241.281 85.2371 240.523 85.3191 239.656 85.3191ZM237.887 77.6785H238.285C239.238 77.6785 240.066 77.5886 240.77 77.4089C241.473 77.2214 242.016 76.948 242.398 76.5886C242.781 76.2214 242.973 75.7761 242.973 75.2527C242.973 74.8464 242.844 74.53 242.586 74.3035C242.336 74.0691 241.961 73.9519 241.461 73.9519C240.969 73.9519 240.484 74.1042 240.008 74.4089C239.531 74.7058 239.105 75.1355 238.73 75.698C238.355 76.2527 238.074 76.9128 237.887 77.6785ZM252.23 85.3191C251.301 85.3191 250.473 85.1472 249.746 84.8035C249.02 84.4597 248.449 83.9324 248.035 83.2214C247.621 82.5105 247.414 81.6042 247.414 80.5027C247.414 79.573 247.512 78.6824 247.707 77.8308C247.91 76.9714 248.203 76.1824 248.586 75.4636C248.969 74.7371 249.438 74.1082 249.992 73.5769C250.547 73.0378 251.18 72.6199 251.891 72.323C252.602 72.0183 253.387 71.866 254.246 71.866C254.918 71.866 255.547 71.9324 256.133 72.0652C256.719 72.1902 257.258 72.366 257.75 72.5925L256.93 74.7605C256.555 74.5886 256.152 74.4402 255.723 74.3152C255.301 74.1824 254.836 74.116 254.328 74.116C253.695 74.116 253.125 74.2878 252.617 74.6316C252.109 74.9675 251.676 75.4324 251.316 76.0261C250.957 76.6121 250.68 77.2761 250.484 78.0183C250.297 78.7605 250.203 79.5378 250.203 80.3503C250.203 80.9285 250.301 81.4207 250.496 81.8269C250.691 82.2332 250.973 82.5457 251.34 82.7644C251.715 82.9753 252.164 83.0808 252.688 83.0808C253.266 83.0808 253.809 82.9988 254.316 82.8347C254.824 82.6628 255.332 82.4519 255.84 82.2019V84.4753C255.355 84.7332 254.816 84.9363 254.223 85.0847C253.629 85.241 252.965 85.3191 252.23 85.3191ZM262.121 85.3191C261.176 85.3191 260.406 85.1082 259.812 84.6863C259.227 84.2566 258.934 83.5066 258.934 82.4363C258.934 82.2253 258.945 81.9949 258.969 81.7449C259 81.4871 259.043 81.2214 259.098 80.948L260.527 74.198H258.652L258.91 72.8855L261.125 71.9832L262.602 69.241H264.324L263.715 72.1121H267.02L266.574 74.198H263.281L261.84 80.9597C261.801 81.1238 261.766 81.2996 261.734 81.4871C261.711 81.6667 261.699 81.8308 261.699 81.9792C261.699 82.3308 261.797 82.6042 261.992 82.7996C262.188 82.9949 262.484 83.0925 262.883 83.0925C263.188 83.0925 263.48 83.0613 263.762 82.9988C264.043 82.9363 264.352 82.8464 264.688 82.7292V84.8035C264.398 84.9363 264.023 85.0535 263.562 85.155C263.102 85.2644 262.621 85.3191 262.121 85.3191ZM277.367 85.3191C276.703 85.3191 276.098 85.1589 275.551 84.8386C275.012 84.5105 274.582 84.0105 274.262 83.3386C273.941 82.6589 273.781 81.7957 273.781 80.7488C273.781 79.8425 273.875 78.9597 274.062 78.1003C274.258 77.241 274.531 76.4363 274.883 75.6863C275.242 74.9363 275.676 74.2761 276.184 73.7058C276.691 73.1277 277.266 72.6785 277.906 72.3582C278.547 72.03 279.238 71.866 279.98 71.866C280.543 71.866 281.035 71.9636 281.457 72.1589C281.879 72.3464 282.234 72.6003 282.523 72.9207C282.812 73.241 283.047 73.5964 283.227 73.9871H283.332L284.035 72.1121H286.145L283.391 85.0847H281.293L281.551 82.9871H281.457C281.121 83.4167 280.746 83.8074 280.332 84.1589C279.926 84.5105 279.477 84.7917 278.984 85.0027C278.492 85.2136 277.953 85.3191 277.367 85.3191ZM278.375 83.0808C278.922 83.0808 279.445 82.8777 279.945 82.4714C280.445 82.0574 280.887 81.5105 281.27 80.8308C281.66 80.1511 281.949 79.405 282.137 78.5925C282.23 78.2019 282.293 77.8308 282.324 77.4792C282.363 77.1277 282.383 76.7761 282.383 76.4246C282.383 75.7449 282.203 75.1902 281.844 74.7605C281.484 74.3308 280.992 74.116 280.367 74.116C279.938 74.116 279.527 74.2371 279.137 74.4792C278.754 74.7214 278.406 75.0574 278.094 75.4871C277.781 75.9089 277.508 76.3972 277.273 76.9519C277.047 77.5066 276.871 78.1042 276.746 78.7449C276.629 79.3777 276.57 80.0222 276.57 80.6785C276.57 81.4675 276.727 82.0652 277.039 82.4714C277.359 82.8777 277.805 83.0808 278.375 83.0808ZM287.105 85.0847L289.871 72.0769H292.086L291.805 74.5261H291.875C292.188 74.0652 292.551 73.6316 292.965 73.2253C293.379 72.8113 293.848 72.4753 294.371 72.2175C294.902 71.9597 295.496 71.8308 296.152 71.8308C296.871 71.8308 297.48 71.9714 297.98 72.2527C298.48 72.5339 298.859 72.9363 299.117 73.4597C299.375 73.9832 299.504 74.6082 299.504 75.3347C299.504 75.655 299.477 75.9988 299.422 76.366C299.375 76.7253 299.312 77.0769 299.234 77.4207L297.605 85.0847H294.805L296.469 77.198C296.539 76.8933 296.59 76.6199 296.621 76.3777C296.66 76.1355 296.68 75.9089 296.68 75.698C296.68 75.1824 296.551 74.7957 296.293 74.5378C296.043 74.28 295.668 74.1511 295.168 74.1511C294.621 74.1511 294.082 74.3621 293.551 74.7839C293.02 75.2058 292.539 75.8191 292.109 76.6238C291.68 77.4285 291.34 78.4011 291.09 79.5417L289.918 85.0847H287.105ZM305.48 85.3191C304.809 85.3191 304.199 85.1589 303.652 84.8386C303.113 84.5183 302.684 84.0222 302.363 83.3503C302.043 82.6707 301.883 81.7996 301.883 80.7371C301.883 79.8464 301.973 78.9753 302.152 78.1238C302.34 77.2644 302.609 76.4597 302.961 75.7097C303.312 74.9519 303.742 74.2878 304.25 73.7175C304.758 73.1394 305.332 72.6902 305.973 72.3699C306.621 72.0417 307.324 71.8777 308.082 71.8777C308.645 71.8777 309.125 71.9753 309.523 72.1707C309.922 72.366 310.258 72.6238 310.531 72.9441C310.805 73.2644 311.035 73.6121 311.223 73.9871H311.328C311.352 73.7839 311.379 73.5261 311.41 73.2136C311.449 72.8933 311.496 72.5496 311.551 72.1824C311.605 71.8074 311.672 71.4441 311.75 71.0925L312.652 66.8503H315.383L311.516 85.0847H309.371L309.629 82.9871H309.547C309.203 83.4246 308.828 83.8191 308.422 84.1707C308.023 84.5222 307.582 84.8035 307.098 85.0144C306.613 85.2175 306.074 85.3191 305.48 85.3191ZM306.547 83.0808C306.914 83.0808 307.266 82.9871 307.602 82.7996C307.945 82.6121 308.262 82.3542 308.551 82.0261C308.848 81.6902 309.117 81.3074 309.359 80.8777C309.602 80.4402 309.809 79.9753 309.98 79.4832C310.152 78.991 310.285 78.491 310.379 77.9832C310.473 77.4753 310.52 76.9832 310.52 76.5066C310.52 75.78 310.344 75.2019 309.992 74.7722C309.648 74.3347 309.133 74.116 308.445 74.116C308 74.116 307.586 74.241 307.203 74.491C306.82 74.741 306.473 75.0808 306.16 75.5105C305.848 75.9402 305.578 76.4363 305.352 76.9988C305.133 77.5535 304.965 78.1472 304.848 78.78C304.73 79.4128 304.672 80.0457 304.672 80.6785C304.672 81.4675 304.828 82.0652 305.141 82.4714C305.461 82.8777 305.93 83.0808 306.547 83.0808ZM43.6133 118.319C42.6836 118.319 41.8555 118.147 41.1289 117.803C40.4023 117.46 39.832 116.932 39.418 116.221C39.0039 115.51 38.7969 114.604 38.7969 113.503C38.7969 112.573 38.8945 111.682 39.0898 110.831C39.293 109.971 39.5859 109.182 39.9688 108.464C40.3516 107.737 40.8203 107.108 41.375 106.577C41.9297 106.038 42.5625 105.62 43.2734 105.323C43.9844 105.018 44.7695 104.866 45.6289 104.866C46.3008 104.866 46.9297 104.932 47.5156 105.065C48.1016 105.19 48.6406 105.366 49.1328 105.593L48.3125 107.76C47.9375 107.589 47.5352 107.44 47.1055 107.315C46.6836 107.182 46.2188 107.116 45.7109 107.116C45.0781 107.116 44.5078 107.288 44 107.632C43.4922 107.968 43.0586 108.432 42.6992 109.026C42.3398 109.612 42.0625 110.276 41.8672 111.018C41.6797 111.76 41.5859 112.538 41.5859 113.35C41.5859 113.928 41.6836 114.421 41.8789 114.827C42.0742 115.233 42.3555 115.546 42.7227 115.764C43.0977 115.975 43.5469 116.081 44.0703 116.081C44.6484 116.081 45.1914 115.999 45.6992 115.835C46.207 115.663 46.7148 115.452 47.2227 115.202V117.475C46.7383 117.733 46.1992 117.936 45.6055 118.085C45.0117 118.241 44.3477 118.319 43.6133 118.319ZM54.9688 118.319C53.9766 118.319 53.1094 118.132 52.3672 117.757C51.6328 117.374 51.0625 116.815 50.6562 116.081C50.2578 115.339 50.0586 114.432 50.0586 113.362C50.0586 112.3 50.2109 111.264 50.5156 110.257C50.8203 109.241 51.2695 108.327 51.8633 107.514C52.457 106.702 53.1797 106.057 54.0312 105.581C54.8828 105.104 55.8516 104.866 56.9375 104.866C58.2656 104.866 59.2617 105.167 59.9258 105.768C60.5977 106.362 60.9336 107.151 60.9336 108.135C60.9336 108.807 60.7812 109.421 60.4766 109.975C60.1719 110.53 59.707 111.01 59.082 111.417C58.4648 111.815 57.6797 112.124 56.7266 112.343C55.7812 112.561 54.668 112.671 53.3867 112.671H52.8594C52.8516 112.788 52.8438 112.909 52.8359 113.034C52.8281 113.151 52.8242 113.268 52.8242 113.385C52.8242 114.253 53.0508 114.936 53.5039 115.436C53.957 115.928 54.6172 116.175 55.4844 116.175C56.1406 116.175 56.7461 116.093 57.3008 115.928C57.8555 115.764 58.4766 115.518 59.1641 115.19V117.358C58.5312 117.663 57.8906 117.901 57.2422 118.073C56.5938 118.237 55.8359 118.319 54.9688 118.319ZM53.1992 110.678H53.5977C54.5508 110.678 55.3789 110.589 56.082 110.409C56.7852 110.221 57.3281 109.948 57.7109 109.589C58.0938 109.221 58.2852 108.776 58.2852 108.253C58.2852 107.846 58.1562 107.53 57.8984 107.303C57.6484 107.069 57.2734 106.952 56.7734 106.952C56.2812 106.952 55.7969 107.104 55.3203 107.409C54.8438 107.706 54.418 108.135 54.043 108.698C53.668 109.253 53.3867 109.913 53.1992 110.678ZM62.1289 118.085L64.8945 105.077H67.1094L66.8281 107.526H66.8984C67.2109 107.065 67.5742 106.632 67.9883 106.225C68.4023 105.811 68.8711 105.475 69.3945 105.218C69.9258 104.96 70.5195 104.831 71.1758 104.831C71.8945 104.831 72.5039 104.971 73.0039 105.253C73.5039 105.534 73.8828 105.936 74.1406 106.46C74.3984 106.983 74.5273 107.608 74.5273 108.335C74.5273 108.655 74.5 108.999 74.4453 109.366C74.3984 109.725 74.3359 110.077 74.2578 110.421L72.6289 118.085H69.8281L71.4922 110.198C71.5625 109.893 71.6133 109.62 71.6445 109.378C71.6836 109.135 71.7031 108.909 71.7031 108.698C71.7031 108.182 71.5742 107.796 71.3164 107.538C71.0664 107.28 70.6914 107.151 70.1914 107.151C69.6445 107.151 69.1055 107.362 68.5742 107.784C68.043 108.206 67.5625 108.819 67.1328 109.624C66.7031 110.428 66.3633 111.401 66.1133 112.542L64.9414 118.085H62.1289ZM80.3633 118.319C79.418 118.319 78.6484 118.108 78.0547 117.686C77.4688 117.257 77.1758 116.507 77.1758 115.436C77.1758 115.225 77.1875 114.995 77.2109 114.745C77.2422 114.487 77.2852 114.221 77.3398 113.948L78.7695 107.198H76.8945L77.1523 105.885L79.3672 104.983L80.8438 102.241H82.5664L81.957 105.112H85.2617L84.8164 107.198H81.5234L80.082 113.96C80.043 114.124 80.0078 114.3 79.9766 114.487C79.9531 114.667 79.9414 114.831 79.9414 114.979C79.9414 115.331 80.0391 115.604 80.2344 115.8C80.4297 115.995 80.7266 116.093 81.125 116.093C81.4297 116.093 81.7227 116.061 82.0039 115.999C82.2852 115.936 82.5938 115.846 82.9297 115.729V117.803C82.6406 117.936 82.2656 118.053 81.8047 118.155C81.3438 118.264 80.8633 118.319 80.3633 118.319ZM85.2383 118.085L87.9922 105.112H90.1367L89.8555 107.561H89.9844C90.3203 107.061 90.6836 106.608 91.0742 106.202C91.4727 105.796 91.9141 105.471 92.3984 105.229C92.8828 104.987 93.4219 104.866 94.0156 104.866C94.2266 104.866 94.4453 104.882 94.6719 104.913C94.9062 104.936 95.1094 104.971 95.2812 105.018L94.6836 107.596C94.5117 107.55 94.3242 107.51 94.1211 107.479C93.918 107.448 93.7031 107.432 93.4766 107.432C92.9609 107.432 92.4766 107.553 92.0234 107.796C91.5703 108.038 91.1602 108.374 90.793 108.803C90.4258 109.233 90.1094 109.737 89.8438 110.315C89.5781 110.885 89.3711 111.507 89.2227 112.178L87.9805 118.085H85.2383ZM99.1719 118.319C98.5078 118.319 97.9023 118.159 97.3555 117.839C96.8164 117.51 96.3867 117.01 96.0664 116.339C95.7461 115.659 95.5859 114.796 95.5859 113.749C95.5859 112.843 95.6797 111.96 95.8672 111.1C96.0625 110.241 96.3359 109.436 96.6875 108.686C97.0469 107.936 97.4805 107.276 97.9883 106.706C98.4961 106.128 99.0703 105.678 99.7109 105.358C100.352 105.03 101.043 104.866 101.785 104.866C102.348 104.866 102.84 104.964 103.262 105.159C103.684 105.346 104.039 105.6 104.328 105.921C104.617 106.241 104.852 106.596 105.031 106.987H105.137L105.84 105.112H107.949L105.195 118.085H103.098L103.355 115.987H103.262C102.926 116.417 102.551 116.807 102.137 117.159C101.73 117.51 101.281 117.792 100.789 118.003C100.297 118.214 99.7578 118.319 99.1719 118.319ZM100.18 116.081C100.727 116.081 101.25 115.878 101.75 115.471C102.25 115.057 102.691 114.51 103.074 113.831C103.465 113.151 103.754 112.405 103.941 111.593C104.035 111.202 104.098 110.831 104.129 110.479C104.168 110.128 104.188 109.776 104.188 109.425C104.188 108.745 104.008 108.19 103.648 107.76C103.289 107.331 102.797 107.116 102.172 107.116C101.742 107.116 101.332 107.237 100.941 107.479C100.559 107.721 100.211 108.057 99.8984 108.487C99.5859 108.909 99.3125 109.397 99.0781 109.952C98.8516 110.507 98.6758 111.104 98.5508 111.745C98.4336 112.378 98.375 113.022 98.375 113.678C98.375 114.468 98.5312 115.065 98.8438 115.471C99.1641 115.878 99.6094 116.081 100.18 116.081ZM108.945 118.085L112.824 99.8503H115.555L111.688 118.085H108.945ZM115.566 118.085L118.32 105.112H121.062L118.309 118.085H115.566ZM120.301 103.167C119.895 103.167 119.555 103.069 119.281 102.874C119.008 102.671 118.871 102.354 118.871 101.925C118.871 101.565 118.938 101.253 119.07 100.987C119.211 100.721 119.41 100.518 119.668 100.378C119.934 100.229 120.25 100.155 120.617 100.155C121.023 100.155 121.355 100.253 121.613 100.448C121.871 100.635 122 100.94 122 101.362C122 101.909 121.848 102.346 121.543 102.675C121.238 103.003 120.824 103.167 120.301 103.167ZM121.156 118.085L121.496 116.362L128.961 107.21H123.805L124.25 105.112H132.547L132.137 107.057L124.801 115.975H130.508L130.074 118.085H121.156ZM138.453 118.319C137.461 118.319 136.594 118.132 135.852 117.757C135.117 117.374 134.547 116.815 134.141 116.081C133.742 115.339 133.543 114.432 133.543 113.362C133.543 112.3 133.695 111.264 134 110.257C134.305 109.241 134.754 108.327 135.348 107.514C135.941 106.702 136.664 106.057 137.516 105.581C138.367 105.104 139.336 104.866 140.422 104.866C141.75 104.866 142.746 105.167 143.41 105.768C144.082 106.362 144.418 107.151 144.418 108.135C144.418 108.807 144.266 109.421 143.961 109.975C143.656 110.53 143.191 111.01 142.566 111.417C141.949 111.815 141.164 112.124 140.211 112.343C139.266 112.561 138.152 112.671 136.871 112.671H136.344C136.336 112.788 136.328 112.909 136.32 113.034C136.312 113.151 136.309 113.268 136.309 113.385C136.309 114.253 136.535 114.936 136.988 115.436C137.441 115.928 138.102 116.175 138.969 116.175C139.625 116.175 140.23 116.093 140.785 115.928C141.34 115.764 141.961 115.518 142.648 115.19V117.358C142.016 117.663 141.375 117.901 140.727 118.073C140.078 118.237 139.32 118.319 138.453 118.319ZM136.684 110.678H137.082C138.035 110.678 138.863 110.589 139.566 110.409C140.27 110.221 140.812 109.948 141.195 109.589C141.578 109.221 141.77 108.776 141.77 108.253C141.77 107.846 141.641 107.53 141.383 107.303C141.133 107.069 140.758 106.952 140.258 106.952C139.766 106.952 139.281 107.104 138.805 107.409C138.328 107.706 137.902 108.135 137.527 108.698C137.152 109.253 136.871 109.913 136.684 110.678ZM151.027 123.85C150.629 123.85 150.305 123.827 150.055 123.78C149.797 123.733 149.562 123.678 149.352 123.616V121.425C149.562 121.471 149.785 121.51 150.02 121.542C150.254 121.581 150.512 121.6 150.793 121.6C151.488 121.6 152.07 121.389 152.539 120.968C153.016 120.553 153.453 119.979 153.852 119.245L154.449 118.155L152.504 105.112H155.223L155.996 111.44C156.051 111.878 156.094 112.346 156.125 112.846C156.164 113.346 156.191 113.831 156.207 114.3C156.223 114.76 156.23 115.151 156.23 115.471H156.312C156.422 115.206 156.559 114.87 156.723 114.464C156.887 114.057 157.07 113.624 157.273 113.163C157.477 112.702 157.68 112.272 157.883 111.874L161.328 105.112H164.293L156.195 120.135C155.75 120.964 155.27 121.655 154.754 122.21C154.246 122.764 153.688 123.175 153.078 123.44C152.469 123.714 151.785 123.85 151.027 123.85ZM169.098 118.296C168.113 118.296 167.254 118.093 166.52 117.686C165.785 117.28 165.215 116.706 164.809 115.964C164.41 115.214 164.211 114.327 164.211 113.303C164.211 112.436 164.301 111.593 164.48 110.772C164.668 109.952 164.941 109.186 165.301 108.475C165.66 107.764 166.109 107.143 166.648 106.612C167.188 106.073 167.812 105.655 168.523 105.358C169.234 105.053 170.031 104.901 170.914 104.901C171.922 104.901 172.789 105.104 173.516 105.51C174.242 105.917 174.801 106.499 175.191 107.257C175.582 108.014 175.777 108.921 175.777 109.975C175.777 110.819 175.688 111.643 175.508 112.448C175.336 113.253 175.074 114.01 174.723 114.721C174.371 115.425 173.926 116.046 173.387 116.585C172.855 117.116 172.23 117.534 171.512 117.839C170.801 118.143 169.996 118.296 169.098 118.296ZM169.297 116.046C169.734 116.046 170.141 115.948 170.516 115.753C170.898 115.55 171.242 115.264 171.547 114.897C171.852 114.522 172.109 114.081 172.32 113.573C172.539 113.057 172.707 112.487 172.824 111.862C172.941 111.237 173 110.569 173 109.858C173 109.382 172.93 108.94 172.789 108.534C172.648 108.12 172.414 107.788 172.086 107.538C171.766 107.28 171.336 107.151 170.797 107.151C170.312 107.151 169.867 107.268 169.461 107.503C169.062 107.729 168.707 108.046 168.395 108.452C168.09 108.858 167.832 109.327 167.621 109.858C167.41 110.382 167.25 110.944 167.141 111.546C167.031 112.139 166.977 112.741 166.977 113.35C166.977 114.218 167.172 114.885 167.562 115.354C167.961 115.815 168.539 116.046 169.297 116.046ZM181.461 118.319C180.766 118.319 180.172 118.182 179.68 117.909C179.195 117.635 178.824 117.241 178.566 116.725C178.316 116.202 178.191 115.577 178.191 114.85C178.191 114.53 178.215 114.178 178.262 113.796C178.316 113.405 178.383 113.003 178.461 112.589L180.055 105.112H182.797L181.121 112.987C181.066 113.292 181.02 113.569 180.98 113.819C180.949 114.061 180.934 114.284 180.934 114.487C180.934 115.01 181.055 115.409 181.297 115.682C181.547 115.948 181.934 116.081 182.457 116.081C183.02 116.081 183.566 115.87 184.098 115.448C184.637 115.018 185.125 114.397 185.562 113.585C186 112.772 186.34 111.792 186.582 110.643L187.754 105.112H190.473L187.73 118.085H185.574L185.855 115.624H185.738C185.426 116.085 185.062 116.522 184.648 116.936C184.234 117.343 183.766 117.675 183.242 117.932C182.719 118.19 182.125 118.319 181.461 118.319ZM191.621 118.085L194.375 105.112H196.52L196.238 107.561H196.367C196.703 107.061 197.066 106.608 197.457 106.202C197.855 105.796 198.297 105.471 198.781 105.229C199.266 104.987 199.805 104.866 200.398 104.866C200.609 104.866 200.828 104.882 201.055 104.913C201.289 104.936 201.492 104.971 201.664 105.018L201.066 107.596C200.895 107.55 200.707 107.51 200.504 107.479C200.301 107.448 200.086 107.432 199.859 107.432C199.344 107.432 198.859 107.553 198.406 107.796C197.953 108.038 197.543 108.374 197.176 108.803C196.809 109.233 196.492 109.737 196.227 110.315C195.961 110.885 195.754 111.507 195.605 112.178L194.363 118.085H191.621ZM213.125 118.319C212.133 118.319 211.266 118.132 210.523 117.757C209.789 117.374 209.219 116.815 208.812 116.081C208.414 115.339 208.215 114.432 208.215 113.362C208.215 112.3 208.367 111.264 208.672 110.257C208.977 109.241 209.426 108.327 210.02 107.514C210.613 106.702 211.336 106.057 212.188 105.581C213.039 105.104 214.008 104.866 215.094 104.866C216.422 104.866 217.418 105.167 218.082 105.768C218.754 106.362 219.09 107.151 219.09 108.135C219.09 108.807 218.938 109.421 218.633 109.975C218.328 110.53 217.863 111.01 217.238 111.417C216.621 111.815 215.836 112.124 214.883 112.343C213.938 112.561 212.824 112.671 211.543 112.671H211.016C211.008 112.788 211 112.909 210.992 113.034C210.984 113.151 210.98 113.268 210.98 113.385C210.98 114.253 211.207 114.936 211.66 115.436C212.113 115.928 212.773 116.175 213.641 116.175C214.297 116.175 214.902 116.093 215.457 115.928C216.012 115.764 216.633 115.518 217.32 115.19V117.358C216.688 117.663 216.047 117.901 215.398 118.073C214.75 118.237 213.992 118.319 213.125 118.319ZM211.355 110.678H211.754C212.707 110.678 213.535 110.589 214.238 110.409C214.941 110.221 215.484 109.948 215.867 109.589C216.25 109.221 216.441 108.776 216.441 108.253C216.441 107.846 216.312 107.53 216.055 107.303C215.805 107.069 215.43 106.952 214.93 106.952C214.438 106.952 213.953 107.104 213.477 107.409C213 107.706 212.574 108.135 212.199 108.698C211.824 109.253 211.543 109.913 211.355 110.678ZM220.332 118.085L223.086 105.112H225.23L224.949 107.561H225.066C225.371 107.1 225.723 106.667 226.121 106.26C226.527 105.846 226.984 105.51 227.492 105.253C228.008 104.995 228.586 104.866 229.227 104.866C230.133 104.866 230.824 105.116 231.301 105.616C231.785 106.116 232.086 106.8 232.203 107.667H232.297C232.617 107.167 232.988 106.706 233.41 106.284C233.84 105.862 234.32 105.522 234.852 105.264C235.391 104.999 235.977 104.866 236.609 104.866C237.656 104.866 238.449 105.171 238.988 105.78C239.527 106.389 239.797 107.241 239.797 108.335C239.797 108.663 239.773 108.999 239.727 109.343C239.688 109.686 239.625 110.042 239.539 110.409L237.922 118.085H235.18L236.855 110.21C236.918 109.905 236.965 109.632 236.996 109.389C237.035 109.139 237.055 108.905 237.055 108.686C237.055 108.178 236.934 107.792 236.691 107.526C236.457 107.253 236.098 107.116 235.613 107.116C235.207 107.116 234.805 107.237 234.406 107.479C234.016 107.721 233.645 108.073 233.293 108.534C232.941 108.995 232.629 109.553 232.355 110.21C232.082 110.858 231.859 111.593 231.688 112.413L230.492 118.085H227.762L229.414 110.233C229.484 109.921 229.535 109.639 229.566 109.389C229.598 109.139 229.613 108.921 229.613 108.733C229.613 108.21 229.5 107.811 229.273 107.538C229.055 107.257 228.703 107.116 228.219 107.116C227.812 107.116 227.41 107.237 227.012 107.479C226.613 107.721 226.238 108.077 225.887 108.546C225.535 109.014 225.219 109.585 224.938 110.257C224.656 110.921 224.426 111.682 224.246 112.542L223.074 118.085H220.332ZM241.66 118.085L244.414 105.112H247.156L244.402 118.085H241.66ZM246.395 103.167C245.988 103.167 245.648 103.069 245.375 102.874C245.102 102.671 244.965 102.354 244.965 101.925C244.965 101.565 245.031 101.253 245.164 100.987C245.305 100.721 245.504 100.518 245.762 100.378C246.027 100.229 246.344 100.155 246.711 100.155C247.117 100.155 247.449 100.253 247.707 100.448C247.965 100.635 248.094 100.94 248.094 101.362C248.094 101.909 247.941 102.346 247.637 102.675C247.332 103.003 246.918 103.167 246.395 103.167ZM251.68 118.319C250.867 118.319 250.156 118.249 249.547 118.108C248.945 117.975 248.402 117.78 247.918 117.522V115.167C248.418 115.464 248.98 115.714 249.605 115.917C250.238 116.112 250.887 116.21 251.551 116.21C252.066 116.21 252.516 116.139 252.898 115.999C253.281 115.858 253.578 115.659 253.789 115.401C254.008 115.135 254.117 114.815 254.117 114.44C254.117 114.167 254.055 113.925 253.93 113.714C253.805 113.503 253.59 113.288 253.285 113.069C252.98 112.85 252.559 112.589 252.02 112.284C251.449 111.964 250.965 111.639 250.566 111.311C250.176 110.975 249.875 110.604 249.664 110.198C249.461 109.792 249.359 109.315 249.359 108.768C249.359 107.948 249.547 107.249 249.922 106.671C250.305 106.085 250.844 105.639 251.539 105.335C252.242 105.022 253.07 104.866 254.023 104.866C254.789 104.866 255.512 104.956 256.191 105.135C256.871 105.307 257.5 105.55 258.078 105.862L257.176 107.901C256.746 107.659 256.27 107.452 255.746 107.28C255.223 107.1 254.66 107.01 254.059 107.01C253.504 107.01 253.039 107.139 252.664 107.397C252.297 107.655 252.113 108.022 252.113 108.499C252.113 108.749 252.172 108.975 252.289 109.178C252.414 109.374 252.621 109.573 252.91 109.776C253.199 109.979 253.594 110.214 254.094 110.479C254.633 110.776 255.113 111.089 255.535 111.417C255.957 111.745 256.289 112.124 256.531 112.553C256.773 112.975 256.895 113.487 256.895 114.089C256.895 115.003 256.68 115.776 256.25 116.409C255.828 117.034 255.227 117.51 254.445 117.839C253.664 118.159 252.742 118.319 251.68 118.319ZM262.531 118.319C261.719 118.319 261.008 118.249 260.398 118.108C259.797 117.975 259.254 117.78 258.77 117.522V115.167C259.27 115.464 259.832 115.714 260.457 115.917C261.09 116.112 261.738 116.21 262.402 116.21C262.918 116.21 263.367 116.139 263.75 115.999C264.133 115.858 264.43 115.659 264.641 115.401C264.859 115.135 264.969 114.815 264.969 114.44C264.969 114.167 264.906 113.925 264.781 113.714C264.656 113.503 264.441 113.288 264.137 113.069C263.832 112.85 263.41 112.589 262.871 112.284C262.301 111.964 261.816 111.639 261.418 111.311C261.027 110.975 260.727 110.604 260.516 110.198C260.312 109.792 260.211 109.315 260.211 108.768C260.211 107.948 260.398 107.249 260.773 106.671C261.156 106.085 261.695 105.639 262.391 105.335C263.094 105.022 263.922 104.866 264.875 104.866C265.641 104.866 266.363 104.956 267.043 105.135C267.723 105.307 268.352 105.55 268.93 105.862L268.027 107.901C267.598 107.659 267.121 107.452 266.598 107.28C266.074 107.1 265.512 107.01 264.91 107.01C264.355 107.01 263.891 107.139 263.516 107.397C263.148 107.655 262.965 108.022 262.965 108.499C262.965 108.749 263.023 108.975 263.141 109.178C263.266 109.374 263.473 109.573 263.762 109.776C264.051 109.979 264.445 110.214 264.945 110.479C265.484 110.776 265.965 111.089 266.387 111.417C266.809 111.745 267.141 112.124 267.383 112.553C267.625 112.975 267.746 113.487 267.746 114.089C267.746 115.003 267.531 115.776 267.102 116.409C266.68 117.034 266.078 117.51 265.297 117.839C264.516 118.159 263.594 118.319 262.531 118.319ZM269.973 118.085L272.727 105.112H275.469L272.715 118.085H269.973ZM274.707 103.167C274.301 103.167 273.961 103.069 273.688 102.874C273.414 102.671 273.277 102.354 273.277 101.925C273.277 101.565 273.344 101.253 273.477 100.987C273.617 100.721 273.816 100.518 274.074 100.378C274.34 100.229 274.656 100.155 275.023 100.155C275.43 100.155 275.762 100.253 276.02 100.448C276.277 100.635 276.406 100.94 276.406 101.362C276.406 101.909 276.254 102.346 275.949 102.675C275.645 103.003 275.23 103.167 274.707 103.167ZM282.02 118.296C281.035 118.296 280.176 118.093 279.441 117.686C278.707 117.28 278.137 116.706 277.73 115.964C277.332 115.214 277.133 114.327 277.133 113.303C277.133 112.436 277.223 111.593 277.402 110.772C277.59 109.952 277.863 109.186 278.223 108.475C278.582 107.764 279.031 107.143 279.57 106.612C280.109 106.073 280.734 105.655 281.445 105.358C282.156 105.053 282.953 104.901 283.836 104.901C284.844 104.901 285.711 105.104 286.438 105.51C287.164 105.917 287.723 106.499 288.113 107.257C288.504 108.014 288.699 108.921 288.699 109.975C288.699 110.819 288.609 111.643 288.43 112.448C288.258 113.253 287.996 114.01 287.645 114.721C287.293 115.425 286.848 116.046 286.309 116.585C285.777 117.116 285.152 117.534 284.434 117.839C283.723 118.143 282.918 118.296 282.02 118.296ZM282.219 116.046C282.656 116.046 283.062 115.948 283.438 115.753C283.82 115.55 284.164 115.264 284.469 114.897C284.773 114.522 285.031 114.081 285.242 113.573C285.461 113.057 285.629 112.487 285.746 111.862C285.863 111.237 285.922 110.569 285.922 109.858C285.922 109.382 285.852 108.94 285.711 108.534C285.57 108.12 285.336 107.788 285.008 107.538C284.688 107.28 284.258 107.151 283.719 107.151C283.234 107.151 282.789 107.268 282.383 107.503C281.984 107.729 281.629 108.046 281.316 108.452C281.012 108.858 280.754 109.327 280.543 109.858C280.332 110.382 280.172 110.944 280.062 111.546C279.953 112.139 279.898 112.741 279.898 113.35C279.898 114.218 280.094 114.885 280.484 115.354C280.883 115.815 281.461 116.046 282.219 116.046ZM290.316 118.085L293.082 105.077H295.297L295.016 107.526H295.086C295.398 107.065 295.762 106.632 296.176 106.225C296.59 105.811 297.059 105.475 297.582 105.218C298.113 104.96 298.707 104.831 299.363 104.831C300.082 104.831 300.691 104.971 301.191 105.253C301.691 105.534 302.07 105.936 302.328 106.46C302.586 106.983 302.715 107.608 302.715 108.335C302.715 108.655 302.688 108.999 302.633 109.366C302.586 109.725 302.523 110.077 302.445 110.421L300.816 118.085H298.016L299.68 110.198C299.75 109.893 299.801 109.62 299.832 109.378C299.871 109.135 299.891 108.909 299.891 108.698C299.891 108.182 299.762 107.796 299.504 107.538C299.254 107.28 298.879 107.151 298.379 107.151C297.832 107.151 297.293 107.362 296.762 107.784C296.23 108.206 295.75 108.819 295.32 109.624C294.891 110.428 294.551 111.401 294.301 112.542L293.129 118.085H290.316ZM307.953 118.319C307.141 118.319 306.43 118.249 305.82 118.108C305.219 117.975 304.676 117.78 304.191 117.522V115.167C304.691 115.464 305.254 115.714 305.879 115.917C306.512 116.112 307.16 116.21 307.824 116.21C308.34 116.21 308.789 116.139 309.172 115.999C309.555 115.858 309.852 115.659 310.062 115.401C310.281 115.135 310.391 114.815 310.391 114.44C310.391 114.167 310.328 113.925 310.203 113.714C310.078 113.503 309.863 113.288 309.559 113.069C309.254 112.85 308.832 112.589 308.293 112.284C307.723 111.964 307.238 111.639 306.84 111.311C306.449 110.975 306.148 110.604 305.938 110.198C305.734 109.792 305.633 109.315 305.633 108.768C305.633 107.948 305.82 107.249 306.195 106.671C306.578 106.085 307.117 105.639 307.812 105.335C308.516 105.022 309.344 104.866 310.297 104.866C311.062 104.866 311.785 104.956 312.465 105.135C313.145 105.307 313.773 105.55 314.352 105.862L313.449 107.901C313.02 107.659 312.543 107.452 312.02 107.28C311.496 107.1 310.934 107.01 310.332 107.01C309.777 107.01 309.312 107.139 308.938 107.397C308.57 107.655 308.387 108.022 308.387 108.499C308.387 108.749 308.445 108.975 308.562 109.178C308.688 109.374 308.895 109.573 309.184 109.776C309.473 109.979 309.867 110.214 310.367 110.479C310.906 110.776 311.387 111.089 311.809 111.417C312.23 111.745 312.562 112.124 312.805 112.553C313.047 112.975 313.168 113.487 313.168 114.089C313.168 115.003 312.953 115.776 312.523 116.409C312.102 117.034 311.5 117.51 310.719 117.839C309.938 118.159 309.016 118.319 307.953 118.319ZM262.309 151.319C261.637 151.319 261.027 151.159 260.48 150.839C259.941 150.518 259.512 150.022 259.191 149.35C258.871 148.671 258.711 147.8 258.711 146.737C258.711 145.846 258.801 144.975 258.98 144.124C259.168 143.264 259.438 142.46 259.789 141.71C260.141 140.952 260.57 140.288 261.078 139.718C261.586 139.139 262.16 138.69 262.801 138.37C263.449 138.042 264.152 137.878 264.91 137.878C265.473 137.878 265.953 137.975 266.352 138.171C266.75 138.366 267.086 138.624 267.359 138.944C267.633 139.264 267.863 139.612 268.051 139.987H268.156C268.18 139.784 268.207 139.526 268.238 139.214C268.277 138.893 268.324 138.55 268.379 138.182C268.434 137.807 268.5 137.444 268.578 137.093L269.48 132.85H272.211L268.344 151.085H266.199L266.457 148.987H266.375C266.031 149.425 265.656 149.819 265.25 150.171C264.852 150.522 264.41 150.803 263.926 151.014C263.441 151.218 262.902 151.319 262.309 151.319ZM263.375 149.081C263.742 149.081 264.094 148.987 264.43 148.8C264.773 148.612 265.09 148.354 265.379 148.026C265.676 147.69 265.945 147.307 266.188 146.878C266.43 146.44 266.637 145.975 266.809 145.483C266.98 144.991 267.113 144.491 267.207 143.983C267.301 143.475 267.348 142.983 267.348 142.507C267.348 141.78 267.172 141.202 266.82 140.772C266.477 140.335 265.961 140.116 265.273 140.116C264.828 140.116 264.414 140.241 264.031 140.491C263.648 140.741 263.301 141.081 262.988 141.51C262.676 141.94 262.406 142.436 262.18 142.999C261.961 143.553 261.793 144.147 261.676 144.78C261.559 145.413 261.5 146.046 261.5 146.678C261.5 147.468 261.656 148.065 261.969 148.471C262.289 148.878 262.758 149.081 263.375 149.081ZM276.359 151.319C275.695 151.319 275.09 151.159 274.543 150.839C274.004 150.51 273.574 150.01 273.254 149.339C272.934 148.659 272.773 147.796 272.773 146.749C272.773 145.843 272.867 144.96 273.055 144.1C273.25 143.241 273.523 142.436 273.875 141.686C274.234 140.936 274.668 140.276 275.176 139.706C275.684 139.128 276.258 138.678 276.898 138.358C277.539 138.03 278.23 137.866 278.973 137.866C279.535 137.866 280.027 137.964 280.449 138.159C280.871 138.346 281.227 138.6 281.516 138.921C281.805 139.241 282.039 139.596 282.219 139.987H282.324L283.027 138.112H285.137L282.383 151.085H280.285L280.543 148.987H280.449C280.113 149.417 279.738 149.807 279.324 150.159C278.918 150.51 278.469 150.792 277.977 151.003C277.484 151.214 276.945 151.319 276.359 151.319ZM277.367 149.081C277.914 149.081 278.438 148.878 278.938 148.471C279.438 148.057 279.879 147.51 280.262 146.831C280.652 146.151 280.941 145.405 281.129 144.593C281.223 144.202 281.285 143.831 281.316 143.479C281.355 143.128 281.375 142.776 281.375 142.425C281.375 141.745 281.195 141.19 280.836 140.76C280.477 140.331 279.984 140.116 279.359 140.116C278.93 140.116 278.52 140.237 278.129 140.479C277.746 140.721 277.398 141.057 277.086 141.487C276.773 141.909 276.5 142.397 276.266 142.952C276.039 143.507 275.863 144.104 275.738 144.745C275.621 145.378 275.562 146.022 275.562 146.678C275.562 147.468 275.719 148.065 276.031 148.471C276.352 148.878 276.797 149.081 277.367 149.081ZM290.152 151.319C289.207 151.319 288.438 151.108 287.844 150.686C287.258 150.257 286.965 149.507 286.965 148.436C286.965 148.225 286.977 147.995 287 147.745C287.031 147.487 287.074 147.221 287.129 146.948L288.559 140.198H286.684L286.941 138.885L289.156 137.983L290.633 135.241H292.355L291.746 138.112H295.051L294.605 140.198H291.312L289.871 146.96C289.832 147.124 289.797 147.3 289.766 147.487C289.742 147.667 289.73 147.831 289.73 147.979C289.73 148.331 289.828 148.604 290.023 148.8C290.219 148.995 290.516 149.093 290.914 149.093C291.219 149.093 291.512 149.061 291.793 148.999C292.074 148.936 292.383 148.846 292.719 148.729V150.803C292.43 150.936 292.055 151.053 291.594 151.155C291.133 151.264 290.652 151.319 290.152 151.319ZM299.164 151.319C298.5 151.319 297.895 151.159 297.348 150.839C296.809 150.51 296.379 150.01 296.059 149.339C295.738 148.659 295.578 147.796 295.578 146.749C295.578 145.843 295.672 144.96 295.859 144.1C296.055 143.241 296.328 142.436 296.68 141.686C297.039 140.936 297.473 140.276 297.98 139.706C298.488 139.128 299.062 138.678 299.703 138.358C300.344 138.03 301.035 137.866 301.777 137.866C302.34 137.866 302.832 137.964 303.254 138.159C303.676 138.346 304.031 138.6 304.32 138.921C304.609 139.241 304.844 139.596 305.023 139.987H305.129L305.832 138.112H307.941L305.188 151.085H303.09L303.348 148.987H303.254C302.918 149.417 302.543 149.807 302.129 150.159C301.723 150.51 301.273 150.792 300.781 151.003C300.289 151.214 299.75 151.319 299.164 151.319ZM300.172 149.081C300.719 149.081 301.242 148.878 301.742 148.471C302.242 148.057 302.684 147.51 303.066 146.831C303.457 146.151 303.746 145.405 303.934 144.593C304.027 144.202 304.09 143.831 304.121 143.479C304.16 143.128 304.18 142.776 304.18 142.425C304.18 141.745 304 141.19 303.641 140.76C303.281 140.331 302.789 140.116 302.164 140.116C301.734 140.116 301.324 140.237 300.934 140.479C300.551 140.721 300.203 141.057 299.891 141.487C299.578 141.909 299.305 142.397 299.07 142.952C298.844 143.507 298.668 144.104 298.543 144.745C298.426 145.378 298.367 146.022 298.367 146.678C298.367 147.468 298.523 148.065 298.836 148.471C299.156 148.878 299.602 149.081 300.172 149.081ZM310.285 151.401C309.77 151.401 309.391 151.264 309.148 150.991C308.914 150.718 308.797 150.382 308.797 149.983C308.797 149.444 308.953 148.96 309.266 148.53C309.586 148.1 310.113 147.885 310.848 147.885C311.277 147.885 311.621 148.01 311.879 148.26C312.145 148.51 312.277 148.866 312.277 149.327C312.277 149.889 312.102 150.378 311.75 150.792C311.406 151.198 310.918 151.401 310.285 151.401Z" fill="#EDF8E6"/>
<defs>
<linearGradient id="paint0_linear_247_1846" x1="291.334" y1="-22.9302" x2="571.773" y2="348.007" gradientUnits="userSpaceOnUse">
<stop stop-color="#28F17C"/>
<stop offset="1" stop-color="#ECFF38"/>
</linearGradient>
<linearGradient id="paint1_linear_247_1846" x1="291.334" y1="-22.9302" x2="571.773" y2="348.007" gradientUnits="userSpaceOnUse">
<stop stop-color="#28F17C"/>
<stop offset="1" stop-color="#ECFF38"/>
</linearGradient>
</defs>
</svg>
