<svg width="318" height="52" viewBox="0 0 318 52" fill="none" xmlns="http://www.w3.org/2000/svg">
<path d="M285.696 48.1988H0L5.08015 25.8496C6.50019 19.5935 9.96688 14.0114 14.9139 10.0154C19.8609 6.01936 25.9958 3.84556 32.3163 3.84913H318L312.92 26.1984C311.498 32.4515 308.033 38.0308 303.089 42.0262C298.145 46.0217 292.013 48.1975 285.696 48.1988Z" fill="url(#paint0_linear_946_2604)"/>
<g style="mix-blend-mode:multiply">
<path d="M18.332 50.6771L23.9214 26.0664C25.5014 19.0088 29.4016 12.7086 34.979 8.20428C40.5564 3.69994 47.4782 1.26025 54.6035 1.28733H305.117L299.516 25.898C297.939 32.9558 294.041 39.2572 288.466 43.7637C282.891 48.2702 275.97 50.7128 268.846 50.6891L18.332 50.6771Z" fill="#132F02"/>
</g>
<path d="M303.504 2.57417L298.27 25.585C296.764 32.3631 293.027 38.4169 287.677 42.747C282.327 47.077 275.684 49.4245 268.843 49.4018H19.9399L25.174 26.3789C26.685 19.6065 30.4239 13.5596 35.7737 9.23631C41.1235 4.91298 47.7645 2.57148 54.6008 2.59822H303.504M306.713 3.56236e-05H54.6008C47.1848 -0.0109816 39.9845 2.53374 34.1768 7.21824C28.3692 11.9027 24.2977 18.4499 22.6279 25.7895L16.707 52H268.843C276.26 52.0082 283.461 49.461 289.268 44.7744C295.075 40.0879 299.146 33.5393 300.816 26.1985L306.737 3.56236e-05H306.713Z" fill="white"/>
<defs>
<linearGradient id="paint0_linear_946_2604" x1="-43.126" y1="17.9604" x2="-8.5554" y2="133.848" gradientUnits="userSpaceOnUse">
<stop offset="0.0617621" stop-color="#00FFED"/>
<stop offset="0.910636" stop-color="#FF66FF"/>
</linearGradient>
</defs>
</svg>
