<svg xmlns="http://www.w3.org/2000/svg" width="100" height="100" viewBox="0 0 100 100" fill="none">
  <path d="M82.8879 53.8812C81.8613 52.6578 80.3566 51.9688 78.7676 51.9688H76.1379C73.6488 42.2094 66.7722 41.1969 66.5472 41.1828C64.9582 40.8734 63.5519 40.3812 62.3285 39.6922C61.7941 39.3969 61.2457 39.0172 60.6972 38.5953C60.6832 38.5812 60.6832 38.5672 60.6691 38.5672C59.4152 37.5371 58.4347 36.2136 57.8144 34.7141C61.5832 31.0578 63.9738 25.0531 63.9738 19.4703C63.9738 17.6 63.6926 15.8844 63.1863 14.3094C63.1582 14.1969 63.1582 14.0844 63.1019 13.9859C63.0879 13.9578 63.0738 13.9438 63.0597 13.9156C61.1332 8.47344 56.3238 5 50.0801 5C42.6832 5 37.3254 9.86562 36.3551 17.0797C36.3551 17.1078 36.341 17.1219 36.341 17.1359V17.15C36.2426 17.8953 36.1863 18.6687 36.1863 19.4703C36.1863 25.0672 38.5769 31.0859 42.3597 34.7281C42.1629 35.2062 41.9379 35.6703 41.6707 36.1063C41.0801 37.0344 40.3629 37.8641 39.4347 38.6094C39.2097 38.8203 38.9566 38.9891 38.6613 39.1859C37.2972 40.1141 35.5957 40.7891 33.7113 41.1688C33.4019 41.1969 26.5254 42.2094 24.0223 51.9688H21.3926C19.8035 51.9688 18.2988 52.6578 17.2723 53.8812C16.2457 55.1047 15.8098 56.7078 16.0769 58.2828L20.8582 86.0141C21.0724 87.2714 21.7255 88.412 22.7013 89.2334C23.6771 90.0547 24.9124 90.5035 26.1879 90.5H73.9722C76.6019 90.5 78.8519 88.6156 79.2879 86.0141L84.0832 58.2828C84.3504 56.7078 83.9144 55.1047 82.8879 53.8812ZM50.0801 7.72813C54.8332 7.72813 58.4051 9.99219 60.1066 13.7891C51.5988 17.0656 47.0988 12.1859 46.9019 11.975C46.7728 11.8145 46.6071 11.6874 46.4187 11.6042C46.2303 11.521 46.0247 11.4842 45.8191 11.4969C45.4113 11.5109 45.0316 11.7219 44.7785 12.0453C43.3301 14 41.6285 15.1109 39.4207 15.5328C40.7566 10.6812 44.6379 7.72813 50.0801 7.72813ZM38.9144 19.4703C38.9144 19.0906 38.9285 18.725 38.9566 18.3734C41.8254 18.05 44.1176 16.9109 46.016 14.8297C48.1676 16.5312 53.2441 19.3297 60.9363 16.4187C61.1332 17.375 61.2457 18.3875 61.2457 19.4703C61.2457 26.8531 56.366 35.4312 50.0801 35.4312C48.1957 35.4312 46.4519 34.6578 44.9051 33.3781C44.9051 33.3781 44.891 33.3641 44.8769 33.3641C41.291 30.3687 38.9144 24.6313 38.9144 19.4703ZM57.6597 39.4531L50.0801 44.7266L42.5004 39.4531C43.0488 38.8625 43.5551 38.2297 43.991 37.5266C44.2019 37.1891 44.3707 36.8375 44.5535 36.4859C46.2269 37.5406 48.0972 38.1594 50.0801 38.1594C52.0629 38.1594 53.9332 37.5406 55.6066 36.4719C55.9301 37.1047 56.2676 37.6813 56.6613 38.2156C56.9707 38.6656 57.3082 39.0734 57.6597 39.4531ZM34.1332 43.8547C36.4957 43.3906 38.5347 42.575 40.1801 41.45C40.2504 41.4078 40.3207 41.3516 40.391 41.3094L49.3066 47.4969C49.5308 47.6618 49.8018 47.7508 50.0801 47.7508C50.3583 47.7508 50.6293 47.6618 50.8535 47.4969L59.7832 41.2953C60.191 41.5766 60.5988 41.8438 60.9926 42.0688C62.4551 42.8984 64.1566 43.5031 66.1113 43.8687C66.3363 43.8969 71.2019 44.6984 73.3254 51.9688H26.8348C28.9722 44.6984 33.8379 43.8969 34.1332 43.8547ZM81.3972 57.8188L76.6019 85.55C76.391 86.8297 75.2801 87.7719 73.9722 87.7719H26.1879C24.8801 87.7719 23.7691 86.8297 23.5441 85.55L18.7629 57.8188C18.6363 57.0313 18.8472 56.2437 19.3535 55.6391C19.8597 55.0344 20.6051 54.6828 21.3926 54.6828H78.7676C79.5551 54.6828 80.3004 55.0344 80.8066 55.6391C81.3129 56.2437 81.5238 57.0313 81.3972 57.8188Z" fill="#EDF8E6"/>
  <path opacity="0.3" d="M61.2453 19.4703C61.2453 26.8531 56.3656 35.4313 50.0797 35.4313C48.1953 35.4313 46.4516 34.6578 44.9047 33.3782C44.9047 33.3782 44.8906 33.3641 44.8766 33.3641C41.2906 30.3688 38.9141 24.6313 38.9141 19.4703C38.9141 19.0906 38.9281 18.725 38.9563 18.3735C41.825 18.05 44.1172 16.911 46.0156 14.8297C48.1672 16.5313 53.2438 19.3297 60.9359 16.4188C61.1328 17.375 61.2453 18.3875 61.2453 19.4703Z" fill="#EDF8E6"/>
  <path opacity="0.3" d="M80.6617 55.4562C80.1554 54.8516 79.4101 54.5 78.6226 54.5H21.2476C20.4601 54.5 19.7148 54.8516 19.2085 55.4562C18.7023 56.0609 18.4913 56.8484 18.6179 57.6359L23.3992 85.3672C23.6242 86.6469 24.7351 87.5891 26.0429 87.5891H73.8273C75.1351 87.5891 76.246 86.6469 76.457 85.3672L81.2523 57.6359C81.3788 56.8484 81.1679 56.0609 80.6617 55.4562ZM49.9351 75.3125C48.8032 75.3125 47.7176 74.8628 46.9172 74.0624C46.1168 73.262 45.6671 72.1765 45.6671 71.0445C45.6671 69.9126 46.1168 68.827 46.9172 68.0266C47.7176 67.2262 48.8032 66.7766 49.9351 66.7766C51.067 66.7766 52.1526 67.2262 52.953 68.0266C53.7534 68.827 54.2031 69.9126 54.2031 71.0445C54.2031 72.1765 53.7534 73.262 52.953 74.0624C52.1526 74.8628 51.067 75.3125 49.9351 75.3125Z" fill="#EDF8E6"/>
  <path d="M50.0805 66.9594C48.9485 66.9594 47.863 67.409 47.0626 68.2094C46.2622 69.0098 45.8125 70.0954 45.8125 71.2273C45.8125 72.3593 46.2622 73.4448 47.0626 74.2452C47.863 75.0456 48.9485 75.4953 50.0805 75.4953C51.2124 75.4953 52.298 75.0456 53.0984 74.2452C53.8988 73.4448 54.3484 72.3593 54.3484 71.2273C54.3484 70.0954 53.8988 69.0098 53.0984 68.2094C52.298 67.409 51.2124 66.9594 50.0805 66.9594ZM50.0805 72.7672C49.6721 72.7672 49.2804 72.6049 48.9916 72.3162C48.7029 72.0274 48.5406 71.6357 48.5406 71.2273C48.5406 70.8189 48.7029 70.4273 48.9916 70.1385C49.2804 69.8497 49.6721 69.6875 50.0805 69.6875C50.4889 69.6875 50.8805 69.8497 51.1693 70.1385C51.4581 70.4273 51.6203 70.8189 51.6203 71.2273C51.6203 71.6357 51.4581 72.0274 51.1693 72.3162C50.8805 72.6049 50.4889 72.7672 50.0805 72.7672Z" fill="#EDF8E6"/>
  <path d="M51.6125 71.2344C51.6125 72.0781 50.9234 72.7672 50.0797 72.7672C49.2359 72.7672 48.5469 72.0781 48.5469 71.2344C48.5469 70.3766 49.2359 69.6875 50.0797 69.6875C50.9234 69.6875 51.6125 70.3766 51.6125 71.2344Z" fill="url(#paint0_linear_379_2951)"/>
  <path d="M75.4641 92.2719H24.6844C23.925 92.2719 23.3203 92.8765 23.3203 93.6359C23.3203 94.3953 23.925 95 24.6844 95H75.4641C76.2234 95 76.8281 94.3953 76.8281 93.6359C76.8281 92.8765 76.2234 92.2719 75.4641 92.2719Z" fill="#EDF8E6"/>
  <defs>
    <linearGradient id="paint0_linear_379_2951" x1="48.1311" y1="70.6674" x2="51.4834" y2="72.2275" gradientUnits="userSpaceOnUse">
      <stop offset="0.0617621" stop-color="#00FFED"/>
      <stop offset="0.910636" stop-color="#FF66FF"/>
    </linearGradient>
  </defs>
</svg>