<svg width="233" height="303" viewBox="0 0 233 303" fill="none" xmlns="http://www.w3.org/2000/svg">
<g filter="url(#filter0_b_268_364)">
<path d="M229.034 1.48718C227.847 -0.114866 5.49856 -0.114866 4.31113 1.48718C1.54987 5.20177 0.545777 36.3203 0.492188 73.6468C9.21599 68.1948 18.3205 63.4817 28.243 60.9856C58.0416 53.4887 85.3214 75.8186 84.5938 106.666C84.1255 126.393 73.9069 140.955 53.8391 144.633C42.0748 146.788 29.8451 144.433 18.7408 139.971C12.5921 137.497 6.73112 134.4 1.01397 131.03C1.79525 174.533 3.29012 212.508 4.31396 213.845C5.20524 215.01 45.465 215.679 91.6648 215.853C85.6515 225.296 80.3546 235.151 77.661 245.968C70.1979 275.91 92.4235 303.32 123.127 302.584C142.761 302.116 157.255 291.846 160.916 271.685C163.06 259.864 160.716 247.576 156.274 236.423C153.417 229.245 149.719 222.462 145.734 215.839C190.213 215.642 228.174 214.976 229.037 213.848C231.406 210.751 236.294 11.2602 229.034 1.48718Z" fill="#13E0F6" fill-opacity="0.2"/>
<path d="M145.734 215.839C145.928 215.838 146.122 215.838 146.315 215.837C146.264 215.752 146.213 215.667 146.162 215.582L145.734 215.839ZM145.734 215.839L145.736 216.339C145.835 216.339 145.934 216.338 146.033 216.338C145.933 216.172 145.834 216.005 145.734 215.839ZM18.5542 140.435L18.5544 140.435C29.7138 144.919 42.0426 147.302 53.9291 145.125L53.8391 144.633L53.9292 145.125C64.0689 143.267 71.7548 138.649 76.9605 131.975C82.1624 125.307 84.8576 116.623 85.0936 106.678C85.8289 75.5097 58.2495 52.9208 28.1211 60.5007C18.4178 62.9417 9.50584 67.4834 0.993668 72.7463C1.02759 54.4366 1.29309 37.6765 1.88574 24.9858C2.18697 18.5354 2.57235 13.1449 3.05348 9.13981C3.29414 7.13645 3.55762 5.48966 3.84393 4.23451C4.10839 3.07516 4.37978 2.31153 4.6337 1.90193C4.73691 1.8825 4.89318 1.86119 5.10813 1.83905C5.55078 1.79344 6.19866 1.74858 7.04334 1.7049C8.73036 1.61765 11.1748 1.53643 14.2715 1.46136C20.4636 1.31126 29.2482 1.18613 39.7628 1.086C60.7914 0.88577 88.7316 0.785645 116.673 0.785645C144.614 0.785645 172.554 0.88577 193.583 1.086C204.097 1.18613 212.882 1.31126 219.074 1.46136C222.171 1.53643 224.615 1.61765 226.302 1.7049C227.147 1.74858 227.795 1.79344 228.237 1.83905C228.452 1.86118 228.608 1.88247 228.711 1.90189C228.865 2.1507 229.032 2.5407 229.202 3.09397C229.397 3.73244 229.585 4.54915 229.765 5.53782C230.123 7.51457 230.44 10.1427 230.718 13.3343C231.273 19.7155 231.668 28.3101 231.931 38.3691C232.456 58.4849 232.452 84.4271 232.147 110.165C231.841 135.903 231.235 161.431 230.557 180.717C230.218 190.361 229.862 198.441 229.516 204.205C229.343 207.088 229.173 209.387 229.01 211.01C228.928 211.823 228.849 212.459 228.773 212.912C228.735 213.139 228.699 213.31 228.667 213.431C228.661 213.455 228.655 213.475 228.65 213.492C228.582 213.513 228.484 213.537 228.35 213.564C228.037 213.626 227.581 213.689 226.982 213.752C225.788 213.877 224.071 213.996 221.886 214.108C217.518 214.332 211.308 214.527 203.73 214.693C188.577 215.025 167.97 215.241 145.731 215.339L144.852 215.343L145.305 216.097C149.284 222.709 152.966 229.466 155.809 236.608L155.809 236.608C160.23 247.706 162.546 259.896 160.424 271.596C158.613 281.572 154.13 289.065 147.702 294.126C141.27 299.191 132.849 301.852 123.115 302.084C92.7383 302.812 70.7637 275.708 78.1461 246.089L77.661 245.968L78.1462 246.089C80.8205 235.35 86.0839 225.548 92.0865 216.122L92.5737 215.357L91.6666 215.353C68.5681 215.266 46.9564 215.055 31.0092 214.721C23.0349 214.553 16.4808 214.355 11.8665 214.126C9.55813 214.012 7.74223 213.89 6.479 213.761C5.84578 213.697 5.36255 213.632 5.02953 213.567C4.88169 213.538 4.77425 213.512 4.70122 213.489C4.6997 213.484 4.69814 213.479 4.69652 213.473C4.67026 213.383 4.64051 213.254 4.60832 213.081C4.54418 212.737 4.47682 212.253 4.40713 211.632C4.268 210.391 4.12315 208.637 3.97515 206.426C3.67927 202.004 3.37222 195.778 3.07261 188.23C2.48163 173.342 1.92005 153.326 1.53001 131.912C7.01688 135.115 12.6507 138.06 18.5542 140.435Z" stroke="white" stroke-opacity="0.5"/>
</g>
<g opacity="0.7">
<path d="M195.204 59.4349C197.198 62.6005 198.131 66.1645 199.774 69.4795C200.154 69.387 200.513 69.323 200.85 69.202C201.597 68.9531 202.343 68.8179 203.118 69.0313C204.445 69.3941 205.105 70.7813 204.56 72.0404C204.474 72.2396 204.366 72.4317 204.251 72.6593C204.682 73.3992 205.435 73.9683 205.45 74.9357C205.464 75.8605 204.998 76.5221 204.395 77.077C204.395 77.2121 204.373 77.2904 204.395 77.3544C204.89 78.9621 204.675 79.7233 203.297 80.7405C202.709 81.1745 202.063 81.5586 201.381 81.8218C199.494 82.5546 197.586 83.2304 195.67 83.8777C194.988 84.1053 194.264 84.2761 193.553 84.3259C192.14 84.4184 191.753 84.0129 191.781 82.6541C191.781 82.4763 191.803 82.3056 191.817 82.0281C191.466 82.0708 191.179 82.0708 190.913 82.142C189.105 82.6328 188.215 82.0139 188.129 80.1857C188.115 79.9296 188.158 79.6735 188.179 79.3534C187.957 79.2822 187.727 79.1898 187.491 79.1328C186.479 78.9052 186.077 78.2934 186.321 77.3046C186.536 76.4154 187.031 75.7111 187.835 75.1491C187.39 74.2528 186.888 73.4063 186.544 72.5028C185.769 70.4896 185.094 68.448 184.348 66.4277C183.853 65.0974 183.293 63.7885 182.762 62.4653C182.461 61.7184 182.167 60.9785 181.873 60.2316C181.521 59.3495 180.796 59.1219 179.921 59.0721C177.568 58.9369 175.207 58.8729 172.868 58.6026C170.342 58.3109 168.341 56.9308 166.633 55.1311C165.801 54.2561 165.047 53.3099 164.258 52.3994C163.002 50.9624 162.522 49.2053 162.134 47.4198C161.144 42.9452 162.249 38.7481 164.021 34.6577C164.43 33.7187 164.904 32.8081 165.334 31.8833C166.511 29.3722 168.463 27.608 170.787 26.1497C173.858 24.2218 177.252 23.3326 180.811 22.9911C181.5 22.9271 182.21 23.0054 182.906 23.0765C184.657 23.2544 186.457 23.2757 188.144 23.7168C191.781 24.6629 194.902 26.5267 197.17 29.614C199.2 32.3813 200.449 35.4473 200.815 38.869C200.987 40.4981 201.367 42.1129 201.46 43.7491C201.654 47.1921 201.037 50.5356 199.573 53.6656C198.727 55.4796 197.521 57.1087 196.086 58.5457C195.835 58.8089 195.577 59.065 195.204 59.4349ZM197.22 70.511C198.368 69.9988 198.375 69.9988 197.98 69.0242C197.564 68.0069 197.084 67.0181 196.725 65.9866C196.007 63.9379 195.046 62.01 194.027 60.0965C193.589 59.2784 193.625 58.8231 194.35 58.2753C195.857 57.1371 196.854 55.5863 197.808 54.0427C199.595 51.1474 200.104 47.8679 200.083 44.5529C200.068 42.554 199.681 40.555 199.387 38.5703C198.956 35.6607 197.88 32.9931 196.115 30.6171C193.848 27.5653 190.805 25.7157 187.067 24.9759C186.601 24.8834 186.142 24.7269 185.675 24.6273C183.91 24.2503 182.16 23.7452 180.33 23.9942C176.929 24.4637 173.715 25.4667 170.859 27.4159C169.489 28.3549 168.118 29.3153 167.272 30.7878C165.715 33.491 164.251 36.2512 163.555 39.3172C162.931 42.0489 162.586 44.7948 163.34 47.5691C163.706 48.9208 164.1 50.2581 165.011 51.3608C165.872 52.3994 166.733 53.4593 167.695 54.4126C169.295 55.9989 171.117 57.1869 173.485 57.315C175.695 57.4288 177.898 57.6422 180.1 57.7205C181.758 57.7774 182.798 58.5385 183.351 60.0538C183.602 60.7438 183.874 61.4196 184.14 62.1025C184.965 64.2153 185.79 66.3281 186.608 68.4409C187.204 69.9774 187.792 71.514 188.402 73.0435C188.545 73.4063 188.796 73.7264 189.012 74.0892C190.26 73.7335 191.372 73.3067 192.527 72.5811C191.552 70.0984 190.605 67.6512 189.629 65.2183C189.048 63.76 188.316 62.3515 187.821 60.8718C186.694 57.4857 185.324 54.2276 183.25 51.2896C182.662 50.4502 182.131 49.5752 181.578 48.7073C181.177 48.0742 180.66 47.9177 179.892 48.0813C178.386 48.4086 177.051 47.8893 175.882 46.9502C175.336 46.5092 175.214 45.7978 175.48 45.1505C175.709 44.5743 176.283 44.2115 177.001 44.2968C177.919 44.4035 178.83 44.56 179.541 45.2501C180.029 45.7267 180.552 46.1606 181.055 46.6088C182.188 45.8974 182.303 45.4066 181.614 44.4106C181.342 44.0194 181.04 43.6352 180.861 43.2013C180.466 42.2196 180.072 41.2308 179.828 40.2064C179.641 39.4168 180.244 39.054 180.976 39.4168C181.686 39.7654 182.081 40.3843 182.303 41.1027C182.612 42.1129 182.863 43.1444 183.121 44.1759C183.329 44.9869 183.652 45.2643 184.312 45.1576C185.223 45.0153 185.754 44.4889 185.69 43.7491C185.611 42.8385 185.439 41.9351 185.41 41.0245C185.381 39.9717 185.41 38.9046 185.539 37.866C185.625 37.1831 186.257 36.7705 186.874 36.7705C187.44 36.7705 187.935 37.1475 188.165 37.7949C188.251 38.0367 188.287 38.2928 188.309 38.5489C188.452 40.1922 188.093 41.7572 187.44 43.2369C187.089 44.0407 186.895 44.7806 187.175 45.6484C187.878 47.8821 188.466 50.1514 189.213 52.3709C190.016 54.7611 190.884 57.13 192.032 59.3993C193.288 61.882 194.336 64.4643 195.498 66.9968C196.022 68.1634 196.617 69.2945 197.22 70.511ZM193.137 72.325C193.848 72.0902 194.479 71.9053 195.096 71.6776C195.971 71.3504 196.014 71.2366 195.641 70.39C195.11 69.1949 194.558 67.9998 194.02 66.8047C193.188 64.9409 192.377 63.07 191.53 61.2133C190.97 59.9826 190.282 58.8017 189.794 57.5497C188.387 53.9786 187.275 50.315 186.321 46.6017C186.242 46.2958 186.113 46.0041 186.048 45.8263C184.965 45.9899 184.011 46.1322 182.97 46.2816C182.705 46.6159 182.368 47.0356 182.002 47.4909C182.088 47.6474 182.16 47.811 182.26 47.9533C184.448 51.2043 186.622 54.4552 187.892 58.2042C188.502 59.9969 189.198 61.7682 189.873 63.5395C190.777 65.9297 191.702 68.3128 192.606 70.703C192.8 71.2152 192.951 71.7345 193.137 72.325ZM197.507 78.5637C197.507 78.5566 197.5 78.5495 197.5 78.5424C199.164 77.8595 200.836 77.1908 202.501 76.4865C202.902 76.3158 203.297 76.0882 203.642 75.8249C204.158 75.4266 204.244 74.6512 203.792 74.2813C203.362 73.9256 202.852 73.9398 202.343 74.1959C201.589 74.5872 200.85 74.9855 200.076 75.3341C197.794 76.3514 195.584 77.5251 193.073 77.9662C191.989 78.1511 190.949 78.5424 189.887 78.8554C189.184 79.0617 188.847 79.6948 189.04 80.3849C189.256 81.146 189.464 81.2883 190.353 81.0891C191.286 80.8828 192.226 80.6694 193.116 80.3422C194.594 79.7944 196.043 79.1613 197.507 78.5637ZM179.756 46.9431C178.658 45.499 177.309 45.0153 176.427 45.684C176.965 46.7724 178.256 47.2846 179.756 46.9431ZM186.558 42.0631C187.469 40.619 187.555 38.7339 186.759 37.7949C186.063 39.1963 186.422 40.5479 186.558 42.0631Z" fill="#EDF8E6"/>
<path d="M183.246 16.4677C183.856 15.9555 184.365 15.7848 184.896 15.735C187.271 15.5216 189.625 15.7777 191.899 16.4464C193.018 16.7807 194.044 17.4138 195.092 17.9474C197.775 19.299 200.107 21.1343 202.267 23.1973C202.741 23.6526 203.157 24.179 203.515 24.7268C204.671 26.5052 205.898 28.2552 206.629 30.2684C207.139 31.6769 207.605 33.1068 208.115 34.5153C208.33 35.12 207.985 35.3903 207.519 35.6748C206.859 35.2267 206.558 34.5864 206.335 33.8822C205.998 32.808 205.747 31.6911 205.28 30.6667C204.678 29.3436 203.889 28.0987 203.2 26.8182C201.729 24.0865 199.289 22.3152 196.857 20.5297C195.192 19.3061 193.377 18.3173 191.461 17.6059C189.438 16.8519 187.286 16.425 185.076 16.5104C184.552 16.5317 184.014 16.4891 183.246 16.4677Z" fill="#EDF8E6"/>
<path d="M190.301 20.2311C191.205 19.8967 192.051 20.1457 192.877 20.4018C194.541 20.914 196.048 21.6396 197.304 22.9485C198.466 24.165 199.765 25.2534 200.64 26.7188C201.415 28.0064 202.197 29.2869 202.907 30.61C203.302 31.3357 203.223 31.4424 202.412 31.9617C202.168 31.6344 201.881 31.3143 201.659 30.9515C200.791 29.5572 200.023 28.0918 199.061 26.7615C197.081 24.0014 194.613 21.8246 191.269 20.786C190.99 20.7006 190.717 20.5797 190.451 20.4587C190.401 20.4303 190.38 20.3449 190.301 20.2311Z" fill="#EDF8E6"/>
<path d="M158.208 50.7346C158.538 51.5242 158.889 52.3139 159.191 53.1177C159.578 54.1492 159.937 55.1878 160.281 56.2264C160.697 57.4642 161.379 58.5455 162.269 59.4845C163.611 60.9002 165.074 62.1949 166.889 62.9845C167.865 63.4113 168.906 63.6745 169.896 64.0587C170.405 64.2579 170.879 64.5495 171.345 64.8341C171.675 65.0333 171.783 65.4032 171.525 65.6735C171.381 65.8229 170.936 65.8798 170.757 65.766C169.049 64.7274 166.961 64.5139 165.354 63.2904C164.859 62.9134 164.328 62.5861 163.862 62.1806C162.075 60.6441 160.375 59.0292 159.571 56.7244C159.026 55.1736 158.473 53.6228 157.964 52.0578C157.835 51.6736 157.863 51.2326 157.82 50.82C157.949 50.7915 158.079 50.7631 158.208 50.7346Z" fill="#EDF8E6"/>
<path d="M162.212 54.8821C162.557 55.3302 162.865 55.8211 163.26 56.2266C164.702 57.7276 166.044 59.3353 167.945 60.3312C168.29 60.5091 168.72 60.7296 168.44 61.256C168.225 61.6686 167.78 61.6615 167.206 61.3342C165.176 60.1818 163.748 58.439 162.456 56.5751C162.126 56.0985 161.897 55.565 161.954 54.9746C162.047 54.9461 162.126 54.9176 162.212 54.8821Z" fill="#EDF8E6"/>
<path d="M198.384 42.6818C198.829 43.2154 199.08 43.8058 199.08 44.5243C199.073 46.445 198.607 48.2732 197.947 50.0588C197.552 51.1187 197.136 52.1644 196.734 53.2244C196.627 53.5161 196.462 53.8362 196.131 53.6512C195.952 53.5516 195.816 53.1461 195.866 52.9256C196.009 52.3636 196.275 51.8372 196.476 51.2895C196.906 50.1228 197.38 48.9704 197.731 47.7824C198.205 46.1391 198.384 44.446 198.384 42.6818Z" fill="#EDF8E6"/>
<path d="M194.743 52.2141C194.334 51.7944 194.471 51.3107 194.593 50.8767C194.958 49.6247 195.382 48.3869 195.769 47.1349C195.898 46.7223 195.977 46.2955 196.114 45.8829C196.236 45.5201 196.408 45.1715 196.645 44.8372C196.989 45.6268 196.874 46.4093 196.724 47.1634C196.48 48.3371 196.164 49.4967 195.827 50.6491C195.662 51.268 195.511 51.9438 194.743 52.2141Z" fill="#EDF8E6"/>
</g>
<g clip-path="url(#clip0_268_364)">
<mask id="path-10-outside-1_268_364" maskUnits="userSpaceOnUse" x="131.027" y="91.5175" width="89" height="19" fill="black">
<rect fill="white" x="131.027" y="91.5175" width="89" height="19"/>
<path d="M143.637 107.289C143.693 107.581 143.479 107.75 142.993 107.773C142.666 107.784 142.339 107.649 142.001 107.356C141.719 107.109 141.493 106.704 141.335 106.141C141.188 105.624 141.098 104.893 141.064 103.959C141.03 102.901 140.985 102.17 140.906 101.776C140.715 102.44 140.399 103.43 139.959 104.735C139.688 105.455 139.53 105.871 139.473 105.973C139.237 106.434 138.943 106.636 138.582 106.591C137.871 106.434 137.33 106.029 136.946 105.399C136.698 104.983 136.461 104.33 136.236 103.43C135.999 102.44 135.796 101.776 135.638 101.439C135.006 104.521 134.318 106.816 133.596 108.335C133.494 108.56 133.178 108.538 132.67 108.29C132.242 108.088 132.027 107.784 132.027 107.401C132.027 107.266 132.185 106.794 132.49 105.984C132.625 105.635 133.144 103.925 134.047 100.876C134.351 99.8188 134.679 97.9513 135.017 95.285C135.051 95.2513 135.119 95.105 135.243 94.8238C135.322 94.6213 135.446 94.5088 135.638 94.5088C136.134 94.5088 136.484 94.61 136.676 94.8013C136.676 95.2288 136.743 95.915 136.89 96.8713C137.025 97.8163 137.104 98.5363 137.104 99.0313C137.24 99.8525 137.364 100.685 137.477 101.529C137.635 102.474 137.939 103.25 138.368 103.846C139.789 99.9088 140.692 96.8038 141.076 94.52C141.132 94.2838 141.358 94.1713 141.741 94.1713C142.283 94.1713 142.599 94.3513 142.678 94.7C142.779 95.2288 142.836 95.8363 142.836 96.5338C142.836 96.7588 142.824 97.2425 142.79 97.9963C142.779 98.6038 142.779 99.0988 142.79 99.4813C142.915 102.575 143.197 105.174 143.637 107.289Z"/>
<path d="M156.78 95.8588C156.238 96.0838 155.426 96.3425 154.365 96.635C153.305 96.9275 152.493 97.1863 151.951 97.4113C151.816 97.7938 151.725 98.6488 151.669 99.9763C151.906 100.066 152.177 100.111 152.493 100.111C152.718 100.111 153.057 100.078 153.531 99.9988C154.004 99.92 154.354 99.8863 154.568 99.8863C154.986 99.8863 155.336 99.9763 155.629 100.156C155.832 100.449 155.945 100.64 155.945 100.73C155.945 100.831 155.888 100.91 155.787 100.978C155.753 100.989 155.652 101.101 155.471 101.293C155.358 101.428 155.2 101.484 155.031 101.473C154.726 101.551 154.151 101.585 153.327 101.608C152.628 101.619 152.075 101.709 151.669 101.878C151.387 102.969 151.252 103.824 151.252 104.465C151.252 104.893 151.308 105.23 151.432 105.478C152.132 105.961 153.327 106.175 155.042 106.096C155.155 106.096 155.291 106.04 155.415 105.928C155.539 105.815 155.663 105.759 155.742 105.759C156.159 105.669 156.43 105.984 156.565 106.693C156.611 106.929 156.565 107.143 156.441 107.345C156.317 107.548 156.137 107.649 155.9 107.671C154.117 107.728 152.56 107.593 151.24 107.255C150.823 107.154 150.451 106.929 150.112 106.569C149.774 106.22 149.582 105.815 149.537 105.376C149.401 104.094 149.401 102.946 149.537 101.934C149.119 101.653 148.939 101.383 148.984 101.113C148.995 100.978 149.108 100.854 149.322 100.753C149.537 100.64 149.661 100.528 149.683 100.415C149.717 100.303 149.774 99.5938 149.864 98.3113C149.04 98.1538 148.634 97.8388 148.645 97.3775C148.657 96.95 148.916 96.6125 149.424 96.365C149.898 96.1738 150.372 95.9825 150.845 95.7913C151.387 95.51 152.075 95.2625 152.91 95.0375C153.632 94.8463 154.354 94.6663 155.076 94.4863C155.155 94.475 155.234 94.4638 155.347 94.4638C155.742 94.4638 156.216 94.6213 156.746 94.925C156.757 94.9813 156.802 95.0938 156.859 95.2513C156.915 95.4088 156.949 95.5325 156.949 95.6C156.938 95.69 156.881 95.7913 156.78 95.8588Z"/>
<path d="M169.698 105.849C169.788 106.085 169.833 106.288 169.833 106.468C169.833 106.76 169.709 107.019 169.461 107.244C169.213 107.469 169.044 107.57 168.953 107.548C168.231 107.413 167.769 106.839 167.577 105.804C167.374 104.69 167.126 103.745 166.844 103.003C166.336 103.048 165.84 103.093 165.332 103.138C164.757 103.216 164.305 103.385 163.978 103.666C163.82 104.128 163.606 104.938 163.335 106.096C163.087 107.176 162.839 107.986 162.602 108.549C162.478 108.819 162.229 108.886 161.846 108.774C161.361 108.616 161.101 108.391 161.067 108.11C161.022 107.548 161.18 106.794 161.552 105.86C161.992 104.78 162.241 104.015 162.286 103.565C162.297 103.43 162.207 103.284 162.004 103.126C161.801 102.969 161.688 102.845 161.688 102.755C161.688 102.676 161.722 102.609 161.789 102.519C161.857 102.44 162.015 102.373 162.252 102.316C162.489 102.26 162.636 102.193 162.658 102.08C162.929 101.349 163.346 99.9763 163.922 97.9738C164.407 96.2413 164.847 94.9025 165.23 93.98C165.321 93.7775 165.501 93.6763 165.783 93.6763C165.986 93.6763 166.178 93.7438 166.336 93.8788C166.753 94.2275 167.013 94.7675 167.137 95.465C167.227 96.0725 167.306 96.6688 167.385 97.2763C168.13 100.73 168.897 103.599 169.698 105.849ZM166.46 101.63C166.415 101.09 166.313 100.471 166.167 99.7963C166.02 99.2113 165.885 98.615 165.749 98.03C165.309 99.2563 164.926 100.471 164.599 101.698C164.836 101.653 165.456 101.63 166.46 101.63Z"/>
<path d="M179.649 93.5413C179.649 93.8338 179.434 94.0925 179.005 94.3175C178.893 94.3738 178.757 94.385 178.633 94.34C178.419 94.2838 178.306 94.25 178.295 94.25C178.204 94.25 178.114 94.295 178.024 94.385C177.223 95.1838 176.828 96.1513 176.828 97.2988C176.828 97.7263 176.896 98.12 177.031 98.4913C177.087 98.6488 177.652 99.7963 178.712 101.911C179.423 103.329 179.773 104.521 179.773 105.511C179.773 106.321 179.57 107.098 179.175 107.851C179.039 108.099 178.712 108.425 178.182 108.819C177.753 109.123 177.37 109.28 177.031 109.28C176.896 109.28 176.772 109.258 176.659 109.213C176.219 109.021 175.993 108.774 175.993 108.481C175.993 108.301 176.106 108.088 176.32 107.84C176.377 107.761 176.523 107.716 176.738 107.705C176.952 107.694 177.11 107.604 177.178 107.435C177.494 106.783 177.64 106.119 177.64 105.444C177.64 104.488 177.166 103.104 176.207 101.281C175.26 99.4588 174.775 98.0075 174.775 96.9163C174.775 96.0163 174.955 95.2175 175.305 94.5088C175.7 93.6988 176.275 93.1138 177.009 92.765C177.347 92.6075 177.685 92.5175 178.001 92.5175C178.622 92.5175 179.084 92.6863 179.4 93.0238C179.57 93.215 179.649 93.3838 179.649 93.5413Z"/>
<path d="M193.447 94.8688C193.346 95.9038 193.052 97.2763 192.556 98.9975C191.89 101.315 191.507 102.71 191.405 103.194C191.078 104.679 190.457 106.04 189.544 107.255C188.968 108.031 188.303 108.414 187.547 108.403C186.881 108.391 186.385 107.964 186.057 107.143C185.493 105.759 185.211 104.128 185.211 102.26C185.211 101.18 185.313 99.7963 185.516 98.1088C185.505 98.255 185.493 97.805 185.493 96.7363C185.493 95.825 185.843 95.3638 186.554 95.3638C186.701 95.3638 186.858 95.4088 187.028 95.4875C187.197 95.5663 187.366 95.6563 187.524 95.7463C187.535 96.5 187.513 97.6025 187.456 99.065C187.377 100.629 187.344 101.754 187.344 102.44C187.344 103.171 187.366 103.846 187.411 104.454C187.445 104.758 187.569 105.354 187.806 106.22C188.427 105.523 188.912 104.611 189.273 103.453C189.386 103.07 189.623 102.024 189.984 100.314C190.266 99.02 190.582 98.0075 190.931 97.265C191.033 97.0625 191.123 96.6688 191.202 96.095C191.281 95.5213 191.36 95.1275 191.473 94.9025C191.631 94.5538 191.913 94.3738 192.319 94.3738C192.861 94.385 193.233 94.5425 193.447 94.8688Z"/>
<path d="M207.561 107.064C207.606 107.12 207.628 107.188 207.628 107.266C207.628 107.604 207.279 107.863 206.568 108.043C205.789 107.435 204.808 106.513 203.646 105.264C202.348 103.869 201.378 102.89 200.746 102.35C200.701 102.733 200.622 103.734 200.498 105.354C200.419 106.58 200.295 107.548 200.103 108.268C200.069 108.268 199.979 108.301 199.821 108.38C199.663 108.459 199.539 108.47 199.438 108.448C198.783 108.301 198.467 107.851 198.467 107.098C198.467 106.873 198.501 106.58 198.558 106.209C198.614 105.781 198.648 105.511 198.67 105.41C198.727 104.555 198.761 103.543 198.783 102.361V99.9538C198.783 97.9513 198.896 96.2638 199.11 94.8913C199.257 93.98 200.126 93.5638 201.705 93.6313C202.506 93.665 203.195 94.0588 203.792 94.8238C204.334 95.5325 204.616 96.2975 204.616 97.1188C204.616 97.8163 204.357 98.5025 203.838 99.2C203.398 99.8188 202.845 100.303 202.202 100.663C201.931 100.809 201.807 100.966 201.807 101.146C201.807 101.338 201.965 101.563 202.269 101.833C202.506 102.024 202.743 102.215 202.98 102.406C202.991 102.418 203.804 103.16 205.417 104.611C206.41 105.523 207.132 106.344 207.561 107.064ZM202.89 97.1413C202.935 96.8713 202.946 96.6463 202.935 96.4325C202.89 96.1175 202.766 95.8475 202.551 95.5888C202.337 95.33 201.999 95.2175 201.525 95.2175C201.175 95.2175 200.949 95.33 200.859 95.5438C200.78 95.915 200.746 96.3313 200.746 96.8038C200.746 96.995 200.769 97.49 200.814 98.2888C200.848 98.8963 200.848 99.3913 200.814 99.7738C202.032 98.8625 202.721 97.985 202.89 97.1413Z"/>
<path d="M218.46 95.8588C217.918 96.0838 217.106 96.3425 216.045 96.635C214.985 96.9275 214.172 97.1863 213.631 97.4113C213.495 97.7938 213.405 98.6488 213.349 99.9763C213.586 100.066 213.856 100.111 214.172 100.111C214.398 100.111 214.736 100.078 215.21 99.9988C215.684 99.92 216.034 99.8863 216.248 99.8863C216.666 99.8863 217.015 99.9763 217.309 100.156C217.512 100.449 217.625 100.64 217.625 100.73C217.625 100.831 217.568 100.91 217.467 100.978C217.433 100.989 217.331 101.101 217.151 101.293C217.038 101.428 216.88 101.484 216.711 101.473C216.406 101.551 215.831 101.585 215.007 101.608C214.308 101.619 213.755 101.709 213.349 101.878C213.067 102.969 212.931 103.824 212.931 104.465C212.931 104.893 212.988 105.23 213.112 105.478C213.811 105.961 215.007 106.175 216.722 106.096C216.835 106.096 216.97 106.04 217.094 105.928C217.219 105.815 217.343 105.759 217.422 105.759C217.839 105.669 218.11 105.984 218.245 106.693C218.29 106.929 218.245 107.143 218.121 107.345C217.997 107.548 217.816 107.649 217.58 107.671C215.797 107.728 214.24 107.593 212.92 107.255C212.503 107.154 212.13 106.929 211.792 106.569C211.453 106.22 211.262 105.815 211.216 105.376C211.081 104.094 211.081 102.946 211.216 101.934C210.799 101.653 210.619 101.383 210.664 101.113C210.675 100.978 210.788 100.854 211.002 100.753C211.216 100.64 211.341 100.528 211.363 100.415C211.397 100.303 211.453 99.5938 211.544 98.3113C210.72 98.1538 210.314 97.8388 210.325 97.3775C210.336 96.95 210.596 96.6125 211.104 96.365C211.577 96.1738 212.051 95.9825 212.525 95.7913C213.067 95.51 213.755 95.2625 214.59 95.0375C215.312 94.8463 216.034 94.6663 216.756 94.4863C216.835 94.475 216.914 94.4638 217.027 94.4638C217.422 94.4638 217.895 94.6213 218.426 94.925C218.437 94.9813 218.482 95.0938 218.539 95.2513C218.595 95.4088 218.629 95.5325 218.629 95.6C218.617 95.69 218.572 95.7913 218.46 95.8588Z"/>
</mask>
<path d="M143.637 107.289C143.693 107.581 143.479 107.75 142.993 107.773C142.666 107.784 142.339 107.649 142.001 107.356C141.719 107.109 141.493 106.704 141.335 106.141C141.188 105.624 141.098 104.893 141.064 103.959C141.03 102.901 140.985 102.17 140.906 101.776C140.715 102.44 140.399 103.43 139.959 104.735C139.688 105.455 139.53 105.871 139.473 105.973C139.237 106.434 138.943 106.636 138.582 106.591C137.871 106.434 137.33 106.029 136.946 105.399C136.698 104.983 136.461 104.33 136.236 103.43C135.999 102.44 135.796 101.776 135.638 101.439C135.006 104.521 134.318 106.816 133.596 108.335C133.494 108.56 133.178 108.538 132.67 108.29C132.242 108.088 132.027 107.784 132.027 107.401C132.027 107.266 132.185 106.794 132.49 105.984C132.625 105.635 133.144 103.925 134.047 100.876C134.351 99.8188 134.679 97.9513 135.017 95.285C135.051 95.2513 135.119 95.105 135.243 94.8238C135.322 94.6213 135.446 94.5088 135.638 94.5088C136.134 94.5088 136.484 94.61 136.676 94.8013C136.676 95.2288 136.743 95.915 136.89 96.8713C137.025 97.8163 137.104 98.5363 137.104 99.0313C137.24 99.8525 137.364 100.685 137.477 101.529C137.635 102.474 137.939 103.25 138.368 103.846C139.789 99.9088 140.692 96.8038 141.076 94.52C141.132 94.2838 141.358 94.1713 141.741 94.1713C142.283 94.1713 142.599 94.3513 142.678 94.7C142.779 95.2288 142.836 95.8363 142.836 96.5338C142.836 96.7588 142.824 97.2425 142.79 97.9963C142.779 98.6038 142.779 99.0988 142.79 99.4813C142.915 102.575 143.197 105.174 143.637 107.289Z" fill="#EDF8E6" fill-opacity="0.5"/>
<path d="M156.78 95.8588C156.238 96.0838 155.426 96.3425 154.365 96.635C153.305 96.9275 152.493 97.1863 151.951 97.4113C151.816 97.7938 151.725 98.6488 151.669 99.9763C151.906 100.066 152.177 100.111 152.493 100.111C152.718 100.111 153.057 100.078 153.531 99.9988C154.004 99.92 154.354 99.8863 154.568 99.8863C154.986 99.8863 155.336 99.9763 155.629 100.156C155.832 100.449 155.945 100.64 155.945 100.73C155.945 100.831 155.888 100.91 155.787 100.978C155.753 100.989 155.652 101.101 155.471 101.293C155.358 101.428 155.2 101.484 155.031 101.473C154.726 101.551 154.151 101.585 153.327 101.608C152.628 101.619 152.075 101.709 151.669 101.878C151.387 102.969 151.252 103.824 151.252 104.465C151.252 104.893 151.308 105.23 151.432 105.478C152.132 105.961 153.327 106.175 155.042 106.096C155.155 106.096 155.291 106.04 155.415 105.928C155.539 105.815 155.663 105.759 155.742 105.759C156.159 105.669 156.43 105.984 156.565 106.693C156.611 106.929 156.565 107.143 156.441 107.345C156.317 107.548 156.137 107.649 155.9 107.671C154.117 107.728 152.56 107.593 151.24 107.255C150.823 107.154 150.451 106.929 150.112 106.569C149.774 106.22 149.582 105.815 149.537 105.376C149.401 104.094 149.401 102.946 149.537 101.934C149.119 101.653 148.939 101.383 148.984 101.113C148.995 100.978 149.108 100.854 149.322 100.753C149.537 100.64 149.661 100.528 149.683 100.415C149.717 100.303 149.774 99.5938 149.864 98.3113C149.04 98.1538 148.634 97.8388 148.645 97.3775C148.657 96.95 148.916 96.6125 149.424 96.365C149.898 96.1738 150.372 95.9825 150.845 95.7913C151.387 95.51 152.075 95.2625 152.91 95.0375C153.632 94.8463 154.354 94.6663 155.076 94.4863C155.155 94.475 155.234 94.4638 155.347 94.4638C155.742 94.4638 156.216 94.6213 156.746 94.925C156.757 94.9813 156.802 95.0938 156.859 95.2513C156.915 95.4088 156.949 95.5325 156.949 95.6C156.938 95.69 156.881 95.7913 156.78 95.8588Z" fill="#EDF8E6" fill-opacity="0.5"/>
<path d="M169.698 105.849C169.788 106.085 169.833 106.288 169.833 106.468C169.833 106.76 169.709 107.019 169.461 107.244C169.213 107.469 169.044 107.57 168.953 107.548C168.231 107.413 167.769 106.839 167.577 105.804C167.374 104.69 167.126 103.745 166.844 103.003C166.336 103.048 165.84 103.093 165.332 103.138C164.757 103.216 164.305 103.385 163.978 103.666C163.82 104.128 163.606 104.938 163.335 106.096C163.087 107.176 162.839 107.986 162.602 108.549C162.478 108.819 162.229 108.886 161.846 108.774C161.361 108.616 161.101 108.391 161.067 108.11C161.022 107.548 161.18 106.794 161.552 105.86C161.992 104.78 162.241 104.015 162.286 103.565C162.297 103.43 162.207 103.284 162.004 103.126C161.801 102.969 161.688 102.845 161.688 102.755C161.688 102.676 161.722 102.609 161.789 102.519C161.857 102.44 162.015 102.373 162.252 102.316C162.489 102.26 162.636 102.193 162.658 102.08C162.929 101.349 163.346 99.9763 163.922 97.9738C164.407 96.2413 164.847 94.9025 165.23 93.98C165.321 93.7775 165.501 93.6763 165.783 93.6763C165.986 93.6763 166.178 93.7438 166.336 93.8788C166.753 94.2275 167.013 94.7675 167.137 95.465C167.227 96.0725 167.306 96.6688 167.385 97.2763C168.13 100.73 168.897 103.599 169.698 105.849ZM166.46 101.63C166.415 101.09 166.313 100.471 166.167 99.7963C166.02 99.2113 165.885 98.615 165.749 98.03C165.309 99.2563 164.926 100.471 164.599 101.698C164.836 101.653 165.456 101.63 166.46 101.63Z" fill="#EDF8E6" fill-opacity="0.5"/>
<path d="M179.649 93.5413C179.649 93.8338 179.434 94.0925 179.005 94.3175C178.893 94.3738 178.757 94.385 178.633 94.34C178.419 94.2838 178.306 94.25 178.295 94.25C178.204 94.25 178.114 94.295 178.024 94.385C177.223 95.1838 176.828 96.1513 176.828 97.2988C176.828 97.7263 176.896 98.12 177.031 98.4913C177.087 98.6488 177.652 99.7963 178.712 101.911C179.423 103.329 179.773 104.521 179.773 105.511C179.773 106.321 179.57 107.098 179.175 107.851C179.039 108.099 178.712 108.425 178.182 108.819C177.753 109.123 177.37 109.28 177.031 109.28C176.896 109.28 176.772 109.258 176.659 109.213C176.219 109.021 175.993 108.774 175.993 108.481C175.993 108.301 176.106 108.088 176.32 107.84C176.377 107.761 176.523 107.716 176.738 107.705C176.952 107.694 177.11 107.604 177.178 107.435C177.494 106.783 177.64 106.119 177.64 105.444C177.64 104.488 177.166 103.104 176.207 101.281C175.26 99.4588 174.775 98.0075 174.775 96.9163C174.775 96.0163 174.955 95.2175 175.305 94.5088C175.7 93.6988 176.275 93.1138 177.009 92.765C177.347 92.6075 177.685 92.5175 178.001 92.5175C178.622 92.5175 179.084 92.6863 179.4 93.0238C179.57 93.215 179.649 93.3838 179.649 93.5413Z" fill="#EDF8E6" fill-opacity="0.5"/>
<path d="M193.447 94.8688C193.346 95.9038 193.052 97.2763 192.556 98.9975C191.89 101.315 191.507 102.71 191.405 103.194C191.078 104.679 190.457 106.04 189.544 107.255C188.968 108.031 188.303 108.414 187.547 108.403C186.881 108.391 186.385 107.964 186.057 107.143C185.493 105.759 185.211 104.128 185.211 102.26C185.211 101.18 185.313 99.7963 185.516 98.1088C185.505 98.255 185.493 97.805 185.493 96.7363C185.493 95.825 185.843 95.3638 186.554 95.3638C186.701 95.3638 186.858 95.4088 187.028 95.4875C187.197 95.5663 187.366 95.6563 187.524 95.7463C187.535 96.5 187.513 97.6025 187.456 99.065C187.377 100.629 187.344 101.754 187.344 102.44C187.344 103.171 187.366 103.846 187.411 104.454C187.445 104.758 187.569 105.354 187.806 106.22C188.427 105.523 188.912 104.611 189.273 103.453C189.386 103.07 189.623 102.024 189.984 100.314C190.266 99.02 190.582 98.0075 190.931 97.265C191.033 97.0625 191.123 96.6688 191.202 96.095C191.281 95.5213 191.36 95.1275 191.473 94.9025C191.631 94.5538 191.913 94.3738 192.319 94.3738C192.861 94.385 193.233 94.5425 193.447 94.8688Z" fill="#EDF8E6" fill-opacity="0.5"/>
<path d="M207.561 107.064C207.606 107.12 207.628 107.188 207.628 107.266C207.628 107.604 207.279 107.863 206.568 108.043C205.789 107.435 204.808 106.513 203.646 105.264C202.348 103.869 201.378 102.89 200.746 102.35C200.701 102.733 200.622 103.734 200.498 105.354C200.419 106.58 200.295 107.548 200.103 108.268C200.069 108.268 199.979 108.301 199.821 108.38C199.663 108.459 199.539 108.47 199.438 108.448C198.783 108.301 198.467 107.851 198.467 107.098C198.467 106.873 198.501 106.58 198.558 106.209C198.614 105.781 198.648 105.511 198.67 105.41C198.727 104.555 198.761 103.543 198.783 102.361V99.9538C198.783 97.9513 198.896 96.2638 199.11 94.8913C199.257 93.98 200.126 93.5638 201.705 93.6313C202.506 93.665 203.195 94.0588 203.792 94.8238C204.334 95.5325 204.616 96.2975 204.616 97.1188C204.616 97.8163 204.357 98.5025 203.838 99.2C203.398 99.8188 202.845 100.303 202.202 100.663C201.931 100.809 201.807 100.966 201.807 101.146C201.807 101.338 201.965 101.563 202.269 101.833C202.506 102.024 202.743 102.215 202.98 102.406C202.991 102.418 203.804 103.16 205.417 104.611C206.41 105.523 207.132 106.344 207.561 107.064ZM202.89 97.1413C202.935 96.8713 202.946 96.6463 202.935 96.4325C202.89 96.1175 202.766 95.8475 202.551 95.5888C202.337 95.33 201.999 95.2175 201.525 95.2175C201.175 95.2175 200.949 95.33 200.859 95.5438C200.78 95.915 200.746 96.3313 200.746 96.8038C200.746 96.995 200.769 97.49 200.814 98.2888C200.848 98.8963 200.848 99.3913 200.814 99.7738C202.032 98.8625 202.721 97.985 202.89 97.1413Z" fill="#EDF8E6" fill-opacity="0.5"/>
<path d="M218.46 95.8588C217.918 96.0838 217.106 96.3425 216.045 96.635C214.985 96.9275 214.172 97.1863 213.631 97.4113C213.495 97.7938 213.405 98.6488 213.349 99.9763C213.586 100.066 213.856 100.111 214.172 100.111C214.398 100.111 214.736 100.078 215.21 99.9988C215.684 99.92 216.034 99.8863 216.248 99.8863C216.666 99.8863 217.015 99.9763 217.309 100.156C217.512 100.449 217.625 100.64 217.625 100.73C217.625 100.831 217.568 100.91 217.467 100.978C217.433 100.989 217.331 101.101 217.151 101.293C217.038 101.428 216.88 101.484 216.711 101.473C216.406 101.551 215.831 101.585 215.007 101.608C214.308 101.619 213.755 101.709 213.349 101.878C213.067 102.969 212.931 103.824 212.931 104.465C212.931 104.893 212.988 105.23 213.112 105.478C213.811 105.961 215.007 106.175 216.722 106.096C216.835 106.096 216.97 106.04 217.094 105.928C217.219 105.815 217.343 105.759 217.422 105.759C217.839 105.669 218.11 105.984 218.245 106.693C218.29 106.929 218.245 107.143 218.121 107.345C217.997 107.548 217.816 107.649 217.58 107.671C215.797 107.728 214.24 107.593 212.92 107.255C212.503 107.154 212.13 106.929 211.792 106.569C211.453 106.22 211.262 105.815 211.216 105.376C211.081 104.094 211.081 102.946 211.216 101.934C210.799 101.653 210.619 101.383 210.664 101.113C210.675 100.978 210.788 100.854 211.002 100.753C211.216 100.64 211.341 100.528 211.363 100.415C211.397 100.303 211.453 99.5938 211.544 98.3113C210.72 98.1538 210.314 97.8388 210.325 97.3775C210.336 96.95 210.596 96.6125 211.104 96.365C211.577 96.1738 212.051 95.9825 212.525 95.7913C213.067 95.51 213.755 95.2625 214.59 95.0375C215.312 94.8463 216.034 94.6663 216.756 94.4863C216.835 94.475 216.914 94.4638 217.027 94.4638C217.422 94.4638 217.895 94.6213 218.426 94.925C218.437 94.9813 218.482 95.0938 218.539 95.2513C218.595 95.4088 218.629 95.5325 218.629 95.6C218.617 95.69 218.572 95.7913 218.46 95.8588Z" fill="#EDF8E6" fill-opacity="0.5"/>
<path d="M143.637 107.289C143.693 107.581 143.479 107.75 142.993 107.773C142.666 107.784 142.339 107.649 142.001 107.356C141.719 107.109 141.493 106.704 141.335 106.141C141.188 105.624 141.098 104.893 141.064 103.959C141.03 102.901 140.985 102.17 140.906 101.776C140.715 102.44 140.399 103.43 139.959 104.735C139.688 105.455 139.53 105.871 139.473 105.973C139.237 106.434 138.943 106.636 138.582 106.591C137.871 106.434 137.33 106.029 136.946 105.399C136.698 104.983 136.461 104.33 136.236 103.43C135.999 102.44 135.796 101.776 135.638 101.439C135.006 104.521 134.318 106.816 133.596 108.335C133.494 108.56 133.178 108.538 132.67 108.29C132.242 108.088 132.027 107.784 132.027 107.401C132.027 107.266 132.185 106.794 132.49 105.984C132.625 105.635 133.144 103.925 134.047 100.876C134.351 99.8188 134.679 97.9513 135.017 95.285C135.051 95.2513 135.119 95.105 135.243 94.8238C135.322 94.6213 135.446 94.5088 135.638 94.5088C136.134 94.5088 136.484 94.61 136.676 94.8013C136.676 95.2288 136.743 95.915 136.89 96.8713C137.025 97.8163 137.104 98.5363 137.104 99.0313C137.24 99.8525 137.364 100.685 137.477 101.529C137.635 102.474 137.939 103.25 138.368 103.846C139.789 99.9088 140.692 96.8038 141.076 94.52C141.132 94.2838 141.358 94.1713 141.741 94.1713C142.283 94.1713 142.599 94.3513 142.678 94.7C142.779 95.2288 142.836 95.8363 142.836 96.5338C142.836 96.7588 142.824 97.2425 142.79 97.9963C142.779 98.6038 142.779 99.0988 142.79 99.4813C142.915 102.575 143.197 105.174 143.637 107.289Z" stroke="#EDF8E6" stroke-opacity="0.2" mask="url(#path-10-outside-1_268_364)"/>
<path d="M156.78 95.8588C156.238 96.0838 155.426 96.3425 154.365 96.635C153.305 96.9275 152.493 97.1863 151.951 97.4113C151.816 97.7938 151.725 98.6488 151.669 99.9763C151.906 100.066 152.177 100.111 152.493 100.111C152.718 100.111 153.057 100.078 153.531 99.9988C154.004 99.92 154.354 99.8863 154.568 99.8863C154.986 99.8863 155.336 99.9763 155.629 100.156C155.832 100.449 155.945 100.64 155.945 100.73C155.945 100.831 155.888 100.91 155.787 100.978C155.753 100.989 155.652 101.101 155.471 101.293C155.358 101.428 155.2 101.484 155.031 101.473C154.726 101.551 154.151 101.585 153.327 101.608C152.628 101.619 152.075 101.709 151.669 101.878C151.387 102.969 151.252 103.824 151.252 104.465C151.252 104.893 151.308 105.23 151.432 105.478C152.132 105.961 153.327 106.175 155.042 106.096C155.155 106.096 155.291 106.04 155.415 105.928C155.539 105.815 155.663 105.759 155.742 105.759C156.159 105.669 156.43 105.984 156.565 106.693C156.611 106.929 156.565 107.143 156.441 107.345C156.317 107.548 156.137 107.649 155.9 107.671C154.117 107.728 152.56 107.593 151.24 107.255C150.823 107.154 150.451 106.929 150.112 106.569C149.774 106.22 149.582 105.815 149.537 105.376C149.401 104.094 149.401 102.946 149.537 101.934C149.119 101.653 148.939 101.383 148.984 101.113C148.995 100.978 149.108 100.854 149.322 100.753C149.537 100.64 149.661 100.528 149.683 100.415C149.717 100.303 149.774 99.5938 149.864 98.3113C149.04 98.1538 148.634 97.8388 148.645 97.3775C148.657 96.95 148.916 96.6125 149.424 96.365C149.898 96.1738 150.372 95.9825 150.845 95.7913C151.387 95.51 152.075 95.2625 152.91 95.0375C153.632 94.8463 154.354 94.6663 155.076 94.4863C155.155 94.475 155.234 94.4638 155.347 94.4638C155.742 94.4638 156.216 94.6213 156.746 94.925C156.757 94.9813 156.802 95.0938 156.859 95.2513C156.915 95.4088 156.949 95.5325 156.949 95.6C156.938 95.69 156.881 95.7913 156.78 95.8588Z" stroke="#EDF8E6" stroke-opacity="0.2" mask="url(#path-10-outside-1_268_364)"/>
<path d="M169.698 105.849C169.788 106.085 169.833 106.288 169.833 106.468C169.833 106.76 169.709 107.019 169.461 107.244C169.213 107.469 169.044 107.57 168.953 107.548C168.231 107.413 167.769 106.839 167.577 105.804C167.374 104.69 167.126 103.745 166.844 103.003C166.336 103.048 165.84 103.093 165.332 103.138C164.757 103.216 164.305 103.385 163.978 103.666C163.82 104.128 163.606 104.938 163.335 106.096C163.087 107.176 162.839 107.986 162.602 108.549C162.478 108.819 162.229 108.886 161.846 108.774C161.361 108.616 161.101 108.391 161.067 108.11C161.022 107.548 161.18 106.794 161.552 105.86C161.992 104.78 162.241 104.015 162.286 103.565C162.297 103.43 162.207 103.284 162.004 103.126C161.801 102.969 161.688 102.845 161.688 102.755C161.688 102.676 161.722 102.609 161.789 102.519C161.857 102.44 162.015 102.373 162.252 102.316C162.489 102.26 162.636 102.193 162.658 102.08C162.929 101.349 163.346 99.9763 163.922 97.9738C164.407 96.2413 164.847 94.9025 165.23 93.98C165.321 93.7775 165.501 93.6763 165.783 93.6763C165.986 93.6763 166.178 93.7438 166.336 93.8788C166.753 94.2275 167.013 94.7675 167.137 95.465C167.227 96.0725 167.306 96.6688 167.385 97.2763C168.13 100.73 168.897 103.599 169.698 105.849ZM166.46 101.63C166.415 101.09 166.313 100.471 166.167 99.7963C166.02 99.2113 165.885 98.615 165.749 98.03C165.309 99.2563 164.926 100.471 164.599 101.698C164.836 101.653 165.456 101.63 166.46 101.63Z" stroke="#EDF8E6" stroke-opacity="0.2" mask="url(#path-10-outside-1_268_364)"/>
<path d="M179.649 93.5413C179.649 93.8338 179.434 94.0925 179.005 94.3175C178.893 94.3738 178.757 94.385 178.633 94.34C178.419 94.2838 178.306 94.25 178.295 94.25C178.204 94.25 178.114 94.295 178.024 94.385C177.223 95.1838 176.828 96.1513 176.828 97.2988C176.828 97.7263 176.896 98.12 177.031 98.4913C177.087 98.6488 177.652 99.7963 178.712 101.911C179.423 103.329 179.773 104.521 179.773 105.511C179.773 106.321 179.57 107.098 179.175 107.851C179.039 108.099 178.712 108.425 178.182 108.819C177.753 109.123 177.37 109.28 177.031 109.28C176.896 109.28 176.772 109.258 176.659 109.213C176.219 109.021 175.993 108.774 175.993 108.481C175.993 108.301 176.106 108.088 176.32 107.84C176.377 107.761 176.523 107.716 176.738 107.705C176.952 107.694 177.11 107.604 177.178 107.435C177.494 106.783 177.64 106.119 177.64 105.444C177.64 104.488 177.166 103.104 176.207 101.281C175.26 99.4588 174.775 98.0075 174.775 96.9163C174.775 96.0163 174.955 95.2175 175.305 94.5088C175.7 93.6988 176.275 93.1138 177.009 92.765C177.347 92.6075 177.685 92.5175 178.001 92.5175C178.622 92.5175 179.084 92.6863 179.4 93.0238C179.57 93.215 179.649 93.3838 179.649 93.5413Z" stroke="#EDF8E6" stroke-opacity="0.2" mask="url(#path-10-outside-1_268_364)"/>
<path d="M193.447 94.8688C193.346 95.9038 193.052 97.2763 192.556 98.9975C191.89 101.315 191.507 102.71 191.405 103.194C191.078 104.679 190.457 106.04 189.544 107.255C188.968 108.031 188.303 108.414 187.547 108.403C186.881 108.391 186.385 107.964 186.057 107.143C185.493 105.759 185.211 104.128 185.211 102.26C185.211 101.18 185.313 99.7963 185.516 98.1088C185.505 98.255 185.493 97.805 185.493 96.7363C185.493 95.825 185.843 95.3638 186.554 95.3638C186.701 95.3638 186.858 95.4088 187.028 95.4875C187.197 95.5663 187.366 95.6563 187.524 95.7463C187.535 96.5 187.513 97.6025 187.456 99.065C187.377 100.629 187.344 101.754 187.344 102.44C187.344 103.171 187.366 103.846 187.411 104.454C187.445 104.758 187.569 105.354 187.806 106.22C188.427 105.523 188.912 104.611 189.273 103.453C189.386 103.07 189.623 102.024 189.984 100.314C190.266 99.02 190.582 98.0075 190.931 97.265C191.033 97.0625 191.123 96.6688 191.202 96.095C191.281 95.5213 191.36 95.1275 191.473 94.9025C191.631 94.5538 191.913 94.3738 192.319 94.3738C192.861 94.385 193.233 94.5425 193.447 94.8688Z" stroke="#EDF8E6" stroke-opacity="0.2" mask="url(#path-10-outside-1_268_364)"/>
<path d="M207.561 107.064C207.606 107.12 207.628 107.188 207.628 107.266C207.628 107.604 207.279 107.863 206.568 108.043C205.789 107.435 204.808 106.513 203.646 105.264C202.348 103.869 201.378 102.89 200.746 102.35C200.701 102.733 200.622 103.734 200.498 105.354C200.419 106.58 200.295 107.548 200.103 108.268C200.069 108.268 199.979 108.301 199.821 108.38C199.663 108.459 199.539 108.47 199.438 108.448C198.783 108.301 198.467 107.851 198.467 107.098C198.467 106.873 198.501 106.58 198.558 106.209C198.614 105.781 198.648 105.511 198.67 105.41C198.727 104.555 198.761 103.543 198.783 102.361V99.9538C198.783 97.9513 198.896 96.2638 199.11 94.8913C199.257 93.98 200.126 93.5638 201.705 93.6313C202.506 93.665 203.195 94.0588 203.792 94.8238C204.334 95.5325 204.616 96.2975 204.616 97.1188C204.616 97.8163 204.357 98.5025 203.838 99.2C203.398 99.8188 202.845 100.303 202.202 100.663C201.931 100.809 201.807 100.966 201.807 101.146C201.807 101.338 201.965 101.563 202.269 101.833C202.506 102.024 202.743 102.215 202.98 102.406C202.991 102.418 203.804 103.16 205.417 104.611C206.41 105.523 207.132 106.344 207.561 107.064ZM202.89 97.1413C202.935 96.8713 202.946 96.6463 202.935 96.4325C202.89 96.1175 202.766 95.8475 202.551 95.5888C202.337 95.33 201.999 95.2175 201.525 95.2175C201.175 95.2175 200.949 95.33 200.859 95.5438C200.78 95.915 200.746 96.3313 200.746 96.8038C200.746 96.995 200.769 97.49 200.814 98.2888C200.848 98.8963 200.848 99.3913 200.814 99.7738C202.032 98.8625 202.721 97.985 202.89 97.1413Z" stroke="#EDF8E6" stroke-opacity="0.2" mask="url(#path-10-outside-1_268_364)"/>
<path d="M218.46 95.8588C217.918 96.0838 217.106 96.3425 216.045 96.635C214.985 96.9275 214.172 97.1863 213.631 97.4113C213.495 97.7938 213.405 98.6488 213.349 99.9763C213.586 100.066 213.856 100.111 214.172 100.111C214.398 100.111 214.736 100.078 215.21 99.9988C215.684 99.92 216.034 99.8863 216.248 99.8863C216.666 99.8863 217.015 99.9763 217.309 100.156C217.512 100.449 217.625 100.64 217.625 100.73C217.625 100.831 217.568 100.91 217.467 100.978C217.433 100.989 217.331 101.101 217.151 101.293C217.038 101.428 216.88 101.484 216.711 101.473C216.406 101.551 215.831 101.585 215.007 101.608C214.308 101.619 213.755 101.709 213.349 101.878C213.067 102.969 212.931 103.824 212.931 104.465C212.931 104.893 212.988 105.23 213.112 105.478C213.811 105.961 215.007 106.175 216.722 106.096C216.835 106.096 216.97 106.04 217.094 105.928C217.219 105.815 217.343 105.759 217.422 105.759C217.839 105.669 218.11 105.984 218.245 106.693C218.29 106.929 218.245 107.143 218.121 107.345C217.997 107.548 217.816 107.649 217.58 107.671C215.797 107.728 214.24 107.593 212.92 107.255C212.503 107.154 212.13 106.929 211.792 106.569C211.453 106.22 211.262 105.815 211.216 105.376C211.081 104.094 211.081 102.946 211.216 101.934C210.799 101.653 210.619 101.383 210.664 101.113C210.675 100.978 210.788 100.854 211.002 100.753C211.216 100.64 211.341 100.528 211.363 100.415C211.397 100.303 211.453 99.5938 211.544 98.3113C210.72 98.1538 210.314 97.8388 210.325 97.3775C210.336 96.95 210.596 96.6125 211.104 96.365C211.577 96.1738 212.051 95.9825 212.525 95.7913C213.067 95.51 213.755 95.2625 214.59 95.0375C215.312 94.8463 216.034 94.6663 216.756 94.4863C216.835 94.475 216.914 94.4638 217.027 94.4638C217.422 94.4638 217.895 94.6213 218.426 94.925C218.437 94.9813 218.482 95.0938 218.539 95.2513C218.595 95.4088 218.629 95.5325 218.629 95.6C218.617 95.69 218.572 95.7913 218.46 95.8588Z" stroke="#EDF8E6" stroke-opacity="0.2" mask="url(#path-10-outside-1_268_364)"/>
</g>
<defs>
<filter id="filter0_b_268_364" x="-19.5078" y="-19.7144" width="272.363" height="342.313" filterUnits="userSpaceOnUse" color-interpolation-filters="sRGB">
<feFlood flood-opacity="0" result="BackgroundImageFix"/>
<feGaussianBlur in="BackgroundImageFix" stdDeviation="10"/>
<feComposite in2="SourceAlpha" operator="in" result="effect1_backgroundBlur_268_364"/>
<feBlend mode="normal" in="SourceGraphic" in2="effect1_backgroundBlur_268_364" result="shape"/>
</filter>
<clipPath id="clip0_268_364">
<rect width="88" height="18" fill="white" transform="translate(131 92)"/>
</clipPath>
</defs>
</svg>
