<svg width="233" height="304" viewBox="0 0 233 304" fill="none" xmlns="http://www.w3.org/2000/svg">
<path d="M145.734 216.339C146.122 216.338 146.51 216.336 146.897 216.334C146.795 216.164 146.693 215.994 146.59 215.824L145.734 216.339ZM145.734 216.339L145.738 217.339C145.936 217.338 146.133 217.338 146.331 217.337C146.133 217.004 145.933 216.671 145.734 216.339ZM85.5935 107.19L85.5935 107.19C86.3363 75.7008 58.4573 52.8529 27.9991 60.5158C18.5171 62.9011 9.79921 67.2744 1.49552 72.3508C1.53635 54.3938 1.80274 37.9815 2.38519 25.5092C2.68622 19.0632 3.07092 13.6867 3.54991 9.69945C3.7896 7.70421 4.0506 6.07671 4.33141 4.84571C4.55343 3.87239 4.77027 3.23287 4.9524 2.85974C5.01202 2.85232 5.08078 2.84451 5.15937 2.83641C5.5891 2.79214 6.22683 2.7478 7.06917 2.70423C8.74917 2.61735 11.1881 2.53625 14.2837 2.46121C20.472 2.3112 29.2537 2.1861 39.7676 2.08598C60.794 1.88577 88.7325 1.78564 116.673 1.78564C144.613 1.78564 172.551 1.88577 193.578 2.08598C204.092 2.1861 212.873 2.3112 219.062 2.46121C222.157 2.53625 224.596 2.61735 226.276 2.70423C227.119 2.7478 227.756 2.79214 228.186 2.83641C228.264 2.84447 228.333 2.85225 228.392 2.85964C228.49 3.06036 228.603 3.34737 228.724 3.74051C228.911 4.35328 229.095 5.14904 229.273 6.12703C229.627 8.0818 229.943 10.6925 230.22 13.8776C230.774 20.2438 231.168 28.8267 231.431 38.8822C231.956 58.9888 231.952 84.9237 231.647 110.659C231.341 136.393 230.735 161.917 230.058 181.199C229.719 190.841 229.362 198.917 229.017 204.675C228.844 207.556 228.674 209.847 228.512 211.46C228.431 212.269 228.353 212.892 228.28 213.329C228.264 213.423 228.249 213.506 228.235 213.577C227.944 213.634 227.511 213.694 226.93 213.755C225.749 213.879 224.043 213.997 221.861 214.109C217.5 214.332 211.296 214.527 203.72 214.693C188.57 215.025 167.966 215.241 145.729 215.339L143.969 215.347L144.877 216.855C148.849 223.456 152.516 230.187 155.345 237.293L155.345 237.293C159.743 248.336 162.032 260.428 159.933 272.007C158.14 281.878 153.713 289.257 147.393 294.234C141.063 299.218 132.755 301.854 123.104 302.084C93.0531 302.805 71.3295 276.005 78.6313 246.71L78.6313 246.71C81.2864 236.048 86.5164 226.3 92.5083 216.891L93.4827 215.36L91.6685 215.353C68.5712 215.266 46.9628 215.055 31.0197 214.721C23.0467 214.554 16.4983 214.356 11.8912 214.127C9.58535 214.013 7.77979 213.891 6.5297 213.764C5.90145 213.7 5.43573 213.637 5.1248 213.576C5.1219 213.576 5.11901 213.575 5.11615 213.574C5.11088 213.548 5.10546 213.52 5.09989 213.49C5.03898 213.163 4.97319 212.692 4.90402 212.076C4.76614 210.847 4.62188 209.101 4.47404 206.892C4.1786 202.478 3.87176 196.256 3.57222 188.71C2.98957 174.033 2.43545 154.366 2.0462 133.29C7.30437 136.329 12.7102 139.123 18.3676 141.399L18.3679 141.399C29.5826 145.905 42.0104 148.316 54.0192 146.117L53.8391 145.133L54.0193 146.117C64.2649 144.239 72.0649 139.565 77.3548 132.783C82.6368 126.011 85.3555 117.217 85.5935 107.19ZM228.159 213.881C228.16 213.881 228.161 213.878 228.162 213.874C228.16 213.88 228.159 213.882 228.159 213.881ZM5.18803 213.87C5.19116 213.877 5.19258 213.881 5.1925 213.881C5.19241 213.881 5.19086 213.878 5.18803 213.87Z" fill="url(#paint0_linear_245_1123)" stroke="url(#paint1_linear_245_1123)" stroke-width="2"/>
<defs>
<linearGradient id="paint0_linear_245_1123" x1="-39.0095" y1="-32.4687" x2="343.937" y2="233.422" gradientUnits="userSpaceOnUse">
<stop stop-color="#28F17C"/>
<stop offset="1" stop-color="#ECFF38"/>
</linearGradient>
<linearGradient id="paint1_linear_245_1123" x1="-39.0095" y1="-32.4687" x2="343.937" y2="233.422" gradientUnits="userSpaceOnUse">
<stop stop-color="#28F17C"/>
<stop offset="1" stop-color="#ECFF38"/>
</linearGradient>
</defs>
</svg>
