<svg xmlns="http://www.w3.org/2000/svg" width="324" height="220" viewBox="0 0 324 220" fill="none">
  <path d="M252.985 58.3216L252.985 58.3218C251.116 68.6116 246.466 76.4476 239.716 81.7629C232.975 87.0709 224.219 89.8034 214.236 90.0415M252.985 58.3216L1.55316 118.614C0.834748 88.0089 27.6732 65.9272 56.9659 73.3504L56.9662 73.3504C69.2228 76.4535 80.2699 83.0124 90.9811 90.2293L92.5488 91.2855L92.5399 89.3952C92.4341 67.0577 92.6041 45.8515 93.1971 29.7094C93.4936 21.6361 93.8955 14.8457 94.4193 9.81972C94.6814 7.30486 94.972 5.25183 95.2905 3.70923C95.4499 2.93766 95.6127 2.31085 95.7763 1.82617C95.8159 1.70887 95.8544 1.60344 95.8914 1.50901C96.2833 1.58165 96.7968 1.6482 97.4114 1.71072C98.7141 1.84323 100.561 1.96636 102.877 2.08103C107.513 2.3106 114.084 2.50888 122.062 2.67623C137.605 3.00225 158.519 3.21143 180.94 3.3042C175.303 12.323 170.361 21.8014 167.775 32.184C160.151 62.7732 182.878 90.7932 214.236 90.0415M252.985 58.3216C255.172 46.2616 252.773 33.7763 248.287 22.5114C245.619 15.8113 242.231 9.46036 238.575 3.28927C260.146 3.18714 280.08 2.97403 294.848 2.65048C302.429 2.48436 308.657 2.28897 313.047 2.06407C315.24 1.95174 316.988 1.83136 318.223 1.70198C318.785 1.64305 319.26 1.58036 319.628 1.51198C319.69 1.66878 319.755 1.85512 319.822 2.07446C320.014 2.6957 320.201 3.50428 320.381 4.49941C320.742 6.48837 321.063 9.14911 321.345 12.398C321.908 18.8915 322.31 27.6559 322.577 37.929C323.111 58.4707 323.107 84.985 322.796 111.299C322.485 137.612 321.868 163.715 321.178 183.431C320.833 193.29 320.47 201.546 320.119 207.43C319.943 210.374 319.77 212.715 319.605 214.362C319.522 215.188 319.443 215.824 319.368 216.269C319.352 216.369 319.336 216.455 319.321 216.529C319.265 216.54 319.202 216.552 319.13 216.564C318.689 216.637 318.041 216.712 317.183 216.787C315.473 216.935 313.013 217.073 309.899 217.201C303.675 217.458 294.89 217.672 284.392 217.843C263.398 218.186 235.58 218.357 207.76 218.357C179.939 218.357 152.122 218.186 131.128 217.843C120.63 217.672 111.845 217.458 105.621 217.201C102.507 217.073 100.046 216.935 98.3367 216.787C97.4788 216.712 96.8303 216.637 96.3898 216.564C96.318 216.552 96.2545 216.54 96.1987 216.529C96.1954 216.513 96.1922 216.496 96.1888 216.479C96.1303 216.175 96.0669 215.736 96 215.159C95.8667 214.008 95.7272 212.373 95.5841 210.298C95.2981 206.154 95.0008 200.303 94.7087 193.174C94.1245 178.92 93.562 159.583 93.1517 138.629L93.1169 136.852L91.6163 137.804C83.4759 142.967 75.2235 147.857 66.3895 151.432L66.3892 151.432M252.985 58.3216L66.3892 151.432M214.236 90.0415L214.212 89.0417L214.236 90.0414C214.236 90.0414 214.236 90.0415 214.236 90.0415ZM66.3892 151.432C55.3367 155.908 43.2389 158.235 31.656 156.097C21.7819 154.275 14.3978 149.774 9.4156 143.341M66.3892 151.432L9.4156 143.341M9.4156 143.341C4.42523 136.898 1.78487 128.439 1.55317 118.614L9.4156 143.341ZM96.2705 216.822C96.273 216.828 96.2745 216.832 96.2751 216.834C96.2761 216.837 96.2744 216.833 96.2705 216.822Z" fill="url(#paint0_linear_245_1363)" stroke="url(#paint1_linear_245_1363)" stroke-width="2"/>
  <defs>
    <linearGradient id="paint0_linear_245_1363" x1="-54.4508" y1="-23.7927" x2="229.818" y2="355.405" gradientUnits="userSpaceOnUse">
      <stop stop-color="#28F17C"/>
      <stop offset="1" stop-color="#ECFF38"/>
    </linearGradient>
    <linearGradient id="paint1_linear_245_1363" x1="-54.4508" y1="-23.7927" x2="229.818" y2="355.405" gradientUnits="userSpaceOnUse">
      <stop stop-color="#28F17C"/>
      <stop offset="1" stop-color="#ECFF38"/>
    </linearGradient>
  </defs>
</svg>