<svg xmlns="http://www.w3.org/2000/svg" width="236" height="307" viewBox="0 0 236 307" fill="none">
  <path d="M207.154 240.335L207.155 240.335C215.612 236.91 223.511 232.322 231.202 227.487C231.609 247.767 232.157 266.433 232.725 280.302C233.017 287.437 233.316 293.31 233.603 297.482C233.747 299.567 233.889 301.238 234.028 302.435C234.082 302.902 234.137 303.307 234.193 303.641C233.752 303.704 233.157 303.767 232.406 303.83C230.647 303.977 228.113 304.115 224.906 304.243C218.496 304.498 209.443 304.711 198.624 304.881C176.987 305.222 148.309 305.393 119.629 305.393C90.9482 305.393 62.2705 305.222 40.6337 304.881C29.8141 304.711 20.7616 304.498 14.3515 304.243C11.1444 304.115 8.61065 303.977 6.85164 303.83C5.96912 303.756 5.30136 303.681 4.84792 303.608C4.77234 303.596 4.70562 303.584 4.64714 303.573C4.63289 303.5 4.61771 303.415 4.60177 303.319C4.5284 302.873 4.45029 302.237 4.3689 301.411C4.20651 299.764 4.03684 297.423 3.86385 294.479C3.51806 288.594 3.16123 280.336 2.82215 270.475C2.14407 250.756 1.53773 224.647 1.23231 198.33C0.926875 172.01 0.922523 145.493 1.44769 124.952C1.71033 114.679 2.10507 105.916 2.65906 99.4251C2.93624 96.1777 3.2517 93.5184 3.60636 91.5313C3.7838 90.537 3.9679 89.7293 4.15591 89.109C4.22136 88.8931 4.28456 88.7093 4.3442 88.5543C4.34486 88.5544 4.34552 88.5545 4.34617 88.5547C4.78143 88.6341 5.37067 88.707 6.08904 88.7754C7.53208 88.9129 9.58282 89.0405 12.1554 89.159C17.3051 89.3962 24.5988 89.5994 33.4214 89.7689C51.0692 90.1078 74.8634 90.3124 99.9218 90.3829L101.772 90.3881L100.763 88.8373C94.1601 78.6957 88.2774 68.2062 85.4021 56.6466C78.0992 27.2859 99.8265 0.427345 129.874 1.15052L129.898 0.150807L129.874 1.15052C139.525 1.38205 147.833 4.02377 154.163 9.01833C160.483 14.0057 164.91 21.401 166.703 31.2951C168.803 42.8996 166.514 55.0208 162.115 66.0885L163.045 66.4579L162.115 66.0886C158.965 74.0173 154.774 81.4828 150.284 88.8185L149.347 90.3487L151.141 90.3406C173.729 90.2376 194.59 90.0197 209.914 89.6877C217.574 89.5218 223.859 89.3272 228.285 89.1038C230.496 88.9922 232.258 88.8727 233.501 88.7445C233.584 88.7359 233.665 88.7273 233.744 88.7185C233.604 89.2008 233.471 89.7483 233.346 90.3537C233.009 91.9897 232.71 94.1171 232.445 96.6613C231.914 101.753 231.51 108.596 231.213 116.685C230.635 132.413 230.459 152.915 230.546 174.57C220.269 167.735 209.472 161.501 197.472 158.461C166.837 150.695 138.817 173.84 139.568 205.71C139.808 215.859 142.54 224.76 147.849 231.615C153.166 238.479 161.007 243.212 171.308 245.113C183.383 247.341 195.88 244.898 207.154 240.335ZM4.72309 303.883C4.72303 303.883 4.72193 303.881 4.71997 303.875C4.72215 303.88 4.72315 303.883 4.72309 303.883Z" fill="url(#paint0_linear_247_1568)" stroke="url(#paint1_linear_247_1568)" stroke-width="2"/>
  <defs>
    <linearGradient id="paint0_linear_247_1568" x1="-39.9928" y1="-33.552" x2="347.947" y2="235.8" gradientUnits="userSpaceOnUse">
      <stop stop-color="#28F17C"/>
      <stop offset="1" stop-color="#ECFF38"/>
    </linearGradient>
    <linearGradient id="paint1_linear_247_1568" x1="-39.9928" y1="-33.552" x2="347.947" y2="235.8" gradientUnits="userSpaceOnUse">
      <stop stop-color="#28F17C"/>
      <stop offset="1" stop-color="#ECFF38"/>
    </linearGradient>
  </defs>
</svg>