<svg xmlns="http://www.w3.org/2000/svg" width="316" height="217" viewBox="0 0 316 217" fill="none">
  <path d="M230.57 74.1475L230.568 75.9547L232.1 74.9969C240.785 69.5697 249.79 64.9172 259.565 62.4575C288.704 55.1265 315.388 76.9384 314.669 107.15C314.439 116.85 311.815 125.2 306.853 131.561C301.9 137.911 294.557 142.357 284.734 144.157C273.215 146.267 261.183 143.968 250.189 139.551C244.103 137.102 238.289 134.032 232.597 130.676L231.057 129.768L231.09 131.556C231.48 153.312 232.05 173.69 232.649 188.797C232.949 196.35 233.257 202.592 233.554 207.033C233.702 209.252 233.849 211.033 233.992 212.306C234.051 212.832 234.111 213.283 234.171 213.648C233.925 213.683 233.626 213.719 233.273 213.756C232.083 213.879 230.363 213.996 228.162 214.107C223.765 214.329 217.503 214.523 209.848 214.689C194.945 215.012 174.791 215.227 152.898 215.333C157.064 208.443 160.96 201.355 163.95 193.828C168.439 182.538 170.838 170.027 168.648 157.94C166.779 147.628 162.129 139.776 155.378 134.449C148.637 129.13 139.881 126.391 129.899 126.152C98.5412 125.397 75.8146 153.482 83.4378 184.13C86.2456 195.419 91.8241 205.648 98.061 215.378C73.6865 215.303 50.6358 215.1 33.4363 214.77C24.6188 214.601 17.3464 214.398 12.224 214.162C9.66055 214.044 7.64876 213.918 6.25529 213.785C5.5554 213.719 5.03288 213.652 4.68195 213.588C4.6612 213.584 4.64142 213.581 4.62259 213.577C4.60854 213.506 4.59358 213.424 4.57787 213.331C4.50465 212.894 4.42662 212.271 4.34526 211.462C4.18295 209.848 4.01332 207.558 3.84034 204.677C3.49457 198.919 3.13776 190.845 2.79869 181.203C2.12062 161.923 1.51428 136.401 1.20887 110.669C0.903437 84.9348 0.899091 59.0008 1.42424 38.8934C1.68687 28.8375 2.08158 20.2537 2.63549 13.8861C2.91261 10.7003 3.22798 8.08861 3.58245 6.13274C3.75979 5.15421 3.94375 4.35781 4.13163 3.74435C4.25189 3.35165 4.36486 3.06447 4.4627 2.86322C4.52671 2.85538 4.60103 2.84711 4.68641 2.83854C5.12978 2.79405 5.78729 2.74958 6.65489 2.70592C8.38551 2.61885 10.8984 2.53759 14.0876 2.46242C20.4635 2.31213 29.5127 2.1868 40.3475 2.08651C62.0157 1.88594 90.8096 1.78564 119.605 1.78564C148.401 1.78564 177.195 1.88594 198.863 2.08651C209.698 2.1868 218.747 2.31213 225.123 2.46242C228.312 2.53759 230.825 2.61885 232.555 2.70592C233.085 2.73255 233.536 2.75948 233.908 2.78653C233.741 3.26862 233.594 3.81512 233.46 4.40303C233.157 5.73062 232.886 7.4353 232.642 9.46302C232.155 13.5216 231.768 18.9542 231.466 25.418C230.862 38.3502 230.597 55.479 230.57 74.1475ZM4.69546 213.876C4.69748 213.88 4.69843 213.883 4.69842 213.883C4.69841 213.884 4.69737 213.881 4.69546 213.876Z" fill="url(#paint0_linear_247_1847)" stroke="url(#paint1_linear_247_1847)" stroke-width="2"/>
  <defs>
    <linearGradient id="paint0_linear_247_1847" x1="-53.6662" y1="-22.9302" x2="226.773" y2="348.007" gradientUnits="userSpaceOnUse">
      <stop stop-color="#28F17C"/>
      <stop offset="1" stop-color="#ECFF38"/>
    </linearGradient>
    <linearGradient id="paint1_linear_247_1847" x1="-53.6662" y1="-22.9302" x2="226.773" y2="348.007" gradientUnits="userSpaceOnUse">
      <stop stop-color="#28F17C"/>
      <stop offset="1" stop-color="#ECFF38"/>
    </linearGradient>
  </defs>
</svg>