<svg width="325" height="220" viewBox="0 0 325 220" fill="none" xmlns="http://www.w3.org/2000/svg">
<g filter="url(#filter0_b_268_346)">
<path d="M320.121 0.806046C319.258 1.93424 281.297 2.59988 236.818 2.79732C240.803 9.41984 244.501 16.206 247.358 23.3813C251.8 34.5364 254.144 46.8253 252.001 58.6432C248.34 78.8041 233.848 89.0735 214.212 89.5417C183.508 90.2779 161.282 62.8683 168.745 32.9259C171.439 22.1093 176.736 12.2544 182.749 2.81142C136.549 2.63372 96.2896 1.96527 95.3983 0.803223C92.2196 5.0114 91.3283 45.2148 91.5399 89.8999C80.8107 82.671 69.6443 76.0287 57.2116 72.881C27.2494 65.2883 -0.179888 87.9002 0.553441 119.137C1.02446 139.112 11.2995 153.858 31.4746 157.581C43.3037 159.764 55.6011 157.38 66.7646 152.859C75.6858 149.249 84.0007 144.319 92.1519 139.149C92.9727 181.067 94.4027 216.523 95.3983 217.801C97.5334 220.543 317.986 220.543 320.121 217.801C322.533 214.707 327.508 10.5875 320.121 0.806046Z" fill="#1326F6" fill-opacity="0.2"/>
<path d="M95.5993 1.43327C95.6975 1.4594 95.8064 1.48353 95.9235 1.5062C96.3007 1.57924 96.8189 1.64787 97.462 1.71329C98.7515 1.84446 100.588 1.96709 102.901 2.08164C107.53 2.31086 114.096 2.50902 122.073 2.67634C137.819 3.00664 159.082 3.21701 181.842 3.30787C176.018 12.5369 170.9 22.2043 168.26 32.805C160.717 63.0707 183.193 90.7856 214.224 90.0416C224.125 89.8055 232.768 87.0971 239.406 81.87C246.049 76.6394 250.643 68.9176 252.493 58.7325C254.658 46.7934 252.287 34.4063 247.823 23.1963C245.06 16.2581 241.518 9.68905 237.698 3.29335C259.603 3.19288 279.874 2.97843 294.837 2.6506C302.417 2.48451 308.639 2.28924 313.022 2.06472C315.212 1.95252 316.95 1.83267 318.171 1.7047C318.779 1.64089 319.271 1.57392 319.63 1.50255C319.734 1.48188 319.831 1.45991 319.92 1.43619C320.042 1.6784 320.17 2.0055 320.3 2.4274C320.499 3.07461 320.691 3.90434 320.873 4.91018C321.238 6.9212 321.56 9.59942 321.843 12.8547C322.408 19.3633 322.81 28.1394 323.077 38.416C323.611 58.9669 323.607 85.4883 323.296 111.805C322.985 138.122 322.368 164.228 321.678 183.948C321.333 193.809 320.97 202.069 320.618 207.96C320.442 210.906 320.269 213.254 320.102 214.912C320.019 215.742 319.939 216.39 319.861 216.852C319.823 217.083 319.786 217.258 319.753 217.381C319.747 217.406 319.741 217.426 319.735 217.444C319.73 217.445 319.725 217.447 319.719 217.449C319.61 217.481 319.444 217.518 319.212 217.557C318.752 217.634 318.088 217.71 317.226 217.785C315.505 217.934 313.035 218.073 309.919 218.201C303.689 218.458 294.899 218.672 284.4 218.843C263.402 219.186 235.582 219.357 207.76 219.357C179.938 219.357 152.117 219.186 131.12 218.843C120.621 218.672 111.831 218.458 105.6 218.201C102.484 218.073 100.015 217.934 98.2936 217.785C97.4315 217.71 96.7674 217.634 96.3073 217.557C96.0758 217.518 95.9094 217.481 95.8003 217.449C95.7947 217.447 95.7894 217.445 95.7843 217.444C95.7837 217.442 95.783 217.44 95.7824 217.438C95.7574 217.355 95.7289 217.235 95.6978 217.073C95.6359 216.751 95.5707 216.298 95.5033 215.716C95.3686 214.554 95.2285 212.91 95.0853 210.833C94.7988 206.681 94.5013 200.825 94.2091 193.695C93.6247 179.436 93.0621 160.096 92.6518 139.139L92.6344 138.251L91.8841 138.726C83.7383 143.893 75.4547 148.803 66.577 152.396L66.5769 152.396C55.4689 156.894 43.2713 159.249 31.5653 157.089C21.5845 155.247 14.0862 150.688 9.0203 144.147C3.95034 137.601 1.2869 129.032 1.0533 119.125C0.327395 88.2046 27.4613 65.8577 57.0888 73.3657L57.0889 73.3657C69.4336 76.4911 80.5403 83.0917 91.2605 90.3146L92.0443 90.8427L92.0399 89.8976C91.9341 67.5575 92.1041 46.3434 92.6974 30.1911C92.9941 22.1138 93.3964 15.3104 93.922 10.2679C94.1848 7.7457 94.4775 5.67409 94.8009 4.10813C94.9626 3.32501 95.1302 2.67688 95.3026 2.16628C95.4042 1.86499 95.504 1.6226 95.5993 1.43327ZM319.812 217.416C319.812 217.416 319.812 217.416 319.811 217.416L319.812 217.416Z" stroke="white" stroke-opacity="0.5"/>
</g>
<g opacity="0.7">
<path d="M278.129 159.006L278.227 173.258C278.228 173.467 278.312 173.668 278.461 173.816C278.61 173.964 278.811 174.047 279.021 174.047L282.773 174.026C282.878 174.026 282.981 174.005 283.077 173.964C283.173 173.924 283.261 173.865 283.334 173.79C283.407 173.716 283.465 173.628 283.505 173.531C283.544 173.435 283.564 173.331 283.563 173.227L283.465 158.975C283.463 158.765 283.379 158.565 283.23 158.417C283.081 158.269 282.88 158.186 282.671 158.186C282.565 158.186 278.813 158.206 278.919 158.207C278.708 158.207 278.126 158.572 278.129 159.006ZM281.883 159.779L281.969 172.442L279.81 172.455L279.723 159.791L281.883 159.779ZM286.593 174.164H286.598C290.238 174.071 290.51 174.309 290.907 173.908C291.347 173.463 291.055 174.246 291.009 152.948C291.007 152.739 290.923 152.538 290.774 152.39C290.626 152.242 290.424 152.159 290.215 152.159C290.109 152.159 286.356 152.178 286.463 152.18C286.359 152.18 286.256 152.201 286.159 152.242C286.063 152.282 285.976 152.341 285.903 152.415C285.829 152.49 285.771 152.578 285.732 152.674C285.693 152.771 285.673 152.875 285.673 152.979L285.8 173.375C285.802 173.585 285.886 173.785 286.035 173.933C286.184 174.081 286.385 174.164 286.595 174.164H286.593ZM289.426 153.752L289.542 172.56L287.382 172.571L287.266 153.764L289.426 153.752ZM275.301 164.924C271.138 164.924 271.278 164.886 270.989 165.18C270.575 165.599 270.84 165.456 270.809 173.259C270.81 173.468 270.894 173.669 271.043 173.817C271.192 173.964 271.393 174.047 271.603 174.047H271.607C275.264 173.954 275.511 174.201 275.916 173.791C276.329 173.371 276.065 173.514 276.095 165.712C276.094 165.503 276.01 165.302 275.861 165.154C275.712 165.006 275.511 164.924 275.301 164.924ZM272.391 172.455L272.352 166.528L274.512 166.516L274.551 172.442L272.391 172.455ZM264.276 174.136C267.915 174.043 268.187 174.282 268.583 173.88C269.022 173.438 268.731 173.62 268.742 161.941C268.74 161.731 268.656 161.531 268.507 161.383C268.358 161.235 268.157 161.152 267.948 161.152L264.196 161.172C264.092 161.173 263.989 161.194 263.892 161.234C263.796 161.275 263.709 161.334 263.635 161.408C263.562 161.482 263.504 161.57 263.465 161.667C263.425 161.764 263.406 161.867 263.406 161.972L263.477 173.348C263.479 173.557 263.563 173.758 263.712 173.906C263.86 174.053 264.062 174.136 264.271 174.136H264.276ZM267.159 162.743L267.22 172.532L265.06 172.544L265 162.756L267.159 162.743ZM267.481 159.036C270.38 155.977 274.179 153.923 278.326 153.173L278.052 153.537C277.421 154.378 278.689 155.332 279.32 154.493L280.968 152.304C281.094 152.138 281.149 151.928 281.121 151.722C281.093 151.515 280.986 151.327 280.821 151.199C280.096 150.635 279.289 150.185 278.428 149.865C277.44 149.5 276.89 150.987 277.874 151.354C278.035 151.414 278.192 151.487 278.348 151.558C273.752 152.321 269.53 154.565 266.325 157.948C265.605 158.71 266.76 159.8 267.481 159.036Z" fill="#EDF8E6"/>
<path d="M300.867 149.44C300.892 143.451 296.255 138.439 290.31 138.03C271.819 136.758 255.591 139.484 252.595 139.812C252.451 139.829 252.315 139.884 252.201 139.973C252.087 140.061 251.999 140.179 251.947 140.313L251.79 140.289C251.712 141.555 251.604 142.532 251.562 143.614C248.815 143.636 247.792 143.39 247.62 144.315C247.486 144.517 247.264 145.074 246.598 145.535C248.119 162.046 248.84 178.708 248.551 195.286C248.527 196.698 248.548 198.066 249.69 198.904C249.964 199.313 250.288 199.236 250.395 199.263C253.568 199.233 256.527 198.322 280.882 199.613C297.651 200.5 296.754 200.381 297.048 200.101C297.371 199.796 297.321 199.855 297.296 195.322C299.475 195.413 300.712 195.45 300.603 195.45C300.813 195.451 301.014 195.367 301.163 195.219C301.312 195.071 301.396 194.87 301.397 194.661C301.481 180.191 300.802 164.273 300.867 149.44ZM255.219 194.79C255.554 191.783 255.364 182.189 255.311 179.167C255.297 168.644 255.356 154.856 254.023 145.002C254.056 144.776 253.631 141.402 253.616 141.295C257.381 140.852 272.815 138.424 290.202 139.614C290.751 139.655 291.295 139.742 291.828 139.875L292.23 148.113C292.293 149.417 293.561 148.407 298.926 149.63C299.099 149.668 299.174 149.644 299.279 149.619C299.222 164.273 299.867 179.66 299.813 193.836C283.772 193.251 270.95 192.835 255.219 194.79Z" fill="#EDF8E6"/>
<path d="M300.867 149.44C300.892 143.451 296.255 138.439 290.31 138.03C271.819 136.758 255.591 139.484 252.595 139.812C252.451 139.829 252.315 139.884 252.201 139.973C252.087 140.061 251.999 140.179 251.947 140.313L251.79 140.289C251.712 141.555 251.604 142.532 251.562 143.614C248.815 143.636 247.792 143.39 247.62 144.315C247.486 144.517 247.264 145.074 246.598 145.535C248.119 162.046 248.84 178.708 248.551 195.286C248.527 196.698 248.548 198.066 249.69 198.904C249.964 199.313 250.288 199.236 250.395 199.263C253.568 199.233 256.527 198.322 280.882 199.613C297.651 200.5 296.754 200.381 297.048 200.101C297.371 199.796 297.321 199.855 297.296 195.322C299.475 195.413 300.712 195.45 300.603 195.45C300.813 195.45 301.014 195.367 301.163 195.219C301.312 195.071 301.396 194.87 301.397 194.661C301.481 180.191 300.802 164.273 300.867 149.44ZM299.178 148.062C297.403 147.663 295.598 147.412 293.781 147.312L293.445 140.428C294.971 141.107 296.299 142.165 297.302 143.501C298.305 144.837 298.951 146.407 299.178 148.062ZM251.363 197.61C251.528 195.906 251.499 192.401 251.271 185.174C251.049 178.134 251.637 158.631 249.36 145.192C249.983 145.18 250.703 145.209 251.555 145.203C253.512 199.054 253.359 195.461 253.429 195.704C253.375 197.974 257.468 194.044 292.922 195.174L295.713 195.268C295.72 196.416 295.72 197.562 295.713 198.697C275.321 197.887 264.875 196.797 251.363 197.61ZM255.219 194.79C255.554 191.783 255.364 182.189 255.311 179.167C255.297 168.644 255.356 154.856 254.023 145.002C254.056 144.776 253.631 141.402 253.616 141.295C257.381 140.852 272.815 138.424 290.202 139.614C290.751 139.655 291.295 139.742 291.828 139.875L292.23 148.113C292.293 149.417 293.561 148.407 298.926 149.63C299.099 149.668 299.174 149.644 299.279 149.619C299.222 164.273 299.867 179.66 299.813 193.836C283.772 193.251 270.95 192.835 255.219 194.79Z" fill="#EDF8E6"/>
<path d="M293.091 180.11H264.777C263.725 180.11 263.725 181.698 264.777 181.698H293.09C294.141 181.698 294.142 180.11 293.091 180.11ZM281.198 186.286H266.893C266.683 186.286 266.481 186.37 266.332 186.519C266.183 186.668 266.099 186.87 266.099 187.08C266.099 187.291 266.183 187.493 266.332 187.642C266.481 187.791 266.683 187.875 266.893 187.875H281.198C281.409 187.875 281.611 187.791 281.76 187.642C281.909 187.493 281.992 187.291 281.992 187.08C281.992 186.87 281.909 186.668 281.76 186.519C281.611 186.37 281.409 186.286 281.198 186.286Z" fill="#EDF8E6"/>
</g>
<g clip-path="url(#clip0_268_346)">
<path d="M238.607 123.37C238.652 123.426 238.674 123.494 238.674 123.572C238.674 123.91 238.325 124.169 237.617 124.349C236.84 123.741 235.862 122.819 234.703 121.57C233.409 120.175 232.442 119.196 231.812 118.656C231.767 119.039 231.688 120.04 231.564 121.66C231.485 122.886 231.362 123.854 231.17 124.574C231.137 124.574 231.047 124.607 230.889 124.686C230.732 124.765 230.608 124.776 230.507 124.754C229.854 124.607 229.539 124.157 229.539 123.404C229.539 123.179 229.573 122.886 229.629 122.515C229.685 122.087 229.719 121.817 229.742 121.716C229.798 120.861 229.832 119.849 229.854 118.667V116.26C229.854 114.257 229.967 112.57 230.18 111.197C230.327 110.286 231.193 109.87 232.768 109.937C233.567 109.971 234.253 110.365 234.849 111.13C235.389 111.839 235.67 112.604 235.67 113.425C235.67 114.122 235.412 114.809 234.894 115.506C234.455 116.125 233.904 116.609 233.263 116.969C232.993 117.115 232.869 117.272 232.869 117.452C232.869 117.644 233.027 117.869 233.33 118.139C233.567 118.33 233.803 118.521 234.039 118.712C234.05 118.724 234.86 119.466 236.469 120.917C237.448 121.829 238.179 122.639 238.607 123.37ZM233.938 113.447C233.983 113.177 233.994 112.952 233.983 112.739C233.938 112.424 233.814 112.154 233.6 111.895C233.387 111.636 233.049 111.524 232.577 111.524C232.228 111.524 232.003 111.636 231.913 111.85C231.834 112.221 231.8 112.637 231.8 113.11C231.8 113.301 231.823 113.796 231.868 114.595C231.902 115.202 231.902 115.697 231.868 116.08C233.083 115.157 233.78 114.28 233.938 113.447Z" fill="#EDF8E6" fill-opacity="0.5"/>
<path d="M237.559 124.621L237.462 124.545C236.672 123.927 235.683 122.994 234.52 121.74L234.52 121.74C233.457 120.594 232.62 119.735 232.012 119.171C231.966 119.693 231.901 120.527 231.813 121.677C231.734 122.908 231.609 123.894 231.412 124.638L231.363 124.824H231.193C231.187 124.826 231.179 124.829 231.168 124.833C231.131 124.847 231.076 124.872 231.001 124.91C230.803 125.009 230.62 125.035 230.452 124.998L230.452 124.997C230.078 124.914 229.778 124.736 229.575 124.451C229.374 124.171 229.289 123.813 229.289 123.404C229.289 123.159 229.325 122.851 229.382 122.48C229.39 122.418 229.397 122.359 229.405 122.304C229.444 122.004 229.472 121.789 229.493 121.682C229.548 120.837 229.582 119.836 229.604 118.665V116.26C229.604 114.249 229.717 112.548 229.933 111.159L229.933 111.158L229.933 111.158C230.02 110.617 230.328 110.219 230.829 109.975C231.315 109.74 231.973 109.653 232.778 109.688L237.559 124.621ZM237.559 124.621L237.678 124.591M237.559 124.621L237.678 124.591M237.678 124.591C238.046 124.498 238.346 124.378 238.559 124.221C238.779 124.059 238.924 123.843 238.924 123.572C238.924 123.449 238.889 123.331 238.814 123.23C238.367 122.47 237.617 121.644 236.639 120.734L236.639 120.734L236.637 120.732C235.832 120.006 235.228 119.458 234.823 119.09C234.621 118.906 234.468 118.767 234.366 118.673C234.305 118.618 234.264 118.58 234.241 118.558C234.223 118.542 234.215 118.534 234.216 118.536L234.207 118.526L234.196 118.518L233.842 118.231L233.492 117.948C233.351 117.822 233.253 117.715 233.193 117.625C233.131 117.534 233.119 117.479 233.119 117.452C233.119 117.412 233.139 117.32 233.382 117.188L233.382 117.188L233.385 117.187C234.057 116.81 234.636 116.302 235.096 115.653C235.636 114.925 235.92 114.188 235.92 113.425C235.92 112.542 235.617 111.725 235.048 110.978L235.048 110.978M237.678 124.591L235.048 110.978M235.048 110.978L235.046 110.976M235.048 110.978L235.046 110.976M235.046 110.976C234.416 110.167 233.666 109.725 232.779 109.688L235.046 110.976ZM232.117 114.581L232.117 114.581C232.072 113.779 232.05 113.292 232.05 113.11C232.05 112.66 232.082 112.271 232.152 111.929C232.192 111.855 232.295 111.774 232.577 111.774C233.015 111.774 233.262 111.878 233.408 112.054C233.592 112.277 233.695 112.502 233.734 112.763C233.743 112.953 233.733 113.156 233.692 113.403C233.569 114.048 233.069 114.762 232.142 115.541C232.146 115.257 232.137 114.937 232.117 114.581Z" stroke="#EDF8E6" stroke-opacity="0.2" stroke-width="0.5"/>
<path d="M249.475 112.165C248.935 112.39 248.125 112.649 247.067 112.941C246.01 113.234 245.2 113.492 244.66 113.717C244.525 114.1 244.435 114.955 244.379 116.282C244.615 116.372 244.885 116.417 245.2 116.417C245.425 116.417 245.762 116.384 246.235 116.305C246.707 116.226 247.056 116.192 247.27 116.192C247.686 116.192 248.035 116.282 248.327 116.462C248.53 116.755 248.642 116.946 248.642 117.036C248.642 117.137 248.586 117.216 248.485 117.284C248.451 117.295 248.35 117.407 248.17 117.599C248.057 117.734 247.9 117.79 247.731 117.779C247.427 117.857 246.854 117.891 246.032 117.914C245.335 117.925 244.784 118.015 244.379 118.184C244.097 119.275 243.962 120.13 243.962 120.771C243.962 121.199 244.019 121.536 244.142 121.784C244.84 122.267 246.032 122.481 247.742 122.402C247.855 122.402 247.99 122.346 248.114 122.234C248.237 122.121 248.361 122.065 248.44 122.065C248.856 121.975 249.126 122.29 249.261 122.999C249.306 123.235 249.261 123.449 249.137 123.651C249.014 123.854 248.834 123.955 248.597 123.977C246.82 124.034 245.267 123.899 243.951 123.561C243.535 123.46 243.164 123.235 242.826 122.875C242.489 122.526 242.297 122.121 242.252 121.682C242.117 120.4 242.117 119.252 242.252 118.24C241.836 117.959 241.656 117.689 241.701 117.419C241.712 117.284 241.825 117.16 242.039 117.059C242.252 116.946 242.376 116.834 242.399 116.721C242.432 116.609 242.489 115.9 242.579 114.617C241.757 114.46 241.352 114.145 241.364 113.684C241.375 113.256 241.634 112.919 242.14 112.671C242.612 112.48 243.085 112.289 243.557 112.097C244.12 111.816 244.806 111.569 245.639 111.344C246.347 111.152 247.056 110.972 247.776 110.792C247.855 110.781 247.934 110.77 248.046 110.77C248.44 110.77 248.912 110.927 249.441 111.231C249.452 111.287 249.497 111.4 249.554 111.557C249.61 111.715 249.644 111.839 249.644 111.906C249.621 111.996 249.576 112.086 249.475 112.165Z" fill="#EDF8E6" fill-opacity="0.5"/>
<path d="M249.571 112.396L249.602 112.383L249.628 112.362C249.781 112.243 249.852 112.101 249.886 111.967L249.894 111.937V111.906C249.894 111.839 249.878 111.766 249.861 111.702C249.843 111.634 249.818 111.556 249.789 111.473C249.774 111.431 249.756 111.383 249.741 111.342C249.731 111.314 249.722 111.289 249.716 111.272C249.706 111.245 249.699 111.224 249.694 111.208C249.691 111.199 249.689 111.193 249.688 111.188C249.687 111.184 249.686 111.182 249.686 111.182L249.664 111.071L249.566 111.014C249.019 110.7 248.502 110.52 248.046 110.52C247.916 110.52 247.823 110.533 247.743 110.545L247.741 110.545L247.728 110.547L247.715 110.55C246.995 110.73 246.284 110.91 245.573 111.102L245.573 111.102C244.735 111.329 244.035 111.58 243.454 111.869L242.046 112.439L242.038 112.443L242.03 112.446C241.471 112.72 241.128 113.126 241.114 113.677L241.114 113.677C241.106 113.997 241.248 114.263 241.506 114.462C241.71 114.619 241.984 114.734 242.314 114.815C242.276 115.353 242.244 115.778 242.218 116.087C242.204 116.262 242.191 116.399 242.18 116.497C242.174 116.547 242.169 116.585 242.165 116.614C242.161 116.64 242.159 116.65 242.159 116.65C242.159 116.65 242.159 116.65 242.159 116.65L242.156 116.66L242.154 116.667C242.152 116.671 242.144 116.684 242.12 116.707C242.082 116.742 242.02 116.785 241.926 116.835C241.693 116.947 241.48 117.123 241.453 117.387C241.394 117.767 241.629 118.087 241.986 118.356C241.867 119.355 241.874 120.473 242.004 121.708C242.055 122.206 242.272 122.661 242.645 123.047C243.01 123.436 243.422 123.689 243.89 123.804C245.236 124.148 246.812 124.284 248.605 124.227L248.613 124.227L248.621 124.226C248.927 124.197 249.181 124.058 249.351 123.781C249.504 123.53 249.564 123.253 249.507 122.952C249.436 122.583 249.324 122.274 249.144 122.068C249.051 121.961 248.937 121.879 248.802 121.835C248.674 121.794 248.542 121.79 248.409 121.816C248.327 121.822 248.249 121.85 248.182 121.883C248.103 121.923 248.022 121.979 247.945 122.049C247.854 122.132 247.776 122.152 247.742 122.152V122.152L247.731 122.153C246.08 122.229 244.976 122.025 244.34 121.615C244.258 121.42 244.212 121.144 244.212 120.771C244.212 120.184 244.332 119.393 244.589 118.371C244.944 118.246 245.422 118.173 246.036 118.163L246.036 118.164L246.039 118.163C246.821 118.142 247.413 118.11 247.756 118.03C247.978 118.034 248.197 117.953 248.357 117.765C248.384 117.736 248.409 117.71 248.431 117.685C248.484 117.628 248.527 117.583 248.561 117.548C248.582 117.526 248.597 117.512 248.607 117.502L248.623 117.492C248.764 117.398 248.892 117.252 248.892 117.036C248.892 116.968 248.872 116.905 248.854 116.859C248.835 116.809 248.809 116.756 248.779 116.703C248.719 116.597 248.635 116.468 248.533 116.32L248.503 116.277L248.458 116.249C248.119 116.041 247.723 115.942 247.27 115.942C247.036 115.942 246.671 115.979 246.194 116.058C245.726 116.136 245.404 116.167 245.2 116.167C244.986 116.167 244.8 116.145 244.637 116.102C244.663 115.527 244.697 115.051 244.738 114.672C244.776 114.326 244.818 114.074 244.864 113.904C245.388 113.695 246.148 113.455 247.134 113.182C248.194 112.889 249.016 112.627 249.571 112.396Z" stroke="#EDF8E6" stroke-opacity="0.2" stroke-width="0.5"/>
<path d="M260.668 115.562C260.105 116.766 259.633 117.576 259.228 117.97C258.609 118.589 258.272 118.926 258.215 118.982C257.788 119.32 257.36 119.522 256.933 119.601C256.877 119.893 256.843 120.242 256.843 120.636C256.843 120.917 256.865 121.345 256.91 121.907C256.955 122.47 256.978 122.886 256.978 123.156C256.978 124.157 256.742 124.911 256.269 125.406L255.65 125.08C255.403 124.945 255.257 124.787 255.234 124.596C255.088 123.64 255.009 122.571 255.009 121.39C255.009 120.613 255.054 119.443 255.144 117.902C255.234 116.35 255.279 115.18 255.279 114.392C255.279 113.245 255.212 112.187 255.077 111.231C254.953 111.276 254.852 111.197 254.75 111.006C254.649 110.815 254.559 110.702 254.48 110.68C254.559 110.207 254.683 109.971 254.852 109.971C255.077 109.892 255.527 109.915 256.224 110.016C258.137 110.331 259.588 111.164 260.555 112.536C260.859 112.975 261.017 113.481 261.017 114.032C261.028 114.527 260.904 115.033 260.668 115.562ZM259.239 113.864C259.318 113.279 259.059 112.806 258.485 112.468C258.452 112.468 257.923 112.255 256.899 111.827C257.057 114.538 257.113 116.44 257.057 117.531C258.362 116.293 259.093 115.067 259.239 113.864Z" fill="#EDF8E6" fill-opacity="0.5"/>
<path d="M260.894 115.668L260.894 115.668C260.334 116.867 259.845 117.717 259.404 118.148L258.392 119.159L258.382 119.169L258.37 119.178C257.972 119.493 257.566 119.703 257.151 119.809C257.114 120.05 257.093 120.327 257.093 120.636C257.093 120.907 257.115 121.326 257.16 121.887C257.205 122.451 257.228 122.875 257.228 123.156C257.228 124.192 256.984 125.019 256.45 125.579L256.32 125.715L256.153 125.627L255.534 125.301L255.531 125.299L255.531 125.299C255.26 125.151 255.025 124.94 254.987 124.63C254.838 123.661 254.759 122.58 254.759 121.39C254.759 120.606 254.805 119.43 254.895 117.888L260.894 115.668ZM260.894 115.668L260.896 115.664M260.894 115.668L260.896 115.664M260.896 115.664C261.143 115.112 261.278 114.57 261.267 114.029C261.266 113.429 261.094 112.874 260.761 112.394L260.761 112.394L260.76 112.392C259.747 110.955 258.231 110.093 256.265 109.769L256.265 109.769L256.26 109.769C255.908 109.717 255.611 109.685 255.37 109.676C255.153 109.668 254.959 109.678 254.805 109.723C254.608 109.744 254.483 109.894 254.411 110.032C254.331 110.185 254.275 110.394 254.234 110.639L254.197 110.859M260.896 115.664L254.197 110.859M254.197 110.859L254.392 110.915M254.197 110.859L254.392 110.915M254.392 110.915C254.397 110.919 254.404 110.927 254.414 110.938C254.444 110.975 254.483 111.035 254.53 111.123C254.586 111.23 254.659 111.339 254.76 111.411C254.791 111.432 254.823 111.45 254.856 111.463C254.971 112.354 255.029 113.333 255.029 114.392C255.029 115.172 254.985 116.336 254.895 117.888L254.392 110.915ZM258.991 113.83L258.991 113.833C258.871 114.821 258.326 115.848 257.326 116.908C257.34 115.831 257.287 114.264 257.172 112.212C257.506 112.35 257.772 112.46 257.97 112.54C258.103 112.594 258.206 112.634 258.279 112.662C258.315 112.676 258.345 112.687 258.369 112.695C258.375 112.697 258.381 112.699 258.387 112.701C258.629 112.848 258.791 113.015 258.887 113.192C258.986 113.375 259.024 113.585 258.991 113.83Z" stroke="#EDF8E6" stroke-opacity="0.2" stroke-width="0.5"/>
<path d="M274.024 118.442C273.158 120.4 271.92 121.57 270.334 121.93C270.143 121.975 269.952 121.997 269.76 121.997C268.917 121.997 268.073 121.536 267.218 120.625C266.644 120.006 266.352 119.207 266.352 118.217C266.352 117.126 266.678 115.956 267.319 114.707C267.6 114.179 267.938 113.717 268.332 113.335C268.793 112.874 269.22 112.649 269.637 112.649C269.873 112.649 270.098 112.739 270.3 112.919C270.503 113.099 271.054 113.335 271.954 113.627C272.663 113.864 273.158 114.257 273.462 114.82C273.979 115.81 274.238 116.654 274.238 117.362C274.238 117.756 274.17 118.116 274.024 118.442ZM272.258 117.07C272.157 115.99 271.864 115.36 271.392 115.146C271.313 115.112 271.257 115.101 271.189 115.101C271.009 115.101 270.795 115.247 270.525 115.54C270.233 115.877 270.008 116.08 269.839 116.136C269.738 116.181 269.592 116.136 269.4 116.001C269.209 115.866 269.085 115.799 269.029 115.799C268.984 115.799 268.95 115.81 268.917 115.844C268.399 116.282 268.14 116.969 268.14 117.902C268.14 118.532 268.287 119.072 268.579 119.511C268.995 120.119 269.333 120.411 269.614 120.411C270.267 120.411 270.885 120.006 271.493 119.196C272.078 118.442 272.325 117.734 272.258 117.07Z" fill="#EDF8E6" fill-opacity="0.5"/>
<path d="M267.034 120.795L267.035 120.796C267.914 121.732 268.819 122.247 269.76 122.247C269.971 122.247 270.181 122.223 270.39 122.173C272.076 121.79 273.365 120.548 274.252 118.544C274.415 118.18 274.488 117.785 274.488 117.362C274.488 116.596 274.209 115.711 273.683 114.704L273.683 114.704L273.682 114.701C273.343 114.074 272.792 113.643 272.033 113.39L272.033 113.39L272.031 113.39C271.585 113.244 271.23 113.115 270.964 113.001C270.691 112.884 270.535 112.793 270.466 112.732C270.224 112.516 269.942 112.399 269.637 112.399C269.125 112.399 268.638 112.675 268.156 113.157C267.742 113.559 267.39 114.042 267.098 114.59L267.098 114.59L267.097 114.593C266.443 115.867 266.102 117.076 266.102 118.217C266.102 119.26 266.412 120.123 267.034 120.795ZM272.009 117.093L272.009 117.093L272.009 117.095C272.068 117.674 271.856 118.32 271.295 119.043L271.295 119.043L271.293 119.046C270.705 119.83 270.151 120.161 269.614 120.161C269.561 120.161 269.463 120.132 269.311 120C269.163 119.871 268.988 119.666 268.786 119.371C268.527 118.981 268.39 118.493 268.39 117.902C268.39 117.038 268.622 116.444 269.041 116.067C269.042 116.067 269.043 116.068 269.044 116.069C269.094 116.096 269.164 116.14 269.256 116.205C269.363 116.281 269.472 116.342 269.58 116.375C269.685 116.407 269.809 116.419 269.929 116.37C270.057 116.325 270.181 116.236 270.301 116.131C270.426 116.022 270.563 115.878 270.712 115.707C270.839 115.569 270.944 115.476 271.03 115.419C271.117 115.36 271.167 115.351 271.189 115.351C271.218 115.351 271.241 115.354 271.291 115.375C271.455 115.45 271.609 115.605 271.736 115.886C271.865 116.171 271.96 116.568 272.009 117.093ZM268.994 116.045C268.993 116.044 268.992 116.044 268.992 116.044L268.994 116.045Z" stroke="#EDF8E6" stroke-opacity="0.2" stroke-width="0.5"/>
<path d="M288.419 123.37C288.464 123.426 288.487 123.494 288.487 123.572C288.487 123.91 288.138 124.169 287.429 124.349C286.653 123.741 285.674 122.819 284.515 121.57C283.222 120.175 282.254 119.196 281.624 118.656C281.579 119.039 281.5 120.04 281.377 121.66C281.298 122.886 281.174 123.854 280.983 124.574C280.949 124.574 280.859 124.607 280.702 124.686C280.544 124.765 280.42 124.776 280.319 124.754C279.667 124.607 279.352 124.157 279.352 123.404C279.352 123.179 279.385 122.886 279.442 122.515C279.498 122.087 279.532 121.817 279.554 121.716C279.61 120.861 279.644 119.849 279.667 118.667V116.26C279.667 114.257 279.779 112.57 279.993 111.197C280.139 110.286 281.005 109.87 282.58 109.937C283.379 109.971 284.065 110.365 284.662 111.13C285.202 111.839 285.483 112.604 285.483 113.425C285.483 114.122 285.224 114.809 284.707 115.506C284.268 116.125 283.717 116.609 283.075 116.969C282.805 117.115 282.682 117.272 282.682 117.452C282.682 117.644 282.839 117.869 283.143 118.139C283.379 118.33 283.615 118.521 283.852 118.712C283.863 118.724 284.673 119.466 286.282 120.917C287.272 121.829 287.992 122.639 288.419 123.37ZM283.762 113.447C283.807 113.177 283.818 112.952 283.807 112.739C283.762 112.424 283.638 112.154 283.424 111.895C283.21 111.636 282.873 111.524 282.4 111.524C282.052 111.524 281.827 111.636 281.737 111.85C281.658 112.221 281.624 112.637 281.624 113.11C281.624 113.301 281.647 113.796 281.692 114.595C281.725 115.202 281.725 115.697 281.692 116.08C282.907 115.157 283.593 114.28 283.762 113.447Z" fill="#EDF8E6" fill-opacity="0.5"/>
<path d="M287.372 124.621L287.275 124.545C286.484 123.927 285.496 122.994 284.332 121.74L284.332 121.74C283.269 120.594 282.432 119.735 281.825 119.171C281.779 119.693 281.714 120.527 281.626 121.677C281.547 122.908 281.422 123.894 281.224 124.638L281.175 124.824H281.005C281 124.826 280.991 124.829 280.98 124.833C280.943 124.847 280.889 124.872 280.813 124.91C280.615 125.009 280.433 125.035 280.265 124.998L280.264 124.997C279.891 124.914 279.59 124.736 279.387 124.451C279.187 124.171 279.102 123.813 279.102 123.404C279.102 123.159 279.138 122.851 279.194 122.48C279.202 122.418 279.21 122.359 279.217 122.303C279.256 122.004 279.284 121.789 279.306 121.682C279.361 120.837 279.394 119.836 279.417 118.665V116.26C279.417 114.249 279.529 112.548 279.746 111.159L279.746 111.158L279.746 111.158C279.833 110.617 280.14 110.219 280.642 109.975C281.127 109.74 281.786 109.653 282.591 109.688L287.372 124.621ZM287.372 124.621L287.491 124.591M287.372 124.621L287.491 124.591M287.491 124.591C287.858 124.498 288.158 124.378 288.372 124.221C288.592 124.059 288.737 123.843 288.737 123.572C288.737 123.449 288.702 123.331 288.627 123.23C288.18 122.471 287.442 121.645 286.451 120.733L286.449 120.732C285.645 120.006 285.04 119.458 284.636 119.09C284.433 118.906 284.281 118.767 284.178 118.673C284.118 118.618 284.077 118.58 284.053 118.558C284.035 118.542 284.027 118.534 284.028 118.536L284.019 118.526L284.009 118.518L283.305 117.948C283.163 117.822 283.066 117.715 283.005 117.625C282.943 117.534 282.932 117.479 282.932 117.452C282.932 117.412 282.951 117.32 283.194 117.188L283.194 117.188L283.198 117.187C283.869 116.81 284.448 116.302 284.909 115.653C285.449 114.925 285.733 114.188 285.733 113.425C285.733 112.542 285.429 111.725 284.86 110.978L284.86 110.978M287.491 124.591L284.86 110.978M284.86 110.978L284.859 110.976M284.86 110.978L284.859 110.976M284.859 110.976C284.228 110.167 283.479 109.725 282.591 109.688L284.859 110.976ZM281.941 114.581L281.941 114.581C281.896 113.779 281.874 113.292 281.874 113.11C281.874 112.66 281.905 112.271 281.975 111.929C282.015 111.855 282.119 111.774 282.4 111.774C282.838 111.774 283.086 111.878 283.231 112.054C283.416 112.277 283.518 112.502 283.557 112.763C283.567 112.953 283.557 113.155 283.516 113.402C283.383 114.049 282.889 114.764 281.966 115.541C281.969 115.257 281.961 114.936 281.941 114.581Z" stroke="#EDF8E6" stroke-opacity="0.2" stroke-width="0.5"/>
<path d="M302.834 109.442C302.699 109.971 302.451 110.286 302.08 110.376C301.124 110.612 299.459 110.916 297.085 111.31C296.793 114.977 296.646 118.037 296.646 120.479C296.646 121.412 296.658 122.324 296.691 123.224C296.703 123.505 296.691 123.719 296.646 123.865C296.568 124.101 296.421 124.214 296.208 124.191C295.78 124.18 295.431 124 295.15 123.651C294.869 123.302 294.711 122.92 294.689 122.492C294.655 121.952 294.644 121.379 294.644 120.771C294.644 119.804 294.711 118.262 294.846 116.159C294.981 114.145 295.038 112.604 295.026 111.546C294.633 111.512 294.081 111.557 293.373 111.659C292.563 111.782 292 111.839 291.696 111.839C290.976 111.839 290.38 111.647 289.93 111.265C289.75 110.882 289.66 110.68 289.66 110.669C289.66 110.567 289.716 110.455 289.818 110.331C290.29 110.174 291.258 110.016 292.709 109.881C293.991 109.746 294.948 109.51 295.578 109.172C296.095 109.352 296.68 109.442 297.344 109.442C298.008 109.442 298.638 109.364 299.245 109.195C299.425 109.184 299.875 109.082 300.595 108.88C301.124 108.745 301.563 108.7 301.923 108.745C302.193 108.745 302.294 108.857 302.249 109.071C302.631 109.049 302.834 109.184 302.834 109.442Z" fill="#EDF8E6" fill-opacity="0.5"/>
<path d="M303.084 109.474L303.076 109.504C302.93 110.075 302.64 110.497 302.14 110.619C301.199 110.851 299.589 111.146 297.319 111.524C297.037 115.102 296.896 118.09 296.896 120.479C296.896 121.41 296.908 122.318 296.941 123.214C296.941 123.214 296.941 123.214 296.941 123.214L296.691 123.224C296.703 123.505 296.691 123.719 296.646 123.865L303.084 109.474ZM303.084 109.474V109.442C303.084 109.238 302.998 109.055 302.82 108.941C302.723 108.878 302.609 108.843 302.487 108.828C302.468 108.766 302.435 108.707 302.383 108.653C302.262 108.53 302.092 108.497 301.939 108.495C301.539 108.448 301.072 108.5 300.533 108.638L300.533 108.637L300.527 108.639C299.8 108.844 299.378 108.936 299.23 108.945L299.203 108.947L299.178 108.954C298.595 109.116 297.988 109.192 297.344 109.192C296.703 109.192 296.146 109.105 295.66 108.936L295.556 108.9L295.46 108.952C294.873 109.266 293.955 109.498 292.684 109.632C291.236 109.767 290.242 109.926 289.739 110.094L289.67 110.117L289.624 110.173C289.512 110.31 289.41 110.479 289.41 110.669C289.41 110.699 289.416 110.724 289.417 110.729C289.417 110.729 289.417 110.729 289.417 110.729C289.42 110.738 289.422 110.745 289.423 110.749C289.426 110.758 289.429 110.765 289.431 110.771C289.435 110.782 289.441 110.796 289.447 110.81C289.459 110.839 289.477 110.88 289.5 110.93C289.546 111.032 289.614 111.179 289.704 111.371L289.727 111.42L289.768 111.455C290.273 111.885 290.932 112.089 291.696 112.089C292.021 112.089 292.599 112.03 293.409 111.906C293.98 111.824 294.433 111.782 294.778 111.785L303.084 109.474ZM294.956 123.808C295.278 124.207 295.69 124.425 296.192 124.441L294.439 122.505C294.439 122.506 294.439 122.506 294.439 122.507C294.465 122.992 294.645 123.423 294.956 123.808Z" stroke="#EDF8E6" stroke-opacity="0.2" stroke-width="0.5"/>
<path d="M309.009 109.847C309.009 110.14 308.795 110.399 308.368 110.624C308.255 110.68 308.12 110.691 307.996 110.646C307.794 110.59 307.681 110.556 307.67 110.556C307.58 110.556 307.49 110.601 307.4 110.691C306.601 111.49 306.208 112.457 306.208 113.605C306.208 114.032 306.275 114.426 306.41 114.797C306.466 114.955 307.029 116.102 308.086 118.217C308.795 119.635 309.144 120.827 309.144 121.817C309.144 122.627 308.941 123.404 308.548 124.157C308.413 124.405 308.086 124.731 307.558 125.125C307.13 125.429 306.748 125.586 306.41 125.586C306.275 125.586 306.151 125.564 306.039 125.519C305.6 125.327 305.375 125.08 305.375 124.787C305.375 124.607 305.488 124.394 305.701 124.146C305.758 124.067 305.904 124.022 306.118 124.011C306.331 124 306.489 123.91 306.556 123.741C306.871 123.089 307.018 122.425 307.018 121.75C307.018 120.794 306.545 119.41 305.589 117.587C304.644 115.765 304.16 114.314 304.16 113.222C304.16 112.322 304.34 111.524 304.689 110.815C305.083 110.005 305.656 109.42 306.388 109.071C306.725 108.914 307.063 108.824 307.378 108.824C307.996 108.824 308.458 108.992 308.773 109.33C308.941 109.521 309.009 109.679 309.009 109.847Z" fill="#EDF8E6" fill-opacity="0.5"/>
<path d="M308.479 110.847L308.479 110.847L308.484 110.845C308.937 110.606 309.259 110.283 309.259 109.847C309.259 109.598 309.154 109.384 308.96 109.164L308.96 109.164L308.955 109.159C308.579 108.756 308.042 108.574 307.378 108.574C307.016 108.574 306.642 108.676 306.282 108.845L306.282 108.844L306.28 108.845C305.493 109.221 304.88 109.849 304.464 110.705C304.097 111.451 303.91 112.288 303.91 113.222C303.91 114.376 304.418 115.872 305.367 117.702L305.368 117.703C306.322 119.522 306.768 120.859 306.768 121.75C306.768 122.387 306.63 123.014 306.331 123.632L306.328 123.64L306.324 123.648C306.304 123.7 306.254 123.754 306.105 123.761C305.985 123.768 305.872 123.784 305.774 123.815C305.684 123.844 305.579 123.895 305.506 123.99C305.288 124.244 305.125 124.515 305.125 124.787C305.125 125.234 305.473 125.545 305.939 125.748L305.939 125.748L305.946 125.751C306.091 125.809 306.247 125.836 306.41 125.836C306.823 125.836 307.257 125.645 307.702 125.329L307.702 125.329L307.707 125.325C308.239 124.929 308.604 124.576 308.767 124.277L308.767 124.277L308.769 124.273C309.18 123.487 309.394 122.671 309.394 121.817C309.394 120.772 309.027 119.539 308.31 118.105C307.781 117.048 307.377 116.233 307.097 115.663C306.813 115.083 306.668 114.775 306.646 114.713L306.646 114.713L306.645 114.712C306.521 114.37 306.458 114.005 306.458 113.605C306.458 112.522 306.826 111.618 307.577 110.868C307.614 110.83 307.64 110.816 307.655 110.81C307.666 110.813 307.679 110.816 307.694 110.821C307.707 110.824 307.723 110.829 307.74 110.834C307.788 110.847 307.849 110.865 307.921 110.885C308.11 110.95 308.312 110.931 308.479 110.847Z" stroke="#EDF8E6" stroke-opacity="0.2" stroke-width="0.5"/>
</g>
<defs>
<filter id="filter0_b_268_346" x="-19.4609" y="-19.1968" width="363.469" height="259.054" filterUnits="userSpaceOnUse" color-interpolation-filters="sRGB">
<feFlood flood-opacity="0" result="BackgroundImageFix"/>
<feGaussianBlur in="BackgroundImageFix" stdDeviation="10"/>
<feComposite in2="SourceAlpha" operator="in" result="effect1_backgroundBlur_268_346"/>
<feBlend mode="normal" in="SourceGraphic" in2="effect1_backgroundBlur_268_346" result="shape"/>
</filter>
<clipPath id="clip0_268_346">
<rect width="81" height="18" fill="white" transform="translate(229 108.509)"/>
</clipPath>
</defs>
</svg>
