<svg width="1000" height="170" viewBox="0 0 1000 170" fill="none" xmlns="http://www.w3.org/2000/svg">
<path d="M929 156C968.212 156 1000 124.128 1000 84.8118C1000 45.4956 968.212 13.6235 929 13.6235C889.788 13.6235 858 45.4956 858 84.8118C858 124.128 889.788 156 929 156Z" fill="url(#paint0_linear_745_145)"/>
<path d="M929.291 151.09C916.189 151.09 903.381 147.195 892.487 139.896C881.593 132.597 873.102 122.223 868.089 110.086C863.075 97.9484 861.764 84.593 864.321 71.7085C866.877 58.824 873.188 46.9891 882.453 37.7005C891.718 28.4118 903.523 22.0867 916.374 19.525C929.225 16.9633 942.545 18.2801 954.649 23.3089C966.753 28.3376 977.099 36.8524 984.376 47.7765C991.654 58.7005 995.538 71.5432 995.536 84.6803C995.514 102.288 988.528 119.169 976.109 131.619C963.69 144.069 946.853 151.071 929.291 151.09ZM929.291 22.3096C916.988 22.3096 904.961 25.9675 894.732 32.8209C884.502 39.6743 876.529 49.4152 871.821 60.812C867.113 72.2088 865.881 84.7495 868.281 96.8482C870.681 108.947 876.606 120.06 885.305 128.783C894.005 137.506 905.089 143.446 917.156 145.853C929.222 148.259 941.73 147.024 953.096 142.303C964.463 137.583 974.178 129.588 981.014 119.332C987.849 109.075 991.497 97.016 991.497 84.6803C991.478 68.1443 984.919 52.2909 973.257 40.5982C961.595 28.9055 945.784 22.3283 929.291 22.3096Z" fill="#132F02"/>
<path d="M870.25 26.5715C870.117 26.5723 869.985 26.5467 869.862 26.4964C869.739 26.446 869.627 26.3718 869.533 26.2779C869.438 26.1838 869.363 26.0718 869.312 25.9485C869.261 25.8251 869.234 25.6928 869.234 25.5591C869.234 25.4255 869.261 25.2932 869.312 25.1698C869.363 25.0465 869.438 24.9345 869.533 24.8404C884.474 9.83629 904.487 1.00028 925.614 0.0798648C946.741 -0.840551 967.443 6.22162 983.626 19.8698C983.809 20.0476 983.919 20.2886 983.932 20.5441C983.946 20.7997 983.862 21.0508 983.698 21.2471C983.535 21.4434 983.303 21.5701 983.049 21.6019C982.796 21.6338 982.54 21.5683 982.333 21.4187C966.536 8.09425 946.326 1.20004 925.701 2.09986C905.077 2.99969 885.54 11.628 870.957 26.2779C870.769 26.465 870.515 26.5704 870.25 26.5715Z" fill="url(#paint1_linear_745_145)"/>
<path d="M978.492 23.4432L988.336 25.559L985.247 15.9519L978.492 23.4432Z" fill="url(#paint2_linear_745_145)"/>
<path d="M889.317 85.3939C889.086 85.2812 888.782 85.1537 888.403 85.0113C888.024 84.869 887.595 84.7355 887.116 84.611C886.637 84.4805 886.116 84.3737 885.554 84.2906C884.992 84.2017 884.416 84.1572 883.824 84.1572C883.351 84.1572 882.945 84.172 882.608 84.2017C882.277 84.2313 881.996 84.2699 881.765 84.3173C881.54 84.3648 881.36 84.4211 881.224 84.4864C881.094 84.5457 880.993 84.608 880.922 84.6732C880.851 84.7385 880.804 84.8037 880.78 84.869C880.762 84.9342 880.754 84.9935 880.754 85.0469C880.754 85.2249 880.842 85.3821 881.02 85.5185C881.197 85.649 881.44 85.7676 881.747 85.8744C882.055 85.9752 882.413 86.0731 882.821 86.168C883.229 86.257 883.661 86.3519 884.117 86.4528C884.578 86.5477 885.052 86.6544 885.537 86.7731C886.028 86.8858 886.501 87.0192 886.957 87.1735C887.418 87.3277 887.853 87.5086 888.261 87.7162C888.669 87.9179 889.027 88.1552 889.335 88.428C889.642 88.7009 889.885 89.0153 890.062 89.3712C890.24 89.7271 890.329 90.1334 890.329 90.5901C890.329 91.1774 890.225 91.6816 890.018 92.1027C889.811 92.5239 889.533 92.8798 889.184 93.1704C888.841 93.4611 888.441 93.6954 887.986 93.8733C887.53 94.0454 887.051 94.1788 886.548 94.2737C886.051 94.3686 885.546 94.4309 885.031 94.4606C884.522 94.4902 884.037 94.5051 883.575 94.5051C882.369 94.5051 881.25 94.4042 880.221 94.2025C879.198 94.0068 878.292 93.7606 877.506 93.4641V90.5456C878.316 90.9965 879.239 91.3494 880.274 91.6045C881.316 91.8595 882.428 91.9871 883.611 91.9871C884.309 91.9871 884.877 91.9515 885.315 91.8803C885.759 91.8032 886.105 91.7083 886.353 91.5956C886.602 91.4769 886.77 91.3494 886.859 91.213C886.948 91.0765 886.992 90.946 886.992 90.8215C886.992 90.6257 886.903 90.4567 886.726 90.3143C886.548 90.166 886.306 90.0385 885.998 89.9317C885.69 89.819 885.333 89.7182 884.924 89.6292C884.516 89.5343 884.081 89.4423 883.62 89.3534C883.164 89.2585 882.694 89.1576 882.209 89.0508C881.724 88.9441 881.25 88.8195 880.789 88.6771C880.334 88.5289 879.902 88.3598 879.493 88.17C879.085 87.9742 878.727 87.7459 878.42 87.4849C878.112 87.2179 877.869 86.9125 877.692 86.5684C877.515 86.2185 877.426 85.8151 877.426 85.3584C877.426 84.8186 877.52 84.3529 877.71 83.9614C877.899 83.5699 878.153 83.2378 878.473 82.9649C878.798 82.6861 879.171 82.4607 879.591 82.2887C880.017 82.1167 880.464 81.9832 880.931 81.8883C881.398 81.7934 881.872 81.7281 882.351 81.6925C882.83 81.657 883.286 81.6392 883.717 81.6392C884.191 81.6392 884.676 81.6629 885.173 81.7103C885.676 81.7578 886.17 81.826 886.655 81.915C887.14 81.998 887.607 82.0959 888.057 82.2086C888.512 82.3213 888.932 82.4399 889.317 82.5645V85.3939Z" fill="#132F02"/>
<path d="M906.888 93.3395C906.462 93.5174 906.033 93.6776 905.601 93.82C905.169 93.9623 904.722 94.0839 904.261 94.1848C903.799 94.2915 903.311 94.3716 902.797 94.425C902.288 94.4784 901.741 94.5051 901.155 94.5051C899.913 94.5051 898.768 94.3716 897.721 94.1047C896.68 93.8377 895.78 93.4374 895.023 92.9035C894.272 92.3637 893.686 91.6934 893.266 90.8926C892.846 90.0859 892.636 89.1458 892.636 88.0721C892.636 86.9985 892.846 86.0613 893.266 85.2605C893.686 84.4538 894.272 83.7835 895.023 83.2496C895.78 82.7098 896.68 82.3065 897.721 82.0396C898.768 81.7726 899.913 81.6392 901.155 81.6392C901.741 81.6392 902.288 81.6659 902.797 81.7192C903.311 81.7726 903.799 81.8527 904.261 81.9595C904.722 82.0603 905.169 82.1819 905.601 82.3243C906.033 82.4666 906.462 82.6268 906.888 82.8047V85.7765C906.55 85.5927 906.195 85.4117 905.823 85.2338C905.45 85.0499 905.039 84.8868 904.589 84.7444C904.14 84.5961 903.646 84.4775 903.107 84.3885C902.569 84.2936 901.963 84.2462 901.288 84.2462C900.253 84.2462 899.392 84.3529 898.706 84.5665C898.025 84.78 897.481 85.0647 897.073 85.4206C896.665 85.7765 896.378 86.1858 896.212 86.6485C896.046 87.1052 895.964 87.5798 895.964 88.0721C895.964 88.3984 895.999 88.7216 896.07 89.042C896.141 89.3563 896.259 89.6559 896.425 89.9406C896.591 90.2194 896.807 90.4774 897.073 90.7147C897.339 90.952 897.67 91.1566 898.067 91.3286C898.463 91.5007 898.925 91.6371 899.451 91.7379C899.984 91.8328 900.596 91.8803 901.288 91.8803C901.963 91.8803 902.569 91.8388 903.107 91.7557C903.646 91.6667 904.14 91.5511 904.589 91.4087C905.039 91.2663 905.45 91.1062 905.823 90.9282C906.195 90.7444 906.55 90.5575 906.888 90.3677V93.3395Z" fill="#132F02"/>
<path d="M925.736 88.0721C925.736 89.122 925.544 90.0503 925.159 90.8571C924.775 91.6578 924.225 92.3281 923.509 92.8679C922.793 93.4077 921.923 93.817 920.9 94.0958C919.882 94.3686 918.737 94.5051 917.466 94.5051C916.194 94.5051 915.043 94.3686 914.013 94.0958C912.99 93.817 912.117 93.4077 911.396 92.8679C910.674 92.3281 910.118 91.6578 909.727 90.8571C909.337 90.0503 909.142 89.122 909.142 88.0721C909.142 87.0222 909.337 86.0969 909.727 85.2961C910.118 84.4894 910.674 83.8161 911.396 83.2763C912.117 82.7365 912.99 82.3302 914.013 82.0573C915.043 81.7786 916.194 81.6392 917.466 81.6392C918.737 81.6392 919.882 81.7786 920.9 82.0573C921.923 82.3302 922.793 82.7365 923.509 83.2763C924.225 83.8161 924.775 84.4894 925.159 85.2961C925.544 86.0969 925.736 87.0222 925.736 88.0721ZM922.408 88.0721C922.408 87.6154 922.334 87.1616 922.187 86.7108C922.045 86.254 921.787 85.8448 921.414 85.4829C921.048 85.1211 920.545 84.8275 919.906 84.6021C919.267 84.3767 918.453 84.2639 917.466 84.2639C916.803 84.2639 916.22 84.3173 915.717 84.4241C915.214 84.5249 914.78 84.6673 914.413 84.8512C914.046 85.0351 913.738 85.2516 913.49 85.5007C913.241 85.7439 913.043 86.0079 912.895 86.2926C912.747 86.5714 912.641 86.865 912.576 87.1735C912.517 87.476 912.487 87.7755 912.487 88.0721C912.487 88.3746 912.517 88.6801 912.576 88.9886C912.641 89.297 912.747 89.5936 912.895 89.8783C913.043 90.1571 913.241 90.4181 913.49 90.6613C913.738 90.9045 914.046 91.1181 914.413 91.3019C914.78 91.4799 915.214 91.6223 915.717 91.729C916.22 91.8299 916.803 91.8803 917.466 91.8803C918.453 91.8803 919.267 91.7676 919.906 91.5422C920.545 91.3168 921.048 91.0231 921.414 90.6613C921.787 90.2995 922.045 89.8932 922.187 89.4423C922.334 88.9856 922.408 88.5289 922.408 88.0721Z" fill="#132F02"/>
<path d="M942.437 86.1235C942.437 86.7345 942.348 87.298 942.171 87.8141C941.993 88.3242 941.706 88.7661 941.31 89.1398C940.92 89.5076 940.411 89.7953 939.784 90.0029C939.157 90.2105 938.393 90.3143 937.494 90.3143H932.028V94.1759H928.736V81.9506H937.494C938.393 81.9506 939.157 82.0544 939.784 82.262C940.411 82.4637 940.92 82.7514 941.31 83.1251C941.706 83.4928 941.993 83.9318 942.171 84.4419C942.348 84.952 942.437 85.5126 942.437 86.1235ZM939.109 86.1769C939.109 85.8922 939.068 85.649 938.985 85.4473C938.908 85.2397 938.778 85.0707 938.595 84.9402C938.411 84.8097 938.172 84.7148 937.876 84.6554C937.58 84.5902 937.216 84.5576 936.784 84.5576H932.028V87.7073H936.784C937.216 87.7073 937.58 87.6836 937.876 87.6361C938.172 87.5827 938.411 87.4967 938.595 87.3781C938.778 87.2535 938.908 87.0934 938.985 86.8976C939.068 86.7019 939.109 86.4617 939.109 86.1769Z" fill="#132F02"/>
<path d="M958.765 93.5708C957.766 93.903 956.766 94.1403 955.766 94.2826C954.772 94.4309 953.754 94.5051 952.713 94.5051C951.382 94.5051 950.196 94.3627 949.155 94.078C948.119 93.7873 947.247 93.3691 946.537 92.8234C945.827 92.2777 945.286 91.6104 944.913 90.8215C944.54 90.0325 944.354 89.1398 944.354 88.1433C944.354 87.2179 944.54 86.3608 944.913 85.5719C945.292 84.777 945.824 84.089 946.51 83.5077C947.202 82.9204 948.037 82.4637 949.013 82.1374C949.989 81.8052 951.077 81.6392 952.278 81.6392C953.385 81.6392 954.396 81.7904 955.313 82.0929C956.236 82.3895 957.026 82.8314 957.683 83.4187C958.345 84.0059 958.857 84.7296 959.218 85.5897C959.585 86.4498 959.768 87.4404 959.768 88.5615V89.3801H947.753C947.859 89.7656 948.034 90.1186 948.276 90.4389C948.525 90.7592 948.859 91.032 949.279 91.2575C949.699 91.4829 950.214 91.6578 950.823 91.7824C951.438 91.907 952.172 91.9693 953.024 91.9693C953.627 91.9693 954.219 91.9337 954.799 91.8625C955.378 91.7854 955.92 91.6875 956.423 91.5689C956.925 91.4443 957.378 91.3079 957.78 91.1596C958.189 91.0113 958.517 90.863 958.765 90.7147V93.5708ZM956.494 86.9599C956.464 86.6574 956.372 86.346 956.218 86.0257C956.071 85.6994 955.834 85.4058 955.509 85.1448C955.183 84.8838 954.757 84.6703 954.231 84.5042C953.704 84.3322 953.047 84.2462 952.261 84.2462C951.521 84.2462 950.882 84.3381 950.344 84.522C949.806 84.7059 949.353 84.9342 948.986 85.2071C948.625 85.48 948.344 85.7736 948.143 86.088C947.942 86.4023 947.812 86.693 947.753 86.9599H956.494Z" fill="#132F02"/>
<path d="M977.569 87.6539C978.179 87.7904 978.699 87.9564 979.131 88.1522C979.563 88.342 979.915 88.5644 980.187 88.8195C980.459 89.0686 980.658 89.3504 980.782 89.6648C980.906 89.9732 980.968 90.3113 980.968 90.6791C980.968 91.3197 980.794 91.8803 980.445 92.3608C980.102 92.8412 979.622 93.2416 979.007 93.5619C978.398 93.8763 977.676 94.1106 976.842 94.2648C976.008 94.425 975.105 94.5051 974.135 94.5051C973.484 94.5051 972.887 94.4754 972.343 94.4161C971.798 94.3627 971.296 94.2915 970.834 94.2025C970.379 94.1136 969.958 94.0157 969.574 93.9089C969.189 93.7962 968.831 93.6835 968.5 93.5708V90.6435C968.867 90.8393 969.278 91.0142 969.734 91.1685C970.195 91.3227 970.668 91.4562 971.154 91.5689C971.645 91.6756 972.139 91.7587 972.635 91.818C973.132 91.8714 973.603 91.8981 974.046 91.8981C974.851 91.8981 975.493 91.8506 975.972 91.7557C976.451 91.6549 976.815 91.5303 977.064 91.382C977.312 91.2278 977.472 91.0647 977.543 90.8926C977.62 90.7206 977.658 90.5575 977.658 90.4033C977.658 90.1423 977.572 89.9169 977.401 89.7271C977.235 89.5373 976.939 89.3801 976.513 89.2555C976.093 89.1309 975.523 89.039 974.801 88.9797C974.079 88.9144 973.168 88.8788 972.068 88.8729V86.4528C973.067 86.4528 973.896 86.432 974.552 86.3905C975.215 86.3489 975.744 86.2837 976.141 86.1947C976.537 86.1057 976.815 85.9901 976.975 85.8477C977.141 85.7054 977.223 85.5304 977.223 85.3228C977.223 85.2575 977.212 85.1863 977.188 85.1092C977.17 85.0321 977.126 84.952 977.055 84.869C976.984 84.7859 976.88 84.7059 976.744 84.6287C976.608 84.5516 976.422 84.4834 976.185 84.4241C975.948 84.3648 975.656 84.3173 975.307 84.2817C974.958 84.2462 974.537 84.2284 974.046 84.2284C973.585 84.2284 973.115 84.2521 972.635 84.2995C972.162 84.347 971.698 84.4182 971.242 84.5131C970.787 84.608 970.346 84.7237 969.92 84.8601C969.494 84.9965 969.101 85.1567 968.74 85.3406V82.4221C969.544 82.1552 970.405 81.9595 971.322 81.8349C972.239 81.7044 973.147 81.6392 974.046 81.6392C974.928 81.6392 975.759 81.6985 976.54 81.8171C977.327 81.9357 978.013 82.1256 978.599 82.3866C979.19 82.6416 979.658 82.9768 980.001 83.392C980.344 83.8013 980.516 84.2995 980.516 84.8868C980.516 85.2012 980.459 85.5007 980.347 85.7854C980.241 86.0642 980.069 86.3223 979.832 86.5595C979.596 86.7968 979.291 87.0074 978.918 87.1913C978.546 87.3751 978.096 87.5294 977.569 87.6539Z" fill="#132F02"/>
<g filter="url(#filter0_b_745_145)">
<path d="M500 156.116C539.212 156.116 571 124.302 571 85.0578C571 45.8137 539.212 14 500 14C460.788 14 429 45.8137 429 85.0578C429 124.302 460.788 156.116 500 156.116Z" fill="#EDF8E6" fill-opacity="0.1"/>
</g>
<path d="M499.627 151.781C486.525 151.781 473.717 147.892 462.823 140.607C451.929 133.321 443.438 122.966 438.424 110.851C433.411 98.7362 432.1 85.4053 434.656 72.5444C437.213 59.6835 443.524 47.8702 452.789 38.5987C462.054 29.3271 473.859 23.0135 486.71 20.4565C499.561 17.8995 512.881 19.2139 524.985 24.2334C537.089 29.2529 547.435 37.7522 554.712 48.6562C561.99 59.5602 565.874 72.3793 565.872 85.4924C565.848 103.067 558.86 119.916 546.442 132.342C534.024 144.769 517.188 151.759 499.627 151.781ZM499.627 23.236C487.324 23.236 475.297 26.8872 465.068 33.728C454.838 40.5688 446.865 50.292 442.157 61.6678C437.448 73.0437 436.217 85.5614 438.617 97.638C441.017 109.715 446.942 120.808 455.641 129.514C464.341 138.221 475.425 144.15 487.492 146.553C499.558 148.955 512.066 147.722 523.432 143.01C534.799 138.298 544.514 130.318 551.35 120.08C558.185 109.842 561.833 97.8055 561.833 85.4924C561.814 68.9867 555.255 53.1624 543.593 41.4911C531.931 29.8198 516.12 23.2547 499.627 23.236Z" fill="#16CABD"/>
<path d="M499.627 151.597C486.525 151.597 473.717 147.708 462.823 140.423C451.929 133.137 443.438 122.782 438.424 110.667C433.411 98.5523 432.1 85.2215 434.656 72.3605C437.213 59.4996 443.524 47.6864 452.789 38.4148C462.054 29.1432 473.859 22.8297 486.71 20.2727C499.561 17.7157 512.881 19.0301 524.985 24.0496C537.089 29.0691 547.435 37.5683 554.712 48.4724C561.99 59.3764 565.874 72.1955 565.872 85.3085C565.848 102.884 558.86 119.732 546.442 132.158C534.024 144.585 517.188 151.575 499.627 151.597ZM499.627 23.0521C487.324 23.0521 475.297 26.7033 465.068 33.5442C454.838 40.385 446.865 50.1081 442.157 61.484C437.448 72.8599 436.217 85.3776 438.617 97.4542C441.017 109.531 446.942 120.624 455.641 129.33C464.341 138.037 475.425 143.966 487.492 146.369C499.558 148.771 512.066 147.538 523.432 142.826C534.799 138.114 544.514 130.134 551.35 119.896C558.185 109.658 561.833 97.6217 561.833 85.3085C561.814 68.8028 555.255 52.9786 543.593 41.3073C531.931 29.636 516.12 23.0708 499.627 23.0521Z" fill="#B9B9B9"/>
<path d="M499.659 170C488.56 170.013 477.568 167.831 467.314 163.581C457.06 159.331 447.746 153.095 439.906 145.233C439.716 145.043 439.609 144.784 439.609 144.515C439.609 144.246 439.716 143.988 439.906 143.798C440.096 143.608 440.354 143.501 440.623 143.501C440.892 143.501 441.15 143.608 441.34 143.798C455.922 158.42 475.457 167.032 496.079 167.931C516.702 168.829 536.911 161.948 552.707 148.648C552.806 148.552 552.925 148.477 553.055 148.428C553.185 148.38 553.323 148.358 553.462 148.366C553.6 148.373 553.736 148.409 553.86 148.471C553.984 148.533 554.094 148.62 554.183 148.726C554.272 148.833 554.338 148.956 554.377 149.09C554.416 149.223 554.428 149.363 554.41 149.5C554.393 149.638 554.348 149.771 554.277 149.89C554.206 150.01 554.112 150.113 553.999 150.194C538.791 163.011 519.541 170.027 499.659 170Z" fill="#B9B9B9"/>
<path d="M548.86 146.627L558.704 144.515L555.604 154.105L548.86 146.627Z" fill="#B9B9B9"/>
<path d="M459.305 85.7479C459.075 85.6354 458.77 85.5081 458.391 85.366C458.013 85.2239 457.584 85.0907 457.105 84.9663C456.625 84.8361 456.105 84.7295 455.543 84.6466C454.981 84.5578 454.404 84.5134 453.812 84.5134C453.339 84.5134 452.934 84.5282 452.597 84.5578C452.265 84.5874 451.984 84.6259 451.753 84.6733C451.529 84.7206 451.348 84.7769 451.212 84.842C451.082 84.9012 450.981 84.9634 450.91 85.0285C450.839 85.0936 450.792 85.1588 450.768 85.2239C450.751 85.289 450.742 85.3482 450.742 85.4015C450.742 85.5792 450.831 85.7361 451.008 85.8722C451.186 86.0025 451.428 86.1209 451.736 86.2275C452.043 86.3281 452.401 86.4258 452.809 86.5206C453.218 86.6094 453.65 86.7041 454.105 86.8048C454.567 86.8995 455.04 87.0061 455.525 87.1245C456.016 87.237 456.489 87.3702 456.945 87.5242C457.406 87.6781 457.841 87.8587 458.249 88.0659C458.657 88.2672 459.015 88.5041 459.323 88.7764C459.631 89.0488 459.873 89.3626 460.051 89.7178C460.228 90.0731 460.317 90.4787 460.317 90.9346C460.317 91.5207 460.213 92.024 460.006 92.4444C459.799 92.8648 459.521 93.22 459.172 93.5101C458.829 93.8003 458.43 94.0341 457.974 94.2118C457.519 94.3835 457.039 94.5167 456.537 94.6114C456.04 94.7062 455.534 94.7683 455.019 94.7979C454.51 94.8275 454.025 94.8423 453.564 94.8423C452.357 94.8423 451.239 94.7417 450.209 94.5404C449.186 94.345 448.281 94.0993 447.494 93.8032V90.8902C448.304 91.3401 449.227 91.6924 450.263 91.947C451.304 92.2016 452.416 92.3289 453.599 92.3289C454.297 92.3289 454.865 92.2934 455.303 92.2224C455.747 92.1454 456.093 92.0506 456.341 91.9382C456.59 91.8197 456.758 91.6924 456.847 91.5563C456.936 91.4201 456.98 91.2898 456.98 91.1655C456.98 90.9701 456.892 90.8013 456.714 90.6592C456.537 90.5112 456.294 90.3839 455.986 90.2774C455.679 90.1649 455.321 90.0642 454.913 89.9754C454.504 89.8807 454.07 89.7889 453.608 89.7001C453.153 89.6053 452.682 89.5047 452.197 89.3981C451.712 89.2915 451.239 89.1672 450.777 89.0251C450.322 88.8771 449.89 88.7083 449.482 88.5189C449.074 88.3235 448.716 88.0955 448.408 87.835C448.1 87.5686 447.858 87.2636 447.68 86.9202C447.503 86.5709 447.414 86.1683 447.414 85.7124C447.414 85.1736 447.509 84.7088 447.698 84.318C447.887 83.9272 448.142 83.5957 448.461 83.3233C448.787 83.045 449.159 82.82 449.579 82.6483C450.005 82.4766 450.452 82.3434 450.919 82.2487C451.387 82.1539 451.86 82.0888 452.339 82.0533C452.818 82.0178 453.274 82 453.706 82C454.179 82 454.664 82.0237 455.161 82.0711C455.664 82.1184 456.158 82.1865 456.643 82.2753C457.128 82.3582 457.596 82.4559 458.045 82.5684C458.501 82.6809 458.921 82.7993 459.305 82.9237V85.7479Z" fill="#666666"/>
<path d="M476.876 93.6789C476.45 93.8565 476.021 94.0164 475.589 94.1585C475.157 94.3006 474.711 94.4219 474.249 94.5226C473.788 94.6292 473.3 94.7091 472.785 94.7624C472.276 94.8157 471.729 94.8423 471.143 94.8423C469.901 94.8423 468.756 94.7091 467.709 94.4427C466.668 94.1762 465.769 93.7766 465.011 93.2437C464.26 92.7049 463.674 92.0358 463.254 91.2365C462.834 90.4313 462.624 89.4928 462.624 88.4212C462.624 87.3495 462.834 86.414 463.254 85.6147C463.674 84.8094 464.26 84.1404 465.011 83.6075C465.769 83.0687 466.668 82.6661 467.709 82.3997C468.756 82.1332 469.901 82 471.143 82C471.729 82 472.276 82.0266 472.785 82.0799C473.3 82.1332 473.788 82.2132 474.249 82.3197C474.711 82.4204 475.157 82.5418 475.589 82.6839C476.021 82.826 476.45 82.9858 476.876 83.1634V86.1298C476.539 85.9462 476.184 85.7657 475.811 85.588C475.438 85.4045 475.027 85.2417 474.578 85.0996C474.128 84.9515 473.634 84.8331 473.096 84.7443C472.557 84.6496 471.951 84.6022 471.276 84.6022C470.241 84.6022 469.38 84.7088 468.694 84.9219C468.014 85.1351 467.469 85.4193 467.061 85.7745C466.653 86.1298 466.366 86.5383 466.2 87.0002C466.035 87.4561 465.952 87.9297 465.952 88.4212C465.952 88.7468 465.987 89.0695 466.058 89.3892C466.129 89.703 466.248 90.002 466.413 90.2862C466.579 90.5645 466.795 90.8221 467.061 91.0589C467.327 91.2957 467.659 91.5 468.055 91.6717C468.451 91.8434 468.913 91.9796 469.439 92.0803C469.972 92.175 470.584 92.2224 471.276 92.2224C471.951 92.2224 472.557 92.1809 473.096 92.098C473.634 92.0092 474.128 91.8937 474.578 91.7516C475.027 91.6095 475.438 91.4497 475.811 91.2721C476.184 91.0885 476.539 90.902 476.876 90.7125V93.6789Z" fill="#666666"/>
<path d="M495.724 88.4212C495.724 89.4692 495.532 90.3958 495.148 91.201C494.763 92.0003 494.213 92.6694 493.497 93.2082C492.781 93.747 491.912 94.1555 490.888 94.4338C489.87 94.7062 488.726 94.8423 487.454 94.8423C486.182 94.8423 485.031 94.7062 484.002 94.4338C482.978 94.1555 482.106 93.747 481.384 93.2082C480.662 92.6694 480.106 92.0003 479.716 91.201C479.325 90.3958 479.13 89.4692 479.13 88.4212C479.13 87.3732 479.325 86.4495 479.716 85.6502C480.106 84.845 480.662 84.173 481.384 83.6342C482.106 83.0954 482.978 82.6898 484.002 82.4174C485.031 82.1391 486.182 82 487.454 82C488.726 82 489.87 82.1391 490.888 82.4174C491.912 82.6898 492.781 83.0954 493.497 83.6342C494.213 84.173 494.763 84.845 495.148 85.6502C495.532 86.4495 495.724 87.3732 495.724 88.4212ZM492.397 88.4212C492.397 87.9653 492.323 87.5123 492.175 87.0623C492.033 86.6064 491.775 86.1979 491.403 85.8367C491.036 85.4755 490.533 85.1825 489.894 84.9575C489.255 84.7325 488.442 84.62 487.454 84.62C486.791 84.62 486.208 84.6733 485.706 84.7798C485.203 84.8805 484.768 85.0226 484.401 85.2061C484.034 85.3897 483.727 85.6058 483.478 85.8545C483.23 86.0972 483.032 86.3607 482.884 86.6449C482.736 86.9232 482.629 87.2163 482.564 87.5242C482.505 87.8261 482.475 88.1251 482.475 88.4212C482.475 88.7231 482.505 89.0281 482.564 89.3359C482.629 89.6438 482.736 89.9399 482.884 90.2241C483.032 90.5023 483.23 90.7629 483.478 91.0056C483.727 91.2484 484.034 91.4615 484.401 91.6451C484.768 91.8227 485.203 91.9648 485.706 92.0714C486.208 92.172 486.791 92.2224 487.454 92.2224C488.442 92.2224 489.255 92.1099 489.894 91.8849C490.533 91.6599 491.036 91.3668 491.403 91.0056C491.775 90.6444 492.033 90.2389 492.175 89.7889C492.323 89.333 492.397 88.8771 492.397 88.4212Z" fill="#666666"/>
<path d="M512.425 86.4762C512.425 87.086 512.337 87.6485 512.159 88.1636C511.982 88.6728 511.695 89.1139 511.298 89.4869C510.908 89.854 510.399 90.1412 509.772 90.3484C509.145 90.5556 508.382 90.6592 507.483 90.6592H502.016V94.5137H498.724V82.3108H507.483C508.382 82.3108 509.145 82.4145 509.772 82.6217C510.399 82.823 510.908 83.1102 511.298 83.4832C511.695 83.8503 511.982 84.2884 512.159 84.7976C512.337 85.3068 512.425 85.8663 512.425 86.4762ZM509.098 86.5295C509.098 86.2453 509.056 86.0025 508.973 85.8012C508.896 85.594 508.766 85.4252 508.583 85.295C508.4 85.1647 508.16 85.07 507.864 85.0108C507.568 84.9456 507.204 84.9131 506.773 84.9131H502.016V88.057H506.773C507.204 88.057 507.568 88.0333 507.864 87.986C508.16 87.9327 508.4 87.8468 508.583 87.7284C508.766 87.6041 508.896 87.4442 508.973 87.2488C509.056 87.0534 509.098 86.8137 509.098 86.5295Z" fill="#666666"/>
<path d="M528.754 93.9098C527.754 94.2414 526.754 94.4782 525.754 94.6203C524.76 94.7683 523.743 94.8423 522.702 94.8423C521.37 94.8423 520.184 94.7002 519.143 94.416C518.108 94.1259 517.235 93.7085 516.525 93.1638C515.815 92.619 515.274 91.953 514.901 91.1655C514.529 90.378 514.342 89.4869 514.342 88.4922C514.342 87.5686 514.529 86.713 514.901 85.9255C515.28 85.1321 515.812 84.4453 516.499 83.8651C517.191 83.2789 518.025 82.823 519.001 82.4974C519.977 82.1658 521.066 82 522.267 82C523.373 82 524.385 82.151 525.302 82.4529C526.225 82.749 527.014 83.1901 527.671 83.7763C528.334 84.3624 528.845 85.0848 529.206 85.9433C529.573 86.8018 529.756 87.7906 529.756 88.9096V89.7267H517.741C517.847 90.1116 518.022 90.4639 518.265 90.7836C518.513 91.1033 518.847 91.3757 519.267 91.6007C519.687 91.8257 520.202 92.0003 520.811 92.1247C521.427 92.249 522.16 92.3112 523.012 92.3112C523.616 92.3112 524.207 92.2756 524.787 92.2046C525.367 92.1276 525.908 92.0299 526.411 91.9115C526.914 91.7872 527.366 91.651 527.769 91.503C528.177 91.3549 528.505 91.2069 528.754 91.0589V93.9098ZM526.482 87.311C526.452 87.009 526.361 86.6982 526.207 86.3785C526.059 86.0528 525.822 85.7597 525.497 85.4992C525.171 85.2387 524.746 85.0256 524.219 84.8598C523.692 84.6881 523.036 84.6022 522.249 84.6022C521.509 84.6022 520.871 84.694 520.332 84.8775C519.794 85.0611 519.341 85.289 518.974 85.5614C518.614 85.8338 518.333 86.1268 518.131 86.4406C517.93 86.7544 517.8 87.0446 517.741 87.311H526.482Z" fill="#666666"/>
<path d="M538.4 94.5137V92.3289C539.985 91.6007 541.361 90.9494 542.526 90.375C543.698 89.8007 544.665 89.2797 545.428 88.8119C546.197 88.3442 546.768 87.9179 547.141 87.533C547.513 87.1423 547.7 86.7663 547.7 86.4051C547.7 86.3045 547.688 86.192 547.664 86.0676C547.646 85.9374 547.599 85.8071 547.522 85.6768C547.451 85.5407 547.345 85.4075 547.203 85.2772C547.061 85.1469 546.866 85.0344 546.617 84.9397C546.369 84.839 546.061 84.7591 545.694 84.6999C545.327 84.6348 544.884 84.6022 544.363 84.6022C543.884 84.6022 543.384 84.6348 542.863 84.6999C542.343 84.7591 541.828 84.845 541.319 84.9575C540.811 85.07 540.319 85.2061 539.846 85.366C539.373 85.5259 538.938 85.7065 538.542 85.9078V83.0036C539.358 82.7194 540.263 82.4825 541.257 82.2931C542.257 82.0977 543.31 82 544.416 82C545.452 82 546.378 82.0918 547.194 82.2753C548.01 82.4589 548.7 82.7253 549.262 83.0746C549.83 83.418 550.261 83.8384 550.557 84.3358C550.859 84.8272 551.01 85.3838 551.01 86.0055C551.01 86.3489 550.971 86.6716 550.894 86.9735C550.823 87.2696 550.693 87.5597 550.504 87.8439C550.315 88.1281 550.057 88.4152 549.732 88.7054C549.412 88.9896 549.004 89.2915 548.507 89.6113C548.016 89.931 547.428 90.2774 546.741 90.6504C546.055 91.0175 545.256 91.426 544.345 91.876H551.267V94.5137H538.4Z" fill="#666666"/>
<g filter="url(#filter1_b_745_145)">
<path d="M71 156C110.212 156 142 124.03 142 84.5922C142 45.1549 110.212 13.1846 71 13.1846C31.7878 13.1846 0 45.1549 0 84.5922C0 124.03 31.7878 156 71 156Z" fill="#EDF8E6" fill-opacity="0.1"/>
</g>
<path d="M71.2914 151.512C58.189 151.512 45.3809 147.604 34.4869 140.283C23.5928 132.961 15.1021 122.555 10.0885 110.381C5.07491 98.2059 3.76364 84.8094 6.32051 71.8852C8.87739 58.961 15.1876 47.0896 24.453 37.7724C33.7185 28.4551 45.5231 22.1105 58.3739 19.5409C71.2247 16.9713 84.5446 18.2922 96.649 23.3364C108.753 28.3806 119.099 36.9217 126.377 47.8794C133.654 58.8372 137.538 71.7194 137.536 84.8969C137.514 102.559 130.528 119.492 118.109 131.98C105.69 144.469 88.853 151.493 71.2914 151.512ZM71.2914 22.334C58.9882 22.334 46.9614 26.0032 36.7317 32.8777C26.502 39.7522 18.5289 49.5232 13.8207 60.9551C9.11251 72.387 7.88063 84.9664 10.2809 97.1024C12.6811 109.238 18.6056 120.386 27.3052 129.136C36.0049 137.885 47.0889 143.844 59.1556 146.258C71.2224 148.672 83.7299 147.433 95.0965 142.698C106.463 137.962 116.178 129.943 123.014 119.655C129.849 109.367 133.497 97.2707 133.497 84.8969C133.481 68.3092 126.922 52.4054 115.26 40.6761C103.597 28.9468 87.7844 22.3502 71.2914 22.334Z" fill="#B9B9B9"/>
<path d="M11.9839 26.6092C11.851 26.61 11.7193 26.5844 11.5962 26.5338C11.4732 26.4833 11.3613 26.4088 11.267 26.3147C11.0839 26.1298 10.9785 25.8811 10.9729 25.6201C10.9673 25.3592 11.0617 25.1061 11.2367 24.9134C26.1792 9.86515 46.1919 1.00334 67.3179 0.0801195C88.4439 -0.843104 109.145 6.23949 125.329 19.9275C125.431 20.0135 125.514 20.1187 125.575 20.2372C125.636 20.3557 125.674 20.4851 125.685 20.6181C125.696 20.7511 125.681 20.8849 125.641 21.0121C125.601 21.1393 125.536 21.2572 125.451 21.3592C125.365 21.4613 125.26 21.5453 125.143 21.6067C125.025 21.668 124.896 21.7054 124.764 21.7167C124.632 21.7281 124.499 21.713 124.372 21.6726C124.246 21.6322 124.128 21.5671 124.027 21.4811C108.23 8.11853 88.0219 1.20482 67.3999 2.1074C46.7779 3.00997 27.2435 11.6631 12.6603 26.3553C12.4737 26.5209 12.2328 26.6113 11.9839 26.6092Z" fill="#B9B9B9"/>
<path d="M120.223 23.4713L130.067 25.5936L126.967 15.9568L120.223 23.4713Z" fill="#B9B9B9"/>
<path d="M33.3365 85.613C33.1058 85.5 32.8011 85.3721 32.4225 85.2293C32.0439 85.0865 31.615 84.9526 31.1358 84.8276C30.6566 84.6967 30.136 84.5896 29.5739 84.5063C29.0119 84.4171 28.4351 84.3725 27.8435 84.3725C27.3702 84.3725 26.965 84.3873 26.6278 84.4171C26.2965 84.4468 26.0154 84.4855 25.7847 84.5331C25.5599 84.5807 25.3795 84.6372 25.2434 84.7027C25.1133 84.7622 25.0127 84.8247 24.9417 84.8901C24.8707 84.9556 24.8234 85.021 24.7997 85.0865C24.782 85.1519 24.7731 85.2114 24.7731 85.265C24.7731 85.4435 24.8618 85.6011 25.0393 85.738C25.2168 85.8689 25.4593 85.9879 25.767 86.095C26.0746 86.1961 26.4325 86.2943 26.8407 86.3895C27.2489 86.4788 27.6808 86.574 28.1363 86.6751C28.5978 86.7703 29.0711 86.8774 29.5562 86.9964C30.0472 87.1095 30.5205 87.2433 30.976 87.398C31.4375 87.5527 31.8723 87.7342 32.2805 87.9425C32.6887 88.1448 33.0467 88.3828 33.3543 88.6565C33.6619 88.9302 33.9045 89.2455 34.082 89.6025C34.2594 89.9595 34.3482 90.3671 34.3482 90.8252C34.3482 91.4143 34.2447 91.92 34.0376 92.3425C33.8305 92.7649 33.5525 93.1219 33.2034 93.4135C32.8603 93.705 32.461 93.9401 32.0054 94.1186C31.5499 94.2911 31.0707 94.425 30.5678 94.5202C30.0709 94.6154 29.5651 94.6779 29.0504 94.7076C28.5416 94.7374 28.0565 94.7522 27.595 94.7522C26.3882 94.7522 25.27 94.6511 24.2406 94.4488C23.2172 94.2524 22.312 94.0055 21.5252 93.708V90.7806C22.3357 91.2328 23.2586 91.5868 24.2939 91.8427C25.3351 92.0985 26.4473 92.2265 27.6305 92.2265C28.3286 92.2265 28.8966 92.1908 29.3343 92.1194C29.778 92.042 30.1241 91.9468 30.3726 91.8338C30.6211 91.7148 30.7897 91.5868 30.8784 91.45C30.9672 91.3131 31.0115 91.1822 31.0115 91.0573C31.0115 90.8609 30.9228 90.6914 30.7453 90.5486C30.5678 90.3998 30.3253 90.2719 30.0176 90.1648C29.71 90.0517 29.3521 89.9506 28.9439 89.8613C28.5357 89.7661 28.1009 89.6739 27.6394 89.5847C27.1839 89.4895 26.7135 89.3883 26.2284 89.2812C25.7433 89.1741 25.27 89.0492 24.8086 88.9064C24.353 88.7576 23.9212 88.588 23.513 88.3976C23.1048 88.2013 22.7468 87.9722 22.4392 87.7104C22.1316 87.4427 21.889 87.1362 21.7115 86.7911C21.5341 86.4401 21.4453 86.0355 21.4453 85.5773C21.4453 85.0359 21.54 84.5688 21.7293 84.1761C21.9186 83.7834 22.173 83.4502 22.4925 83.1765C22.8178 82.8969 23.1905 82.6708 23.6106 82.4982C24.0365 82.3257 24.4832 82.1918 24.9506 82.0966C25.4179 82.0014 25.8912 81.9359 26.3704 81.9002C26.8496 81.8645 27.3051 81.8467 27.737 81.8467C28.2103 81.8467 28.6954 81.8705 29.1924 81.9181C29.6952 81.9657 30.1892 82.0341 30.6743 82.1234C31.1594 82.2067 31.6268 82.3048 32.0764 82.4179C32.532 82.5309 32.952 82.6499 33.3365 82.7749V85.613Z" fill="#666666"/>
<path d="M50.9072 93.5831C50.4812 93.7616 50.0523 93.9222 49.6204 94.065C49.1886 94.2078 48.7419 94.3298 48.2804 94.4309C47.819 94.538 47.3309 94.6184 46.8162 94.6719C46.3075 94.7255 45.7602 94.7522 45.1745 94.7522C43.9322 94.7522 42.7874 94.6184 41.7403 94.3506C40.699 94.0829 39.7998 93.6812 39.0426 93.1457C38.2912 92.6043 37.7055 91.9319 37.2855 91.1287C36.8655 90.3195 36.6554 89.3764 36.6554 88.2995C36.6554 87.2225 36.8655 86.2824 37.2855 85.4792C37.7055 84.67 38.2912 83.9976 39.0426 83.4621C39.7998 82.9207 40.699 82.5161 41.7403 82.2483C42.7874 81.9806 43.9322 81.8467 45.1745 81.8467C45.7602 81.8467 46.3075 81.8735 46.8162 81.927C47.3309 81.9806 47.819 82.0609 48.2804 82.168C48.7419 82.2691 49.1886 82.3911 49.6204 82.5339C50.0523 82.6767 50.4812 82.8374 50.9072 83.0159V85.9968C50.57 85.8124 50.215 85.6309 49.8423 85.4524C49.4696 85.2679 49.0584 85.1043 48.6088 84.9615C48.1592 84.8128 47.6652 84.6938 47.1268 84.6045C46.5885 84.5093 45.9821 84.4617 45.3076 84.4617C44.2723 84.4617 43.4116 84.5688 42.7253 84.783C42.0449 84.9972 41.5007 85.2828 41.0925 85.6398C40.6843 85.9968 40.3973 86.4074 40.2317 86.8715C40.066 87.3296 39.9832 87.8056 39.9832 88.2995C39.9832 88.6267 40.0187 88.951 40.0897 89.2723C40.1607 89.5876 40.279 89.8881 40.4447 90.1737C40.6103 90.4534 40.8262 90.7122 41.0925 90.9502C41.3587 91.1882 41.69 91.3935 42.0864 91.566C42.4827 91.7386 42.9442 91.8754 43.4707 91.9766C44.0032 92.0718 44.6155 92.1194 45.3076 92.1194C45.9821 92.1194 46.5885 92.0777 47.1268 91.9944C47.6652 91.9052 48.1592 91.7891 48.6088 91.6463C49.0584 91.5035 49.4696 91.3429 49.8423 91.1644C50.215 90.9799 50.57 90.7925 50.9072 90.6021V93.5831Z" fill="#666666"/>
<path d="M69.7557 88.2995C69.7557 89.3526 69.5634 90.2838 69.1788 91.093C68.7943 91.8962 68.2441 92.5686 67.5283 93.11C66.8124 93.6515 65.9428 94.062 64.9193 94.3417C63.9017 94.6154 62.757 94.7522 61.485 94.7522C60.2131 94.7522 59.0624 94.6154 58.033 94.3417C57.0096 94.062 56.1369 93.6515 55.4152 93.11C54.6934 92.5686 54.1373 91.8962 53.7469 91.093C53.3564 90.2838 53.1612 89.3526 53.1612 88.2995C53.1612 87.2463 53.3564 86.3181 53.7469 85.5149C54.1373 84.7057 54.6934 84.0303 55.4152 83.4889C56.1369 82.9474 57.0096 82.5399 58.033 82.2662C59.0624 81.9865 60.2131 81.8467 61.485 81.8467C62.757 81.8467 63.9017 81.9865 64.9193 82.2662C65.9428 82.5399 66.8124 82.9474 67.5283 83.4889C68.2441 84.0303 68.7943 84.7057 69.1788 85.5149C69.5634 86.3181 69.7557 87.2463 69.7557 88.2995ZM66.4279 88.2995C66.4279 87.8413 66.3539 87.3861 66.206 86.9339C66.064 86.4758 65.8067 86.0652 65.434 85.7023C65.0672 85.3393 64.5643 85.0448 63.9254 84.8187C63.2865 84.5926 62.473 84.4796 61.485 84.4796C60.8224 84.4796 60.2397 84.5331 59.7369 84.6402C59.234 84.7414 58.7992 84.8842 58.4324 85.0686C58.0656 85.2531 57.7579 85.4702 57.5095 85.7201C57.261 85.9641 57.0628 86.2289 56.9149 86.5145C56.767 86.7941 56.6605 87.0886 56.5954 87.398C56.5363 87.7015 56.5067 88.002 56.5067 88.2995C56.5067 88.6029 56.5363 88.9093 56.5954 89.2187C56.6605 89.5281 56.767 89.8256 56.9149 90.1112C57.0628 90.3909 57.261 90.6527 57.5095 90.8966C57.7579 91.1406 58.0656 91.3548 58.4324 91.5392C58.7992 91.7177 59.234 91.8605 59.7369 91.9676C60.2397 92.0688 60.8224 92.1194 61.485 92.1194C62.473 92.1194 63.2865 92.0063 63.9254 91.7802C64.5643 91.5541 65.0672 91.2596 65.434 90.8966C65.8067 90.5337 66.064 90.1261 66.206 89.6739C66.3539 89.2158 66.4279 88.7576 66.4279 88.2995Z" fill="#666666"/>
<path d="M86.4566 86.3449C86.4566 86.9577 86.3679 87.523 86.1904 88.0406C86.0129 88.5523 85.726 88.9956 85.3296 89.3705C84.9392 89.7394 84.4304 90.0279 83.8033 90.2362C83.1762 90.4444 82.413 90.5486 81.5138 90.5486H76.0474V94.422H72.7551V82.1591H81.5138C82.413 82.1591 83.1762 82.2632 83.8033 82.4714C84.4304 82.6737 84.9392 82.9623 85.3296 83.3372C85.726 83.7061 86.0129 84.1464 86.1904 84.6581C86.3679 85.1698 86.4566 85.732 86.4566 86.3449ZM83.1289 86.3984C83.1289 86.1128 83.0874 85.8689 83.0046 85.6666C82.9277 85.4583 82.7976 85.2888 82.6142 85.1579C82.4308 85.027 82.1912 84.9318 81.8954 84.8723C81.5996 84.8068 81.2357 84.7741 80.8039 84.7741H76.0474V87.9335H80.8039C81.2357 87.9335 81.5996 87.9097 81.8954 87.8621C82.1912 87.8086 82.4308 87.7223 82.6142 87.6033C82.7976 87.4784 82.9277 87.3177 83.0046 87.1214C83.0874 86.925 83.1289 86.684 83.1289 86.3984Z" fill="#666666"/>
<path d="M102.785 93.8151C101.785 94.1483 100.785 94.3863 99.7855 94.5291C98.7916 94.6779 97.774 94.7522 96.7328 94.7522C95.4017 94.7522 94.2155 94.6094 93.1743 94.3238C92.139 94.0323 91.2664 93.6128 90.5564 93.0654C89.8465 92.518 89.3052 91.8486 88.9325 91.0573C88.5598 90.2659 88.3734 89.3705 88.3734 88.3709C88.3734 87.4427 88.5598 86.5829 88.9325 85.7915C89.3111 84.9942 89.8436 84.304 90.5298 83.7209C91.222 83.1319 92.0562 82.6737 93.0323 82.3465C94.0084 82.0133 95.097 81.8467 96.298 81.8467C97.4043 81.8467 98.4159 81.9984 99.3329 82.3019C100.256 82.5994 101.046 83.0426 101.702 83.6317C102.365 84.2207 102.877 84.9466 103.237 85.8094C103.604 86.6721 103.788 87.6658 103.788 88.7903V89.6114H91.7722C91.8787 89.9982 92.0532 90.3522 92.2958 90.6735C92.5442 90.9948 92.8785 91.2685 93.2985 91.4946C93.7186 91.7207 94.2333 91.8962 94.8426 92.0212C95.4579 92.1461 96.1915 92.2086 97.0434 92.2086C97.6468 92.2086 98.2384 92.1729 98.8182 92.1015C99.3979 92.0242 99.9393 91.926 100.442 91.807C100.945 91.682 101.398 91.5452 101.8 91.3964C102.208 91.2477 102.536 91.0989 102.785 90.9502V93.8151ZM100.513 87.1838C100.484 86.8804 100.392 86.568 100.238 86.2467C100.09 85.9195 99.8535 85.6249 99.5281 85.3631C99.2027 85.1013 98.7768 84.8871 98.2502 84.7205C97.7237 84.548 97.067 84.4617 96.2802 84.4617C95.5407 84.4617 94.9018 84.5539 94.3634 84.7384C93.825 84.9228 93.3725 85.1519 93.0057 85.4256C92.6448 85.6993 92.3638 85.9938 92.1626 86.3092C91.9615 86.6245 91.8313 86.9161 91.7722 87.1838H100.513Z" fill="#666666"/>
<path d="M115.155 94.422V84.6045L111.881 85.6309V83.1765L115.155 82.1591H118.43V94.422H115.155Z" fill="#666666"/>
<path d="M430.772 89.26H136.232C136.064 89.26 135.904 89.1936 135.786 89.0755C135.668 88.9574 135.602 88.7971 135.602 88.63C135.602 88.4629 135.668 88.3027 135.786 88.1845C135.904 88.0664 136.064 88 136.232 88H430.772C430.939 88 431.099 88.0664 431.217 88.1845C431.335 88.3027 431.402 88.4629 431.402 88.63C431.402 88.7971 431.335 88.9574 431.217 89.0755C431.099 89.1936 430.939 89.26 430.772 89.26Z" fill="#EDF8E6"/>
<path d="M136.122 93.22C138.392 93.22 140.232 91.3799 140.232 89.11C140.232 86.8401 138.392 85 136.122 85C133.852 85 132.012 86.8401 132.012 89.11C132.012 91.3799 133.852 93.22 136.122 93.22Z" fill="#132F02"/>
<path d="M136.131 93.48C135.193 93.48 134.277 93.202 133.497 92.6812C132.718 92.1603 132.11 91.42 131.751 90.5539C131.393 89.6878 131.299 88.7347 131.482 87.8153C131.665 86.8958 132.116 86.0512 132.779 85.3883C133.442 84.7254 134.286 84.274 135.206 84.0911C136.125 83.9082 137.078 84.002 137.945 84.3608C138.811 84.7196 139.551 85.3271 140.072 86.1066C140.593 86.8861 140.871 87.8025 140.871 88.74C140.871 89.9971 140.371 91.2028 139.482 92.0917C138.593 92.9806 137.388 93.48 136.131 93.48ZM136.131 85.27C135.442 85.27 134.769 85.4744 134.196 85.8572C133.624 86.24 133.178 86.7841 132.915 87.4206C132.651 88.057 132.583 88.7573 132.718 89.4326C132.853 90.1079 133.186 90.728 133.673 91.2143C134.161 91.7005 134.782 92.0312 135.458 92.1643C136.134 92.2975 136.834 92.2272 137.469 91.9622C138.105 91.6973 138.648 91.2497 139.029 90.6761C139.41 90.1025 139.613 89.4287 139.611 88.74C139.608 87.8188 139.24 86.9362 138.588 86.2857C137.935 85.6353 137.052 85.27 136.131 85.27Z" fill="#EDF8E6"/>
<path d="M434.969 93.22C437.239 93.22 439.079 91.3799 439.079 89.11C439.079 86.8401 437.239 85 434.969 85C432.699 85 430.859 86.8401 430.859 89.11C430.859 91.3799 432.699 93.22 434.969 93.22Z" fill="#132F02"/>
<path d="M434.959 93.48C434.021 93.48 433.105 93.202 432.325 92.6812C431.546 92.1603 430.938 91.42 430.58 90.5539C430.221 89.6878 430.127 88.7347 430.31 87.8153C430.493 86.8958 430.944 86.0512 431.607 85.3883C432.27 84.7254 433.115 84.274 434.034 84.0911C434.953 83.9082 435.907 84.002 436.773 84.3608C437.639 84.7196 438.379 85.3271 438.9 86.1066C439.421 86.8861 439.699 87.8025 439.699 88.74C439.699 89.9971 439.199 91.2028 438.31 92.0917C437.422 92.9806 436.216 93.48 434.959 93.48ZM434.959 85.27C434.27 85.27 433.597 85.4744 433.024 85.8572C432.452 86.24 432.006 86.7841 431.743 87.4206C431.48 88.057 431.411 88.7573 431.546 89.4326C431.681 90.1079 432.014 90.728 432.502 91.2143C432.989 91.7005 433.61 92.0312 434.286 92.1643C434.962 92.2975 435.662 92.2272 436.297 91.9622C436.933 91.6973 437.476 91.2497 437.857 90.6761C438.238 90.1025 438.441 89.4287 438.439 88.74C438.436 87.8188 438.068 86.9362 437.416 86.2857C436.764 85.6353 435.88 85.27 434.959 85.27Z" fill="#EDF8E6"/>
<path d="M863.36 89.26H568.81C568.643 89.26 568.482 89.1936 568.364 89.0755C568.246 88.9574 568.18 88.7971 568.18 88.63C568.18 88.4629 568.246 88.3027 568.364 88.1845C568.482 88.0664 568.643 88 568.81 88H863.36C863.526 88.0026 863.685 88.0698 863.802 88.1874C863.92 88.305 863.987 88.4637 863.99 88.63C863.99 88.7971 863.923 88.9574 863.805 89.0755C863.687 89.1936 863.527 89.26 863.36 89.26Z" fill="white"/>
<path d="M564.712 93.22C566.981 93.22 568.822 91.3799 568.822 89.11C568.822 86.8401 566.981 85 564.712 85C562.442 85 560.602 86.8401 560.602 89.11C560.602 91.3799 562.442 93.22 564.712 93.22Z" fill="#132F02"/>
<path d="M564.701 93.48C563.763 93.48 562.847 93.202 562.068 92.6812C561.288 92.1603 560.68 91.42 560.322 90.5539C559.963 89.6878 559.869 88.7347 560.052 87.8153C560.235 86.8958 560.686 86.0512 561.349 85.3883C562.012 84.7254 562.857 84.274 563.776 84.0911C564.696 83.9082 565.649 84.002 566.515 84.3608C567.381 84.7196 568.121 85.3271 568.642 86.1066C569.163 86.8861 569.441 87.8025 569.441 88.74C569.441 89.9971 568.942 91.2028 568.053 92.0917C567.164 92.9806 565.958 93.48 564.701 93.48ZM564.701 85.27C564.012 85.27 563.339 85.4744 562.767 85.8572C562.194 86.24 561.748 86.7841 561.485 87.4206C561.222 88.057 561.153 88.7573 561.289 89.4326C561.424 90.1079 561.756 90.728 562.244 91.2143C562.731 91.7005 563.352 92.0312 564.028 92.1643C564.704 92.2975 565.404 92.2272 566.04 91.9622C566.675 91.6973 567.218 91.2497 567.599 90.6761C567.981 90.1025 568.183 89.4287 568.181 88.74C568.178 87.8188 567.81 86.9362 567.158 86.2857C566.506 85.6353 565.622 85.27 564.701 85.27Z" fill="white"/>
<path d="M865.551 93.22C867.821 93.22 869.661 91.3799 869.661 89.11C869.661 86.8401 867.821 85 865.551 85C863.282 85 861.441 86.8401 861.441 89.11C861.441 91.3799 863.282 93.22 865.551 93.22Z" fill="#132F02"/>
<path d="M865.541 93.48C864.603 93.48 863.687 93.202 862.907 92.6812C862.128 92.1603 861.52 91.42 861.162 90.5539C860.803 89.6878 860.709 88.7347 860.892 87.8153C861.075 86.8958 861.526 86.0512 862.189 85.3883C862.852 84.7254 863.697 84.274 864.616 84.0911C865.536 83.9082 866.489 84.002 867.355 84.3608C868.221 84.7196 868.961 85.3271 869.482 86.1066C870.003 86.8861 870.281 87.8025 870.281 88.74C870.281 89.9971 869.781 91.2028 868.892 92.0917C868.004 92.9806 866.798 93.48 865.541 93.48ZM865.541 85.27C864.852 85.27 864.179 85.4744 863.606 85.8572C863.034 86.24 862.588 86.7841 862.325 87.4206C862.062 88.057 861.993 88.7573 862.128 89.4326C862.263 90.1079 862.596 90.728 863.084 91.2143C863.571 91.7005 864.192 92.0312 864.868 92.1643C865.544 92.2975 866.244 92.2272 866.879 91.9622C867.515 91.6973 868.058 91.2497 868.439 90.6761C868.82 90.1025 869.023 89.4287 869.021 88.74C869.018 87.8188 868.65 86.9362 867.998 86.2857C867.346 85.6353 866.462 85.27 865.541 85.27Z" fill="white"/>
<defs>
<filter id="filter0_b_745_145" x="409" y="-6" width="182" height="182.116" filterUnits="userSpaceOnUse" color-interpolation-filters="sRGB">
<feFlood flood-opacity="0" result="BackgroundImageFix"/>
<feGaussianBlur in="BackgroundImageFix" stdDeviation="10"/>
<feComposite in2="SourceAlpha" operator="in" result="effect1_backgroundBlur_745_145"/>
<feBlend mode="normal" in="SourceGraphic" in2="effect1_backgroundBlur_745_145" result="shape"/>
</filter>
<filter id="filter1_b_745_145" x="-20" y="-6.81543" width="182" height="182.815" filterUnits="userSpaceOnUse" color-interpolation-filters="sRGB">
<feFlood flood-opacity="0" result="BackgroundImageFix"/>
<feGaussianBlur in="BackgroundImageFix" stdDeviation="10"/>
<feComposite in2="SourceAlpha" operator="in" result="effect1_backgroundBlur_745_145"/>
<feBlend mode="normal" in="SourceGraphic" in2="effect1_backgroundBlur_745_145" result="shape"/>
</filter>
<linearGradient id="paint0_linear_745_145" x1="833.86" y1="-2.03789" x2="1025.3" y2="170.445" gradientUnits="userSpaceOnUse">
<stop stop-color="#28F17C"/>
<stop offset="1" stop-color="#ECFF38"/>
</linearGradient>
<linearGradient id="paint1_linear_745_145" x1="848.987" y1="-2.92287" x2="865.711" y2="64.7938" gradientUnits="userSpaceOnUse">
<stop stop-color="#28F17C"/>
<stop offset="1" stop-color="#ECFF38"/>
</linearGradient>
<linearGradient id="paint2_linear_745_145" x1="848.987" y1="-2.92287" x2="865.711" y2="64.7938" gradientUnits="userSpaceOnUse">
<stop stop-color="#28F17C"/>
<stop offset="1" stop-color="#ECFF38"/>
</linearGradient>
</defs>
</svg>
