<svg width="236" height="307" viewBox="0 0 236 307" fill="none" xmlns="http://www.w3.org/2000/svg">
<g filter="url(#filter0_b_268_332)">
<path d="M206.779 239.908C195.616 244.426 183.318 246.813 171.489 244.629C151.314 240.906 141.039 226.161 140.568 206.186C139.832 174.949 167.261 152.334 197.226 159.93C209.662 163.08 220.825 169.72 231.554 176.949C231.343 132.264 232.234 92.0603 235.413 87.8521C234.555 88.969 196.307 89.6347 151.136 89.8406C155.638 82.4875 159.863 74.9653 163.045 66.9579C167.487 55.7803 169.831 43.4631 167.687 31.6171C164.026 11.411 149.532 1.12183 129.898 0.650807C99.1941 -0.0881637 76.9686 27.3835 84.4316 57.3879C87.348 69.1127 93.3049 79.715 99.9246 89.8829C49.8128 89.7419 4.77232 89.0649 3.84438 87.8493C-3.41558 97.5772 1.47234 301.767 3.84438 304.847C5.94565 307.575 233.312 307.575 235.413 304.847C234.417 303.569 232.987 268.113 232.166 226.195C224.012 231.368 215.7 236.295 206.779 239.908Z" fill="#F613F6" fill-opacity="0.2"/>
<path d="M3.6774 89.464C3.80442 89.0449 3.92972 88.7199 4.04884 88.4791C4.16345 88.5092 4.2937 88.5368 4.43598 88.5628C4.85015 88.6384 5.42271 88.7097 6.13646 88.7777C7.56711 88.914 9.60811 89.0411 12.1784 89.1595C17.3213 89.3965 24.6096 89.5995 33.431 89.769C51.0749 90.1079 74.8661 90.3124 99.9232 90.3829L100.848 90.3855L100.344 89.6101C93.7325 79.4553 87.8127 68.9095 84.9168 57.2672C77.5339 27.5847 99.5103 0.419591 129.886 1.15066L129.898 0.650807L129.886 1.15066C139.62 1.38418 148.04 4.05007 154.473 9.12581C160.901 14.198 165.384 21.7076 167.195 31.7061C169.317 43.4314 167 55.6505 162.58 66.7732L163.045 66.9579L162.58 66.7733C159.414 74.7413 155.206 82.2352 150.71 89.5795L150.242 90.3447L151.139 90.3406C173.725 90.2376 194.583 90.0197 209.903 89.6879C217.562 89.522 223.841 89.3275 228.26 89.1044C230.469 88.993 232.22 88.874 233.449 88.7472C233.837 88.7072 234.177 88.6659 234.466 88.6232C234.433 88.7112 234.401 88.802 234.37 88.8954C234.18 89.4578 234.003 90.1486 233.836 90.9548C233.503 92.5675 233.206 94.6763 232.942 97.2131C232.413 102.289 232.01 109.118 231.713 117.203C231.127 133.148 230.954 154.009 231.05 176.008C220.549 168.977 209.568 162.541 197.349 159.445C167.049 151.765 139.325 174.645 140.068 206.198C140.306 216.266 143.015 225.057 148.244 231.808C153.477 238.565 161.204 243.24 171.398 245.121C183.351 247.327 195.748 244.912 206.967 240.371L206.779 239.908L206.967 240.371C215.657 236.852 223.763 232.095 231.684 227.092C232.093 247.712 232.648 266.715 233.225 280.782C233.517 287.915 233.815 293.782 234.102 297.948C234.246 300.03 234.387 301.692 234.525 302.878C234.593 303.469 234.662 303.95 234.73 304.308C234.747 304.393 234.764 304.474 234.781 304.548C234.698 304.565 234.601 304.583 234.49 304.601C234.017 304.678 233.334 304.754 232.447 304.828C230.677 304.977 228.135 305.115 224.926 305.242C218.51 305.498 209.452 305.711 198.631 305.881C176.991 306.222 148.311 306.393 119.629 306.393C90.9467 306.393 62.2661 306.222 40.6258 305.881C29.8051 305.711 20.7477 305.498 14.3316 305.242C11.1225 305.115 8.58003 304.977 6.80992 304.828C5.92335 304.754 5.24041 304.678 4.76775 304.601C4.5299 304.563 4.35876 304.526 4.24655 304.493C4.24129 304.492 4.23628 304.49 4.23149 304.489C4.22652 304.472 4.22094 304.452 4.21484 304.429C4.18235 304.306 4.14654 304.131 4.10842 303.9C4.03244 303.439 3.95309 302.79 3.87131 301.96C3.70795 300.303 3.53783 297.955 3.36471 295.008C3.01857 289.117 2.66158 280.855 2.32245 270.993C1.64422 251.269 1.0378 225.156 0.732345 198.835C0.42688 172.514 0.422456 145.989 0.947852 125.439C1.21058 115.163 1.60562 106.388 2.16087 99.8826C2.43859 96.6288 2.7556 93.9523 3.11414 91.9434C3.29346 90.9386 3.4816 90.11 3.6774 89.464ZM235.105 304.46C235.112 304.456 235.113 304.456 235.106 304.46C235.106 304.46 235.106 304.46 235.105 304.46Z" stroke="white" stroke-opacity="0.5"/>
</g>
<g opacity="0.7">
<path d="M82.6906 233.054L76.4829 230.952L78.6599 228.767C78.5331 228.187 78.475 227.866 78.4021 227.634C78.5004 226.861 77.5926 226.445 77.0684 226.971L74.5352 229.514C74.3434 227.415 74.0065 225.332 73.527 223.279C73.4979 223.152 73.4377 223.033 73.3518 222.934C73.266 222.835 73.1572 222.759 73.035 222.713C72.9128 222.667 72.7812 222.651 72.6517 222.668C72.5222 222.685 72.3988 222.734 72.2927 222.811C68.3804 225.623 65.1423 226.614 64.6752 230.224C64.4995 230.005 64.3162 229.792 64.1257 229.586C64.0071 229.459 63.8501 229.374 63.6789 229.345C63.5076 229.315 63.3315 229.344 63.1777 229.425C58.401 231.945 58.401 232.759 58.401 233.066C58.401 233.399 58.5954 233.684 60.001 236.237C60.8951 237.864 62.2266 239.419 63.1017 240.989L57.5693 246.542C56.1352 245.105 55.4937 244.66 53.2871 243.07C43.9671 236.285 31.4958 235.158 24.0601 243.378L24.1087 243.299C23.6575 243.645 22.9726 244.067 22.3449 244.763C13.3895 254.685 16.0041 272.253 24.6456 281.277C29.454 286.298 33.2247 289.26 39.3394 290.636C45.2628 291.968 51.0657 291.629 57.0007 287.658C61.9846 284.323 66.3894 277.526 66.4697 270.878C67.7252 262.949 64.5146 254.47 59.202 248.297L65.5439 241.931C68.9669 244.063 73.1688 245.237 73.6961 245.237C74.2668 245.237 74.4369 244.71 74.7191 244.413C75.4969 243.402 76.6742 241.876 77.2808 240.968C77.3429 240.875 77.3848 240.77 77.4037 240.66C77.4226 240.55 77.4182 240.437 77.3907 240.328C77.2734 239.865 76.9807 239.886 76.4671 239.452C77.7754 239.386 79.1313 239.225 79.4631 239.002C80.3128 238.435 81.2311 237.134 83.1017 234.242C83.1681 234.141 83.2103 234.025 83.2251 233.904C83.24 233.784 83.2269 233.661 83.1871 233.546C83.1473 233.432 83.0817 233.328 82.9954 233.242C82.9092 233.157 82.8055 233.093 82.6906 233.054ZM60.131 233.168C60.6879 232.714 62.0375 231.863 63.3648 231.13C64.02 231.926 64.7175 232.95 65.415 233.702C66.0533 234.388 67.1408 233.586 66.6874 232.771C65.8314 231.235 66.1907 229.189 67.5223 228.014C68.8285 226.862 70.4919 225.95 72.2325 224.785C73.1022 229.009 72.8739 230.434 73.1498 230.904L71.4409 232.619L70.8491 231.433C70.7542 231.245 70.5895 231.104 70.3909 231.038C70.1923 230.972 69.9758 230.988 69.7887 231.082C69.6016 231.175 69.459 231.34 69.3919 231.538C69.3249 231.737 69.3389 231.955 69.4309 232.143C70.345 233.87 70.0037 233.45 70.3122 233.752L67.8129 236.261L66.4887 234.799C66.3457 234.65 66.1504 234.562 65.9442 234.555C65.7381 234.548 65.5373 234.622 65.3846 234.762C65.2318 234.901 65.1392 235.094 65.1264 235.301C65.1135 235.507 65.1814 235.711 65.3157 235.868L66.6895 237.387L64.2525 239.834C62.5585 237.013 62.7054 238.005 60.131 233.168ZM44.6594 259.5C43.4789 258.549 42.2498 258.179 41.7817 258.684C41.2596 259.247 41.881 260.68 43.1714 261.884C45.397 263.962 47.5624 263.63 46.2414 261.305L48.4533 259.084C50.6535 262.811 50.0956 267.266 46.2488 267.643C44.3624 267.837 42.1484 266.932 40.3191 265.239C33.8662 259.274 37.5291 250.776 44.6086 255.375C45.4974 255.953 46.2731 256.5 46.9716 257.178L44.6594 259.5ZM48.1014 256.044C47.2982 255.261 46.4189 254.656 45.4699 254.039C41.9508 251.755 38.4358 252 36.5124 254.663C32.6583 259.966 39.3426 269.923 46.4041 269.228C51.0403 268.769 53.0895 263.408 49.601 257.932L53.937 253.58C61.434 263.232 59.0805 275.641 49.1339 277.211C44.7904 277.893 39.9217 276.338 35.7801 272.937C28.3465 266.819 25.6242 256.667 29.7119 250.306C33.9497 243.713 42.5859 244.173 49.0546 248.904C50.5331 249.975 51.6121 250.906 52.3772 251.751L48.1014 256.044ZM62.7804 276.783C58.3925 284.384 49.4245 286.438 40.7249 283.477C40.6224 283.45 40.5215 283.418 40.4226 283.38C24.7555 277.823 16.4257 258.842 23.2178 247.219C29.0546 237.088 42.2329 236.986 52.3561 244.359C54.2435 245.733 54.9516 246.167 56.4491 247.666L53.4985 250.626C52.6604 249.712 51.518 248.725 49.9846 247.614C42.6472 242.251 33.0493 242.178 28.3793 249.445C23.8688 256.462 26.738 267.553 34.7761 274.168C38.9019 277.557 44.2187 279.598 49.3801 278.782C60.6647 277 63.4293 263.043 55.0689 252.445L58.0808 249.422C64.5125 256.949 67.6819 268.335 62.7804 276.783ZM78.6599 237.626C78.103 237.753 75.5836 238.005 74.3418 237.857C73.4499 237.767 73.1159 238.953 73.8821 239.352C74.3894 239.618 74.8977 240.215 75.5149 240.726C74.8829 241.602 74.0311 242.705 73.3844 243.545C71.0679 242.948 68.6689 241.949 66.698 240.775L70.0005 237.459L70.3746 237.874C70.4436 237.954 70.5278 238.02 70.6223 238.067C70.7168 238.114 70.8197 238.141 70.9249 238.148C71.0302 238.154 71.1358 238.14 71.2354 238.105C71.335 238.07 71.4266 238.016 71.505 237.945C71.5833 237.874 71.6468 237.788 71.6917 237.692C71.7365 237.596 71.7619 237.493 71.7663 237.387C71.7706 237.281 71.7539 237.175 71.7171 237.076C71.6803 236.977 71.6241 236.886 71.5519 236.809L71.1228 236.333L75.2327 232.208L81.2142 234.234C79.9725 236.132 79.1915 237.219 78.6599 237.626ZM41.2998 226.029C41.2209 226.097 41.1562 226.18 41.1094 226.273C41.0626 226.367 41.0346 226.468 41.0269 226.572C41.0193 226.677 41.0321 226.781 41.0648 226.881C41.0975 226.98 41.1493 227.072 41.2173 227.151C44.3402 230.638 44.2652 231.031 44.914 231.031C45.5819 231.031 45.9603 230.235 45.5132 229.715L42.4168 226.112C42.3491 226.033 42.2665 225.968 42.1736 225.92C42.0808 225.873 41.9795 225.845 41.8757 225.837C41.7718 225.829 41.6675 225.842 41.5687 225.875C41.4698 225.908 41.3784 225.96 41.2998 226.029ZM47.2559 224.59L47.4567 229.209C47.466 229.42 47.5583 229.619 47.7135 229.762C47.8687 229.904 48.074 229.979 48.2842 229.97C48.4944 229.961 48.6923 229.868 48.8344 229.712C48.9765 229.556 49.0512 229.35 49.0419 229.139L48.8411 224.521C48.7925 223.432 47.2126 223.563 47.2559 224.59ZM52.7682 224.469L51.5117 227.62C51.4429 227.813 51.4516 228.026 51.536 228.214C51.6204 228.402 51.7739 228.549 51.9643 228.625C52.1547 228.702 52.3672 228.701 52.5571 228.623C52.747 228.546 52.8996 228.397 52.9827 228.209L54.2382 225.06C54.3128 224.865 54.3078 224.648 54.2243 224.456C54.1408 224.265 53.9855 224.114 53.792 224.037C53.5985 223.959 53.3824 223.961 53.1904 224.042C52.9984 224.123 52.846 224.277 52.7661 224.47L52.7682 224.469Z" fill="#EDF8E6"/>
</g>
<g clip-path="url(#clip0_268_332)">
<path d="M27.185 193.027C27.05 193.556 26.8025 193.871 26.4313 193.961C25.475 194.197 23.81 194.501 21.4363 194.895C21.1438 198.562 20.9975 201.622 20.9975 204.064C20.9975 204.997 21.0088 205.909 21.0425 206.809C21.0538 207.09 21.0425 207.304 20.9975 207.45C20.9188 207.686 20.7725 207.799 20.5588 207.776C20.1313 207.765 19.7825 207.585 19.5013 207.236C19.22 206.887 19.0625 206.505 19.04 206.077C19.0063 205.537 18.995 204.964 18.995 204.356C18.995 203.389 19.0625 201.847 19.1975 199.744C19.3325 197.73 19.3888 196.189 19.3775 195.131C18.9838 195.097 18.4325 195.142 17.7238 195.244C16.9138 195.367 16.3513 195.424 16.0475 195.424C15.3275 195.424 14.7313 195.232 14.2813 194.85C14.09 194.434 14 194.231 14 194.209C14 194.107 14.0563 193.995 14.1575 193.871C14.63 193.714 15.5975 193.556 17.0488 193.421C18.3313 193.286 19.2875 193.05 19.9175 192.712C20.435 192.892 21.02 192.982 21.6838 192.982C22.3475 192.982 22.9775 192.904 23.585 192.735C23.765 192.724 24.215 192.622 24.935 192.42C25.4638 192.285 25.9025 192.24 26.2625 192.285C26.5325 192.285 26.6338 192.397 26.5888 192.611C26.9938 192.634 27.185 192.769 27.185 193.027Z" fill="#EDF8E6" fill-opacity="0.5"/>
<path d="M27.435 193.059L27.4272 193.089C27.2816 193.66 26.9909 194.082 26.4907 194.204C25.5497 194.436 23.9398 194.731 21.67 195.109C21.3881 198.687 21.2475 201.675 21.2475 204.064C21.2475 204.995 21.2587 205.903 21.2923 206.799C21.2923 206.799 21.2923 206.799 21.2923 206.799L21.0425 206.809C21.0538 207.09 21.0425 207.304 20.9975 207.45L27.435 193.059ZM27.435 193.059V193.027C27.435 192.825 27.3545 192.647 27.1821 192.526C27.083 192.456 26.9636 192.414 26.8327 192.389C26.8148 192.32 26.7806 192.253 26.7228 192.193C26.6023 192.07 26.4318 192.037 26.2785 192.035C25.879 191.988 25.4114 192.04 24.8732 192.178L24.8731 192.178L24.8673 192.179C24.14 192.384 23.7175 192.476 23.5694 192.485L23.5433 192.487L23.5181 192.494C22.9347 192.656 22.3274 192.732 21.6838 192.732C21.0425 192.732 20.486 192.645 19.9996 192.476L19.8961 192.44L19.7994 192.492C19.2126 192.806 18.2953 193.038 17.0241 193.172C15.5755 193.307 14.5815 193.466 14.0784 193.634L14.0098 193.657L13.964 193.713C13.8519 193.85 13.75 194.019 13.75 194.209C13.75 194.242 13.7567 194.268 13.7584 194.275L13.7585 194.276C13.7614 194.287 13.7646 194.297 13.7671 194.305C13.7721 194.32 13.7784 194.336 13.7848 194.352C13.7979 194.385 13.8166 194.429 13.8401 194.482C13.8874 194.59 13.9585 194.746 14.0541 194.954L14.0772 195.005L14.1193 195.04C14.6246 195.47 15.2828 195.674 16.0475 195.674C16.3716 195.674 16.95 195.615 17.7603 195.491C18.3311 195.409 18.7844 195.367 19.1289 195.37L27.435 193.059ZM19.3066 207.393C19.6287 207.792 20.0413 208.01 20.5429 208.026L18.7903 206.091C18.7904 206.091 18.7904 206.091 18.7904 206.092C18.8162 206.577 18.9963 207.008 19.3066 207.393Z" stroke="#EDF8E6" stroke-opacity="0.2" stroke-width="0.5"/>
<path d="M36.6215 205.74C36.7115 205.976 36.7565 206.179 36.7565 206.359C36.7565 206.651 36.6328 206.91 36.3853 207.135C36.1378 207.36 35.969 207.461 35.879 207.439C35.159 207.304 34.6978 206.73 34.5065 205.695C34.304 204.581 34.0565 203.636 33.7753 202.894C33.269 202.939 32.774 202.984 32.2678 203.029C31.694 203.107 31.244 203.276 30.9178 203.557C30.7603 204.019 30.5465 204.829 30.2765 205.987C30.029 207.067 29.7815 207.877 29.5453 208.44C29.4215 208.71 29.174 208.777 28.7915 208.665C28.3078 208.507 28.049 208.282 28.0153 208.001C27.9703 207.439 28.1278 206.685 28.499 205.751C28.9378 204.671 29.1853 203.906 29.2303 203.456C29.2415 203.321 29.1515 203.175 28.949 203.017C28.7465 202.86 28.634 202.736 28.634 202.646C28.634 202.567 28.6678 202.5 28.7353 202.41C28.8028 202.331 28.9603 202.264 29.1965 202.207C29.4328 202.151 29.579 202.084 29.6015 201.971C29.8715 201.24 30.2878 199.867 30.8615 197.865C31.3453 196.132 31.784 194.794 32.1665 193.871C32.2565 193.669 32.4365 193.567 32.7178 193.567C32.9203 193.567 33.1115 193.635 33.269 193.77C33.6853 194.119 33.944 194.659 34.0678 195.356C34.1578 195.964 34.2365 196.56 34.3153 197.167C35.0578 200.621 35.8228 203.479 36.6215 205.74ZM33.3928 201.51C33.3478 200.97 33.2465 200.351 33.1003 199.676C32.954 199.091 32.819 198.495 32.684 197.91C32.2453 199.136 31.8628 200.351 31.5365 201.577C31.7728 201.532 32.3915 201.51 33.3928 201.51Z" fill="#EDF8E6" fill-opacity="0.5"/>
<path d="M34.2606 205.74L34.2607 205.74C34.3609 206.282 34.5357 206.727 34.7985 207.059C35.0641 207.395 35.411 207.604 35.8277 207.683C35.9063 207.701 35.9792 207.688 36.0341 207.671C36.0927 207.654 36.1492 207.625 36.2017 207.594C36.3066 207.531 36.4247 207.437 36.5535 207.32C36.8448 207.055 37.0065 206.732 37.0065 206.359C37.0065 206.139 36.952 205.906 36.8563 205.654C36.0635 203.409 35.3022 200.567 34.5619 197.125C34.4836 196.521 34.4049 195.926 34.3151 195.319L34.3152 195.319L34.314 195.312C34.1843 194.582 33.9069 193.979 33.4306 193.579C33.2265 193.405 32.9775 193.317 32.7178 193.317C32.5486 193.317 32.3883 193.348 32.2493 193.425C32.1066 193.504 32.0034 193.623 31.9381 193.77L31.938 193.77L31.9356 193.775C31.5475 194.711 31.1057 196.061 30.621 197.797C30.0468 199.801 29.6332 201.164 29.367 201.885L29.3661 201.887C29.3639 201.888 29.3614 201.89 29.3586 201.891C29.3199 201.913 29.2509 201.937 29.1386 201.964C29.0122 201.994 28.8983 202.029 28.8026 202.071C28.711 202.111 28.615 202.166 28.5455 202.247L28.5402 202.253L28.5353 202.26C28.4586 202.362 28.384 202.484 28.384 202.646C28.384 202.786 28.4654 202.899 28.5264 202.97C28.5956 203.05 28.6892 203.132 28.7956 203.215C28.8832 203.283 28.9329 203.338 28.9587 203.379C28.9832 203.418 28.9812 203.434 28.9812 203.435L29.2303 203.456L28.9815 203.431C28.9406 203.84 28.7076 204.574 28.2674 205.657L28.2667 205.659C27.89 206.606 27.7166 207.402 27.7661 208.021L27.7659 208.021L27.7671 208.031C27.8195 208.467 28.2116 208.739 28.7142 208.903L28.7141 208.903L28.721 208.905C28.9338 208.967 29.145 208.991 29.3356 208.936C29.5397 208.876 29.6848 208.736 29.7726 208.544L29.7727 208.544L29.7758 208.537C30.0199 207.956 30.2711 207.13 30.5201 206.044C30.7772 204.94 30.9811 204.163 31.1321 203.705C31.4049 203.49 31.7853 203.348 32.296 203.277C32.5467 203.255 32.7948 203.233 33.0426 203.21L33.0439 203.21C33.2312 203.193 33.4183 203.176 33.6067 203.16C33.8544 203.856 34.0758 204.724 34.2606 205.74ZM32.6353 198.81C32.707 199.118 32.7804 199.427 32.8568 199.733C32.977 200.288 33.0656 200.801 33.1171 201.26C32.5846 201.263 32.1675 201.273 31.873 201.291C32.1011 200.463 32.3552 199.638 32.6353 198.81Z" stroke="#EDF8E6" stroke-opacity="0.2" stroke-width="0.5"/>
<path d="M50.8331 206.955C50.8781 207.011 50.9006 207.079 50.9006 207.157C50.9006 207.495 50.5519 207.754 49.8431 207.934C49.0669 207.326 48.0881 206.404 46.9294 205.155C45.6356 203.76 44.6681 202.781 44.0381 202.241C43.9931 202.624 43.9144 203.625 43.7906 205.245C43.7119 206.471 43.5881 207.439 43.3969 208.159C43.3631 208.159 43.2731 208.192 43.1156 208.271C42.9581 208.35 42.8344 208.361 42.7331 208.339C42.0806 208.192 41.7656 207.742 41.7656 206.989C41.7656 206.764 41.7994 206.471 41.8556 206.1C41.9119 205.672 41.9456 205.402 41.9681 205.301C42.0244 204.446 42.0581 203.434 42.0806 202.252V199.845C42.0806 197.842 42.1931 196.155 42.4069 194.782C42.5531 193.871 43.4194 193.455 44.9944 193.522C45.7931 193.556 46.4794 193.95 47.0756 194.715C47.6156 195.424 47.8969 196.189 47.8969 197.01C47.8969 197.707 47.6381 198.394 47.1206 199.091C46.6819 199.71 46.1306 200.194 45.4894 200.554C45.2194 200.7 45.0956 200.857 45.0956 201.037C45.0956 201.229 45.2531 201.454 45.5569 201.724C45.7931 201.915 46.0294 202.106 46.2656 202.297C46.2769 202.309 47.0869 203.051 48.6956 204.502C49.6856 205.414 50.4056 206.224 50.8331 206.955ZM46.1644 197.032C46.2094 196.762 46.2206 196.537 46.2094 196.324C46.1644 196.009 46.0406 195.739 45.8269 195.48C45.6131 195.221 45.2756 195.109 44.8031 195.109C44.4544 195.109 44.2294 195.221 44.1394 195.435C44.0606 195.806 44.0269 196.222 44.0269 196.695C44.0269 196.886 44.0494 197.381 44.0944 198.18C44.1281 198.787 44.1281 199.282 44.0944 199.665C45.3094 198.742 46.0069 197.865 46.1644 197.032Z" fill="#EDF8E6" fill-opacity="0.5"/>
<path d="M49.7857 208.206L49.689 208.131C48.8984 207.512 47.9096 206.579 46.7461 205.325L46.7461 205.325C45.6831 204.179 44.8463 203.32 44.2388 202.756C44.1927 203.279 44.1279 204.112 44.04 205.262C43.9609 206.493 43.836 207.479 43.6385 208.223L43.5891 208.409H43.4195C43.4136 208.411 43.4053 208.414 43.3943 208.418C43.3574 208.432 43.3028 208.457 43.2274 208.495L43.1156 208.271L43.2274 208.495C43.0291 208.594 42.8467 208.62 42.6789 208.583L42.6784 208.583C42.3048 208.499 42.0041 208.321 41.8011 208.037C41.601 207.756 41.5156 207.398 41.5156 206.989C41.5156 206.744 41.5519 206.436 41.6081 206.065C41.6162 206.003 41.6239 205.944 41.6312 205.889C41.6704 205.589 41.6985 205.374 41.7198 205.267C41.775 204.422 41.8083 203.421 41.8306 202.25V199.845C41.8306 197.834 41.9435 196.133 42.1599 194.744L42.16 194.743L42.16 194.743C42.2468 194.202 42.5545 193.804 43.0557 193.56C43.5415 193.325 44.2 193.238 45.0049 193.273L49.7857 208.206ZM49.7857 208.206L49.9047 208.176M49.7857 208.206L49.9047 208.176M49.9047 208.176C50.2722 208.083 50.5724 207.963 50.7858 207.806C51.0056 207.644 51.1506 207.428 51.1506 207.157C51.1506 207.034 51.116 206.916 51.0409 206.815C50.594 206.056 49.8556 205.23 48.8649 204.318L48.8631 204.317C48.059 203.591 47.4545 203.043 47.0498 202.675C46.8474 202.491 46.695 202.352 46.5925 202.258C46.5318 202.203 46.4909 202.165 46.4673 202.143C46.4493 202.127 46.4414 202.12 46.4424 202.121L46.4331 202.111L46.4229 202.103L46.0685 201.816L45.7187 201.533C45.5771 201.407 45.4798 201.3 45.4192 201.211C45.3572 201.119 45.3456 201.064 45.3456 201.037C45.3456 200.997 45.3651 200.905 45.6084 200.773L45.6085 200.773L45.6118 200.772C46.2832 200.395 46.8622 199.887 47.323 199.238C47.8629 198.51 48.1469 197.773 48.1469 197.01C48.1469 196.127 47.8432 195.31 47.2745 194.563L47.2745 194.563M49.9047 208.176L47.2745 194.563M47.2745 194.563L47.2728 194.561M47.2745 194.563L47.2728 194.561M47.2728 194.561C46.6421 193.752 45.8928 193.31 45.0051 193.273L47.2728 194.561ZM44.344 198.166L44.344 198.166C44.2988 197.364 44.2769 196.877 44.2769 196.695C44.2769 196.246 44.3082 195.857 44.3782 195.514C44.4182 195.44 44.5216 195.359 44.8031 195.359C45.2412 195.359 45.4886 195.463 45.6341 195.639C45.8184 195.862 45.9211 196.087 45.9603 196.348C45.9695 196.538 45.9593 196.741 45.9182 196.989C45.7953 197.633 45.2957 198.347 44.369 199.126C44.3722 198.842 44.3637 198.522 44.344 198.166Z" stroke="#EDF8E6" stroke-opacity="0.2" stroke-width="0.5"/>
<path d="M62.0917 201.274C61.698 202.264 61.4392 203.479 61.3155 204.919C61.2367 206.167 61.1805 207.427 61.113 208.676C61.0792 209.047 60.843 209.227 60.3817 209.227C60.2467 209.227 60.123 209.205 60.0105 209.16C59.3805 208.89 59.0655 208.406 59.0655 207.675C59.0655 207.472 59.0992 207.157 59.1555 206.741C59.2117 206.325 59.2455 206.021 59.2455 205.819C59.3017 205.391 59.3805 204.75 59.4705 203.895C58.458 204.851 57.3105 205.571 56.028 206.032C55.848 206.089 55.6792 206.122 55.4992 206.122C54.8242 206.122 54.1942 205.74 53.6205 204.975C53.2942 204.547 53.1367 204.019 53.1367 203.389C53.1367 202.826 53.2605 202.174 53.508 201.42C54.2842 199.035 55.533 196.695 57.243 194.411C58.098 193.275 58.8517 192.712 59.5155 192.712C60.1005 192.712 60.438 192.937 60.5055 193.376C60.5617 193.747 60.438 194.006 60.1342 194.175C59.6167 194.456 59.3467 194.614 59.313 194.636C58.0755 196.009 56.9392 197.775 55.9155 199.935C55.2855 201.274 54.9705 202.477 54.9705 203.535C54.9705 203.726 54.9817 203.917 54.993 204.109C55.0267 204.12 55.0717 204.199 55.128 204.322C55.1842 204.446 55.263 204.491 55.3755 204.446C56.343 204.064 57.8167 203.051 59.7742 201.42C59.9205 201.307 60.0892 200.959 60.2805 200.407C60.4267 199.991 60.6967 199.789 61.0792 199.789C60.9555 199.789 61.0792 199.777 61.428 199.744C61.608 199.71 61.7205 199.744 61.7767 199.834C62.058 200.25 62.193 200.587 62.193 200.846C62.1817 200.981 62.148 201.127 62.0917 201.274Z" fill="#EDF8E6" fill-opacity="0.5"/>
<path d="M62.324 201.366L62.324 201.366L62.3251 201.363C62.3891 201.197 62.4287 201.027 62.4421 200.867L62.443 200.857V200.846C62.443 200.511 62.2736 200.123 61.986 199.697C61.8485 199.482 61.6043 199.459 61.3936 199.496C61.3772 199.497 61.3613 199.499 61.3458 199.5C61.2042 199.514 61.1022 199.524 61.0469 199.531C61.0314 199.532 61.0151 199.534 61.0012 199.537C60.9963 199.538 60.9849 199.54 60.9717 199.543C60.7756 199.56 60.5946 199.624 60.4389 199.744C60.2573 199.883 60.1292 200.084 60.0446 200.325L60.0443 200.325C59.9503 200.596 59.8642 200.81 59.7865 200.967C59.7039 201.134 59.6461 201.203 59.6218 201.222L59.6217 201.222L59.6142 201.228C57.697 202.825 56.2703 203.806 55.3422 204.19C55.3171 204.136 55.2912 204.085 55.2649 204.042C55.2569 204.029 55.2476 204.015 55.2371 204C55.228 203.842 55.2205 203.688 55.2205 203.535C55.2205 202.526 55.5215 201.359 56.1415 200.042C57.1509 197.912 58.2665 196.177 59.4747 194.83C59.4839 194.825 59.4953 194.818 59.509 194.81C59.5459 194.788 59.598 194.758 59.6655 194.72C59.8004 194.644 59.996 194.535 60.2536 194.395L60.2536 194.395L60.2556 194.393C60.4434 194.289 60.5927 194.147 60.6813 193.957C60.7693 193.769 60.7861 193.559 60.7526 193.339L60.7526 193.338C60.7094 193.057 60.5739 192.826 60.3436 192.672C60.1217 192.523 59.836 192.462 59.5155 192.462C59.1112 192.462 58.7052 192.634 58.3013 192.935C57.897 193.237 57.4785 193.682 57.0432 194.261L57.0428 194.261C55.3188 196.564 54.0562 198.928 53.2703 201.342C53.0179 202.111 52.8867 202.791 52.8867 203.389C52.8867 204.061 53.0556 204.646 53.4211 205.126C54.0216 205.926 54.7172 206.372 55.4992 206.372C55.712 206.372 55.9068 206.332 56.1025 206.271L56.1026 206.271L56.1126 206.268C57.2258 205.867 58.2391 205.277 59.1518 204.513C59.0913 205.051 59.0385 205.476 58.9976 205.786L58.9955 205.802V205.819C58.9955 206.002 58.9643 206.289 58.9077 206.708C58.8517 207.122 58.8155 207.453 58.8155 207.675C58.8155 208.077 58.9023 208.43 59.0912 208.725C59.2805 209.021 59.56 209.239 59.912 209.39L59.912 209.39L59.9176 209.392C60.0628 209.45 60.2185 209.477 60.3817 209.477C60.6395 209.477 60.8765 209.428 61.0584 209.29C61.2489 209.146 61.3404 208.936 61.3619 208.699L61.3621 208.699L61.3626 208.69C61.3856 208.265 61.4072 207.84 61.4288 207.414C61.4709 206.587 61.5129 205.761 61.5648 204.937C61.6872 203.515 61.9421 202.326 62.324 201.366ZM61.2765 199.732C61.2785 199.741 61.2799 199.749 61.2809 199.758C61.1876 199.767 61.1201 199.774 61.0792 199.778V199.541C61.0866 199.543 61.0982 199.545 61.1116 199.549C61.1209 199.553 61.144 199.561 61.1699 199.578C61.1905 199.591 61.2556 199.638 61.2765 199.732Z" stroke="#EDF8E6" stroke-opacity="0.2" stroke-width="0.5"/>
<path d="M75.5724 195.75C75.0324 195.975 74.2224 196.234 73.1649 196.526C72.1074 196.819 71.2974 197.077 70.7574 197.302C70.6224 197.685 70.5324 198.54 70.4762 199.867C70.7124 199.957 70.9824 200.002 71.2974 200.002C71.5224 200.002 71.8599 199.969 72.3324 199.89C72.8049 199.811 73.1537 199.777 73.3674 199.777C73.7837 199.777 74.1324 199.867 74.4249 200.047C74.6274 200.34 74.7399 200.531 74.7399 200.621C74.7399 200.722 74.6837 200.801 74.5824 200.869C74.5487 200.88 74.4474 200.992 74.2674 201.184C74.1549 201.319 73.9974 201.375 73.8287 201.364C73.5249 201.442 72.9512 201.476 72.1299 201.499C71.4324 201.51 70.8812 201.6 70.4762 201.769C70.1949 202.86 70.0599 203.715 70.0599 204.356C70.0599 204.784 70.1162 205.121 70.2399 205.369C70.9374 205.852 72.1299 206.066 73.8399 205.987C73.9524 205.987 74.0874 205.931 74.2112 205.819C74.3349 205.706 74.4587 205.65 74.5374 205.65C74.9537 205.56 75.2237 205.875 75.3587 206.584C75.4037 206.82 75.3587 207.034 75.2349 207.236C75.1112 207.439 74.9312 207.54 74.6949 207.562C72.9174 207.619 71.3649 207.484 70.0487 207.146C69.6324 207.045 69.2612 206.82 68.9237 206.46C68.5862 206.111 68.3949 205.706 68.3499 205.267C68.2149 203.985 68.2149 202.837 68.3499 201.825C67.9337 201.544 67.7537 201.274 67.7987 201.004C67.8099 200.869 67.9224 200.745 68.1362 200.644C68.3499 200.531 68.4737 200.419 68.4962 200.306C68.5299 200.194 68.5862 199.485 68.6762 198.202C67.8549 198.045 67.4499 197.73 67.4612 197.269C67.4724 196.841 67.7312 196.504 68.2374 196.256C68.7099 196.065 69.1824 195.874 69.6549 195.682C70.2174 195.401 70.9037 195.154 71.7362 194.929C72.4449 194.737 73.1537 194.557 73.8737 194.377C73.9524 194.366 74.0312 194.355 74.1437 194.355C74.5374 194.355 75.0099 194.512 75.5387 194.816C75.5499 194.872 75.5949 194.985 75.6512 195.142C75.7074 195.3 75.7412 195.424 75.7412 195.491C75.7299 195.581 75.6737 195.671 75.5724 195.75Z" fill="#EDF8E6" fill-opacity="0.5"/>
<path d="M75.6686 195.981L75.6995 195.968L75.7259 195.947C75.8625 195.841 75.9674 195.697 75.9892 195.522L75.9912 195.507V195.491C75.9912 195.424 75.9758 195.351 75.9591 195.287C75.9412 195.219 75.9161 195.141 75.8866 195.058C75.8717 195.016 75.854 194.968 75.8389 194.927C75.8286 194.899 75.8195 194.874 75.8133 194.857C75.8038 194.83 75.7966 194.809 75.7912 194.793C75.7886 194.784 75.7867 194.778 75.7854 194.773C75.7842 194.769 75.7838 194.767 75.7838 194.767L75.7616 194.656L75.6632 194.599C75.1162 194.285 74.5993 194.105 74.1437 194.105C74.0134 194.105 73.9203 194.118 73.8403 194.13L73.8383 194.13L73.8255 194.132L73.813 194.135C73.0926 194.315 72.382 194.495 71.671 194.687L71.6709 194.687C70.8325 194.914 70.1323 195.165 69.552 195.454L68.8524 195.738L68.1436 196.024L68.1355 196.028L68.1276 196.032C67.5687 196.305 67.2257 196.711 67.2113 197.262L67.2112 197.263C67.2034 197.582 67.3459 197.849 67.6038 198.047C67.8076 198.204 68.0817 198.319 68.4116 198.4C68.3735 198.938 68.3419 199.363 68.3159 199.672C68.3012 199.847 68.2885 199.984 68.2774 200.083C68.2719 200.132 68.267 200.17 68.2627 200.199C68.2587 200.225 68.2563 200.235 68.2564 200.235C68.2564 200.235 68.2565 200.235 68.2566 200.235L68.2533 200.246L68.252 200.252C68.2498 200.256 68.2415 200.27 68.2176 200.292C68.1799 200.327 68.1178 200.37 68.024 200.42C67.7908 200.532 67.5778 200.708 67.5505 200.972C67.4919 201.352 67.7271 201.672 68.0832 201.942C67.9643 202.94 67.9713 204.058 68.1013 205.293C68.1524 205.791 68.3698 206.246 68.7426 206.632C69.108 207.022 69.5196 207.274 69.9881 207.389C71.3332 207.733 72.91 207.869 74.7028 207.812L74.7107 207.812L74.7186 207.811C75.0246 207.782 75.2791 207.643 75.4482 207.366C75.6021 207.115 75.6617 206.838 75.6043 206.537C75.5339 206.168 75.422 205.859 75.2418 205.653C75.1485 205.546 75.0347 205.464 74.8997 205.42C74.772 205.379 74.6392 205.376 74.5069 205.401C74.4252 205.407 74.3464 205.435 74.2794 205.468C74.2002 205.508 74.1196 205.564 74.043 205.634C73.9514 205.717 73.8737 205.737 73.8399 205.737V205.737L73.8284 205.738C72.1779 205.814 71.0733 205.61 70.4374 205.2C70.3553 205.005 70.3099 204.73 70.3099 204.356C70.3099 203.769 70.4294 202.978 70.6865 201.956C71.0412 201.831 71.5201 201.758 72.1339 201.749L72.1339 201.749L72.1368 201.749C72.9189 201.727 73.5102 201.695 73.8539 201.615C74.0755 201.619 74.2944 201.538 74.4542 201.35C74.4813 201.321 74.5061 201.295 74.529 201.27C74.5821 201.214 74.6245 201.168 74.6589 201.133C74.6801 201.111 74.695 201.097 74.7051 201.087L74.7211 201.077C74.8617 200.983 74.9899 200.837 74.9899 200.621C74.9899 200.553 74.97 200.49 74.9521 200.444C74.9326 200.394 74.9063 200.341 74.8766 200.288C74.8171 200.182 74.7328 200.053 74.6305 199.905L74.6006 199.862L74.5559 199.834C74.2169 199.626 73.8208 199.527 73.3674 199.527C73.1333 199.527 72.7689 199.564 72.2913 199.643C71.8235 199.721 71.5019 199.752 71.2974 199.752C71.0836 199.752 70.898 199.73 70.7344 199.688C70.7611 199.112 70.7947 198.636 70.8358 198.257C70.8733 197.912 70.9161 197.659 70.9615 197.489C71.4854 197.28 72.2461 197.04 73.2316 196.767C74.2912 196.474 75.1135 196.212 75.6686 195.981Z" stroke="#EDF8E6" stroke-opacity="0.2" stroke-width="0.5"/>
<path d="M91.6152 193.027C91.4802 193.556 91.2327 193.871 90.8614 193.961C89.9052 194.197 88.2402 194.501 85.8664 194.895C85.5739 198.562 85.4277 201.622 85.4277 204.064C85.4277 204.997 85.4389 205.909 85.4727 206.809C85.4839 207.09 85.4727 207.304 85.4277 207.45C85.3489 207.686 85.2027 207.799 84.9889 207.776C84.5614 207.765 84.2127 207.585 83.9314 207.236C83.6502 206.887 83.4927 206.505 83.4702 206.077C83.4364 205.537 83.4252 204.964 83.4252 204.356C83.4252 203.389 83.4927 201.847 83.6277 199.744C83.7627 197.73 83.8189 196.189 83.8077 195.131C83.4139 195.097 82.8627 195.142 82.1539 195.244C81.3439 195.367 80.7814 195.424 80.4777 195.424C79.7577 195.424 79.1614 195.232 78.7114 194.85C78.5314 194.467 78.4414 194.265 78.4414 194.254C78.4414 194.152 78.4977 194.04 78.5989 193.916C79.0714 193.759 80.0389 193.601 81.4902 193.466C82.7727 193.331 83.7289 193.095 84.3589 192.757C84.8764 192.937 85.4614 193.027 86.1252 193.027C86.7889 193.027 87.4189 192.949 88.0264 192.78C88.2064 192.769 88.6564 192.667 89.3764 192.465C89.9052 192.33 90.3439 192.285 90.7039 192.33C90.9739 192.33 91.0752 192.442 91.0302 192.656C91.4127 192.634 91.6152 192.769 91.6152 193.027Z" fill="#EDF8E6" fill-opacity="0.5"/>
<path d="M91.8652 193.059L91.8574 193.089C91.7117 193.66 91.4211 194.082 90.9208 194.204C89.9799 194.436 88.37 194.731 86.1002 195.109C85.8183 198.687 85.6777 201.675 85.6777 204.064C85.6777 204.995 85.6889 205.903 85.7225 206.799C85.7225 206.799 85.7225 206.799 85.7225 206.799L85.4727 206.809C85.4839 207.09 85.4727 207.304 85.4277 207.45L91.8652 193.059ZM91.8652 193.059V193.027C91.8652 192.823 91.7794 192.64 91.6013 192.526C91.5041 192.464 91.3904 192.428 91.2683 192.413C91.2492 192.351 91.2163 192.292 91.1642 192.238C91.0437 192.115 90.8732 192.082 90.7199 192.08C90.3204 192.033 89.8528 192.085 89.3146 192.223L89.3145 192.223L89.3087 192.224C88.5814 192.429 88.1589 192.521 88.0108 192.53L87.9847 192.532L87.9595 192.539C87.3761 192.701 86.7688 192.777 86.1252 192.777C85.4839 192.777 84.9274 192.69 84.441 192.521L84.3375 192.485L84.2409 192.537C83.654 192.851 82.7367 193.083 81.4655 193.217C80.0169 193.352 79.0229 193.511 78.5198 193.679L78.4512 193.702L78.4054 193.758C78.2933 193.895 78.1914 194.064 78.1914 194.254C78.1914 194.284 78.1974 194.309 78.1986 194.314C78.1986 194.314 78.1987 194.314 78.1987 194.314C78.2008 194.323 78.2031 194.33 78.2044 194.334C78.2071 194.343 78.21 194.351 78.2121 194.356C78.2165 194.368 78.2221 194.381 78.2281 194.395C78.2404 194.424 78.2582 194.465 78.281 194.515C78.3268 194.617 78.3949 194.764 78.4852 194.956L78.5083 195.005L78.5495 195.04C79.0547 195.47 79.713 195.674 80.4777 195.674C80.8018 195.674 81.3802 195.615 82.1905 195.491C82.7612 195.409 83.2145 195.367 83.559 195.37L91.8652 193.059ZM83.7368 207.393C84.0588 207.792 84.4714 208.01 84.9731 208.026L83.2205 206.091C83.2205 206.091 83.2205 206.091 83.2206 206.092C83.2464 206.577 83.4264 207.008 83.7368 207.393Z" stroke="#EDF8E6" stroke-opacity="0.2" stroke-width="0.5"/>
<path d="M97.8019 193.432C97.8019 193.725 97.5881 193.984 97.1606 194.209C97.0481 194.265 96.9131 194.276 96.7894 194.231C96.5869 194.175 96.4744 194.141 96.4631 194.141C96.3731 194.141 96.2831 194.186 96.1931 194.276C95.3944 195.075 95.0006 196.042 95.0006 197.19C95.0006 197.617 95.0681 198.011 95.2031 198.382C95.2594 198.54 95.8219 199.687 96.8794 201.802C97.5881 203.22 97.9369 204.412 97.9369 205.402C97.9369 206.212 97.7344 206.989 97.3406 207.742C97.2056 207.99 96.8794 208.316 96.3506 208.71C95.9231 209.014 95.5406 209.171 95.2031 209.171C95.0681 209.171 94.9444 209.149 94.8319 209.104C94.3931 208.912 94.1681 208.665 94.1681 208.372C94.1681 208.192 94.2806 207.979 94.4944 207.731C94.5506 207.652 94.6969 207.607 94.9106 207.596C95.1244 207.585 95.2819 207.495 95.3494 207.326C95.6644 206.674 95.8106 206.01 95.8106 205.335C95.8106 204.379 95.3381 202.995 94.3819 201.172C93.4369 199.35 92.9531 197.899 92.9531 196.807C92.9531 195.907 93.1331 195.109 93.4819 194.4C93.8756 193.59 94.4494 193.005 95.1806 192.656C95.5181 192.499 95.8556 192.409 96.1706 192.409C96.7894 192.409 97.2506 192.577 97.5656 192.915C97.7231 193.106 97.8019 193.264 97.8019 193.432Z" fill="#EDF8E6" fill-opacity="0.5"/>
<path d="M97.2724 194.432L97.2725 194.432L97.2771 194.43C97.73 194.192 98.0519 193.868 98.0519 193.432C98.0519 193.177 97.9296 192.964 97.7586 192.756L97.7537 192.75L97.7484 192.744C97.372 192.341 96.8349 192.159 96.1706 192.159C95.8094 192.159 95.4354 192.261 95.0749 192.43L95.0749 192.43L95.073 192.43C94.2858 192.806 93.6733 193.435 93.2573 194.29C92.8902 195.036 92.7031 195.873 92.7031 196.807C92.7031 197.961 93.2109 199.457 94.1599 201.287L94.1605 201.289C95.1146 203.107 95.5606 204.444 95.5606 205.335C95.5606 205.972 95.4229 206.599 95.1242 207.217L95.1205 207.225L95.1173 207.233C95.0967 207.285 95.0467 207.339 94.8975 207.346C94.7784 207.353 94.6652 207.369 94.5672 207.4C94.4772 207.429 94.3721 207.48 94.2993 207.575C94.081 207.829 93.9181 208.1 93.9181 208.372C93.9181 208.819 94.2662 209.13 94.732 209.333L94.7319 209.333L94.739 209.336C94.8842 209.394 95.04 209.421 95.2031 209.421C95.6158 209.421 96.0497 209.23 96.4954 208.914L96.4955 208.914L96.4999 208.91C97.0321 208.514 97.3973 208.161 97.5601 207.862L97.5601 207.862L97.5622 207.858C97.973 207.072 98.1869 206.256 98.1869 205.402C98.1869 204.357 97.82 203.125 97.103 201.691C96.5743 200.633 96.1697 199.818 95.8903 199.248C95.6058 198.668 95.4605 198.36 95.4386 198.298L95.4386 198.298L95.4381 198.297C95.3137 197.955 95.2506 197.59 95.2506 197.19C95.2506 196.107 95.6192 195.204 96.3699 194.453C96.4074 194.415 96.4333 194.401 96.4481 194.395C96.4587 194.398 96.4715 194.401 96.4867 194.406C96.5004 194.41 96.5158 194.414 96.5328 194.419C96.5809 194.432 96.6418 194.45 96.7141 194.47C96.9025 194.535 97.1045 194.516 97.2724 194.432Z" stroke="#EDF8E6" stroke-opacity="0.2" stroke-width="0.5"/>
</g>
<defs>
<filter id="filter0_b_268_332" x="-19.9766" y="-19.3638" width="275.391" height="346.256" filterUnits="userSpaceOnUse" color-interpolation-filters="sRGB">
<feFlood flood-opacity="0" result="BackgroundImageFix"/>
<feGaussianBlur in="BackgroundImageFix" stdDeviation="10"/>
<feComposite in2="SourceAlpha" operator="in" result="effect1_backgroundBlur_268_332"/>
<feBlend mode="normal" in="SourceGraphic" in2="effect1_backgroundBlur_268_332" result="shape"/>
</filter>
<clipPath id="clip0_268_332">
<rect width="84.375" height="18" fill="white" transform="translate(14 191.599)"/>
</clipPath>
</defs>
</svg>
