<svg width="629" height="579" viewBox="0 0 629 579" fill="none" xmlns="http://www.w3.org/2000/svg">
<g clip-path="url(#clip0_231_760)">
<path d="M175.122 189.501L175.122 189.501C165.744 200.352 150.154 203.227 137.779 196.076L69.6875 156.727C54.2958 147.828 50.1318 127.383 60.9333 113.251C106.099 54.2755 173.326 13.1076 250.299 2.16899L250.299 2.16896C268.077 -0.361739 284 13.4385 284 31.4314L284 110.292C284 124.202 274.333 136.372 260.741 139.156C250.523 141.235 240.675 144.342 231.321 148.354L231.318 148.355C230.556 148.686 229.813 149.025 229.064 149.431C226.519 150.736 219.956 154.14 213.706 157.616C210.578 159.355 207.518 161.118 205.076 162.648C203.855 163.412 202.778 164.125 201.92 164.752C201.142 165.32 200.479 165.865 200.063 166.345C190.933 173.137 182.558 180.91 175.122 189.501Z" fill="url(#paint0_linear_231_760)" stroke="url(#paint1_linear_231_760)" stroke-width="2"/>
<g filter="url(#filter0_b_231_760)">
<path d="M139.634 307.615C140.819 318.101 143.065 328.26 146.251 337.99C150.234 350.112 145.434 363.378 134.385 369.755L59.35 413.11C45.2987 421.225 27.3875 414.971 21.2809 399.926C7.55647 366.096 -0.000160245 329.098 -0.000163633 290.342C-0.000167021 251.586 7.55646 214.588 21.2809 180.759C27.3875 165.714 45.2987 159.459 59.3499 167.574L134.385 210.929C145.434 217.307 150.234 230.573 146.251 242.695C143.208 251.975 141.023 261.643 139.797 271.598C139.675 272.559 139.491 273.52 139.266 274.46C136.101 288.278 139.634 307.615 139.634 307.615Z" fill="#EDF8E6" fill-opacity="0.1"/>
</g>
<g filter="url(#filter1_b_231_760)">
<path d="M285 548.654L285 468.525C285 454.442 275.238 442.054 261.452 439.295C251.261 437.251 241.437 434.185 232.104 430.219C231.103 429.79 230.163 429.32 229.204 428.809C223.771 425.804 204.41 415.072 200.733 412.231C191.482 405.363 183.006 397.473 175.511 388.745C166.096 377.768 150.288 374.865 137.768 382.101L68.5538 422.104C52.9913 431.098 48.8045 451.764 59.7105 466.073C105.152 525.78 173.121 567.378 250.914 578.232C268.906 580.746 285 566.826 285 548.654Z" fill="#EDF8E6" fill-opacity="0.1"/>
</g>
</g>
<g opacity="0.5">
<path fill-rule="evenodd" clip-rule="evenodd" d="M138.441 490.08V494.509H142.295V490.08H138.441ZM200.077 492.794V491.036C200.077 491.031 200.077 491.025 200.077 491.02C200.063 490.079 199.782 489.179 199.276 488.434H195.029C194.551 488.434 194.129 488.617 193.805 488.983C192.666 490.277 194.03 492.794 195.915 492.794H200.077ZM165.821 479.195H157.763V486.353H178.534L170.898 480.841C169.351 479.73 167.72 479.195 165.821 479.195ZM155.021 479.195H149.284C147.259 479.195 146.373 480.18 145.318 481.895L142.632 486.297L155.021 486.353V479.195Z" fill="#EDF8E6" fill-opacity="0.2"/>
<path fill-rule="evenodd" clip-rule="evenodd" d="M172.162 456.822L171 461L172.162 465.316H169.97C168.212 465.316 166.777 463.881 166.777 462.123V460C166.777 458.242 168.212 456.808 169.97 456.808H172.162V456.822Z" fill="#EDF8E6" fill-opacity="0.2"/>
<path fill-rule="evenodd" clip-rule="evenodd" d="M178.955 454.375L183.273 454.389L180.32 458.453L184.777 459.438L175.932 467.777L179.462 461.378L175.145 460.886L178.955 454.375Z" fill="#EDF8E6" fill-opacity="0.2"/>
<path fill-rule="evenodd" clip-rule="evenodd" d="M192.16 450.958V471.194C192.16 472.122 191.401 472.867 190.487 472.867H189.432C188.518 472.867 187.759 472.108 187.759 471.194V450.958C187.759 450.044 188.518 449.284 189.432 449.284H190.487C191.401 449.284 192.16 450.03 192.16 450.958ZM138.441 494.509H142.295V496.998H138.441V494.509Z" fill="#EDF8E6" fill-opacity="0.2"/>
<path fill-rule="evenodd" clip-rule="evenodd" d="M138.836 498.658H144.236C145.178 495.227 148.328 492.695 152.055 492.695C155.781 492.695 158.931 495.213 159.873 498.658H179.969C180.911 495.227 184.061 492.695 187.788 492.695C191.528 492.695 194.664 495.213 195.606 498.658H199.15C199.966 498.658 200.627 499.319 200.627 500.134V501.288C200.627 502.103 199.966 502.764 199.15 502.764H193.5V499L191.5 496L188 495L185.5 495.5L183 497L182 499.5V502.764H169H161.459L157.5 502.5V499L155.5 496L152.055 494.5L148 496.5L146.377 499V502.764H138.836C138.02 502.764 137.359 502.103 137.359 501.288V500.134C137.359 499.319 138.02 498.658 138.836 498.658Z" fill="#EDF8E6" fill-opacity="0.2"/>
<path fill-rule="evenodd" clip-rule="evenodd" d="M152.053 494.889C155.316 494.889 157.973 497.547 157.973 500.809C157.973 504.072 155.316 506.73 152.053 506.73C148.791 506.73 146.133 504.086 146.133 500.809C146.133 497.533 148.791 494.889 152.053 494.889Z" fill="#EDF8E6" fill-opacity="0.2"/>
<path fill-rule="evenodd" clip-rule="evenodd" d="M152.055 498.672C153.237 498.672 154.193 499.628 154.193 500.809C154.193 501.991 153.237 502.947 152.055 502.947C150.874 502.947 149.918 501.991 149.918 500.809C149.918 499.628 150.874 498.672 152.055 498.672Z" fill="#EDF8E6" fill-opacity="0.2"/>
<path fill-rule="evenodd" clip-rule="evenodd" d="M187.83 494.889C191.093 494.889 193.751 497.547 193.751 500.809C193.751 504.072 191.107 506.73 187.83 506.73C184.554 506.73 181.91 504.086 181.91 500.809C181.91 497.533 184.554 494.889 187.83 494.889Z" fill="#EDF8E6" fill-opacity="0.2"/>
<path fill-rule="evenodd" clip-rule="evenodd" d="M187.829 498.672C189.01 498.672 189.966 499.628 189.966 500.809C189.966 501.991 189.01 502.947 187.829 502.947C186.648 502.947 185.691 501.991 185.691 500.809C185.691 499.628 186.648 498.672 187.829 498.672Z" fill="#EDF8E6" fill-opacity="0.2"/>
<path d="M165.231 460.914C165.977 460.914 165.977 462.039 165.231 462.039H147.709C146.711 462.039 145.881 462.855 145.881 463.853V467.228C145.881 468.227 146.697 469.042 147.709 469.042H153.939C155.556 469.042 156.878 470.364 156.878 471.981V474.766C156.878 475.511 155.753 475.511 155.753 474.766V471.981C155.753 470.983 154.938 470.153 153.925 470.153H147.695C146.078 470.153 144.756 468.831 144.756 467.214V463.839C144.756 462.222 146.078 460.9 147.695 460.9H165.231V460.914ZM187.83 498.109C190.22 498.109 191.43 501.02 189.728 502.708C188.041 504.395 185.13 503.2 185.13 500.809C185.13 499.319 186.339 498.109 187.83 498.109ZM188.941 499.698C187.956 498.714 186.255 499.417 186.255 500.809C186.255 502.202 187.942 502.905 188.941 501.92C189.545 501.302 189.545 500.317 188.941 499.698ZM187.83 494.327C191.978 494.327 195.044 498.18 194.158 502.216H199.164C199.67 502.216 200.078 501.808 200.078 501.302V500.148C200.078 499.642 199.656 499.234 199.164 499.234H195.62C195.367 499.234 195.142 499.066 195.072 498.827C193.68 493.694 187.478 491.584 183.231 494.819C181.938 495.803 180.981 497.181 180.531 498.77C180.489 499.038 180.25 499.234 179.983 499.234H159.873C159.62 499.234 159.395 499.066 159.325 498.827C157.933 493.694 151.731 491.584 147.484 494.819C146.191 495.803 145.234 497.181 144.784 498.77C144.742 499.038 144.503 499.234 144.236 499.234H138.836C138.344 499.234 137.922 499.642 137.922 500.148V501.302C137.922 501.808 138.33 502.216 138.836 502.216H145.727C144.827 498.18 147.892 494.327 152.055 494.327C156.217 494.327 159.269 498.18 158.383 502.216H181.502C180.602 498.18 183.667 494.327 187.83 494.327ZM193.792 503.341C192.006 507.545 186.508 508.642 183.245 505.394C182.669 504.803 182.191 504.114 181.867 503.341H158.017C156.231 507.545 150.733 508.642 147.47 505.394C146.894 504.803 146.416 504.114 146.092 503.341H138.836C137.711 503.341 136.797 502.427 136.797 501.302V500.148C136.797 499.389 137.219 498.7 137.88 498.348V488.448C137.88 486.916 138.245 485.58 139.033 484.272L141.536 480.109C143.041 477.592 145.572 476.158 148.497 476.158H167.706C169.619 476.158 171.264 476.678 172.839 477.775L184.3 485.791H195.381C198.264 485.791 200.627 488.153 200.627 491.022V498.714C200.978 499.08 201.203 499.586 201.203 500.134V501.288C201.203 502.413 200.289 503.327 199.164 503.327H193.792V503.341ZM191.612 497.027C189.517 494.931 186.128 494.931 184.033 497.027C183.062 497.997 182.472 499.333 182.472 500.809C182.472 503.748 184.834 506.167 187.83 506.167C190.136 506.167 192.133 504.705 192.878 502.595C193.567 500.627 193.061 498.461 191.612 497.027ZM152.055 498.109C154.445 498.109 155.655 501.02 153.953 502.708C152.266 504.395 149.355 503.2 149.355 500.809C149.369 499.319 150.564 498.109 152.055 498.109ZM153.166 499.698C152.181 498.714 150.494 499.417 150.494 500.809C150.494 502.202 152.181 502.905 153.166 501.92C153.784 501.302 153.784 500.317 153.166 499.698ZM155.837 497.027C153.742 494.931 150.353 494.931 148.272 497.027C147.302 497.997 146.711 499.333 146.711 500.809C146.711 503.748 149.073 506.167 152.069 506.167C153.545 506.167 154.881 505.563 155.852 504.606C157.919 502.511 157.947 499.122 155.837 497.027ZM139.005 498.095H143.828C145.684 492.456 152.575 490.291 157.314 493.905C158.692 494.959 159.747 496.408 160.295 498.095H179.561C181.417 492.456 188.308 490.291 193.047 493.905C194.425 494.959 195.48 496.408 196.028 498.095C196.577 498.095 199.164 498.067 199.516 498.123V493.356H195.916C193.567 493.356 191.922 490.291 193.384 488.617C193.806 488.139 194.383 487.872 195.03 487.872H198.025C197.308 487.267 196.394 486.916 195.395 486.916H184.131C184.019 486.916 183.906 486.873 183.808 486.817L172.192 478.703C170.814 477.747 169.38 477.297 167.706 477.297H148.497C145.952 477.297 143.8 478.52 142.492 480.7L140.003 484.863C138.977 486.578 139.005 487.703 139.005 489.531H142.281C142.591 489.531 142.844 489.784 142.844 490.094V497.027C142.844 497.336 142.591 497.589 142.281 497.589H139.005V498.095ZM139.005 496.436H141.719V495.072H139.005V496.436ZM139.005 493.947H141.719V490.642H139.005V493.947ZM192.723 450.958V452.955H198.081C200.331 452.955 201.498 455.697 199.881 457.314C199.417 457.778 198.77 458.059 198.081 458.059H192.723V464.092H198.081C200.331 464.092 201.498 466.834 199.881 468.452C199.417 468.916 198.77 469.211 198.081 469.211H192.723V471.208C192.723 472.445 191.725 473.444 190.487 473.444C189.475 473.444 188.631 473.57 187.844 472.783C187.436 472.375 187.197 471.813 187.197 471.194V470.716H177.409C174.484 470.716 172.53 468.663 171.517 465.892H169.984C167.917 465.892 166.23 464.205 166.23 462.138V460.014C166.23 457.947 167.917 456.259 169.984 456.259H171.517C172.53 453.489 174.484 451.436 177.409 451.436H187.197V450.958C187.197 449.72 188.195 448.722 189.433 448.722C190.445 448.722 191.289 448.595 192.077 449.383C192.47 449.777 192.723 450.339 192.723 450.958ZM192.723 454.08V456.934H198.081C199.333 456.934 199.994 455.402 199.094 454.502C198.841 454.248 198.475 454.08 198.081 454.08H192.723ZM192.723 465.217V468.072H198.081C199.333 468.072 199.994 466.539 199.094 465.639C198.841 465.386 198.475 465.217 198.081 465.217H192.723ZM187.183 469.591V452.561H177.395C169.97 452.561 169.97 469.591 177.395 469.591H187.183ZM191.598 471.194V450.958C191.598 450.353 191.092 449.847 190.487 449.847H189.433C188.828 449.847 188.322 450.353 188.322 450.958V471.194C188.322 471.813 188.828 472.305 189.433 472.305H190.487C191.092 472.319 191.598 471.813 191.598 471.194ZM182.177 454.952L179.28 454.938L176.073 460.436L179.533 460.83C179.941 460.872 180.152 461.322 179.955 461.673L178.155 464.922L183.611 459.775L180.194 459.016C179.8 458.931 179.631 458.467 179.856 458.144L182.177 454.952ZM178.956 453.813L183.245 453.827C183.766 453.813 184.005 454.361 183.737 454.713L181.291 458.088L184.877 458.889C185.369 458.988 185.495 459.55 185.172 459.845L176.341 468.17C175.863 468.634 175.145 468.058 175.455 467.509L178.591 461.842L175.131 461.448C174.681 461.406 174.484 460.942 174.681 460.605L178.464 454.094C178.562 453.925 178.745 453.813 178.956 453.813ZM171.152 464.767C170.547 462.419 170.547 459.747 171.152 457.398C169.984 457.398 169.028 457.258 168.114 458.172C167.636 458.65 167.341 459.311 167.341 460.028V462.152C167.341 463.6 168.522 464.781 169.97 464.781H171.152V464.767ZM149.284 478.647H155.022C155.331 478.647 155.584 478.9 155.584 479.209V486.367C155.584 486.691 155.331 486.944 154.966 486.93L142.633 486.859C142.197 486.859 141.93 486.381 142.155 486.002L144.841 481.6C145.952 479.786 146.992 478.647 149.284 478.647ZM154.445 479.772H149.27C147.442 479.772 146.725 480.672 145.783 482.205L143.617 485.748L154.445 485.791V479.772ZM157.764 478.647H165.822C167.833 478.647 169.591 479.223 171.222 480.391L178.858 485.903C179.294 486.227 179.069 486.916 178.52 486.916H157.764C157.455 486.916 157.202 486.663 157.202 486.353V479.195C157.202 478.886 157.455 478.647 157.764 478.647ZM165.836 479.772H158.341V485.805H176.819L170.589 481.305C169.127 480.25 167.622 479.772 165.836 479.772ZM198.967 488.997H195.03C193.806 488.997 193.525 490.684 194.734 491.753C195.058 492.048 195.466 492.231 195.916 492.231H199.516C199.502 491.008 199.6 490.122 198.967 488.997Z" fill="#EDF8E6"/>
</g>
<path fill-rule="evenodd" clip-rule="evenodd" d="M173.871 110.448V110.411L173.882 110.364C174.004 109.839 175.045 109.506 175.477 109.386C176.301 109.158 177.19 109.041 178.04 108.959C178.854 108.881 179.67 108.837 180.486 108.798C180.81 108.782 181.134 108.768 181.458 108.744C181.629 108.731 181.813 108.717 181.981 108.681C182.805 108.506 183.722 108.054 183.949 107.169C184.158 106.359 183.68 105.628 183.089 105.115C182.479 104.586 181.797 104.114 181.137 103.649C180.631 103.292 180.121 102.934 179.636 102.549C179.289 102.272 178.773 101.848 178.565 101.453C178.429 101.195 178.245 100.8 178.245 100.499V100.296L178.403 100.17C178.577 100.031 178.87 99.9321 179.078 99.8677C179.316 99.7942 179.559 99.7341 179.799 99.6723C180.67 99.4487 181.526 99.2104 182.29 98.7194L182.793 98.3961L182.929 98.9787C182.941 99.0299 182.961 99.0809 182.984 99.1283C184.269 101.422 186.678 103.537 189.313 104.034C189.742 104.115 190.18 104.149 190.617 104.149C192.292 104.149 194.003 103.668 195.578 103.138L195.963 103.008L196.107 103.388C196.461 104.323 196.75 105.282 196.971 106.257L197.086 106.767L196.564 106.772C195.108 106.787 193.193 106.944 192.09 108.022C191.088 109.003 191.083 110.395 191.059 111.701C191.042 112.659 191.023 113.622 190.703 114.537C190.304 115.678 189.52 116.484 188.503 117.111C186.757 118.188 187.339 119.872 187.886 121.453C188.415 122.982 188.894 124.465 188.278 126.062C187.978 126.84 187.862 127.491 188.303 128.251L188.497 128.587L188.179 128.809C184.541 131.342 180.254 132.687 175.822 132.687C173.696 132.687 171.578 132.376 169.545 131.757L169.235 131.663L169.246 131.339C169.267 130.702 169.204 129.977 168.854 129.425C168.607 129.035 168.257 128.79 167.854 128.584C167.838 128.577 167.822 128.569 167.806 128.562L167.546 128.449L167.552 128.166C167.576 127.112 167.365 125.98 166.499 125.287C165.082 124.152 162.699 124.822 161.122 125.246C160.758 125.343 160.38 125.452 160.01 125.521L159.777 125.563L159.619 125.386C156.088 121.414 154.152 116.331 154.152 111.015C154.152 108.403 154.62 105.819 155.543 103.376L155.686 102.996L156.072 103.125C157.325 103.547 158.614 103.924 159.931 104.08L160.253 104.118L160.299 104.439C160.54 106.141 161.092 108.039 162.386 109.251C163.108 109.927 163.844 110.222 164.779 110.468C164.899 110.499 165.034 110.532 165.149 110.576C165.997 110.906 166.751 111.96 167.23 112.7C167.861 113.676 168.399 114.724 168.931 115.756C169.248 116.372 169.565 116.992 169.911 117.593C170.172 118.046 170.464 118.522 170.807 118.919C171.288 119.474 171.766 119.983 172.367 120.415C173.134 120.966 173.993 121.311 174.948 121.311C175.762 121.311 176.538 121.061 177.252 120.683C178.117 120.224 178.747 119.522 178.863 118.527C179.018 117.208 178.175 115.755 177.411 114.728C176.769 113.865 175.98 113.018 175.172 112.304C174.766 111.945 173.845 111.077 173.871 110.448ZM183.663 97.2511C184.554 95.6089 184.288 93.3706 183.893 91.6265L183.709 90.8125L184.474 91.1469C187.444 92.4472 190.086 94.3944 192.207 96.8463L193.477 98.3141L191.712 97.5058C191.519 97.4162 191.322 97.3372 191.12 97.2691C188.984 96.5597 186.243 96.9377 184.204 97.8384L183.073 98.3381L183.663 97.2511ZM165.754 77.4805C166.734 77.3808 167.743 77.3847 168.718 77.5204C169.957 77.6928 171.17 78.0849 172.209 78.7953C173.287 79.5328 174.062 80.5464 174.581 81.7416L175.089 82.9134L170.324 80.1626C170.195 80.0885 170.041 80.0686 169.897 80.1073C169.754 80.1461 169.631 80.2403 169.557 80.3694C169.402 80.6368 169.491 80.9828 169.759 81.1377L174.657 83.9637L172.666 83.7476C169.235 83.3752 166.725 81.1635 165.408 78.0651L165.185 77.5384L165.754 77.4805ZM186.241 78.0699C184.897 81.2005 182.359 83.4146 178.88 83.7566L176.937 83.9477L181.804 81.1379C182.075 80.9816 182.17 80.6408 182.014 80.3691C181.939 80.2402 181.816 80.1462 181.673 80.1077C181.529 80.0693 181.376 80.0895 181.247 80.164L176.577 82.857L177.096 81.6779C177.61 80.5108 178.373 79.5232 179.428 78.8008C181.273 77.5363 183.716 77.2648 185.895 77.4837L186.468 77.5413L186.241 78.0699ZM175.782 71.0404C175.472 71.0404 175.218 71.293 175.218 71.6032V75.8023L174.413 74.0684C174.089 73.3703 173.811 72.5893 173.753 71.8173C173.626 70.1167 174.409 68.2786 175.444 66.962L175.779 66.5351L176.11 66.9657C176.658 67.6787 177.102 68.501 177.404 69.3476C177.681 70.1271 177.86 70.9963 177.811 71.8265C177.764 72.626 177.49 73.4029 177.14 74.1173L176.339 75.7526V71.6032C176.339 71.2938 176.093 71.0404 175.782 71.0404Z" fill="#3A552A"/>
<path fill-rule="evenodd" clip-rule="evenodd" d="M203.805 104.641C203.071 105.271 202.045 105.723 201.02 106.054L203.269 103.799C203.653 103.415 203.653 102.793 203.269 102.407C203.178 102.316 203.07 102.243 202.951 102.194C202.831 102.145 202.704 102.119 202.575 102.119C202.445 102.119 202.318 102.145 202.198 102.194C202.079 102.243 201.971 102.316 201.88 102.407L199.617 104.67C199.934 103.619 200.364 102.63 201.026 101.885C202.151 100.615 204.235 99.6633 206.247 99.437C206.035 101.51 205.116 103.515 203.805 104.641ZM189.559 127.216C189.552 127.056 189.618 126.883 189.717 126.621C190.558 124.45 189.889 122.508 189.347 120.947C188.731 119.168 188.731 118.791 189.32 118.428C192.523 116.454 192.569 113.723 192.602 111.728C192.629 110.441 192.669 109.627 193.178 109.129C193.741 108.577 194.991 108.305 196.904 108.318C197.016 109.2 197.076 110.1 197.076 111.015C197.076 117.5 194.151 123.315 189.559 127.216ZM169.667 131.353C171.613 131.946 173.684 132.265 175.821 132.265C180.321 132.265 184.497 130.859 187.937 128.463C187.368 127.482 187.6 126.641 187.884 125.91C188.46 124.412 187.971 122.977 187.487 121.591C186.938 119.995 186.25 118.008 188.282 116.752C190.571 115.343 190.604 113.57 190.637 111.694C190.664 110.275 190.69 108.81 191.795 107.721C192.735 106.809 194.224 106.374 196.56 106.351C196.343 105.395 196.06 104.455 195.713 103.538C194.33 104.004 192.444 104.571 190.618 104.571C190.148 104.571 189.685 104.534 189.235 104.449C186.68 103.967 184.08 101.956 182.611 99.3248C182.571 99.2452 182.539 99.1613 182.518 99.0746C181.658 99.6271 180.692 99.8773 179.904 100.081C179.646 100.146 179.408 100.207 179.203 100.271C178.846 100.381 178.713 100.462 178.667 100.499C178.667 100.571 178.693 100.794 178.938 101.257C179.21 101.773 180.414 102.623 181.38 103.304C182.075 103.793 182.789 104.297 183.365 104.796C184.523 105.801 184.483 106.781 184.358 107.274C184.126 108.17 183.292 108.833 182.068 109.094C181.777 109.156 181.334 109.18 180.507 109.219C179.13 109.287 177.052 109.388 175.59 109.793C174.598 110.068 174.313 110.374 174.293 110.459C174.293 110.464 174.234 110.915 175.451 111.988C176.146 112.604 179.613 115.813 179.282 118.577C179.203 119.309 178.813 120.334 177.45 121.055C176.536 121.54 175.703 121.733 174.948 121.733C172.679 121.733 171.163 119.978 170.488 119.195C169.853 118.463 169.251 117.298 168.556 115.95C167.577 114.051 166.24 111.453 164.996 110.97C164.936 110.946 164.797 110.909 164.672 110.876C163.441 110.553 160.635 109.814 159.881 104.499C158.438 104.328 157.029 103.893 155.937 103.525C155.057 105.855 154.574 108.38 154.574 111.015C154.574 116.416 156.599 121.354 159.934 125.106C160.218 125.053 160.668 124.932 161.013 124.838C162.786 124.363 165.208 123.711 166.763 124.957C167.603 125.629 168.007 126.71 167.974 128.175C167.994 128.184 168.013 128.194 168.033 128.202C168.926 128.656 169.734 129.355 169.667 131.353ZM167.14 129.958C167.404 130.09 167.603 130.193 167.676 130.639C165.423 129.698 163.348 128.378 161.542 126.735C162.825 126.389 164.758 125.873 165.532 126.494C165.882 126.774 166.041 127.365 166.002 128.249C165.955 129.358 166.756 129.763 167.14 129.958ZM145.442 99.437C147.454 99.6633 149.538 100.617 150.663 101.885C151.325 102.63 151.755 103.619 152.072 104.67L149.809 102.407C149.718 102.316 149.61 102.243 149.491 102.194C149.371 102.145 149.244 102.119 149.115 102.119C148.985 102.119 148.858 102.145 148.738 102.194C148.619 102.243 148.511 102.316 148.42 102.407C148.036 102.793 148.036 103.415 148.42 103.799L150.67 106.054C149.644 105.723 148.618 105.271 147.884 104.641C146.574 103.515 145.654 101.51 145.442 99.437ZM154.647 91.8365C154.111 90.1934 154.362 87.9998 155.255 86.1187C156.863 87.3587 158.147 89.2532 158.452 90.9222C158.63 91.9027 158.485 92.9695 158.213 94.0328L157.452 90.9267C157.32 90.3979 156.791 90.0743 156.261 90.2034C155.732 90.3331 155.408 90.8658 155.54 91.3931L156.294 94.49C155.586 93.6715 154.944 92.7556 154.647 91.8365ZM162.739 100.312C162.706 100.187 162.649 100.069 162.57 99.9667C162.492 99.864 162.394 99.7778 162.282 99.7131C162.17 99.6484 162.046 99.6065 161.918 99.5897C161.79 99.573 161.66 99.5818 161.535 99.6156L158.445 100.444C159.245 99.6929 160.112 99.0518 161.059 98.7368C162.673 98.2022 164.949 98.4172 166.809 99.2272C165.591 100.918 163.785 102.194 162.091 102.514C161.138 102.694 160.026 102.571 158.968 102.342L162.045 101.517C162.574 101.377 162.885 100.838 162.739 100.312ZM175.821 89.7647C177.992 89.7647 180.083 90.0922 182.055 90.6984C182.855 93.4254 182.935 95.39 182.293 96.54C181.711 97.5822 180.539 97.8832 179.408 98.1745C179.137 98.2446 178.872 98.3121 178.621 98.3895C177.965 98.592 177.178 98.9268 176.84 99.7354C176.477 100.615 176.867 101.548 177.198 102.172C177.687 103.107 178.931 103.985 180.248 104.913C180.903 105.373 181.578 105.85 182.075 106.284C182.399 106.561 182.452 106.75 182.452 106.783C182.432 106.846 182.207 107.052 181.658 107.169C181.512 107.2 180.923 107.227 180.414 107.253C178.951 107.325 176.734 107.433 175.06 107.896C174.485 108.056 172.718 108.546 172.38 110.018C172.136 111.073 172.711 112.2 174.147 113.465C175.517 114.671 177.496 116.966 177.33 118.344C177.304 118.594 177.185 118.967 176.529 119.315C174.412 120.436 173.122 119.234 171.977 117.909C171.5 117.354 170.918 116.233 170.309 115.046C169.059 112.629 167.643 109.888 165.71 109.136C165.545 109.069 165.36 109.022 165.168 108.972C164.142 108.702 162.475 108.263 161.879 104.531C162.072 104.512 162.264 104.484 162.455 104.449C165.009 103.966 167.61 101.955 169.079 99.3244C169.203 99.1006 169.235 98.8373 169.168 98.5903C169.101 98.3433 168.941 98.1319 168.721 98.0009C166.266 96.53 162.859 96.0647 160.437 96.8688C160.196 96.951 159.959 97.046 159.729 97.1533C163.633 92.6319 169.396 89.7647 175.821 89.7647ZM165.796 77.9001C167.259 77.7512 169.912 77.736 171.97 79.1436C172.943 79.8086 173.684 80.735 174.194 81.9095L170.534 79.7973C170.423 79.7328 170.299 79.691 170.171 79.6742C170.043 79.6575 169.913 79.6661 169.788 79.6997C169.663 79.7332 169.546 79.791 169.444 79.8698C169.342 79.9485 169.256 80.0466 169.191 80.1586C168.92 80.6284 169.079 81.2318 169.549 81.5032L172.711 83.3283C168.45 82.8656 166.524 79.6134 165.796 77.9001ZM174.174 71.7859C174.068 70.3375 174.69 68.6037 175.775 67.2228C176.821 68.5839 177.469 70.3784 177.39 71.8018C177.343 72.5118 177.105 73.2291 176.761 73.9319V71.6032C176.761 71.06 176.324 70.6186 175.782 70.6186C175.239 70.6186 174.796 71.06 174.796 71.6032V73.8908C174.472 73.192 174.227 72.4649 174.174 71.7859ZM179.666 79.1488C181.717 77.7439 184.377 77.7552 185.853 77.9034C185.112 79.6298 183.16 82.9119 178.839 83.3367L182.015 81.5031C182.492 81.2318 182.65 80.6297 182.379 80.1584C182.108 79.6872 181.506 79.5258 181.036 79.7984L177.482 81.8478C177.985 80.7059 178.713 79.8027 179.666 79.1488ZM191.888 97.1223C191.681 97.0262 191.469 96.9416 191.253 96.8689C189.168 96.1761 186.349 96.4296 184.033 97.4525C184.794 96.051 184.887 94.1049 184.305 91.5335C187.217 92.8083 189.808 94.7178 191.888 97.1223ZM193.238 90.922C193.542 89.2531 194.826 87.3587 196.434 86.1186C197.327 87.9998 197.579 90.1934 197.043 91.8364C196.745 92.7541 196.103 93.6712 195.395 94.4886L196.149 91.3931C196.282 90.8658 195.957 90.3331 195.428 90.2034C194.899 90.0743 194.369 90.3979 194.237 90.9267L193.476 94.0328C193.205 92.9694 193.059 91.9033 193.238 90.922ZM189.645 101.517L192.722 102.342C191.663 102.572 190.551 102.694 189.605 102.514C187.904 102.194 186.105 100.918 184.88 99.2272C186.74 98.4172 189.016 98.2022 190.631 98.7368C191.577 99.0518 192.444 99.6929 193.245 100.444L190.154 99.6156C189.632 99.4747 189.089 99.787 188.95 100.312C188.804 100.838 189.115 101.377 189.645 101.517ZM207.293 97.4161C204.427 97.3711 201.245 98.672 199.55 100.578C198.756 101.472 198.24 102.573 197.863 103.701C197.161 101.598 196.161 99.6059 194.892 97.7873C196.248 96.5459 198.2 94.6462 198.915 92.4467C199.722 89.9718 199.206 86.7262 197.605 84.1767C197.327 83.7267 196.738 83.5818 196.275 83.8504C193.807 85.299 191.762 88.0609 191.299 90.5682C191.1 91.6468 191.193 92.7532 191.411 93.8219C187.507 90.2771 182.392 88.0424 176.761 87.8174V85.3029C177.158 85.3367 177.542 85.3552 177.912 85.3552C181.764 85.3552 184.225 83.5382 185.668 81.8634C187.494 79.7525 188.103 77.4504 188.129 77.3531C188.162 77.2262 188.169 77.0939 188.15 76.9642C188.131 76.8344 188.085 76.7099 188.017 76.5981C187.948 76.4861 187.857 76.3888 187.751 76.3118C187.644 76.2348 187.523 76.1797 187.395 76.1495C187.19 76.1006 182.266 74.9895 178.568 77.5179C177.88 77.985 177.271 78.5573 176.761 79.2139V77.7512C176.854 77.615 176.94 77.4759 177.032 77.335C178.012 75.8316 179.236 73.9629 179.355 71.9182C179.487 69.6102 178.329 66.8469 176.47 65.0431C176.086 64.6718 175.477 64.6718 175.1 65.0431C173.168 66.9104 172.036 69.6162 172.215 71.9336C172.38 74.1795 173.889 76.4128 174.789 77.7474L174.796 77.754V79.1C174.306 78.4903 173.729 77.9571 173.082 77.5178C169.383 74.9894 164.46 76.1004 164.248 76.1494C163.99 76.2103 163.772 76.3717 163.633 76.598C163.564 76.7098 163.519 76.8343 163.5 76.964C163.481 77.0937 163.487 77.226 163.52 77.353C163.547 77.4503 164.149 79.7523 165.975 81.8632C167.424 83.5381 169.886 85.3551 173.737 85.3551C174.081 85.3551 174.432 85.3392 174.796 85.3101V87.82C169.231 88.0648 164.169 90.2756 160.285 93.7767C160.496 92.7206 160.582 91.6308 160.39 90.5681C159.927 88.0609 157.883 85.2989 155.414 83.8503C154.958 83.5817 154.362 83.7265 154.084 84.1765C152.483 86.7261 151.967 89.9718 152.774 92.4465C153.482 94.6321 155.414 96.5221 156.771 97.7634C155.508 99.5695 154.509 101.547 153.807 103.636C153.436 102.531 152.92 101.455 152.139 100.578C150.445 98.672 147.262 97.3725 144.397 97.4161C143.868 97.4247 143.438 97.8536 143.431 98.3849C143.385 101.396 144.629 104.437 146.6 106.135C148.334 107.622 150.928 108.236 152.735 108.596C152.647 109.399 152.603 110.207 152.602 111.015C152.602 123.817 163.024 134.233 175.822 134.233C188.626 134.233 199.041 123.817 199.041 111.015C199.041 110.2 199.002 109.398 198.916 108.604C200.722 108.246 203.349 107.632 205.09 106.135C207.061 104.437 208.305 101.396 208.259 98.3849C208.252 97.8534 207.822 97.4247 207.293 97.4161Z" fill="#132F02"/>
<g opacity="0.5">
<path d="M103.629 268.034C102.433 267.444 101.336 266.277 100.816 265.053C100.338 263.914 100.338 262.634 100.83 261.608C100.914 261.411 100.929 261.186 100.844 260.989C100.76 260.792 100.591 260.638 100.394 260.567C99.2692 260.188 98.1161 260.216 97.0614 260.666C96.9629 260.708 96.8786 260.764 96.7801 260.806C96.7801 260.764 96.7661 260.736 96.7661 260.694C96.7379 260.103 97.0333 259.653 97.1458 259.498C97.3989 259.175 97.3286 258.697 97.0051 258.444C96.6676 258.191 96.2036 258.261 95.9504 258.584C95.6692 258.95 95.2051 259.723 95.2614 260.764C95.2754 261.003 95.3176 261.214 95.3598 261.425C95.2333 261.467 95.1207 261.495 94.9942 261.552C93.9536 262.002 93.1098 262.831 92.6176 263.872C92.5333 264.069 92.5192 264.294 92.6036 264.491C92.6879 264.688 92.8567 264.842 93.0536 264.913C94.1364 265.278 95.0504 266.15 95.5426 267.303C96.0629 268.527 96.1333 270.13 95.7254 271.395C95.6129 271.747 95.7676 272.141 96.1051 272.295C96.8504 272.661 97.5817 272.858 98.2848 272.858C98.777 272.858 99.2411 272.773 99.6629 272.591C100.015 272.45 100.338 272.253 100.647 272.014C101.027 271.958 101.393 271.859 101.73 271.719C102.771 271.283 103.586 270.298 104.008 268.963C104.135 268.583 103.98 268.203 103.629 268.034ZM101.154 270.313C100.886 270.425 100.591 270.495 100.268 270.538C100.113 270.552 99.9723 270.608 99.8457 270.72C99.6067 270.917 99.3536 271.072 99.0723 271.198C98.5942 271.409 97.9895 271.409 97.3286 271.184C97.6239 269.722 97.4833 268.077 96.9208 266.727C96.3864 265.475 95.4864 264.477 94.3754 263.872C94.6989 263.478 95.1067 263.169 95.5708 262.958C95.852 262.845 96.1473 262.775 96.4567 262.733C96.4708 262.733 96.4848 262.719 96.4989 262.719L96.6254 262.677C96.6536 262.663 96.6676 262.663 96.6958 262.648C96.7239 262.634 96.7379 262.634 96.7661 262.62L96.7942 262.592C96.8083 262.578 96.8364 262.578 96.8364 262.564C97.0895 262.353 97.3567 262.198 97.6239 262.086C98.102 261.889 98.5942 261.819 99.1145 261.861C98.777 263.084 98.8754 264.434 99.3958 265.672C99.9583 267.022 101.055 268.273 102.321 269.075C102.124 269.553 101.73 270.059 101.154 270.313Z" fill="#EDF8E6"/>
<path d="M102.363 269.047C102.123 269.553 101.73 270.059 101.153 270.312C100.886 270.425 100.591 270.495 100.267 270.537C100.112 270.551 99.9719 270.608 99.8453 270.72C99.6062 270.917 99.3531 271.072 99.0719 271.198C98.5937 271.409 97.9891 271.409 97.3281 271.184C97.6234 269.722 97.4828 268.076 96.9203 266.726C96.3859 265.475 95.4859 264.476 94.375 263.872C94.6984 263.478 95.1062 263.169 95.5703 262.958C95.8516 262.845 96.1469 262.775 96.4563 262.733C96.4703 262.733 96.4844 262.719 96.4984 262.719L96.625 262.676C96.6531 262.662 96.6672 262.662 96.6953 262.648C96.7234 262.634 96.7375 262.634 96.7656 262.62L96.7938 262.592C96.8078 262.578 96.8359 262.578 96.8359 262.564C97.0891 262.353 97.3563 262.198 97.6234 262.086C98.1016 261.889 98.5938 261.819 99.1141 261.861C98.7766 263.084 98.875 264.434 99.3953 265.672C100 266.994 101.083 268.245 102.363 269.047Z" fill="#EDF8E6" fill-opacity="0.2"/>
<path d="M108.298 299.408H106.33C106.077 298.564 105.739 297.748 105.331 296.975L106.723 295.583C107.314 294.978 107.314 294.008 106.709 293.389L103.559 290.239C102.941 289.648 101.984 289.634 101.366 290.239L99.9735 291.631C99.2141 291.209 98.3985 290.872 97.5407 290.619V288.65C97.5407 287.792 96.8516 287.089 95.9938 287.089H91.536C90.6782 287.089 89.9751 287.792 89.9751 288.65V290.619C89.5813 290.745 89.2016 290.886 88.8219 291.041L92.9422 269.412C92.9844 269.187 92.9282 268.962 92.7876 268.794C92.6469 268.625 92.436 268.512 92.211 268.512H69.8797L87.1344 264.772C87.3313 264.73 87.5 264.617 87.6125 264.434C87.725 264.266 87.7672 264.069 87.7251 263.872L87.486 262.803C86.8954 260.089 84.1954 258.359 81.4954 258.95L72.3688 260.933L71.9751 259.203C71.8063 258.43 71.3422 257.769 70.6813 257.347C70.0204 256.925 69.2329 256.784 68.4594 256.953L60.5985 258.655C59.0094 259.006 57.9969 260.581 58.3344 262.17L58.7 263.886L49.5876 265.869C48.2797 266.15 47.1547 266.923 46.4235 268.062C45.6922 269.202 45.4532 270.552 45.7344 271.859L45.9594 272.928C46.0016 273.125 46.1282 273.294 46.2969 273.406C46.4235 273.491 46.5641 273.533 46.7047 273.533C46.761 273.533 46.8172 273.533 46.8594 273.519L50.8813 272.647C52.6532 281.928 54.425 291.195 56.1688 300.491C55.7469 300.828 55.4094 301.166 55.1704 301.433C54.0172 302.712 53.5251 304.147 53.3282 305.356C53.1594 304.4 52.6954 303.514 52.0204 302.825C52.1469 301.7 52.2032 298.93 50.1501 296.623C49.461 295.85 47.9844 294.514 45.9454 294.177C45.65 294.134 45.3829 294.106 45.1297 294.106C44.7079 294.106 44.3422 294.162 43.9485 294.219C43.4141 294.289 42.8516 294.373 41.9797 294.345C41.0375 294.303 40.0813 294.148 39.1532 293.881C38.9422 293.811 38.7172 293.853 38.5204 293.966C38.3375 294.092 38.211 294.289 38.1829 294.5C37.761 297.819 39.2797 301.109 42.1344 303.092C43.7516 304.203 45.6079 304.78 47.45 304.78C48.6735 304.78 49.8829 304.512 51.036 304.006C51.5704 304.597 51.8797 305.356 51.8938 306.172V308.984C51.8797 309.041 51.8938 309.097 51.8938 309.153L51.9079 314.877C51.0219 314.862 49.9954 314.989 49.2219 315.453C48.5188 315.861 48.1532 315.847 47.4782 315.819C47.3094 315.805 47.1407 315.805 46.9438 315.805C46.1704 315.805 45.7063 316.142 45.3829 316.381C45.1438 316.564 45.0032 316.662 44.7641 316.691C43.7938 316.831 42.9782 317.745 42.5563 318.237C42.5141 318.294 42.4719 318.336 42.4438 318.378C42.1485 318.533 41.3891 318.983 41.0938 319.644C40.9391 319.981 40.7282 320.234 40.5454 320.459C40.475 320.544 40.4188 320.628 40.3625 320.684C40.25 320.825 39.6032 321.373 39.0829 321.781C38.8297 321.978 38.7313 322.316 38.8438 322.625C38.9563 322.92 39.2375 323.131 39.5469 323.131H65.7172C65.9422 323.131 66.1672 323.019 66.3079 322.85C66.4485 322.667 66.5047 322.428 66.4485 322.203C66.4344 322.147 66.0969 320.825 64.761 320.08L64.2125 319.784C63.6219 319.447 63.2141 319.208 62.8063 319.166C62.5954 319.011 62.4125 318.87 62.286 318.772C61.8079 318.392 60.9782 318.111 59.6844 317.872C58.7422 317.689 58.3766 317.422 57.8422 316.831C57.336 316.269 57.0688 316.184 56.4641 316.156C56.211 316.142 55.8735 316.128 55.2547 316.016C54.425 315.861 54.3125 315.72 54.2282 315.636C54.0594 315.439 53.8485 315.242 53.3844 315.102C53.3985 315.059 53.4125 315.045 53.4125 315.003L53.3985 309.462L54.1719 308.816C55.3251 309.35 56.5766 309.631 57.8282 309.631C58.6719 309.631 59.5297 309.505 60.3454 309.266H82.1001C82.1282 309.322 82.1563 309.378 82.1844 309.42L80.7922 310.812C80.4969 311.108 80.3282 311.502 80.3282 311.923C80.3282 312.345 80.4969 312.725 80.7922 313.02L83.9422 316.17C84.5469 316.761 85.5313 316.761 86.136 316.156L87.5282 314.764C88.3016 315.186 89.1172 315.523 89.961 315.777V317.745C89.961 318.603 90.6501 319.306 91.5219 319.306H95.9797C96.8375 319.306 97.5266 318.617 97.5266 317.745V315.777C98.3563 315.523 99.1719 315.186 99.9594 314.764L101.366 316.17C101.984 316.747 102.941 316.747 103.545 316.142L106.695 313.006C107.3 312.402 107.3 311.417 106.695 310.798L105.303 309.42C105.725 308.647 106.048 307.831 106.302 307.002H108.27C109.128 307.002 109.831 306.298 109.831 305.441V300.997C109.859 300.111 109.156 299.408 108.298 299.408ZM43.7938 298.902C45.0875 299.183 46.2969 299.675 47.3516 300.364C48.561 301.123 49.4469 302.023 50.0657 302.783C47.7876 303.655 45.1579 303.331 43.0204 301.841C40.8829 300.35 39.6313 298.002 39.6454 295.541C40.4047 295.709 41.1782 295.808 41.9375 295.836C42.936 295.878 43.625 295.78 44.1594 295.695C44.7219 295.611 45.1157 295.555 45.7063 295.653C47.2954 295.906 48.4766 296.989 49.0251 297.622C50.0235 298.733 50.4032 299.998 50.5157 301.025C49.8829 300.378 49.1094 299.689 48.1391 299.084C46.9297 298.311 45.5657 297.748 44.0891 297.425C43.6954 297.341 43.2875 297.594 43.1891 298.002C43.1329 298.409 43.386 298.803 43.7938 298.902ZM55.0016 317.45C55.7469 317.591 56.1829 317.619 56.436 317.619C56.5063 317.633 56.5625 317.619 56.5625 317.605C56.5766 317.605 56.6188 317.647 56.7594 317.787C57.4485 318.561 58.1235 319.053 59.4454 319.292C60.8235 319.545 61.2594 319.812 61.4 319.911C61.5688 320.052 61.8782 320.277 62.1594 320.487C62.3282 320.614 62.4829 320.656 62.6938 320.628C62.8063 320.642 63.1579 320.853 63.5094 321.05L64.0719 321.373C64.1985 321.444 64.311 321.514 64.3954 321.598H41.5719L41.6 321.57C41.6422 321.514 41.6844 321.444 41.7547 321.387C41.9657 321.12 42.261 320.755 42.5 320.262C42.5704 320.094 42.936 319.827 43.2032 319.686C43.4 319.602 43.5266 319.447 43.7235 319.222C43.9625 318.955 44.5954 318.237 45.0032 318.181C45.636 318.097 46.0297 317.802 46.311 317.577C46.5782 317.38 46.6907 317.295 46.9719 317.295C47.1407 317.295 47.3094 317.295 47.45 317.309C48.1954 317.337 48.9126 317.366 49.9954 316.733C50.7829 316.269 52.2735 316.297 53.0047 316.508C53.061 316.522 53.075 316.536 53.075 316.536C53.1032 316.55 53.1172 316.564 53.1313 316.592C53.4266 316.93 53.7782 317.225 55.0016 317.45ZM60.9219 260.131L68.7829 258.43C69.1625 258.345 69.5422 258.416 69.8657 258.612C70.1891 258.823 70.4141 259.147 70.4985 259.512L70.8782 261.228L60.2047 263.562L59.825 261.861C59.6563 261.073 60.1485 260.3 60.9219 260.131ZM47.2954 271.873L47.225 271.55C47.0141 270.622 47.1969 269.68 47.7032 268.878C48.2235 268.091 48.9969 267.542 49.911 267.345L81.8047 260.412C82.0579 260.356 82.2969 260.328 82.55 260.328C84.1672 260.328 85.6438 261.467 85.9954 263.112L86.0657 263.45L62.6797 268.527L61.3719 268.808L47.2954 271.873ZM52.3579 272.309C52.3579 272.309 62.8907 270.017 62.9188 270.017H91.2969L87.2469 291.308L86.1641 290.225C86.0938 290.155 86.0235 290.098 85.9391 290.042C85.925 290.042 85.9251 290.028 85.911 290.028C85.8547 290 85.8125 289.972 85.7563 289.944C85.7141 289.93 85.6719 289.902 85.6297 289.887C85.5454 289.859 85.461 289.831 85.3625 289.817C85.3485 289.817 85.3485 289.803 85.3344 289.803C85.25 289.789 85.1657 289.775 85.0813 289.775C84.6735 289.761 84.2516 289.902 83.9422 290.211L83.9282 290.225L80.7782 293.375C80.736 293.417 80.7079 293.473 80.6657 293.516C80.2297 294.064 80.2157 294.795 80.6094 295.358C80.6657 295.428 80.7219 295.512 80.7782 295.569L81.9454 296.736L82.1704 296.961C81.7485 297.762 81.411 298.578 81.1579 299.394H79.2032C78.3454 299.394 77.6422 300.083 77.6422 300.941V304.344H66.2375C66.4766 304.344 66.8985 302.586 66.9407 302.347C67.1657 301.377 67.2219 300.35 67.1094 299.352C67.0954 299.239 67.0532 299.127 66.9969 299.028C66.9547 298.958 66.8844 298.902 66.8282 298.859C66.8141 298.845 66.8001 298.817 66.7719 298.803C66.5891 298.677 66.35 298.648 66.1391 298.719C64.5219 299.197 62.9469 299.197 61.2875 299.028C60.0079 298.887 58.8125 298.986 57.6313 299.548C57.5891 299.562 57.5469 299.577 57.5047 299.605C55.8313 290.492 54.1016 281.408 52.3579 272.309ZM55.2688 307.592C56.0704 306.636 57.2516 305.567 58.8969 304.864C59.7688 304.484 60.711 304.231 61.6813 304.119C62.1032 304.077 62.3844 303.697 62.3422 303.275C62.3001 302.867 61.9344 302.572 61.5125 302.614C60.4016 302.741 59.3188 303.036 58.2922 303.472C56.8157 304.119 55.6625 305.005 54.7766 305.877C54.9032 304.85 55.2688 303.57 56.2954 302.431C57.1391 301.489 58.2782 300.786 59.5297 300.533C60.8235 300.28 62.0891 300.73 63.3969 300.673C63.65 300.659 63.8891 300.631 64.1422 300.617C64.6625 300.575 65.1829 300.505 65.6891 300.392C65.675 300.392 65.5907 301.587 65.5625 301.728C65.4641 302.192 65.3235 302.656 65.1407 303.106C64.7891 303.978 64.2829 304.794 63.65 305.497C61.5829 307.775 58.1797 308.703 55.2688 307.592ZM63.4391 307.719C63.4532 307.705 63.4672 307.691 63.4954 307.677C63.8329 307.423 64.1422 307.142 64.4375 306.861C64.4516 306.847 64.4657 306.847 64.4657 306.833C64.775 306.537 65.0563 306.2 65.3235 305.862H77.7407C77.7407 305.891 77.7547 305.905 77.7688 305.919C77.7829 305.975 77.7969 306.031 77.8251 306.073L77.8672 306.158C77.9657 306.327 78.0922 306.481 78.2469 306.608C78.2751 306.622 78.2891 306.65 78.3032 306.664C78.3594 306.706 78.4157 306.734 78.4579 306.762C78.486 306.777 78.5 306.791 78.5282 306.805C78.5844 306.833 78.6407 306.861 78.6969 306.875C78.725 306.889 78.7391 306.889 78.7532 306.903C78.9079 306.945 79.0485 306.973 79.2172 306.973H81.186C81.2141 307.072 81.2563 307.156 81.2844 307.255C81.3407 307.409 81.3829 307.564 81.4391 307.719H63.4391ZM108.298 305.455H105.753C105.402 305.455 105.106 305.694 105.022 306.031C104.741 307.114 104.319 308.169 103.742 309.139C103.559 309.434 103.602 309.814 103.855 310.067L105.641 311.853C105.669 311.881 105.669 311.923 105.655 311.923L102.519 315.059C102.491 315.087 102.448 315.087 102.448 315.073L100.648 313.273C100.409 313.02 100.016 312.978 99.7204 313.147C98.736 313.737 97.6954 314.187 96.6125 314.441C96.275 314.525 96.05 314.82 96.05 315.172L96.0079 317.759L91.5079 317.717V315.186C91.5079 314.834 91.2688 314.539 90.9313 314.455C89.8485 314.187 88.8079 313.752 87.8235 313.161C87.6969 313.091 87.5704 313.048 87.4438 313.048C87.2469 313.048 87.05 313.119 86.9094 313.273L85.1094 315.059C85.0954 315.073 85.0391 315.073 85.0391 315.073L81.8891 311.853L83.6891 310.067C83.9282 309.828 83.9844 309.448 83.8157 309.153C83.6047 308.802 83.4501 308.478 83.2954 308.155L83.2813 308.141C83.1125 307.803 82.9719 307.466 82.8454 307.114V307.1C82.7188 306.748 82.6063 306.397 82.5079 306.017C82.4235 305.68 82.1282 305.441 81.7766 305.441L79.8782 305.412L79.2032 305.398V305.089L79.2313 303.064L79.2594 300.912H81.7907C82.1422 300.912 82.4516 300.673 82.5219 300.336C82.7751 299.281 83.211 298.241 83.8157 297.214C83.9985 296.919 83.9422 296.539 83.7032 296.286L83.6469 296.23L81.9032 294.43L85.1235 291.28L86.9235 293.08C87.1766 293.333 87.5563 293.375 87.8657 293.192C87.9501 293.136 88.0485 293.08 88.1329 293.037L88.2172 292.995C89.061 292.531 89.9751 292.152 90.9594 291.898C91.2969 291.814 91.5219 291.519 91.5219 291.167L91.5641 288.58L96.0641 288.622V291.153C96.0641 291.505 96.2891 291.8 96.6266 291.884C97.7516 292.18 98.8063 292.616 99.7485 293.178C100.044 293.347 100.423 293.305 100.677 293.066L102.463 291.28C102.491 291.252 102.519 291.252 102.533 291.266L105.669 294.402C105.697 294.43 105.697 294.458 105.683 294.472L103.883 296.258C103.63 296.511 103.588 296.891 103.77 297.186C104.347 298.156 104.769 299.211 105.05 300.308C105.134 300.645 105.444 300.884 105.795 300.884H108.341L108.383 300.927L108.298 305.455Z" fill="#EDF8E6"/>
<path d="M108.298 300.927H105.752C105.401 300.927 105.106 300.687 105.007 300.35C104.74 299.253 104.304 298.198 103.727 297.228C103.545 296.933 103.587 296.553 103.84 296.3L105.64 294.514C105.654 294.5 105.654 294.472 105.626 294.444L102.49 291.308C102.476 291.294 102.448 291.294 102.42 291.322L100.634 293.108C100.395 293.347 100.001 293.389 99.7056 293.22C98.7634 292.658 97.7087 292.222 96.5837 291.927C96.2462 291.842 96.0212 291.547 96.0212 291.195V288.664L91.5212 288.622L91.479 291.209C91.479 291.561 91.24 291.856 90.9165 291.941C89.9321 292.194 89.0181 292.573 88.1743 293.037L88.09 293.08C88.0056 293.122 87.9071 293.178 87.8228 293.234C87.5275 293.417 87.1337 293.375 86.8806 293.122L85.1087 291.308L81.8884 294.458L83.6321 296.258L83.6884 296.314C83.9275 296.567 83.9837 296.947 83.8009 297.242C83.2103 298.269 82.7603 299.309 82.5071 300.364C82.4368 300.702 82.1275 300.941 81.7759 300.941H79.2446L79.2165 303.092L79.1884 305.117V305.427L79.8634 305.441L81.7618 305.469C82.1134 305.469 82.4087 305.708 82.4931 306.045C82.5915 306.411 82.704 306.777 82.8306 307.128V307.142C82.9571 307.494 83.0978 307.831 83.2665 308.169C83.2665 308.183 83.2665 308.183 83.2806 308.183C83.4212 308.506 83.59 308.83 83.8009 309.181C83.9697 309.477 83.9275 309.856 83.6743 310.095L81.8743 311.881L85.0243 315.102C85.0384 315.116 85.0806 315.116 85.0947 315.087L86.8806 313.287C87.0212 313.133 87.2181 313.062 87.415 313.062C87.5415 313.062 87.6822 313.105 87.7947 313.175C88.765 313.766 89.8056 314.201 90.9025 314.469C91.24 314.553 91.479 314.848 91.479 315.2V317.731L95.979 317.773L96.0212 315.186C96.0212 314.834 96.2603 314.539 96.5837 314.455C97.6665 314.187 98.7072 313.752 99.6915 313.161C99.9868 312.992 100.367 313.034 100.62 313.287L102.42 315.087C102.42 315.102 102.462 315.102 102.49 315.073L105.626 311.937C105.64 311.923 105.64 311.881 105.612 311.867L103.826 310.081C103.573 309.842 103.531 309.448 103.713 309.153C104.29 308.183 104.712 307.142 104.993 306.045C105.077 305.708 105.373 305.469 105.724 305.469H108.27L108.312 300.969L108.298 300.927ZM101.843 304.794C101.21 308.042 98.6087 310.644 95.3603 311.248C94.8259 311.361 94.2915 311.403 93.7571 311.403C90.9025 311.403 88.2587 309.941 86.74 307.452C86.3181 306.777 86.0087 306.045 85.8118 305.286C85.4884 304.062 85.4603 302.811 85.6853 301.573C86.29 298.339 88.8915 295.737 92.154 295.119C94.9103 294.598 97.6103 295.414 99.565 297.369C101.14 298.944 101.984 300.997 101.984 303.191C101.998 303.711 101.956 304.245 101.843 304.794ZM64.3806 321.612H41.5712L41.5993 321.584C41.6415 321.528 41.6837 321.458 41.754 321.402C41.965 321.134 42.2603 320.769 42.4993 320.277C42.5696 320.108 42.9353 319.841 43.2025 319.7C43.3993 319.616 43.5259 319.461 43.7228 319.236C43.9618 318.969 44.5946 318.252 45.0025 318.195C45.6353 318.111 46.029 317.816 46.3103 317.591C46.5775 317.394 46.69 317.309 46.9712 317.309C47.14 317.309 47.3087 317.309 47.4493 317.323C48.1946 317.352 48.9118 317.38 49.9946 316.747C50.7821 316.283 52.2728 316.311 53.004 316.522C53.0603 316.536 53.0743 316.55 53.0743 316.55C53.1025 316.564 53.1165 316.578 53.1306 316.606C53.4259 316.944 53.7775 317.239 55.0009 317.464C55.7462 317.605 56.1821 317.633 56.4353 317.633C56.5056 317.647 56.5618 317.633 56.5618 317.619C56.5759 317.619 56.6181 317.661 56.7587 317.802C57.4478 318.575 58.1228 319.067 59.4446 319.306C60.8228 319.559 61.2587 319.826 61.3993 319.925C61.5681 320.066 61.8775 320.291 62.1587 320.501C62.3275 320.628 62.4821 320.67 62.6931 320.642C62.8056 320.656 63.1571 320.867 63.5087 321.064L64.0712 321.387C64.1837 321.444 64.2962 321.528 64.3806 321.612ZM65.7025 300.392C65.6884 300.392 65.604 301.587 65.5759 301.728C65.4775 302.192 65.3368 302.656 65.154 303.106C64.8025 303.978 64.2962 304.794 63.6634 305.497C61.5821 307.775 58.179 308.703 55.2681 307.592C56.0696 306.636 57.2509 305.567 58.8962 304.864C59.7681 304.484 60.7103 304.231 61.6806 304.119C62.1025 304.076 62.3837 303.697 62.3415 303.275C62.2993 302.867 61.9337 302.572 61.5118 302.614C60.4009 302.741 59.3181 303.036 58.2915 303.472C56.815 304.119 55.6618 305.005 54.7759 305.876C54.9025 304.85 55.2681 303.57 56.2946 302.431C57.1384 301.489 58.2775 300.786 59.529 300.533C60.8228 300.28 62.0884 300.73 63.3962 300.673C63.6493 300.659 63.8884 300.631 64.1415 300.617C64.6759 300.575 65.1821 300.505 65.7025 300.392ZM50.065 302.769C47.7868 303.641 45.1571 303.317 43.0196 301.827C40.8821 300.336 39.6306 297.987 39.6446 295.527C40.404 295.695 41.1775 295.794 41.9368 295.822C42.9353 295.864 43.6243 295.766 44.1587 295.681C44.7212 295.597 45.115 295.541 45.7056 295.639C47.2946 295.892 48.4759 296.975 49.0243 297.608C50.0228 298.719 50.4025 299.984 50.515 301.011C49.8821 300.364 49.1087 299.675 48.1384 299.07C46.929 298.297 45.565 297.734 44.0884 297.411C43.6946 297.327 43.2868 297.58 43.1884 297.987C43.104 298.395 43.3571 298.789 43.765 298.887C45.0587 299.169 46.2681 299.661 47.3228 300.35C48.5743 301.123 49.4603 302.009 50.065 302.769ZM86.065 263.45L62.679 268.527L61.3712 268.808L47.2946 271.873L47.2243 271.55C47.0134 270.622 47.1962 269.68 47.7025 268.878C48.2228 268.091 48.9962 267.542 49.9103 267.345L81.804 260.412C82.0571 260.356 82.2962 260.328 82.5493 260.328C84.1665 260.328 85.6431 261.467 85.9946 263.112L86.065 263.45Z" fill="#EDF8E6" fill-opacity="0.2"/>
<path d="M99.5773 297.369C97.6085 295.414 94.9226 294.598 92.1664 295.119C88.9179 295.737 86.3164 298.339 85.6976 301.573C85.4585 302.811 85.5007 304.062 85.8242 305.286C86.021 306.045 86.3304 306.776 86.7523 307.451C88.271 309.955 90.9148 311.403 93.7695 311.403C94.3039 311.403 94.8382 311.347 95.3726 311.248C98.621 310.644 101.223 308.042 101.855 304.794C101.968 304.245 102.01 303.711 102.01 303.176C101.996 300.997 101.152 298.944 99.5773 297.369ZM100.351 304.512C99.8445 307.156 97.721 309.266 95.0773 309.772C92.2648 310.306 89.4945 309.097 88.0179 306.664C87.6804 306.116 87.4273 305.525 87.2585 304.906C87.0054 303.908 86.9773 302.881 87.1742 301.855C87.6664 299.211 89.7757 297.101 92.4335 296.595C92.8835 296.511 93.3195 296.469 93.7695 296.469C95.5414 296.469 97.2148 297.144 98.5085 298.437C100.112 300.041 100.787 302.248 100.351 304.512ZM76.4726 295.33H76.557C76.9367 295.33 77.2601 295.048 77.3023 294.655L79.1867 277.344C79.2289 276.936 78.9335 276.556 78.5117 276.514C78.0898 276.472 77.7242 276.767 77.682 277.189L75.7976 294.5C75.7554 294.908 76.0507 295.287 76.4726 295.33ZM66.671 295.33H66.7554C67.1632 295.287 67.4726 294.908 67.4304 294.5L65.532 277.034C65.4898 276.626 65.1101 276.317 64.7023 276.359C64.2945 276.401 63.9851 276.781 64.0273 277.189L65.9257 294.655C65.9679 295.048 66.2914 295.33 66.671 295.33Z" fill="#EDF8E6"/>
</g>
<path d="M180 270.5H186V309.5H180V270.5Z" fill="url(#paint2_linear_231_760)"/>
<path d="M185.192 299.192C180.116 294.116 180.116 285.884 185.192 280.808L194.385 290L185.192 299.192Z" fill="url(#paint3_linear_231_760)"/>
<path d="M227.572 227.43H214.107L211.84 232H204.562L217.201 207.848H224.479L237.117 232H229.84L227.572 227.43ZM216.445 222.719H225.27L220.875 213.824L216.445 222.719ZM247.594 212.998V217.199H263.291V222.35H247.594V232H241.072V207.848H264.152V212.998H247.594ZM276.246 212.998V217.199H291.943V222.35H276.246V232H269.725V207.848H292.805V212.998H276.246ZM329.631 219.941C329.631 222.016 329.25 223.85 328.488 225.443C327.727 227.025 326.637 228.35 325.219 229.416C323.801 230.482 322.078 231.291 320.051 231.842C318.035 232.381 315.768 232.65 313.248 232.65C310.729 232.65 308.449 232.381 306.41 231.842C304.383 231.291 302.654 230.482 301.225 229.416C299.795 228.35 298.693 227.025 297.92 225.443C297.146 223.85 296.76 222.016 296.76 219.941C296.76 217.867 297.146 216.039 297.92 214.457C298.693 212.863 299.795 211.533 301.225 210.467C302.654 209.4 304.383 208.598 306.41 208.059C308.449 207.508 310.729 207.232 313.248 207.232C315.768 207.232 318.035 207.508 320.051 208.059C322.078 208.598 323.801 209.4 325.219 210.467C326.637 211.533 327.727 212.863 328.488 214.457C329.25 216.039 329.631 217.867 329.631 219.941ZM323.039 219.941C323.039 219.039 322.893 218.143 322.6 217.252C322.318 216.35 321.809 215.541 321.07 214.826C320.344 214.111 319.348 213.531 318.082 213.086C316.816 212.641 315.205 212.418 313.248 212.418C311.936 212.418 310.781 212.523 309.785 212.734C308.789 212.934 307.928 213.215 307.201 213.578C306.475 213.941 305.865 214.369 305.373 214.861C304.881 215.342 304.488 215.863 304.195 216.426C303.902 216.977 303.691 217.557 303.562 218.166C303.445 218.764 303.387 219.355 303.387 219.941C303.387 220.539 303.445 221.143 303.562 221.752C303.691 222.361 303.902 222.947 304.195 223.51C304.488 224.061 304.881 224.576 305.373 225.057C305.865 225.537 306.475 225.959 307.201 226.322C307.928 226.674 308.789 226.955 309.785 227.166C310.781 227.365 311.936 227.465 313.248 227.465C315.205 227.465 316.816 227.242 318.082 226.797C319.348 226.352 320.344 225.771 321.07 225.057C321.809 224.342 322.318 223.539 322.6 222.648C322.893 221.746 323.039 220.844 323.039 219.941ZM342.094 232H335.572V207.848H351.92C353.678 207.848 355.166 208.029 356.385 208.393C357.615 208.756 358.611 209.271 359.373 209.939C360.146 210.607 360.703 211.416 361.043 212.365C361.395 213.303 361.57 214.352 361.57 215.512C361.57 216.531 361.424 217.422 361.131 218.184C360.85 218.945 360.463 219.602 359.971 220.152C359.49 220.691 358.928 221.148 358.283 221.523C357.639 221.898 356.959 222.209 356.244 222.455L364.154 232H356.525L349.213 223.105H342.094V232ZM354.979 215.477C354.979 215.008 354.914 214.609 354.785 214.281C354.668 213.953 354.457 213.689 354.152 213.49C353.848 213.279 353.438 213.127 352.922 213.033C352.418 212.939 351.785 212.893 351.023 212.893H342.094V218.061H351.023C351.785 218.061 352.418 218.014 352.922 217.92C353.438 217.826 353.848 217.68 354.152 217.48C354.457 217.27 354.668 217 354.785 216.672C354.914 216.344 354.979 215.945 354.979 215.477ZM368.83 232V207.848H393.281V212.998H375.527V216.988H392.367V222.139H375.527V226.85H393.527V232H368.83ZM422.092 214.65C421.635 214.428 421.031 214.176 420.281 213.895C419.531 213.613 418.682 213.35 417.732 213.104C416.783 212.846 415.752 212.635 414.639 212.471C413.525 212.295 412.383 212.207 411.211 212.207C410.273 212.207 409.471 212.236 408.803 212.295C408.146 212.354 407.59 212.43 407.133 212.523C406.688 212.617 406.33 212.729 406.061 212.857C405.803 212.975 405.604 213.098 405.463 213.227C405.322 213.355 405.229 213.484 405.182 213.613C405.146 213.742 405.129 213.859 405.129 213.965C405.129 214.316 405.305 214.627 405.656 214.896C406.008 215.154 406.488 215.389 407.098 215.6C407.707 215.799 408.416 215.992 409.225 216.18C410.033 216.355 410.889 216.543 411.791 216.742C412.705 216.93 413.643 217.141 414.604 217.375C415.576 217.598 416.514 217.861 417.416 218.166C418.33 218.471 419.191 218.828 420 219.238C420.809 219.637 421.518 220.105 422.127 220.645C422.736 221.184 423.217 221.805 423.568 222.508C423.92 223.211 424.096 224.014 424.096 224.916C424.096 226.076 423.891 227.072 423.48 227.904C423.07 228.736 422.52 229.439 421.828 230.014C421.148 230.588 420.357 231.051 419.455 231.402C418.553 231.742 417.604 232.006 416.607 232.193C415.623 232.381 414.621 232.504 413.602 232.562C412.594 232.621 411.633 232.65 410.719 232.65C408.328 232.65 406.113 232.451 404.074 232.053C402.047 231.666 400.254 231.18 398.695 230.594V224.828C400.301 225.719 402.129 226.416 404.18 226.92C406.242 227.424 408.445 227.676 410.789 227.676C412.172 227.676 413.297 227.605 414.164 227.465C415.043 227.312 415.729 227.125 416.221 226.902C416.713 226.668 417.047 226.416 417.223 226.146C417.398 225.877 417.486 225.619 417.486 225.373C417.486 224.986 417.311 224.652 416.959 224.371C416.607 224.078 416.127 223.826 415.518 223.615C414.908 223.393 414.199 223.193 413.391 223.018C412.582 222.83 411.721 222.648 410.807 222.473C409.904 222.285 408.973 222.086 408.012 221.875C407.051 221.664 406.113 221.418 405.199 221.137C404.297 220.844 403.441 220.51 402.633 220.135C401.824 219.748 401.115 219.297 400.506 218.781C399.896 218.254 399.416 217.65 399.064 216.971C398.713 216.279 398.537 215.482 398.537 214.58C398.537 213.514 398.725 212.594 399.1 211.82C399.475 211.047 399.979 210.391 400.611 209.852C401.256 209.301 401.994 208.855 402.826 208.516C403.67 208.176 404.555 207.912 405.48 207.725C406.406 207.537 407.344 207.408 408.293 207.338C409.242 207.268 410.145 207.232 411 207.232C411.938 207.232 412.898 207.279 413.883 207.373C414.879 207.467 415.857 207.602 416.818 207.777C417.779 207.941 418.705 208.135 419.596 208.357C420.498 208.58 421.33 208.814 422.092 209.061V214.65ZM443.818 213.104V232H437.297V213.104H427.049V207.848H454.084V213.104H443.818ZM476.408 227.43H462.943L460.676 232H453.398L466.037 207.848H473.314L485.953 232H478.676L476.408 227.43ZM465.281 222.719H474.105L469.711 213.824L465.281 222.719ZM502.037 213.104V232H495.516V213.104H485.268V207.848H512.303V213.104H502.037ZM516.627 232V207.848H523.148V232H516.627ZM561.979 219.941C561.979 222.016 561.598 223.85 560.836 225.443C560.074 227.025 558.984 228.35 557.566 229.416C556.148 230.482 554.426 231.291 552.398 231.842C550.383 232.381 548.115 232.65 545.596 232.65C543.076 232.65 540.797 232.381 538.758 231.842C536.73 231.291 535.002 230.482 533.572 229.416C532.143 228.35 531.041 227.025 530.268 225.443C529.494 223.85 529.107 222.016 529.107 219.941C529.107 217.867 529.494 216.039 530.268 214.457C531.041 212.863 532.143 211.533 533.572 210.467C535.002 209.4 536.73 208.598 538.758 208.059C540.797 207.508 543.076 207.232 545.596 207.232C548.115 207.232 550.383 207.508 552.398 208.059C554.426 208.598 556.148 209.4 557.566 210.467C558.984 211.533 560.074 212.863 560.836 214.457C561.598 216.039 561.979 217.867 561.979 219.941ZM555.387 219.941C555.387 219.039 555.24 218.143 554.947 217.252C554.666 216.35 554.156 215.541 553.418 214.826C552.691 214.111 551.695 213.531 550.43 213.086C549.164 212.641 547.553 212.418 545.596 212.418C544.283 212.418 543.129 212.523 542.133 212.734C541.137 212.934 540.275 213.215 539.549 213.578C538.822 213.941 538.213 214.369 537.721 214.861C537.229 215.342 536.836 215.863 536.543 216.426C536.25 216.977 536.039 217.557 535.91 218.166C535.793 218.764 535.734 219.355 535.734 219.941C535.734 220.539 535.793 221.143 535.91 221.752C536.039 222.361 536.25 222.947 536.543 223.51C536.836 224.061 537.229 224.576 537.721 225.057C538.213 225.537 538.822 225.959 539.549 226.322C540.275 226.674 541.137 226.955 542.133 227.166C543.129 227.365 544.283 227.465 545.596 227.465C547.553 227.465 549.164 227.242 550.43 226.797C551.695 226.352 552.691 225.771 553.418 225.057C554.156 224.342 554.666 223.539 554.947 222.648C555.24 221.746 555.387 220.844 555.387 219.941ZM590.736 232L574.441 215.406V232H567.92V207.848H575.004L591.316 224.512V207.848H597.803V232H590.736ZM227.572 272.43H214.107L211.84 277H204.562L217.201 252.848H224.479L237.117 277H229.84L227.572 272.43ZM216.445 267.719H225.27L220.875 258.824L216.445 267.719ZM263.889 277L247.594 260.406V277H241.072V252.848H248.156L264.469 269.512V252.848H270.955V277H263.889ZM308.098 264.906C308.098 266.453 307.928 267.83 307.588 269.037C307.248 270.232 306.768 271.275 306.146 272.166C305.537 273.057 304.799 273.812 303.932 274.434C303.076 275.055 302.121 275.553 301.066 275.928C300.012 276.303 298.875 276.578 297.656 276.754C296.438 276.918 295.166 277 293.842 277H278.514V252.848H293.807C295.131 252.848 296.402 252.936 297.621 253.111C298.84 253.275 299.977 253.545 301.031 253.92C302.098 254.295 303.064 254.793 303.932 255.414C304.799 256.023 305.537 256.779 306.146 257.682C306.768 258.572 307.248 259.615 307.588 260.811C307.928 262.006 308.098 263.371 308.098 264.906ZM301.523 264.906C301.523 263.746 301.371 262.738 301.066 261.883C300.773 261.027 300.293 260.324 299.625 259.773C298.969 259.211 298.107 258.795 297.041 258.525C295.975 258.244 294.674 258.104 293.139 258.104H285.035V271.744H293.139C294.674 271.744 295.975 271.609 297.041 271.34C298.107 271.059 298.969 270.637 299.625 270.074C300.293 269.5 300.773 268.785 301.066 267.93C301.371 267.074 301.523 266.066 301.523 264.906ZM214.688 322H208.166V297.848H224.514C226.271 297.848 227.76 298.029 228.979 298.393C230.209 298.756 231.205 299.271 231.967 299.939C232.74 300.607 233.297 301.416 233.637 302.365C233.988 303.303 234.164 304.352 234.164 305.512C234.164 306.531 234.018 307.422 233.725 308.184C233.443 308.945 233.057 309.602 232.564 310.152C232.084 310.691 231.521 311.148 230.877 311.523C230.232 311.898 229.553 312.209 228.838 312.455L236.748 322H229.119L221.807 313.105H214.688V322ZM227.572 305.477C227.572 305.008 227.508 304.609 227.379 304.281C227.262 303.953 227.051 303.689 226.746 303.49C226.441 303.279 226.031 303.127 225.516 303.033C225.012 302.939 224.379 302.893 223.617 302.893H214.688V308.061H223.617C224.379 308.061 225.012 308.014 225.516 307.92C226.031 307.826 226.441 307.68 226.746 307.48C227.051 307.27 227.262 307 227.379 306.672C227.508 306.344 227.572 305.945 227.572 305.477ZM241.424 322V297.848H265.875V302.998H248.121V306.988H264.961V312.139H248.121V316.85H266.121V322H241.424ZM278.953 302.998V307.199H294.65V312.35H278.953V322H272.432V297.848H295.512V302.998H278.953ZM332.338 309.941C332.338 312.016 331.957 313.85 331.195 315.443C330.434 317.025 329.344 318.35 327.926 319.416C326.508 320.482 324.785 321.291 322.758 321.842C320.742 322.381 318.475 322.65 315.955 322.65C313.436 322.65 311.156 322.381 309.117 321.842C307.09 321.291 305.361 320.482 303.932 319.416C302.502 318.35 301.4 317.025 300.627 315.443C299.854 313.85 299.467 312.016 299.467 309.941C299.467 307.867 299.854 306.039 300.627 304.457C301.4 302.863 302.502 301.533 303.932 300.467C305.361 299.4 307.09 298.598 309.117 298.059C311.156 297.508 313.436 297.232 315.955 297.232C318.475 297.232 320.742 297.508 322.758 298.059C324.785 298.598 326.508 299.4 327.926 300.467C329.344 301.533 330.434 302.863 331.195 304.457C331.957 306.039 332.338 307.867 332.338 309.941ZM325.746 309.941C325.746 309.039 325.6 308.143 325.307 307.252C325.025 306.35 324.516 305.541 323.777 304.826C323.051 304.111 322.055 303.531 320.789 303.086C319.523 302.641 317.912 302.418 315.955 302.418C314.643 302.418 313.488 302.523 312.492 302.734C311.496 302.934 310.635 303.215 309.908 303.578C309.182 303.941 308.572 304.369 308.08 304.861C307.588 305.342 307.195 305.863 306.902 306.426C306.609 306.977 306.398 307.557 306.27 308.166C306.152 308.764 306.094 309.355 306.094 309.941C306.094 310.539 306.152 311.143 306.27 311.752C306.398 312.361 306.609 312.947 306.902 313.51C307.195 314.061 307.588 314.576 308.08 315.057C308.572 315.537 309.182 315.959 309.908 316.322C310.635 316.674 311.496 316.955 312.492 317.166C313.488 317.365 314.643 317.465 315.955 317.465C317.912 317.465 319.523 317.242 320.789 316.797C322.055 316.352 323.051 315.771 323.777 315.057C324.516 314.342 325.025 313.539 325.307 312.648C325.6 311.746 325.746 310.844 325.746 309.941ZM344.801 322H338.279V297.848H354.627C356.385 297.848 357.873 298.029 359.092 298.393C360.322 298.756 361.318 299.271 362.08 299.939C362.854 300.607 363.41 301.416 363.75 302.365C364.102 303.303 364.277 304.352 364.277 305.512C364.277 306.531 364.131 307.422 363.838 308.184C363.557 308.945 363.17 309.602 362.678 310.152C362.197 310.691 361.635 311.148 360.99 311.523C360.346 311.898 359.666 312.209 358.951 312.455L366.861 322H359.232L351.92 313.105H344.801V322ZM357.686 305.477C357.686 305.008 357.621 304.609 357.492 304.281C357.375 303.953 357.164 303.689 356.859 303.49C356.555 303.279 356.145 303.127 355.629 303.033C355.125 302.939 354.492 302.893 353.73 302.893H344.801V308.061H353.73C354.492 308.061 355.125 308.014 355.629 307.92C356.145 307.826 356.555 307.68 356.859 307.48C357.164 307.27 357.375 307 357.492 306.672C357.621 306.344 357.686 305.945 357.686 305.477ZM371.537 322V297.848H395.988V302.998H378.234V306.988H395.074V312.139H378.234V316.85H396.234V322H371.537ZM424.799 304.65C424.342 304.428 423.738 304.176 422.988 303.895C422.238 303.613 421.389 303.35 420.439 303.104C419.49 302.846 418.459 302.635 417.346 302.471C416.232 302.295 415.09 302.207 413.918 302.207C412.98 302.207 412.178 302.236 411.51 302.295C410.854 302.354 410.297 302.43 409.84 302.523C409.395 302.617 409.037 302.729 408.768 302.857C408.51 302.975 408.311 303.098 408.17 303.227C408.029 303.355 407.936 303.484 407.889 303.613C407.854 303.742 407.836 303.859 407.836 303.965C407.836 304.316 408.012 304.627 408.363 304.896C408.715 305.154 409.195 305.389 409.805 305.6C410.414 305.799 411.123 305.992 411.932 306.18C412.74 306.355 413.596 306.543 414.498 306.742C415.412 306.93 416.35 307.141 417.311 307.375C418.283 307.598 419.221 307.861 420.123 308.166C421.037 308.471 421.898 308.828 422.707 309.238C423.516 309.637 424.225 310.105 424.834 310.645C425.443 311.184 425.924 311.805 426.275 312.508C426.627 313.211 426.803 314.014 426.803 314.916C426.803 316.076 426.598 317.072 426.188 317.904C425.777 318.736 425.227 319.439 424.535 320.014C423.855 320.588 423.064 321.051 422.162 321.402C421.26 321.742 420.311 322.006 419.314 322.193C418.33 322.381 417.328 322.504 416.309 322.562C415.301 322.621 414.34 322.65 413.426 322.65C411.035 322.65 408.82 322.451 406.781 322.053C404.754 321.666 402.961 321.18 401.402 320.594V314.828C403.008 315.719 404.836 316.416 406.887 316.92C408.949 317.424 411.152 317.676 413.496 317.676C414.879 317.676 416.004 317.605 416.871 317.465C417.75 317.312 418.436 317.125 418.928 316.902C419.42 316.668 419.754 316.416 419.93 316.146C420.105 315.877 420.193 315.619 420.193 315.373C420.193 314.986 420.018 314.652 419.666 314.371C419.314 314.078 418.834 313.826 418.225 313.615C417.615 313.393 416.906 313.193 416.098 313.018C415.289 312.83 414.428 312.648 413.514 312.473C412.611 312.285 411.68 312.086 410.719 311.875C409.758 311.664 408.82 311.418 407.906 311.137C407.004 310.844 406.148 310.51 405.34 310.135C404.531 309.748 403.822 309.297 403.213 308.781C402.604 308.254 402.123 307.65 401.771 306.971C401.42 306.279 401.244 305.482 401.244 304.58C401.244 303.514 401.432 302.594 401.807 301.82C402.182 301.047 402.686 300.391 403.318 299.852C403.963 299.301 404.701 298.855 405.533 298.516C406.377 298.176 407.262 297.912 408.188 297.725C409.113 297.537 410.051 297.408 411 297.338C411.949 297.268 412.852 297.232 413.707 297.232C414.645 297.232 415.605 297.279 416.59 297.373C417.586 297.467 418.564 297.602 419.525 297.777C420.486 297.941 421.412 298.135 422.303 298.357C423.205 298.58 424.037 298.814 424.799 299.061V304.65ZM446.525 303.104V322H440.004V303.104H429.756V297.848H456.791V303.104H446.525ZM479.115 317.43H465.65L463.383 322H456.105L468.744 297.848H476.021L488.66 322H481.383L479.115 317.43ZM467.988 312.719H476.812L472.418 303.824L467.988 312.719ZM504.744 303.104V322H498.223V303.104H487.975V297.848H515.01V303.104H504.744ZM519.334 322V297.848H525.855V322H519.334ZM564.686 309.941C564.686 312.016 564.305 313.85 563.543 315.443C562.781 317.025 561.691 318.35 560.273 319.416C558.855 320.482 557.133 321.291 555.105 321.842C553.09 322.381 550.822 322.65 548.303 322.65C545.783 322.65 543.504 322.381 541.465 321.842C539.438 321.291 537.709 320.482 536.279 319.416C534.85 318.35 533.748 317.025 532.975 315.443C532.201 313.85 531.814 312.016 531.814 309.941C531.814 307.867 532.201 306.039 532.975 304.457C533.748 302.863 534.85 301.533 536.279 300.467C537.709 299.4 539.438 298.598 541.465 298.059C543.504 297.508 545.783 297.232 548.303 297.232C550.822 297.232 553.09 297.508 555.105 298.059C557.133 298.598 558.855 299.4 560.273 300.467C561.691 301.533 562.781 302.863 563.543 304.457C564.305 306.039 564.686 307.867 564.686 309.941ZM558.094 309.941C558.094 309.039 557.947 308.143 557.654 307.252C557.373 306.35 556.863 305.541 556.125 304.826C555.398 304.111 554.402 303.531 553.137 303.086C551.871 302.641 550.26 302.418 548.303 302.418C546.99 302.418 545.836 302.523 544.84 302.734C543.844 302.934 542.982 303.215 542.256 303.578C541.529 303.941 540.92 304.369 540.428 304.861C539.936 305.342 539.543 305.863 539.25 306.426C538.957 306.977 538.746 307.557 538.617 308.166C538.5 308.764 538.441 309.355 538.441 309.941C538.441 310.539 538.5 311.143 538.617 311.752C538.746 312.361 538.957 312.947 539.25 313.51C539.543 314.061 539.936 314.576 540.428 315.057C540.92 315.537 541.529 315.959 542.256 316.322C542.982 316.674 543.844 316.955 544.84 317.166C545.836 317.365 546.99 317.465 548.303 317.465C550.26 317.465 551.871 317.242 553.137 316.797C554.402 316.352 555.398 315.771 556.125 315.057C556.863 314.342 557.373 313.539 557.654 312.648C557.947 311.746 558.094 310.844 558.094 309.941ZM593.443 322L577.148 305.406V322H570.627V297.848H577.711L594.023 314.512V297.848H600.51V322H593.443ZM235.307 351.092C235.307 352.299 235.131 353.412 234.779 354.432C234.428 355.439 233.859 356.312 233.074 357.051C232.301 357.777 231.293 358.346 230.051 358.756C228.809 359.166 227.297 359.371 225.516 359.371H214.688V367H208.166V342.848H225.516C227.297 342.848 228.809 343.053 230.051 343.463C231.293 343.861 232.301 344.43 233.074 345.168C233.859 345.895 234.428 346.762 234.779 347.77C235.131 348.777 235.307 349.885 235.307 351.092ZM228.715 351.197C228.715 350.635 228.633 350.154 228.469 349.756C228.316 349.346 228.059 349.012 227.695 348.754C227.332 348.496 226.857 348.309 226.271 348.191C225.686 348.062 224.965 347.998 224.109 347.998H214.688V354.221H224.109C224.965 354.221 225.686 354.174 226.271 354.08C226.857 353.975 227.332 353.805 227.695 353.57C228.059 353.324 228.316 353.008 228.469 352.621C228.633 352.234 228.715 351.76 228.715 351.197ZM247.242 367H240.721V342.848H257.068C258.826 342.848 260.314 343.029 261.533 343.393C262.764 343.756 263.76 344.271 264.521 344.939C265.295 345.607 265.852 346.416 266.191 347.365C266.543 348.303 266.719 349.352 266.719 350.512C266.719 351.531 266.572 352.422 266.279 353.184C265.998 353.945 265.611 354.602 265.119 355.152C264.639 355.691 264.076 356.148 263.432 356.523C262.787 356.898 262.107 357.209 261.393 357.455L269.303 367H261.674L254.361 358.105H247.242V367ZM260.127 350.477C260.127 350.008 260.062 349.609 259.934 349.281C259.816 348.953 259.605 348.689 259.301 348.49C258.996 348.279 258.586 348.127 258.07 348.033C257.566 347.939 256.934 347.893 256.172 347.893H247.242V353.061H256.172C256.934 353.061 257.566 353.014 258.07 352.92C258.586 352.826 258.996 352.68 259.301 352.48C259.605 352.27 259.816 352 259.934 351.672C260.062 351.344 260.127 350.945 260.127 350.477ZM305.057 354.941C305.057 357.016 304.676 358.85 303.914 360.443C303.152 362.025 302.062 363.35 300.645 364.416C299.227 365.482 297.504 366.291 295.477 366.842C293.461 367.381 291.193 367.65 288.674 367.65C286.154 367.65 283.875 367.381 281.836 366.842C279.809 366.291 278.08 365.482 276.65 364.416C275.221 363.35 274.119 362.025 273.346 360.443C272.572 358.85 272.186 357.016 272.186 354.941C272.186 352.867 272.572 351.039 273.346 349.457C274.119 347.863 275.221 346.533 276.65 345.467C278.08 344.4 279.809 343.598 281.836 343.059C283.875 342.508 286.154 342.232 288.674 342.232C291.193 342.232 293.461 342.508 295.477 343.059C297.504 343.598 299.227 344.4 300.645 345.467C302.062 346.533 303.152 347.863 303.914 349.457C304.676 351.039 305.057 352.867 305.057 354.941ZM298.465 354.941C298.465 354.039 298.318 353.143 298.025 352.252C297.744 351.35 297.234 350.541 296.496 349.826C295.77 349.111 294.773 348.531 293.508 348.086C292.242 347.641 290.631 347.418 288.674 347.418C287.361 347.418 286.207 347.523 285.211 347.734C284.215 347.934 283.354 348.215 282.627 348.578C281.9 348.941 281.291 349.369 280.799 349.861C280.307 350.342 279.914 350.863 279.621 351.426C279.328 351.977 279.117 352.557 278.988 353.166C278.871 353.764 278.812 354.355 278.812 354.941C278.812 355.539 278.871 356.143 278.988 356.752C279.117 357.361 279.328 357.947 279.621 358.51C279.914 359.061 280.307 359.576 280.799 360.057C281.291 360.537 281.9 360.959 282.627 361.322C283.354 361.674 284.215 361.955 285.211 362.166C286.207 362.365 287.361 362.465 288.674 362.465C290.631 362.465 292.242 362.242 293.508 361.797C294.773 361.352 295.77 360.771 296.496 360.057C297.234 359.342 297.744 358.539 298.025 357.648C298.318 356.746 298.465 355.844 298.465 354.941ZM328.488 358.07C328.488 359.676 328.225 361.059 327.697 362.219C327.182 363.379 326.42 364.334 325.412 365.084C324.416 365.834 323.191 366.391 321.738 366.754C320.285 367.105 318.627 367.281 316.764 367.281C315.885 367.281 314.982 367.234 314.057 367.141C313.131 367.059 312.24 366.953 311.385 366.824C310.529 366.695 309.738 366.561 309.012 366.42C308.297 366.268 307.699 366.127 307.219 365.998V360.338C307.711 360.537 308.25 360.742 308.836 360.953C309.422 361.152 310.072 361.334 310.787 361.498C311.514 361.662 312.311 361.797 313.178 361.902C314.057 362.008 315.023 362.061 316.078 362.061C317.215 362.061 318.158 361.938 318.908 361.691C319.67 361.434 320.279 361.082 320.736 360.637C321.193 360.18 321.516 359.646 321.703 359.037C321.891 358.428 321.984 357.76 321.984 357.033V342.848H328.488V358.07ZM335.889 367V342.848H360.34V347.998H342.586V351.988H359.426V357.139H342.586V361.85H360.586V367H335.889ZM393.51 365.348C392.666 365.699 391.816 366.016 390.961 366.297C390.105 366.578 389.221 366.818 388.307 367.018C387.393 367.229 386.426 367.387 385.406 367.492C384.398 367.598 383.314 367.65 382.154 367.65C379.693 367.65 377.426 367.387 375.352 366.859C373.289 366.332 371.508 365.541 370.008 364.486C368.52 363.42 367.359 362.096 366.527 360.514C365.695 358.92 365.279 357.062 365.279 354.941C365.279 352.82 365.695 350.969 366.527 349.387C367.359 347.793 368.52 346.469 370.008 345.414C371.508 344.348 373.289 343.551 375.352 343.023C377.426 342.496 379.693 342.232 382.154 342.232C383.314 342.232 384.398 342.285 385.406 342.391C386.426 342.496 387.393 342.654 388.307 342.865C389.221 343.064 390.105 343.305 390.961 343.586C391.816 343.867 392.666 344.184 393.51 344.535V350.406C392.842 350.043 392.139 349.686 391.4 349.334C390.662 348.971 389.848 348.648 388.957 348.367C388.066 348.074 387.088 347.84 386.021 347.664C384.955 347.477 383.754 347.383 382.418 347.383C380.367 347.383 378.662 347.594 377.303 348.016C375.955 348.438 374.877 349 374.068 349.703C373.26 350.406 372.691 351.215 372.363 352.129C372.035 353.031 371.871 353.969 371.871 354.941C371.871 355.586 371.941 356.225 372.082 356.857C372.223 357.479 372.457 358.07 372.785 358.633C373.113 359.184 373.541 359.693 374.068 360.162C374.596 360.631 375.252 361.035 376.037 361.375C376.822 361.715 377.736 361.984 378.779 362.184C379.834 362.371 381.047 362.465 382.418 362.465C383.754 362.465 384.955 362.383 386.021 362.219C387.088 362.043 388.066 361.814 388.957 361.533C389.848 361.252 390.662 360.936 391.4 360.584C392.139 360.221 392.842 359.852 393.51 359.477V365.348ZM413.127 348.104V367H406.605V348.104H396.357V342.848H423.393V348.104H413.127ZM449.971 349.65C449.514 349.428 448.91 349.176 448.16 348.895C447.41 348.613 446.561 348.35 445.611 348.104C444.662 347.846 443.631 347.635 442.518 347.471C441.404 347.295 440.262 347.207 439.09 347.207C438.152 347.207 437.35 347.236 436.682 347.295C436.025 347.354 435.469 347.43 435.012 347.523C434.566 347.617 434.209 347.729 433.939 347.857C433.682 347.975 433.482 348.098 433.342 348.227C433.201 348.355 433.107 348.484 433.061 348.613C433.025 348.742 433.008 348.859 433.008 348.965C433.008 349.316 433.184 349.627 433.535 349.896C433.887 350.154 434.367 350.389 434.977 350.6C435.586 350.799 436.295 350.992 437.104 351.18C437.912 351.355 438.768 351.543 439.67 351.742C440.584 351.93 441.521 352.141 442.482 352.375C443.455 352.598 444.393 352.861 445.295 353.166C446.209 353.471 447.07 353.828 447.879 354.238C448.688 354.637 449.396 355.105 450.006 355.645C450.615 356.184 451.096 356.805 451.447 357.508C451.799 358.211 451.975 359.014 451.975 359.916C451.975 361.076 451.77 362.072 451.359 362.904C450.949 363.736 450.398 364.439 449.707 365.014C449.027 365.588 448.236 366.051 447.334 366.402C446.432 366.742 445.482 367.006 444.486 367.193C443.502 367.381 442.5 367.504 441.48 367.562C440.473 367.621 439.512 367.65 438.598 367.65C436.207 367.65 433.992 367.451 431.953 367.053C429.926 366.666 428.133 366.18 426.574 365.594V359.828C428.18 360.719 430.008 361.416 432.059 361.92C434.121 362.424 436.324 362.676 438.668 362.676C440.051 362.676 441.176 362.605 442.043 362.465C442.922 362.312 443.607 362.125 444.1 361.902C444.592 361.668 444.926 361.416 445.102 361.146C445.277 360.877 445.365 360.619 445.365 360.373C445.365 359.986 445.189 359.652 444.838 359.371C444.486 359.078 444.006 358.826 443.396 358.615C442.787 358.393 442.078 358.193 441.27 358.018C440.461 357.83 439.6 357.648 438.686 357.473C437.783 357.285 436.852 357.086 435.891 356.875C434.93 356.664 433.992 356.418 433.078 356.137C432.176 355.844 431.32 355.51 430.512 355.135C429.703 354.748 428.994 354.297 428.385 353.781C427.775 353.254 427.295 352.65 426.943 351.971C426.592 351.279 426.416 350.482 426.416 349.58C426.416 348.514 426.604 347.594 426.979 346.82C427.354 346.047 427.857 345.391 428.49 344.852C429.135 344.301 429.873 343.855 430.705 343.516C431.549 343.176 432.434 342.912 433.359 342.725C434.285 342.537 435.223 342.408 436.172 342.338C437.121 342.268 438.023 342.232 438.879 342.232C439.816 342.232 440.777 342.279 441.762 342.373C442.758 342.467 443.736 342.602 444.697 342.777C445.658 342.941 446.584 343.135 447.475 343.357C448.377 343.58 449.209 343.814 449.971 344.061V349.65Z" fill="url(#paint4_linear_231_760)"/>
<defs>
<filter id="filter0_b_231_760" x="-20" y="144" width="187.637" height="292.685" filterUnits="userSpaceOnUse" color-interpolation-filters="sRGB">
<feFlood flood-opacity="0" result="BackgroundImageFix"/>
<feGaussianBlur in="BackgroundImageFix" stdDeviation="10"/>
<feComposite in2="SourceAlpha" operator="in" result="effect1_backgroundBlur_231_760"/>
<feBlend mode="normal" in="SourceGraphic" in2="effect1_backgroundBlur_231_760" result="shape"/>
</filter>
<filter id="filter1_b_231_760" x="33.6133" y="358.129" width="271.387" height="240.397" filterUnits="userSpaceOnUse" color-interpolation-filters="sRGB">
<feFlood flood-opacity="0" result="BackgroundImageFix"/>
<feGaussianBlur in="BackgroundImageFix" stdDeviation="10"/>
<feComposite in2="SourceAlpha" operator="in" result="effect1_backgroundBlur_231_760"/>
<feBlend mode="normal" in="SourceGraphic" in2="effect1_backgroundBlur_231_760" result="shape"/>
</filter>
<linearGradient id="paint0_linear_231_760" x1="324.287" y1="223.014" x2="53.9602" y2="-58.9758" gradientUnits="userSpaceOnUse">
<stop stop-color="#28F17C"/>
<stop offset="1" stop-color="#ECFF38"/>
</linearGradient>
<linearGradient id="paint1_linear_231_760" x1="324.287" y1="223.014" x2="53.9602" y2="-58.9758" gradientUnits="userSpaceOnUse">
<stop stop-color="#28F17C"/>
<stop offset="1" stop-color="#ECFF38"/>
</linearGradient>
<linearGradient id="paint2_linear_231_760" x1="179.231" y1="261.978" x2="211.336" y2="275.741" gradientUnits="userSpaceOnUse">
<stop stop-color="#DAFF17"/>
<stop offset="0.489583" stop-color="#FFAF2E"/>
<stop offset="1" stop-color="#E400FF"/>
</linearGradient>
<linearGradient id="paint3_linear_231_760" x1="179.231" y1="261.978" x2="211.336" y2="275.741" gradientUnits="userSpaceOnUse">
<stop stop-color="#DAFF17"/>
<stop offset="0.489583" stop-color="#FFAF2E"/>
<stop offset="1" stop-color="#E400FF"/>
</linearGradient>
<linearGradient id="paint4_linear_231_760" x1="181.719" y1="160.667" x2="313.581" y2="521.675" gradientUnits="userSpaceOnUse">
<stop stop-color="#DAFF17"/>
<stop offset="0.489583" stop-color="#FFAF2E"/>
<stop offset="1" stop-color="#E400FF"/>
</linearGradient>
<clipPath id="clip0_231_760">
<rect width="285" height="579" fill="white" transform="translate(285 579) rotate(180)"/>
</clipPath>
</defs>
</svg>
